<?xml version="1.0" encoding="UTF-8" standalone="no"?>
<!-- Created with Inkscape (http://www.inkscape.org/) -->

<svg
   xmlns:dc="http://purl.org/dc/elements/1.1/"
   xmlns:cc="http://creativecommons.org/ns#"
   xmlns:rdf="http://www.w3.org/1999/02/22-rdf-syntax-ns#"
   xmlns:svg="http://www.w3.org/2000/svg"
   xmlns="http://www.w3.org/2000/svg"
   version="1.1"
   width="1024"
   height="768"
   viewBox="0 0 1024 768"
   id="Drawing"
   xml:space="preserve"><metadata
   id="metadata119"><rdf:RDF><cc:Work
       rdf:about=""><dc:format>image/svg+xml</dc:format><dc:type
         rdf:resource="http://purl.org/dc/dcmitype/StillImage" /><dc:title></dc:title></cc:Work></rdf:RDF></metadata><defs
   id="defs117" />
<g
   id="g3">
	<path
   d="M 908.054,302.568 C 858.785,224.499 689.334,183.5 512,183.5 h 0.5 c -177.333,0 -328.997,38.462 -383.455,98.083"
   id="path5"
   style="fill:none;stroke:#404040;stroke-width:3" />
	<path
   d="M 570.17,185.103 C 589.107,181.256 597,171.167 597,160 c 0,-31 -58,-46 -85,-46 -27,0 -85,15 -85,46 0,11.167 7.892,21.256 26.831,25.103"
   id="path7"
   style="fill:none;stroke:#404040;stroke-width:3" />
</g>
<line
   fill="none"
   stroke="#404040"
   stroke-width="6"
   x1="297"
   y1="426"
   x2="717"
   y2="426"
   id="line9"
   style="fill:none;stroke:#404040;stroke-width:6" />
<g
   id="g11">
	<path
   d="m 265,499.834 c 0,58 31.068,56.23 68.169,62 60,9.331 86.667,4 120,-24.667 33.333,-28.667 43.333,-32.667 58.667,-32.667 15.334,0 63.334,21.334 94.667,41.334 31.333,20 69.331,43 97.665,23.334 33.877,-23.513 19.333,-49.334 32.409,-65.868 12.867,-16.27 32.909,-13.471 61.258,-10.133 31.952,3.763 49.591,-9.025 60.951,-57.334 C 874.503,369 874.812,309.266 798.46,309.266 c -51.291,0 -51.958,28.516 -51.958,65.234 0,36.763 18.999,61.5 -61.333,61.5 -22,0 -297.333,0 -318.667,0 C 289.834,436 265,455.835 265,499.834 z"
   id="path13"
   style="fill:none;stroke:#404040;stroke-width:3" />
	<path
   d="M 728.273,533.064 C 737.167,487.501 689.833,436 660,436"
   id="path15"
   style="fill:none;stroke:#404040;stroke-width:3" />
	<path
   d="m 784.747,491.671 c -44.914,-5.17 -31.719,-44.14 -36.316,-87.821"
   id="path17"
   style="fill:none;stroke:#404040;stroke-width:3" />
</g>
<path
   d="M 512,114 C 445.867,114 365.067,133.99 281.335,180.505 219.512,214.848 80,264.5 80,414 c 0,119.163 109.163,210 256,210 13.261,0 334.654,0 352,0 C 846.495,624 940,522.498 940,414 940,281.163 839.524,234.628 752.381,185.285 658.697,132.239 578.467,114 512,114 z"
   id="path19"
   style="fill:none;stroke:#000000;stroke-width:12" />
<g
   id="g21">
	<rect
   width="12"
   height="84"
   x="506"
   y="87"
   id="rect23"
   style="fill:#ffffff;stroke:#000000;stroke-width:0.5" />
	<line
   fill="none"
   stroke="#000000"
   stroke-width="6"
   stroke-dasharray="6"
   x1="509"
   y1="87"
   x2="509"
   y2="171"
   id="line25"
   style="fill:none;stroke:#000000;stroke-width:6;stroke-dasharray:6" />
	<line
   fill="none"
   stroke="#000000"
   stroke-width="6"
   stroke-dasharray="6"
   x1="515"
   y1="93"
   x2="515"
   y2="171"
   id="line27"
   style="fill:none;stroke:#000000;stroke-width:6;stroke-dasharray:6" />
</g>
<g
   id="g29">
	<text
   transform="translate(858.7852,692.168)"
   id="text31"
   style="font-size:72px;font-style:normal;font-variant:normal;font-weight:normal;font-stretch:normal;text-align:start;line-height:125%;writing-mode:lr-tb;text-anchor:start;font-family:LiberationSerif;-inkscape-font-specification:Serif">N</text>

	<g
   id="g33">
		<path
   d="m 956.877,589.789 -25.367,56.856 -3.79,-22.108 -22.412,0.122 51.569,-34.87 z"
   id="path35"
   style="fill:#ff0000" />
	</g>
</g>
<g
   id="g37">
	<g
   id="g39">
		<line
   fill="none"
   stroke="#404040"
   stroke-width="12"
   x1="40"
   y1="690"
   x2="130"
   y2="690"
   id="line41"
   style="fill:none;stroke:#404040;stroke-width:12" />
		<line
   fill="none"
   stroke="#FFFFFF"
   stroke-width="12"
   x1="130"
   y1="690"
   x2="220"
   y2="690"
   id="line43"
   style="fill:none;stroke:#ffffff;stroke-width:12" />
		<line
   fill="none"
   stroke="#404040"
   stroke-width="12"
   x1="40"
   y1="678"
   x2="94.862999"
   y2="678"
   id="line45"
   style="fill:none;stroke:#404040;stroke-width:12" />
		<line
   fill="none"
   stroke="#404040"
   stroke-width="12"
   x1="149.72701"
   y1="678"
   x2="204.59"
   y2="678"
   id="line47"
   style="fill:none;stroke:#404040;stroke-width:12" />
		<line
   fill="none"
   stroke="#FFFFFF"
   stroke-width="12"
   x1="94.862999"
   y1="678"
   x2="149.726"
   y2="678"
   id="line49"
   style="fill:none;stroke:#ffffff;stroke-width:12" />
		<line
   fill="none"
   stroke="#FFFFFF"
   stroke-width="12"
   x1="204.59"
   y1="678"
   x2="259.453"
   y2="678"
   id="line51"
   style="fill:none;stroke:#ffffff;stroke-width:12" />
		<line
   fill="none"
   stroke="#404040"
   stroke-width="12"
   x1="259.45401"
   y1="678"
   x2="314.31699"
   y2="678"
   id="line53"
   style="fill:none;stroke:#404040;stroke-width:12" />
		<line
   fill="none"
   stroke="#404040"
   stroke-width="12"
   x1="220"
   y1="690"
   x2="310"
   y2="690"
   id="line55"
   style="fill:none;stroke:#404040;stroke-width:12" />
		<line
   fill="none"
   stroke="#404040"
   x1="40"
   y1="684"
   x2="310"
   y2="684"
   id="line57"
   style="fill:none;stroke:#404040" />
		<line
   fill="none"
   stroke="#000000"
   x1="40"
   y1="696"
   x2="310"
   y2="696"
   id="line59"
   style="fill:none;stroke:#000000" />
		<line
   fill="none"
   stroke="#000000"
   x1="40"
   y1="672"
   x2="314.31699"
   y2="672"
   id="line61"
   style="fill:none;stroke:#000000" />
	</g>
	<g
   id="g63">
		<text
   transform="translate(39.0347,643.7227)"
   id="text65"><tspan
     x="0"
     y="0"
     id="tspan67"
     style="font-size:24px;font-family:LiberationSans">FEET </tspan><tspan
     x="0"
     y="96"
     id="tspan69"
     style="font-size:24px;font-family:LiberationSans">METERS</tspan></text>

		<g
   id="g71">
			<text
   transform="matrix(0.9908,0,0,1,36.5527,663.542)"
   id="text73"
   style="font-size:18px;font-family:LiberationSans">0</text>

			<text
   transform="matrix(0.9908,0,0,1,80.8872,663.542)"
   id="text75"
   style="font-size:18px;font-family:LiberationSans">200</text>

			<text
   transform="matrix(0.9908,0,0,1,135.1411,663.542)"
   id="text77"
   style="font-size:18px;font-family:LiberationSans">400</text>

			<text
   transform="matrix(0.9908,0,0,1,189.3955,663.542)"
   id="text79"
   style="font-size:18px;font-family:LiberationSans">600</text>

			<text
   transform="matrix(0.9908,0,0,1,243.6489,663.542)"
   id="text81"
   style="font-size:18px;font-family:LiberationSans">800</text>

			<text
   transform="matrix(0.9908,0,0,1,292.9438,663.542)"
   id="text83"
   style="font-size:18px;font-family:LiberationSans">1000</text>

		</g>
		<g
   id="g85">
			<text
   transform="translate(36.5068,714.542)"
   id="text87"
   style="font-size:18px;font-family:LiberationSans">0</text>

			<text
   transform="translate(115.4961,714.542)"
   id="text89"
   style="font-size:18px;font-family:LiberationSans">100</text>

			<text
   transform="translate(204.4961,714.542)"
   id="text91"
   style="font-size:18px;font-family:LiberationSans">200</text>

			<text
   transform="translate(293.4961,714.542)"
   id="text93"
   style="font-size:18px;font-family:LiberationSans">300</text>

		</g>
	</g>
</g>
<g
   id="g95">
	
		<line
   fill="none"
   stroke="#FF0000"
   stroke-width="2.4"
   stroke-linecap="round"
   stroke-linejoin="round"
   x1="539"
   y1="72"
   x2="504.565"
   y2="72"
   id="line97"
   style="fill:none;stroke:#ff0000;stroke-width:2.4000001;stroke-linecap:round;stroke-linejoin:round" />
	<g
   id="g99">
		<path
   d="m 508.874,72 5.259,8.646 -0.295,0.197 -14.101,-5.602 C 494.825,74.161 489.912,73.08 485,72 c 4.913,-1.083 9.825,-2.161 14.737,-3.244 l 14.101,-5.599 0.295,0.145 -5.259,8.698 z"
   id="path101"
   style="fill:#ff0000" />
	</g>
</g>
<text
   transform="translate(39.9995,63.7148)"
   id="text103"
   style="font-size:48px;font-style:normal;font-variant:normal;font-weight:normal;font-stretch:normal;text-align:start;line-height:125%;writing-mode:lr-tb;text-anchor:start;font-family:LiberationSerif;-inkscape-font-specification:Serif"><tspan
     x="0"
     y="0"
     id="tspan105"
     style="font-size:48px;font-style:normal;font-variant:normal;font-weight:normal;font-stretch:normal;text-align:start;line-height:125%;writing-mode:lr-tb;text-anchor:start;font-family:LiberationSerif;-inkscape-font-specification:Serif">Las Vegas </tspan><tspan
     x="0"
     y="54"
     id="tspan107"
     style="font-size:48px;font-style:normal;font-variant:normal;font-weight:normal;font-stretch:normal;text-align:start;line-height:125%;writing-mode:lr-tb;text-anchor:start;font-family:LiberationSerif;-inkscape-font-specification:Serif">Motor Speedway</tspan></text>

<text
   transform="translate(480,686.2969)"
   id="text109"><tspan
     x="0"
     y="0"
     id="tspan111"
     style="font-size:32px;font-family:LiberationSans">Circuit length: </tspan><tspan
     x="0"
     y="36"
     id="tspan113"
     style="font-size:32px;font-family:LiberationSans">1½ mi. (2.41 km)</tspan></text>

</svg>