<?xml version="1.0" encoding="UTF-8" standalone="no"?>
<!-- Created with Inkscape (http://www.inkscape.org/) -->

<svg
   xmlns:dc="http://purl.org/dc/elements/1.1/"
   xmlns:cc="http://creativecommons.org/ns#"
   xmlns:rdf="http://www.w3.org/1999/02/22-rdf-syntax-ns#"
   xmlns:svg="http://www.w3.org/2000/svg"
   xmlns="http://www.w3.org/2000/svg"
   xmlns:sodipodi="http://sodipodi.sourceforge.net/DTD/sodipodi-0.dtd"
   xmlns:inkscape="http://www.inkscape.org/namespaces/inkscape"
   width="276.87036"
   height="100.08411"
   viewBox="0 0 73.255286 26.480586"
   preserveAspectRatio="none"
   version="1.1"
   id="svg12362"
   inkscape:version="0.92.0 r15299"
   sodipodi:docname="watkins glen.svg">
  <defs
     id="defs12356" />
  <sodipodi:namedview
     id="base"
     pagecolor="#ffffff"
     bordercolor="#666666"
     borderopacity="1.0"
     inkscape:pageopacity="0.0"
     inkscape:pageshadow="2"
     inkscape:zoom="2.4222359"
     inkscape:cx="158.89294"
     inkscape:cy="110.02232"
     inkscape:document-units="mm"
     inkscape:current-layer="layer1"
     showgrid="false"
     fit-margin-top="0"
     fit-margin-left="0"
     fit-margin-right="0"
     fit-margin-bottom="0"
     units="px"
     inkscape:window-width="1280"
     inkscape:window-height="744"
     inkscape:window-x="-4"
     inkscape:window-y="-4"
     inkscape:window-maximized="1" />
  <metadata
     id="metadata12359">
    <rdf:RDF>
      <cc:Work
         rdf:about="">
        <dc:format>image/svg+xml</dc:format>
        <dc:type
           rdf:resource="http://purl.org/dc/dcmitype/StillImage" />
        <dc:title></dc:title>
      </cc:Work>
    </rdf:RDF>
  </metadata>
  <g
     inkscape:label="Layer 1"
     inkscape:groupmode="layer"
     id="layer1"
     transform="translate(23.889841,-135.32846)">
    <g
       id="g12513"
       transform="translate(0.26458724,-0.26457742)">
      <path
         d="m 8.9117536,142.85253 3.4682994,-0.60378 c -2.302792,-1.02499 -5.0831043,-1.89561 -7.3858965,-1.89561 -0.308998,0.014 -0.6599766,0.014 -0.9548989,0.0421 1.7974028,0.58977 3.2998127,1.44628 4.872496,2.45727"
         style="fill:#231f20;fill-opacity:1;fill-rule:evenodd;stroke:none;stroke-width:0.35277778"
         id="path3624"
         inkscape:connector-curvature="0" />
      <path
         d="m 7.7462817,140.21273 c 0.084279,-0.0562 1.1514667,-0.11239 1.7130889,-0.14037 3.6508974,-0.1966 6.9647854,-0.0562 10.6858854,0.74418 -1.235675,0.22462 -2.681993,0.6319 -3.917703,0.71611 -0.04209,0 -2.97688,-0.99702 -8.4812713,-1.31992"
         style="fill:#231f20;fill-opacity:1;fill-rule:evenodd;stroke:none;stroke-width:0.35277778"
         id="path3626"
         inkscape:connector-curvature="0" />
      <path
         d="m 21.423053,148.09015 c -1.502481,-1.37611 -3.159372,-2.58371 -4.872496,-3.6649 l -4.423199,1.05318 c 1.446319,1.31992 2.71011,2.93473 3.678908,4.63381 z"
         style="fill:#231f20;fill-opacity:1;fill-rule:evenodd;stroke:none;stroke-width:0.35277778"
         id="path3628"
         inkscape:connector-curvature="0" />
      <path
         d="m 27.053774,146.06814 c -1.839525,-1.13739 -3.693019,-2.07818 -5.560519,-2.83641 v 0 l 4.984821,-1.20759 c 2.148381,0.53361 4.2406,1.2216 6.262687,2.0501 z"
         style="fill:#231f20;fill-opacity:1;fill-rule:evenodd;stroke:none;stroke-width:0.35277778"
         id="path3630"
         inkscape:connector-curvature="0" />
      <path
         d="m 12.366083,142.23475 3.889587,-0.7021 c 0.393206,-0.0702 4.423092,1.27779 5.293712,1.69908 l -5.026907,1.2216 c -1.376115,-0.91267 -2.864626,-1.61477 -4.156392,-2.21858"
         style="fill:#231f20;fill-opacity:1;fill-rule:evenodd;stroke:none;stroke-width:0.35277778"
         id="path3632"
         inkscape:connector-curvature="0" />
      <path
         d="m 3.6601626,136.05634 c 1.23571,0 2.6117903,0.0421 3.7631864,0.2668 1.9658188,0.36509 4.310803,1.36211 5.448229,2.48539 l -2.9909202,0.5757 c -0.9689042,-1.75517 -3.9737946,-3.07509 -6.2204952,-3.32789"
         style="fill:#231f20;fill-opacity:1;fill-rule:evenodd;stroke:none;stroke-width:0.35277778"
         id="path3634"
         inkscape:connector-curvature="0" />
      <path
         d="m 7.2829787,135.85973 c 2.7942823,-0.0561 6.5575033,1.01103 8.2424763,2.38711 l -1.811373,0.35112 c -2.204508,-1.65703 -3.594699,-2.30293 -6.4311033,-2.73823"
         style="fill:#009ddc;fill-opacity:1;fill-rule:evenodd;stroke:none;stroke-width:0.35277778"
         id="path3636"
         inkscape:connector-curvature="0" />
      <path
         d="m 32.895174,142.96493 c 0,0 -10.250523,-3.6509 -19.756825,-3.3279 0,0 6.992831,-2.19057 18.802032,0.71611 z"
         style="fill:#009ddc;fill-opacity:1;fill-rule:evenodd;stroke:none;stroke-width:0.35277778"
         id="path3638"
         inkscape:connector-curvature="0" />
      <path
         d="m -22.036347,148.79225 0.449298,6.89448 3.033113,-6.89448 h 2.035986 l 0.393206,6.89448 3.215605,-6.89448 h 1.769216 l -4.409123,8.97269 h -2.106294 l -0.350979,-6.69791 -2.920718,6.69791 h -2.106295 l -0.856509,-8.97269 z"
         style="fill:#ee2e24;fill-opacity:1;fill-rule:evenodd;stroke:none;stroke-width:0.35277778"
         id="path3640"
         inkscape:connector-curvature="0" />
      <path
         d="m -8.1490379,151.17936 c 1.6429213,0 2.302898,0.8425 1.9658894,2.45727 l -0.870585,4.12831 H -11.32245 c -1.193589,0 -1.713089,-0.68799 -1.460394,-1.89558 0.323003,-1.53063 1.165507,-2.10633 2.8365092,-2.10633 h 2.0921838 c 0.014005,-0.0561 0.014005,-0.11229 0.028116,-0.15438 0.1824919,-0.8425 -0.2106083,-1.06722 -1.2215989,-1.06722 H -11.68754 l 0.280811,-1.36207 z m -0.2526947,5.2657 0.2808111,-1.36211 h -1.8674997 c -0.6741228,0 -1.0110968,0.14051 -1.1374258,0.73018 -0.112395,0.54772 0.154411,0.63193 0.730109,0.63193 z"
         style="fill:#ee2e24;fill-opacity:1;fill-rule:evenodd;stroke:none;stroke-width:0.35277778"
         id="path3642"
         inkscape:connector-curvature="0" />
      <path
         d="m -3.9926455,151.17936 0.5054952,-2.38711 h 1.5867239 l -0.5054953,2.38711 h 1.6849725 l -0.2807758,1.30587 h -1.6710025 l -0.5616222,2.66803 c -0.1825978,0.91267 -0.042192,1.2918 0.7582253,1.2918 h 0.6599766 l -0.2808816,1.31988 h -1.4463183 c -1.1513961,0 -1.6708967,-0.7161 -1.3900856,-2.0641 l 0.673982,-3.21561 H -5.382731 l 0.2808111,-1.30587 z"
         style="fill:#ee2e24;fill-opacity:1;fill-rule:evenodd;stroke:none;stroke-width:0.35277778"
         id="path3644"
         inkscape:connector-curvature="0" />
      <path
         d="m 2.3402799,148.79225 -1.1515019,5.54648 3.2156046,-3.15937 h 2.0079758 l -3.4542941,3.21557 2.0782139,3.37001 H 2.9018668 L 1.132651,154.56345 0.47267438,157.76494 H -1.1140495 l 1.86749971,-8.97269 z"
         style="fill:#ee2e24;fill-opacity:1;fill-rule:evenodd;stroke:none;stroke-width:0.35277778"
         id="path3646"
         inkscape:connector-curvature="0" />
      <path
         d="m 5.7102601,157.76494 1.3761155,-6.58558 H 8.743267 l -1.3761155,6.58558 z"
         style="fill:#ee2e24;fill-opacity:1;fill-rule:evenodd;stroke:none;stroke-width:0.35277778"
         id="path3648"
         inkscape:connector-curvature="0" />
      <path
         d="m 7.2127759,150.57554 0.2526947,-1.2216 h 1.6710025 l -0.2528006,1.2216 z"
         style="fill:#ee2e24;fill-opacity:1;fill-rule:evenodd;stroke:none;stroke-width:0.35277778"
         id="path3650"
         inkscape:connector-curvature="0" />
      <path
         d="m 13.096262,151.17936 c 1.783292,0 2.372995,0.65997 2.008012,2.41518 l -0.856615,4.1704 H 12.66097 l 0.814387,-3.95979 c 0.196603,-0.9127 0.09832,-1.17951 -0.800382,-1.17951 h -1.277796 l -1.067223,5.1393 H 8.743267 l 1.376116,-6.58558 z"
         style="fill:#ee2e24;fill-opacity:1;fill-rule:evenodd;stroke:none;stroke-width:0.35277778"
         id="path3652"
         inkscape:connector-curvature="0" />
      <path
         d="m 19.120155,156.38883 c 0.575698,0 0.898701,-0.1825 0.99702,-0.63179 0.09828,-0.46341 -0.154517,-0.65998 -0.730215,-0.65998 h -1.36211 c -1.460288,0 -2.00787,-0.323 -1.684972,-1.85353 0.294887,-1.4182 1.095304,-2.06417 2.541587,-2.06417 h 3.412208 l -0.280917,1.37608 h -2.808288 c -0.716209,0 -1.109309,0.0422 -1.221704,0.60381 -0.08421,0.40718 0.1264,0.5757 0.631895,0.5757 h 1.432313 c 1.333888,0 1.881576,0.7021 1.614805,1.96589 -0.2528,1.23571 -1.123421,2.0641 -2.064208,2.0641 h -4.100195 l 0.280881,-1.37611 z"
         style="fill:#ee2e24;fill-opacity:1;fill-rule:evenodd;stroke:none;stroke-width:0.35277778"
         id="path3654"
         inkscape:connector-curvature="0" />
      <path
         d="m 29.146063,152.44315 h 4.072114 l -1.109309,5.32179 h -3.707095 c -0.996915,0 -1.769216,-0.0702 -2.443198,-0.7863 -0.688093,-0.74419 -0.856615,-1.9097 -0.519606,-3.53851 0.660012,-3.17348 2.204579,-4.64788 4.830409,-4.64788 h 3.706989 l -0.322897,1.5446 h -3.707095 c -1.390121,0 -2.148416,0.96891 -2.569598,3.019 -0.393206,1.9097 -0.02812,2.78028 1.362005,2.78028 h 1.937773 l 0.435327,-2.10629 h -2.302827 z"
         style="fill:#ee2e24;fill-opacity:1;fill-rule:evenodd;stroke:none;stroke-width:0.35277778"
         id="path3656"
         inkscape:connector-curvature="0" />
      <path
         d="m 33.330466,157.76494 1.881611,-8.97269 h 1.642886 l -1.867605,8.97269 z"
         style="fill:#ee2e24;fill-opacity:1;fill-rule:evenodd;stroke:none;stroke-width:0.35277778"
         id="path3658"
         inkscape:connector-curvature="0" />
      <path
         d="m 36.686477,154.47924 c 0.449297,-2.14838 1.713088,-3.29988 3.7211,-3.29988 h 2.316903 l -0.294922,1.37608 h -2.092184 c -1.025102,0 -1.488511,0.18259 -1.741205,1.23571 h 3.580588 l -0.294781,1.37608 h -3.580694 c -0.182528,1.08123 0.196567,1.2216 1.221598,1.2216 h 2.106295 l -0.280811,1.37611 h -2.316903 c -1.994006,0 -2.794282,-1.12331 -2.344984,-3.2857"
         style="fill:#ee2e24;fill-opacity:1;fill-rule:evenodd;stroke:none;stroke-width:0.35277778"
         id="path3660"
         inkscape:connector-curvature="0" />
      <path
         d="m 46.726356,151.17936 c 1.769321,0 2.3731,0.65997 2.008011,2.41518 l -0.870585,4.1704 h -1.586724 l 0.828393,-3.95979 c 0.182597,-0.9127 0.08431,-1.17951 -0.814388,-1.17951 h -1.277796 l -1.067188,5.1393 h -1.586724 l 1.376115,-6.58558 z"
         style="fill:#ee2e24;fill-opacity:1;fill-rule:evenodd;stroke:none;stroke-width:0.35277778"
         id="path3662"
         inkscape:connector-curvature="0" />
      <path
         d="m -22.738445,161.75285 0.491525,-2.28879 h 0.505496 l -0.491526,2.28879 z"
         style="fill:#231f20;fill-opacity:1;fill-rule:evenodd;stroke:none;stroke-width:0.35277778"
         id="path3664"
         inkscape:connector-curvature="0" />
      <path
         d="m -18.090633,161.75285 0.49149,-2.28879 h 0.519501 l 0.617925,1.62878 h 0.01397 l 0.323003,-1.62878 h 0.463409 l -0.49149,2.28879 h -0.505495 l -0.61782,-1.6008 h -0.01411 l -0.322897,1.6008 z"
         style="fill:#231f20;fill-opacity:1;fill-rule:evenodd;stroke:none;stroke-width:0.35277778"
         id="path3666"
         inkscape:connector-curvature="0" />
      <path
         d="m -11.490937,161.75285 0.379095,-1.86761 h -0.716104 l 0.09832,-0.42118 h 1.9096914 l -0.098284,0.42118 h -0.6881284 l -0.379095,1.86761 z"
         style="fill:#231f20;fill-opacity:1;fill-rule:evenodd;stroke:none;stroke-width:0.35277778"
         id="path3668"
         inkscape:connector-curvature="0" />
      <path
         d="m -6.3516352,161.75285 0.4774142,-2.28879 h 1.7551752 l -0.084173,0.42118 H -5.452934 l -0.098284,0.49149 h 1.1513961 l -0.084314,0.39321 H -5.635532 l -0.1264003,0.56169 h 1.2637911 l -0.084279,0.42122 z"
         style="fill:#231f20;fill-opacity:1;fill-rule:evenodd;stroke:none;stroke-width:0.35277778"
         id="path3670"
         inkscape:connector-curvature="0" />
      <path
         d="m -0.51023504,161.75285 0.47741416,-2.28879 H 1.0624483 c 0.2106083,0 0.3791302,0.0421 0.4914194,0.1264 0.1264003,0.0983 0.1825978,0.2527 0.196603,0.47738 -0.014005,0.15441 -0.056197,0.29489 -0.1545166,0.40721 -0.098284,0.11229 -0.2245783,0.18249 -0.379095,0.1966 v 0.014 c 0.098319,0.0281 0.1545167,0.0843 0.196603,0.15448 0.028116,0.0702 0.042086,0.15441 0.042086,0.2527 0,0.0422 0,0.11239 0,0.18259 -0.01397,0.0702 -0.01397,0.14041 -0.01397,0.21061 0,0.11229 0.01397,0.1966 0.028081,0.26681 H 0.97816965 c -0.0140053,-0.0562 -0.0140053,-0.11229 -0.0140053,-0.15452 0,-0.0842 0,-0.15438 0.0140053,-0.23869 0,-0.0702 0,-0.15441 0.0140053,-0.22461 -0.0140053,-0.1124 -0.0421217,-0.1826 -0.0983192,-0.22469 -0.0560917,-0.0421 -0.14040555,-0.0562 -0.23868944,-0.0562 H 0.17775217 l -0.18249194,0.8987 z m 0.89859554,-1.89562 -0.12629444,0.6459 H 0.7253691 c 0.0843139,0 0.16848666,-0.0141 0.25280055,-0.0421 0.0702028,-0.0281 0.14040555,-0.0702 0.18249195,-0.1124 0.056197,-0.0561 0.084314,-0.1264 0.084314,-0.21061 0,-0.1264 -0.042122,-0.1966 -0.1123245,-0.23869 -0.070203,-0.0281 -0.15448135,-0.0421 -0.26677051,-0.0421 z"
         style="fill:#231f20;fill-opacity:1;fill-rule:evenodd;stroke:none;stroke-width:0.35277778"
         id="path3672"
         inkscape:connector-curvature="0" />
      <path
         d="m 5.4996518,161.75285 0.4914194,-2.28879 h 0.5196064 l 0.6177844,1.62878 v 0 l 0.3370086,-1.62878 h 0.4634089 l -0.4915253,2.28879 H 6.931859 l -0.6177845,-1.6008 h -0.014111 l -0.3228975,1.6008 z"
         style="fill:#231f20;fill-opacity:1;fill-rule:evenodd;stroke:none;stroke-width:0.35277778"
         id="path3674"
         inkscape:connector-curvature="0" />
      <path
         d="m 12.857573,159.95555 -0.49149,0.91271 h 0.617784 l -0.112289,-0.91271 z m -1.516592,1.7973 1.362075,-2.28879 h 0.505496 l 0.393206,2.28879 h -0.505496 l -0.0702,-0.5055 h -0.85658 l -0.294922,0.5055 z"
         style="fill:#231f20;fill-opacity:1;fill-rule:evenodd;stroke:none;stroke-width:0.35277778"
         id="path3676"
         inkscape:connector-curvature="0" />
      <path
         d="m 17.814277,161.75285 0.393171,-1.86761 H 17.49138 l 0.08417,-0.42118 h 1.909728 l -0.08431,0.42118 H 18.71298 l -0.393206,1.86761 z"
         style="fill:#231f20;fill-opacity:1;fill-rule:evenodd;stroke:none;stroke-width:0.35277778"
         id="path3678"
         inkscape:connector-curvature="0" />
      <path
         d="m 22.953579,161.75285 0.49149,-2.28879 h 0.505495 l -0.49149,2.28879 z"
         style="fill:#231f20;fill-opacity:1;fill-rule:evenodd;stroke:none;stroke-width:0.35277778"
         id="path3680"
         inkscape:connector-curvature="0" />
      <path
         d="m 28.247362,160.79805 c 0,0.11229 0.01401,0.21058 0.05609,0.29479 0.02812,0.0843 0.08431,0.15451 0.168522,0.21071 0.07027,0.0561 0.168486,0.0842 0.294887,0.0842 0.154516,0 0.294887,-0.0561 0.407211,-0.15441 0.112395,-0.0983 0.196603,-0.21072 0.252801,-0.36509 0.04209,-0.14041 0.0702,-0.29493 0.0702,-0.43533 0,-0.1124 -0.01401,-0.21068 -0.04212,-0.29489 -0.04219,-0.0983 -0.08428,-0.16848 -0.168487,-0.22468 -0.0702,-0.0421 -0.168487,-0.0702 -0.294887,-0.0702 -0.168522,0 -0.308927,0.0421 -0.421322,0.1404 -0.11229,0.0983 -0.196498,0.22468 -0.252695,0.36509 -0.04209,0.15448 -0.0702,0.29489 -0.0702,0.4494 z m -0.505495,0 c 0,-0.2528 0.05609,-0.47752 0.154411,-0.68812 0.09828,-0.21058 0.238689,-0.3791 0.421287,-0.5055 0.196603,-0.1264 0.407211,-0.18249 0.674017,-0.1966 0.308892,0 0.561693,0.0843 0.744185,0.2528 0.168486,0.16852 0.266806,0.40721 0.266806,0.73021 0,0.2527 -0.04212,0.49139 -0.140406,0.702 -0.09832,0.21071 -0.238689,0.3932 -0.421287,0.5196 -0.196603,0.1264 -0.421217,0.1966 -0.688023,0.1966 -0.323003,0 -0.575698,-0.0843 -0.744184,-0.2668 -0.182598,-0.16849 -0.266806,-0.42129 -0.266806,-0.74419"
         style="fill:#231f20;fill-opacity:1;fill-rule:evenodd;stroke:none;stroke-width:0.35277778"
         id="path3682"
         inkscape:connector-curvature="0" />
      <path
         d="m 33.807881,161.75285 0.477484,-2.28879 h 0.519501 l 0.617784,1.62878 h 0.01411 l 0.322898,-1.62878 h 0.463409 l -0.477414,2.28879 h -0.505496 l -0.631895,-1.6008 v 0 l -0.337009,1.6008 z"
         style="fill:#231f20;fill-opacity:1;fill-rule:evenodd;stroke:none;stroke-width:0.35277778"
         id="path3684"
         inkscape:connector-curvature="0" />
      <path
         d="m 41.151761,159.95555 -0.49149,0.91271 h 0.617891 l -0.112395,-0.91271 z m -1.50248,1.7973 1.347999,-2.28879 h 0.519571 l 0.37913,2.28879 h -0.50553 l -0.0702,-0.5055 h -0.85658 l -0.280811,0.5055 z"
         style="fill:#231f20;fill-opacity:1;fill-rule:evenodd;stroke:none;stroke-width:0.35277778"
         id="path3686"
         inkscape:connector-curvature="0" />
      <path
         d="m 45.771457,161.75285 0.491525,-2.28879 h 0.505495 l -0.393206,1.86757 h 1.10931 l -0.09821,0.42122 z"
         style="fill:#231f20;fill-opacity:1;fill-rule:evenodd;stroke:none;stroke-width:0.35277778"
         id="path3688"
         inkscape:connector-curvature="0" />
    </g>
  </g>
</svg>
