<?xml version="1.0" encoding="UTF-8" standalone="no"?>
<svg xmlns="http://www.w3.org/2000/svg" xmlns:xlink="http://www.w3.org/1999/xlink" clip-rule="evenodd" stroke-miterlimit="10" viewBox="0 0 577.29 566.93">
    <desc>SVG generated by Lineform</desc>
    <defs/>
    <g>
        <path d="M 318.08 258.04 L 329.26 227.27 " stroke="#666666" stroke-width="6.00" fill="none" id="Graphic 6"/>
        <path d="M 327.68 54.94 C 333.22 55.27 337.65 55.91 342.43 60.17 C 354.94 71.31 368.80 85.06 380.36 93.37 C 387.74 98.68 427.27 113.35 449.48 122.12 C 453.95 123.89 457.06 125.74 456.79 130.55 C 456.58 134.27 454.44 135.59 451.89 137.30 C 445.96 141.28 443.55 142.78 437.45 147.01 C 434.39 149.14 432.06 153.28 429.88 157.36 C 428.49 159.98 422.69 164.73 419.97 166.56 C 386.23 189.27 352.67 212.18 318.93 234.89 C 316.57 236.48 313.52 238.35 312.93 241.68 C 312.29 245.26 318.86 249.71 318.21 256.40 C 317.88 259.84 315.27 261.81 312.86 263.39 C 265.55 294.21 218.33 325.14 170.91 355.87 C 165.68 359.26 157.46 366.38 157.71 374.62 C 157.88 380.44 162.55 388.04 164.05 391.16 C 165.00 393.12 174.70 406.04 180.23 413.49 C 186.19 421.54 192.33 429.20 197.78 438.00 C 202.41 445.48 205.30 457.13 199.86 464.05 C 196.20 468.71 190.41 471.40 184.64 472.80 C 174.63 475.23 166.12 477.33 154.81 476.66 C 144.51 476.05 132.11 467.44 128.26 461.30 C 117.26 443.78 107.98 425.29 97.88 406.99 C 94.68 401.19 94.40 393.92 96.17 386.73 C 97.87 379.83 103.54 374.01 109.43 370.03 C 157.41 337.58 205.08 305.31 253.39 272.68 C 255.13 271.50 256.25 269.71 254.39 266.81 C 253.86 265.98 253.53 265.30 252.96 264.38 C 252.36 263.42 252.72 261.96 253.09 261.33 C 258.61 251.93 265.01 241.95 271.01 232.05 C 276.73 222.59 290.95 197.04 296.64 181.89 C 302.46 166.40 300.27 151.76 296.54 141.14 C 293.16 131.49 289.78 121.85 286.40 112.20 C 285.85 110.62 285.00 108.90 285.28 107.25 C 285.82 104.01 291.36 102.61 292.21 100.41 C 293.61 96.79 291.56 94.40 290.01 90.49 C 288.82 87.51 287.88 86.78 288.26 81.58 C 288.66 75.95 291.35 73.50 304.32 64.79 C 316.83 56.39 318.57 54.68 326.86 54.92 Z M 327.68 54.94 " stroke="#000000" stroke-width="7.87" fill="none" id="Graphic 5"/>
        <path d="M 198.59 442.21 C 191.79 430.45 182.84 426.21 178.44 423.75 C 166.54 417.09 154.44 410.62 142.54 403.96 C 130.85 395.61 128.79 391.76 128.96 386.02 C 129.09 381.42 128.91 374.60 136.48 369.50 C 173.36 344.65 288.06 270.19 289.74 269.07 C 291.50 267.89 290.06 258.73 289.66 253.61 C 289.46 250.95 296.25 247.54 318.53 232.45 " stroke="#000000" stroke-width="3.18" fill="none" id="Graphic 11"/>
        <g>
            <path d="M 271.82 308.56 L 278.02 318.45 L 256.99 324.92 Z M 271.82 308.56 " fill-rule="non-zero" fill="#FF0000" id="Graphic 28"/>
            <g>
                <path d="M 236.07 299.28 L 240.26 305.61 L 233.93 309.79 L 229.75 303.47 Z M 236.07 299.28 " fill-rule="non-zero" fill="#000000" id="Rect 24"/>
                <path d="M 229.75 303.47 L 233.93 309.79 L 227.61 313.98 L 223.42 307.65 Z M 229.75 303.47 " fill-rule="non-zero" fill="#FFFFFF" id="Rect 24 (1)"/>
                <path d="M 223.42 307.65 L 227.61 313.98 L 221.28 318.17 L 217.10 311.84 Z M 223.42 307.65 " fill-rule="non-zero" fill="#000000" id="Rect 24 (2)"/>
                <path d="M 240.22 305.55 L 244.41 311.88 L 238.08 316.06 L 233.90 309.74 Z M 240.22 305.55 " fill-rule="non-zero" fill="#FFFFFF" id="Rect 24 (3)"/>
                <path d="M 227.57 313.92 L 231.76 320.25 L 225.43 324.44 L 221.25 318.11 Z M 227.57 313.92 " fill-rule="non-zero" fill="#FFFFFF" id="Rect 24 (4)"/>
                <path d="M 233.86 309.68 L 238.05 316.01 L 231.72 320.20 L 227.54 313.87 Z M 233.86 309.68 " fill-rule="non-zero" fill="#000000" id="Rect 24 (5)"/>
                <path d="M 244.37 311.82 L 248.56 318.15 L 242.23 322.34 L 238.05 316.01 Z M 244.37 311.82 " fill-rule="non-zero" fill="#000000" id="Rect 24 (11)"/>
                <path d="M 238.05 316.01 L 242.23 322.34 L 235.91 326.52 L 231.72 320.20 Z M 238.05 316.01 " fill-rule="non-zero" fill="#FFFFFF" id="Rect 24 (11)"/>
                <path d="M 231.72 320.20 L 235.91 326.52 L 229.58 330.71 L 225.40 324.38 Z M 231.72 320.20 " fill-rule="non-zero" fill="#000000" id="Rect 24 (11)"/>
                <path d="M 248.52 318.09 L 252.71 324.42 L 246.38 328.61 L 242.20 322.28 Z M 248.52 318.09 " fill-rule="non-zero" fill="#FFFFFF" id="Rect 24 (11)"/>
                <path d="M 235.87 326.47 L 240.06 332.79 L 233.73 336.98 L 229.55 330.65 Z M 235.87 326.47 " fill-rule="non-zero" fill="#FFFFFF" id="Rect 24 (11)"/>
                <path d="M 242.16 322.22 L 246.35 328.55 L 240.02 332.74 L 235.83 326.41 Z M 242.16 322.22 " fill-rule="non-zero" fill="#000000" id="Rect 24 (11)"/>
                <path d="M 252.82 324.11 L 257.01 330.43 L 250.68 334.62 L 246.50 328.29 Z M 252.82 324.11 " fill-rule="non-zero" fill="#000000" id="Rect 24 (17)"/>
                <path d="M 246.50 328.29 L 250.68 334.62 L 244.36 338.81 L 240.17 332.48 Z M 246.50 328.29 " fill-rule="non-zero" fill="#FFFFFF" id="Rect 24 (17)"/>
                <path d="M 240.17 332.48 L 244.36 338.81 L 238.03 342.99 L 233.84 336.67 Z M 240.17 332.48 " fill-rule="non-zero" fill="#000000" id="Rect 24 (17)"/>
            </g>
        </g>
        <ellipse cx="181.06" cy="376.52" rx="10.50" ry="10.50" fill="#FFFFFF" stroke="#000000" stroke-width="0.61" id="Oval 36 (1)"/>
        <text xml:space="preserve" font-family="Liberation Sans" font-size="10.00" transform="matrix(0.981308, 0, 0, 0.981308, 0, 0)" id="Rect 37 (1)">
            <tspan x="181.72" y="387.41">1</tspan>
        </text>
        <ellipse cx="158.11" cy="371.95" rx="3.63" ry="3.63" fill="#FFFFFF" stroke="#000000" stroke-width="0.81" id="Oval 39 (12)"/>
        <ellipse cx="202.06" cy="459.72" rx="3.63" ry="3.63" fill="#FFFFFF" stroke="#000000" stroke-width="0.81" id="Oval 39 (12)"/>
        <ellipse cx="143.94" cy="473.70" rx="3.63" ry="3.63" fill="#FFFFFF" stroke="#000000" stroke-width="0.81" id="Oval 39 (12)"/>
        <ellipse cx="95.52" cy="389.75" rx="3.63" ry="3.63" fill="#FFFFFF" stroke="#000000" stroke-width="0.81" id="Oval 39 (12)"/>
        <ellipse cx="253.76" cy="265.66" rx="3.63" ry="3.63" fill="#FFFFFF" stroke="#000000" stroke-width="0.81" id="Oval 39 (12)"/>
        <ellipse cx="300.24" cy="165.88" rx="3.63" ry="3.63" fill="#FFFFFF" stroke="#000000" stroke-width="0.81" id="Oval 39 (12)"/>
        <ellipse cx="327.89" cy="55.00" rx="3.63" ry="3.63" fill="#FFFFFF" stroke="#000000" stroke-width="0.81" id="Oval 39 (12)"/>
        <ellipse cx="289.09" cy="103.18" rx="3.63" ry="3.63" fill="#FFFFFF" stroke="#000000" stroke-width="0.81" id="Oval 39 (12)"/>
        <ellipse cx="456.67" cy="130.15" rx="3.63" ry="3.63" fill="#FFFFFF" stroke="#000000" stroke-width="0.81" id="Oval 39 (12)"/>
        <ellipse cx="432.21" cy="153.69" rx="3.63" ry="3.63" fill="#FFFFFF" stroke="#000000" stroke-width="0.81" id="Oval 39 (12)"/>
        <ellipse cx="315.85" cy="248.48" rx="3.63" ry="3.63" fill="#FFFFFF" stroke="#000000" stroke-width="0.81" id="Oval 39 (12)"/>
        <text xml:space="preserve" font-family="Liberation Sans" font-size="10.00" fill="#4C4C4C" transform="matrix(0.981308, 0, 0, 0.981308, 0, 0)" id="Rect 37 (1)">
            <tspan x="237.50" y="95.08">Gille </tspan>
            <tspan x="177.07" y="106.08">Villeneuvechicane</tspan>
        </text>
        <text xml:space="preserve" font-family="Liberation Sans" font-size="10.00" fill="#4C4C4C" transform="matrix(0.981308, 0, 0, 0.981308, 0, 0)" id="Rect 37 (1)">
            <tspan x="305.61" y="46.22">Terlamenbocht</tspan>
        </text>
        <text xml:space="preserve" font-family="Liberation Sans" font-size="10.00" fill="#4C4C4C" transform="matrix(0.981308, 0, 0, 0.981308, 0, 0)" id="Rect 37 (1)">
            <tspan x="455.97" y="102.44">Bolderberghaarspeld-</tspan>
            <tspan x="455.97" y="113.44">bocht</tspan>
        </text>
        <text xml:space="preserve" font-family="Liberation Sans" font-size="10.00" fill="#4C4C4C" transform="matrix(0.981308, 0, 0, 0.981308, 0, 0)" id="Rect 37 (1)">
            <tspan x="451.62" y="161.99">Jochen Rindtbocht</tspan>
        </text>
        <text xml:space="preserve" font-family="Liberation Sans" font-size="10.00" fill="#4C4C4C" transform="matrix(0.981308, 0, 0, 0.981308, 0, 0)" id="Rect 37 (1)">
            <tspan x="339.09" y="250.82">Jackie Ickxbocht</tspan>
        </text>
        <text xml:space="preserve" font-family="Liberation Sans" font-size="10.00" fill="#4C4C4C" transform="matrix(0.981308, 0, 0, 0.981308, 0, 0)" id="Rect 37 (1)">
            <tspan x="199.26" y="385.68">Earste Links</tspan>
        </text>
        <text xml:space="preserve" font-family="Liberation Sans" font-size="10.00" fill="#4C4C4C" transform="matrix(0.981308, 0, 0, 0.981308, 0, 0)" id="Rect 37 (1)">
            <tspan x="210.67" y="494.84">Sterrenwachtbocht</tspan>
        </text>
        <ellipse cx="219.39" cy="463.34" rx="10.50" ry="10.50" fill="#FFFFFF" stroke="#000000" stroke-width="0.61" id="Oval 36 (1)"/>
        <text xml:space="preserve" font-family="Liberation Sans" font-size="10.00" transform="matrix(0.981308, 0, 0, 0.981308, 0, 0)" id="Rect 37 (1)">
            <tspan x="220.79" y="475.89">2</tspan>
        </text>
        <ellipse cx="137.61" cy="491.98" rx="10.50" ry="10.50" fill="#FFFFFF" stroke="#000000" stroke-width="0.61" id="Oval 36 (1)"/>
        <text xml:space="preserve" font-family="Liberation Sans" font-size="10.00" transform="matrix(0.981308, 0, 0, 0.981308, 0, 0)" id="Rect 37 (1)">
            <tspan x="137.45" y="505.07">3</tspan>
        </text>
        <ellipse cx="77.50" cy="386.56" rx="10.50" ry="10.50" fill="#FFFFFF" stroke="#000000" stroke-width="0.61" id="Oval 36 (1)"/>
        <text xml:space="preserve" font-family="Liberation Sans" font-size="10.00" transform="matrix(0.981308, 0, 0, 0.981308, 0, 0)" id="Rect 37 (1)">
            <tspan x="76.20" y="397.64">4</tspan>
        </text>
        <ellipse cx="233.68" cy="262.72" rx="10.50" ry="10.50" fill="#FFFFFF" stroke="#000000" stroke-width="0.61" id="Oval 36 (1)"/>
        <text xml:space="preserve" font-family="Liberation Sans" font-size="10.00" transform="matrix(0.981308, 0, 0, 0.981308, 0, 0)" id="Rect 37 (1)">
            <tspan x="235.35" y="271.44">5</tspan>
        </text>
        <ellipse cx="280.35" cy="163.86" rx="10.50" ry="10.50" fill="#FFFFFF" stroke="#000000" stroke-width="0.61" id="Oval 36 (1)"/>
        <text xml:space="preserve" font-family="Liberation Sans" font-size="10.00" transform="matrix(0.981308, 0, 0, 0.981308, 0, 0)" id="Rect 37 (1)">
            <tspan x="282.91" y="170.69">6</tspan>
        </text>
        <ellipse cx="270.83" cy="95.55" rx="10.50" ry="10.50" fill="#FFFFFF" stroke="#000000" stroke-width="0.61" id="Oval 36 (1)"/>
        <text xml:space="preserve" font-family="Liberation Sans" font-size="10.00" transform="matrix(0.981308, 0, 0, 0.981308, 0, 0)" id="Rect 37 (1)">
            <tspan x="273.21" y="101.09">7</tspan>
        </text>
        <ellipse cx="328.58" cy="72.28" rx="10.50" ry="10.50" fill="#FFFFFF" stroke="#000000" stroke-width="0.61" id="Oval 36 (1)"/>
        <text xml:space="preserve" font-family="Liberation Sans" font-size="10.00" transform="matrix(0.981308, 0, 0, 0.981308, 0, 0)" id="Rect 37 (1)">
            <tspan x="332.05" y="77.37">8</tspan>
        </text>
        <ellipse cx="473.88" cy="124.07" rx="10.50" ry="10.50" fill="#FFFFFF" stroke="#000000" stroke-width="0.61" id="Oval 36 (1)"/>
        <text xml:space="preserve" font-family="Liberation Sans" font-size="10.00" transform="matrix(0.981308, 0, 0, 0.981308, 0, 0)" id="Rect 37 (1)">
            <tspan x="480.13" y="130.15">9</tspan>
        </text>
        <ellipse cx="414.12" cy="148.05" rx="10.50" ry="10.50" fill="#FFFFFF" stroke="#000000" stroke-width="0.61" id="Oval 36 (1)"/>
        <text xml:space="preserve" font-family="Liberation Sans" font-size="10.00" transform="matrix(0.981308, 0, 0, 0.981308, 0, 0)" id="Rect 37 (1)">
            <tspan x="416.44" y="154.58">10</tspan>
        </text>
        <ellipse cx="334.25" cy="261.35" rx="10.50" ry="10.50" fill="#FFFFFF" stroke="#000000" stroke-width="0.61" id="Oval 36 (1)"/>
        <text xml:space="preserve" font-family="Liberation Sans" font-size="10.00" transform="matrix(0.981308, 0, 0, 0.981308, 0, 0)" id="Rect 37 (1)">
            <tspan x="335.43" y="270.04">11</tspan>
        </text>
        <text xml:space="preserve" font-family="Liberation Sans" font-size="10.00" fill="#4C4C4C" transform="matrix(0.981308, 0, 0, 0.981308, 0, 0)" id="Rect 37 (1)">
            <tspan x="99.32" y="521.88">Kanaalbocht</tspan>
        </text>
        <text xml:space="preserve" font-family="Liberation Sans" font-size="10.00" fill="#4C4C4C" transform="matrix(0.981308, 0, 0, 0.981308, 0, 0)" id="Rect 37 (1)">
            <tspan x="60.37" y="365.25">Lucien</tspan>
            <tspan x="32.58" y="376.25">Bianchibocht</tspan>
        </text>
        <text xml:space="preserve" font-family="Liberation Sans" font-size="10.00" fill="#4C4C4C" transform="matrix(0.981308, 0, 0, 0.981308, 0, 0)" id="Rect 37 (1)">
            <tspan x="222.37" y="240.96">Kleine</tspan>
            <tspan x="213.47" y="251.96">Chicane</tspan>
        </text>
        <text xml:space="preserve" font-family="Liberation Sans" font-size="10.00" fill="#4C4C4C" transform="matrix(0.981308, 0, 0, 0.981308, 0, 0)" id="Rect 37 (1)">
            <tspan x="244.63" y="170.78">Butte</tspan>
        </text>
    </g>
</svg>