<?xml version="1.0" encoding="UTF-8" standalone="no"?>
<!-- Created with Inkscape (http://www.inkscape.org/) -->

<svg xmlns:dc="http://purl.org/dc/elements/1.1/" xmlns:cc="http://creativecommons.org/ns#" xmlns:rdf="http://www.w3.org/1999/02/22-rdf-syntax-ns#" xmlns:svg="http://www.w3.org/2000/svg" xmlns="http://www.w3.org/2000/svg" xmlns:xlink="http://www.w3.org/1999/xlink" xmlns:sodipodi="http://sodipodi.sourceforge.net/DTD/sodipodi-0.dtd" xmlns:inkscape="http://www.inkscape.org/namespaces/inkscape" width="1410.3174" height="943.97296" id="svg2" version="1.1" inkscape:version="0.47 r22583" sodipodi:docname="Homestead-Miami Speedway track map--Speedway.svg" inkscape:export-filename="E:\Images\Maps\Race Tracks\North &amp; Central America\United States\Florida\Homestead-Miami Speedway\Homestead-Miami Speedway track map--Speedway.png" inkscape:export-xdpi="90" inkscape:export-ydpi="90">
  <title id="title7026">Track map for Homestead-Miami's Speedway</title>
  <defs id="defs4">
    <inkscape:perspective sodipodi:type="inkscape:persp3d" inkscape:vp_x="0 : 526.18109 : 1" inkscape:vp_y="0 : 1000 : 0" inkscape:vp_z="744.09448 : 526.18109 : 1" inkscape:persp3d-origin="372.04724 : 350.78739 : 1" id="perspective10" />
    <inkscape:perspective id="perspective2824" inkscape:persp3d-origin="0.5 : 0.33333333 : 1" inkscape:vp_z="1 : 0.5 : 1" inkscape:vp_y="0 : 1000 : 0" inkscape:vp_x="0 : 0.5 : 1" sodipodi:type="inkscape:persp3d" />
    <inkscape:perspective id="perspective4620" inkscape:persp3d-origin="0.5 : 0.33333333 : 1" inkscape:vp_z="1 : 0.5 : 1" inkscape:vp_y="0 : 1000 : 0" inkscape:vp_x="0 : 0.5 : 1" sodipodi:type="inkscape:persp3d" />
    <filter color-interpolation-filters="sRGB" inkscape:collect="always" id="filter5277" x="-0.036581911" width="1.0731637" y="-0.16673841" height="1.3334768">
      <feGaussianBlur inkscape:collect="always" stdDeviation="4.5896484" id="feGaussianBlur5279" />
    </filter>
    <clipPath clipPathUnits="userSpaceOnUse" id="clipPath9716">
      <path id="path9718" d="M 871.13547,932.36346 C 1314.8756,1345.252 1758.6155,1758.1404 2202.3556,2171.029 2375.7787,1984.6474 2549.2018,1798.266 2722.6249,1611.8845 2278.8848,1198.996 1835.1448,786.10758 1391.4047,373.21904 1217.9816,559.60052 1044.5586,745.98194 871.13547,932.36346 z" style="fill:#6a6a6a;fill-opacity:1;fill-rule:nonzero;stroke:#010101;stroke-width:0.9426257;stroke-linecap:round;stroke-linejoin:round;stroke-miterlimit:4;stroke-opacity:1;stroke-dasharray:none;stroke-dashoffset:0" />
    </clipPath>
    <pattern inkscape:collect="always" xlink:href="#pattern4256" id="pattern4264" patternTransform="matrix(-0.7760302,9.7935943e-4,-9.7935943e-4,-0.7760302,-1599.8308,380.49)" />
    <pattern patternUnits="userSpaceOnUse" width="10.793857" height="10.773841" patternTransform="matrix(-0.5630234,-0.534067,0.534067,-0.5630234,1593.7246,910.57043)" id="pattern4256">
      <g id="g4248" transform="matrix(0.5878912,6.0987118e-3,-6.0987118e-3,0.5878912,-595.3809,-720.7077)">
        <rect style="opacity:1;fill:black;fill-opacity:1;stroke:none;stroke-width:0.5;stroke-linecap:round;stroke-linejoin:round;stroke-miterlimit:4;stroke-dasharray:none;stroke-dashoffset:0;stroke-opacity:1" id="rect4250" width="18.172573" height="18.095789" x="1025.5348" y="1215.2814" />
        <rect style="opacity:1;fill:white;fill-opacity:1;stroke:none;stroke-width:0.5;stroke-linecap:round;stroke-linejoin:round;stroke-miterlimit:4;stroke-dasharray:none;stroke-dashoffset:0;stroke-opacity:1" id="rect4252" width="9.0746527" height="9.0746527" x="1025.5348" y="1215.2814" />
        <rect style="opacity:1;fill:white;fill-opacity:1;stroke:none;stroke-width:0.5;stroke-linecap:round;stroke-linejoin:round;stroke-miterlimit:4;stroke-dasharray:none;stroke-dashoffset:0;stroke-opacity:1" id="rect4254" width="9.0746527" height="9.0746527" x="1034.6412" y="1224.3444" />
      </g>
    </pattern>
    <inkscape:perspective id="perspective6332" inkscape:persp3d-origin="0.5 : 0.33333333 : 1" inkscape:vp_z="1 : 0.5 : 1" inkscape:vp_y="0 : 1000 : 0" inkscape:vp_x="0 : 0.5 : 1" sodipodi:type="inkscape:persp3d" />
    <inkscape:perspective id="perspective6983" inkscape:persp3d-origin="0.5 : 0.33333333 : 1" inkscape:vp_z="1 : 0.5 : 1" inkscape:vp_y="0 : 1000 : 0" inkscape:vp_x="0 : 0.5 : 1" sodipodi:type="inkscape:persp3d" />
    <filter color-interpolation-filters="sRGB" inkscape:collect="always" id="filter5277-1" x="-0.036581911" width="1.0731637" y="-0.16673841" height="1.3334768">
      <feGaussianBlur inkscape:collect="always" stdDeviation="4.5896484" id="feGaussianBlur5279-5" />
    </filter>
  </defs>
  <sodipodi:namedview id="base" pagecolor="#ffffff" bordercolor="#666666" borderopacity="1.0" inkscape:pageopacity="0.0" inkscape:pageshadow="2" inkscape:zoom="0.82947291" inkscape:cx="705.15869" inkscape:cy="471.98648" inkscape:document-units="px" inkscape:current-layer="layer1" showgrid="false" inkscape:window-width="1677" inkscape:window-height="1030" inkscape:window-x="1672" inkscape:window-y="-8" inkscape:window-maximized="1" inkscape:showpageshadow="false" showborder="false" />
  <metadata id="metadata7">
    <rdf:RDF>
      <cc:Work rdf:about="">
        <dc:format>image/svg+xml</dc:format>
        <dc:type rdf:resource="http://purl.org/dc/dcmitype/StillImage" />
        <dc:title>Track map for Homestead-Miami's Speedway</dc:title>
        <dc:date>January 24th, 2009</dc:date>
        <dc:creator>
          <cc:Agent>
            <dc:title>Will Pittenger</dc:title>
          </cc:Agent>
        </dc:creator>
        <dc:publisher>
          <cc:Agent>
            <dc:title>Will Pittenger</dc:title>
          </cc:Agent>
        </dc:publisher>
        <dc:subject>
          <rdf:Bag>
            <rdf:li>Racing</rdf:li>
            <rdf:li>Homestead</rdf:li>
            <rdf:li>Miami</rdf:li>
            <rdf:li>Homestead-Miami</rdf:li>
            <rdf:li>Speedway</rdf:li>
            <rdf:li>Rolex</rdf:li>
            <rdf:li>stock car</rdf:li>
            <rdf:li>NASCAR</rdf:li>
            <rdf:li>Daytona prototype</rdf:li>
            <rdf:li>Daytona</rdf:li>
            <rdf:li>DP</rdf:li>
            <rdf:li>Grand touring</rdf:li>
            <rdf:li>GT</rdf:li>
            <rdf:li>sports car</rdf:li>
          </rdf:Bag>
        </dc:subject>
        <cc:license rdf:resource="http://creativecommons.org/licenses/by-sa/3.0/" />
        <dc:description>Created in Inkscape.  Gray dashed lines are other courses.  Grey solid line is another pit road option.</dc:description>
      </cc:Work>
      <cc:License rdf:about="http://creativecommons.org/licenses/by-sa/3.0/">
        <cc:permits rdf:resource="http://creativecommons.org/ns#Reproduction" />
        <cc:permits rdf:resource="http://creativecommons.org/ns#Distribution" />
        <cc:requires rdf:resource="http://creativecommons.org/ns#Notice" />
        <cc:requires rdf:resource="http://creativecommons.org/ns#Attribution" />
        <cc:permits rdf:resource="http://creativecommons.org/ns#DerivativeWorks" />
        <cc:requires rdf:resource="http://creativecommons.org/ns#ShareAlike" />
      </cc:License>
    </rdf:RDF>
  </metadata>
  <g inkscape:label="Layer 1" inkscape:groupmode="layer" id="layer1" transform="translate(372.95025,-29.526736)">
    <use x="0" y="0" xlink:href="#path3610" id="use4805" style="stroke:white;stroke-width:20;stroke-miterlimit:4;stroke-dasharray:none;filter:url(#filter5277)" width="744.09448" height="1052.3622" />
    <use x="0" y="0" xlink:href="#path2830" id="use4803" style="stroke:white;stroke-width:20;stroke-miterlimit:4;stroke-dasharray:none;filter:url(#filter5277)" width="744.09448" height="1052.3622" />
    <use x="0" y="0" xlink:href="#path3623" id="use4801" style="stroke:white;stroke-width:16;stroke-miterlimit:4;stroke-dasharray:none;filter:url(#filter5277)" width="744.09448" height="1052.3622" />
    <use x="0" y="0" xlink:href="#path3617" id="use4799" style="stroke:white;stroke-width:16;stroke-miterlimit:4;stroke-dasharray:none;filter:url(#filter5277)" width="744.09448" height="1052.3622" />
    <use x="0" y="0" xlink:href="#path3619" id="use3636" style="stroke:white;stroke-width:16;stroke-miterlimit:4;stroke-dasharray:none;filter:url(#filter5277)" width="744.09448" height="1052.3622" />
    <path style="fill:none" d="m -291.90823,835.82904 c 21.14668,27.02075 63.15711,50.29498 75.31501,56.97186 13.90164,7.63451 28.42372,14.99473 43.57497,19.54466 20.41361,6.13021 41.8726,10.11244 63.11962,12.49576 23.502757,2.63635 47.559804,3.88869 71.129725,2.56324 20.111847,-1.13098 40.2407557,-5.41699 59.91558,-9.93253 12.8996,-2.96056 26.919937,-9.27592 39.397501,-12.81617" id="path3619" sodipodi:nodetypes="cssssss" />
    <path id="path3610" style="fill:none" d="m 702.64635,695.11153 c 9.17576,-3.67273 18.29132,-8.05129 26.27314,-13.77738 11.66964,-8.3717 23.21953,-17.709 32.68123,-28.51597 13.07339,-14.93216 24.10214,-31.92963 34.92405,-48.70143 15.98524,-24.77394 30.52587,-50.50999 45.4974,-75.93579 9.80639,-16.65395 19.20431,-33.5471 28.83637,-50.30346 8.41738,-14.64325 17.86859,-28.84861 25.31193,-43.89537 2.48919,-5.0319 3.99747,-10.80784 4.48566,-16.34061 0.47303,-5.36098 0.10606,-11.26518 -1.60202,-16.34062 -2.02997,-6.03191 -5.4704,-12.00229 -9.61213,-16.98142 -15.40293,-18.51718 -32.09629,-36.27698 -49.02184,-53.50749 -6.78436,-6.9066 -14.44241,-12.97865 -22.10788,-18.90385 -12.09279,-9.3474 -24.22872,-18.82759 -37.16689,-26.91395 -11.83975,-7.39984 -24.40601,-14.15497 -37.16688,-19.54465 -4.43416,-1.87281 -9.59267,-2.01027 -14.41819,-2.24283 -4.03899,-0.19465 -8.24987,0.0594 -12.17536,0.96121 -3.97782,0.91382 -8.06892,2.34931 -11.53455,4.48566 -4.33087,2.66972 -8.43694,6.14067 -11.85495,9.93253 -3.41728,3.79104 -6.71029,8.14815 -8.65092,12.81616 -2.01102,4.83731 -3.37452,10.45766 -3.20404,15.69981 0.25673,7.89442 2.43082,15.94093 4.48566,23.70991 5.74166,21.70821 13.71264,42.98896 18.90385,64.72164 1.11008,4.64727 0.48108,9.66082 0,14.41819 -0.48013,4.74796 -1.43287,9.56413 -2.88364,14.09778 -1.11247,3.47646 -2.81929,6.87182 -4.80606,9.93253 -1.96488,3.02697 -4.33,5.97763 -7.04889,8.33051 -2.83478,2.45318 -6.14151,4.68067 -9.61213,6.08768 -4.43268,1.79703 -9.33165,3.1657 -14.09778,3.52444 -5.1664,0.38887 -10.59452,-0.19074 -15.69981,-1.28161 -7.39047,-1.57916 -14.41948,-4.89793 -21.78748,-6.72849 -9.82703,-2.4415 -19.80907,-4.41219 -29.79759,-6.08768 -6.5657,-1.10134 -13.21854,-1.98387 -19.86506,-2.24283 -9.80089,-0.38185 -19.77553,-0.86756 -29.47718,0.3204 -11.23142,1.37528 -22.33159,4.47132 -33.32204,7.3693 -10.47663,2.7625 -21.0055,5.61318 -31.0792,9.61213 -60.41522,23.98301 -120.2424,49.59466 -180.38755,74.33376 -96.42568,39.66213 -192.8079,79.43287 -289.324967,118.86995 -22.6732825,9.26435 -45.269934,19.00275 -68.246089,27.23436 -4.151398,1.48731 -8.779092,2.03136 -13.136571,1.92242 -4.186632,-0.10467 -8.507405,-1.19735 -12.495763,-2.56323 -3.808144,-1.30416 -7.720297,-3.0172 -10.893742,-5.44687 -3.661844,-2.8036 -7.101302,-6.38209 -9.612125,-10.25294 -2.615643,-4.03245 -4.829713,-8.76916 -5.767273,-13.45697 -0.98486,-4.92432 -0.71787,-10.30944 0,-15.3794 6.117418,-43.20427 12.383448,-86.64088 20.505865,-129.44329 1.382906,-7.28745 4.760349,-14.16694 8.010104,-20.82627 3.26513,-6.69084 7.077733,-13.26568 11.534551,-19.22425 5.36891,-7.178 11.589179,-13.83201 17.942633,-20.18546 5.715103,-5.7151 11.641538,-11.43992 18.263038,-16.02021 7.583085,-5.24544 15.583442,-10.54099 24.3507173,-13.45698 C 36.516516,395.77958 77.645764,386.07384 117.90874,374.06655 233.7894,339.50844 349.38827,303.99834 465.22686,269.29439 c 91.99692,-27.56126 184.98627,-53.00461 276.1884,-82.02347 5.13273,-1.63314 9.43299,-5.87273 12.81616,-9.93253 3.55892,-4.27071 6.5519,-9.71222 8.01011,-15.059 1.42543,-5.22656 1.6217,-11.3526 0.6408,-16.66102 -0.83472,-4.51731 -3.09076,-9.36209 -6.08767,-12.81616 -3.30437,-3.80843 -8.02542,-7.28569 -12.81617,-8.97132 -6.74381,-2.37282 -14.47497,-2.58412 -21.78749,-3.20404 -54.41869,-4.61335 -108.93626,-8.7519 -163.40612,-12.49576 -50.81383,-3.49258 -100.5603,7.07241 -147.70633,24.99152 M 26.154771,286.93824 c -50.52025,19.75642 -96.252174,54.22076 -141.660471,83.60386 -12.86591,8.32536 -25.69645,16.79684 -37.9679,25.95274 -8.34122,6.2235 -16.93874,12.59396 -23.87011,20.18546 -4.28278,4.69066 -7.21212,10.80158 -9.77233,16.66102 -2.61966,5.99551 -4.78544,12.40958 -5.76727,18.90385 -3.45043,22.82271 -4.73627,46.06538 -7.5295,69.0471 -3.77505,31.05979 -8.22289,62.03812 -12.17536,93.07741 -3.68383,28.92969 -8.44329,57.87731 -10.73354,86.82953 -0.53999,6.82624 0.49964,13.96892 2.24283,20.50587 1.24725,4.6772 3.02759,10.06412 6.72849,13.13657 13.28052,11.02534 29.12393,20.00636 44.21577,29.15678 35.63882,21.60838 73.158822,40.6391 107.976211,63.11962 5.873942,3.79262 11.008088,9.62171 14.097783,15.6998 3.42519,6.73808 5.285964,15.13243 5.446871,22.7487 0.159497,7.54953 -4.125994,15.13582 -4.485658,22.7487 -0.281145,5.9509 -0.0069,12.91916 2.563233,17.94263 2.129115,4.16145 6.915232,7.96617 11.53455,9.61213 13.964124,4.97572 29.2903729,8.06387 44.215776,10.25293 17.115014,2.5102 34.690472,2.24624 51.905476,3.84485 28.392081,2.63653 50.033258,-0.5676 75.702308,-10.58901" sodipodi:nodetypes="csssssssssssssssssssssssssssssssssssssssssssssssssssssssssssscssssssssssssssssssss" />
    <path style="fill:none" d="m 434.46806,800.2041 c 88.83089,-35.9194 178.30318,-70.20582 268.17829,-105.09257 31.0079,-12.03631 61.25634,-26.17329 90.99479,-41.01173 21.84662,-10.9007 43.11719,-23.18364 63.76043,-36.20568 16.09644,-10.15386 32.64235,-20.37214 46.4586,-33.32203 18.54457,-17.38171 34.42897,-37.9107 50.62386,-57.67275 8.04902,-9.82194 15.52058,-20.24552 22.10789,-31.0792 6.33566,-10.4198 11.89996,-21.44514 16.66101,-32.68123 5.91908,-13.96904 11.54347,-28.29873 15.37937,-42.93416 3.1062,-11.85132 4.3296,-24.28242 5.4469,-36.52608 1.4459,-15.84511 2.4628,-31.84204 2.2428,-47.74022 -0.2072,-14.96742 -0.76,-30.20014 -3.5244,-44.85658 -2.8961,-15.35475 -7.6542,-30.64345 -13.45699,-45.17699 -5.83858,-14.62324 -13.30838,-28.79813 -21.46708,-42.29335 -8.82272,-14.59355 -18.58554,-28.85458 -29.47718,-41.97295 C 935.25768,145.81378 921.65786,129.70609 905.7826,116.782 888.33582,102.57853 868.58377,90.303811 848.43025,80.255923 831.31009,71.720369 812.52104,65.878072 793.96154,61.031673 c -17.43257,-4.552124 -35.56136,-7.112817 -53.5075,-8.971317 -15.05549,-1.559145 -30.35816,-1.777984 -45.49739,-1.281616 -17.43519,0.571646 -34.98787,1.880557 -52.22588,4.485658 -15.97722,2.414564 -31.81762,6.277669 -47.41982,10.573338 -25.51634,7.025278 -51.0799,14.311703 -75.93579,23.389504 -36.55491,13.35049 -72.16076,29.35531 -108.29661,43.89537 -80.91847,32.55935 -161.91191,64.93274 -242.86636,97.40287 -75.616392,30.32909 -151.866837,59.2417 -226.846154,90.99479 -24.132373,10.21985 -47.330956,22.65624 -70.488916,34.92405 -14.54294,7.70405 -28.69875,16.20621 -42.61376,24.99153 -11.29012,7.12808 -22.3444,14.70733 -33.00163,22.74869 -12.83908,9.68767 -25.58113,19.64497 -37.48728,30.4384 -10.94935,9.92604 -21.52926,20.45729 -31.07921,31.72001 -10.1015,11.91318 -19.40252,24.6726 -27.87516,37.80769 -9.5768,14.84687 -19.10879,30.04437 -26.27314,46.1382 -7.57424,17.0146 -13.34959,35.1295 -17.94264,53.1871 -3.20345,12.5944 -4.64019,25.7724 -5.44687,38.7689 -1.11574,17.97591 -1.62205,36.20814 -0.3204,54.14831 1.15478,15.91587 3.29918,32.13046 7.6897,47.41981 4.68759,16.32386 11.8571,32.20829 19.54465,47.41982 7.37145,14.58606 15.98551,28.80243 25.63234,41.97295 8.189,11.18019 17.86703,21.45415 27.87516,31.0792 12.31336,11.84203 25.3551,23.17554 39.08931,33.32204 12.43213,9.18455 25.62795,17.70561 39.40971,24.67112 15.80223,7.98668 32.28023,15.71099 49.34224,20.18546 19.99808,5.24445 41.11449,7.51704 61.838009,8.97132 21.890235,1.53616 44.079499,1.25605 66.003259,0 19.0879744,-1.09358 38.195826,-3.68205 57.031943,-7.04889 25.37966,-4.53646 51.63677,-7.25864 75.615389,-16.66102 103.9875,-40.77509 210.58424,-84.66908 316.55932,-127.52086 z" id="path2830" sodipodi:nodetypes="csssssssssssssssssssssssssssssssssssssssssssssss" />
    <path id="path3623" style="fill:none" d="m 725.39505,643.52646 c 8.82417,-3.71732 17.73669,-7.5923 25.79253,-12.65597 6.89635,-4.33485 13.67591,-9.45418 19.06405,-15.5396 8.22904,-9.29398 14.2556,-20.59808 21.78748,-30.5986 24.40174,-32.39963 49.32222,-64.57145 70.3087,-99.0149 M -174.50012,757.26494 c 17.33518,10.00847 68.1175,29.19201 181.5490118,86.19372 3.9150192,1.96738 7.0987712,5.36375 9.9325292,8.65091 2.506311,2.90732 4.782011,6.32274 6.087679,9.93253 2.32558,6.42955 2.34724,13.81775 4.806063,20.18547 1.706431,4.41922 4.154948,9.34756 7.6897,12.17536 3.407338,2.72587 8.606184,3.82668 13.136571,4.48565 5.874076,0.85441 11.748153,1.06802 18.583442,0.64081 10.579094,-0.66119 20.972069,-3.53471 31.079205,-6.72849" sodipodi:nodetypes="csssscssssssss" />
    <path style="fill:none" d="m 63.43203,275.74488 c -31.744812,12.90917 -110.540205,53.87893 -164.67975,83.26267 -24.57308,13.33681 -48.94396,27.33911 -72.09094,42.93416 -17.11714,11.5325 -33.85416,24.18871 -48.70143,38.4485 -14.84351,14.25618 -28.04435,30.58055 -40.37093,47.09942 -8.7133,11.6767 -16.21046,24.46072 -22.74869,37.48728 -7.45275,14.8486 -13.95524,30.39174 -19.22425,46.13821 -4.02271,12.0219 -6.5038,24.65073 -8.65092,37.16688 -2.23173,13.00938 -4.09842,26.24403 -4.48565,39.40971 -0.36038,12.25305 0.53453,24.69323 2.24282,36.84648 2.02976,14.4403 4.61335,29.05323 8.97132,42.93416 4.29295,13.67383 10.05928,27.17727 16.98142,39.73012 7.38924,13.39989 16.18283,26.34993 25.95274,38.1281 9.45434,11.39773 20.27887,21.97171 31.72001,31.3996 13.44359,11.07798 27.85001,21.36919 42.93416,30.118 22.29634,12.93188 44.96979,26.67188 69.2073,34.92405 25.638743,8.72925 53.419111,14.23541 80.421451,16.02021 23.087514,1.52604 46.9531883,-1.92497 69.84811,-6.08768 22.922875,-4.1678 45.391201,-11.61039 67.60528,-18.90385 27.555369,-9.04715 54.734059,-19.39362 81.703059,-30.11799 91.47374,-36.37504 182.27657,-74.46906 273.62517,-111.18025 90.42737,-36.34096 181.70456,-70.65988 271.70274,-107.9762 32.60981,-13.52114 64.68467,-28.54453 96.12125,-44.53618 17.69206,-8.99987 35.3963,-18.66153 51.26467,-30.4384 14.78363,-10.97183 28.25371,-24.21606 40.69133,-37.80769 8.28185,-9.05026 15.27893,-19.50293 21.46708,-30.11799 7.69603,-13.20165 14.36269,-27.18334 20.18546,-41.33214 5.60497,-13.61956 10.70468,-27.67741 14.09778,-41.97295 3.12178,-13.15242 4.51091,-26.85157 5.44687,-40.37092 0.98647,-14.24901 0.84947,-28.6495 0.32041,-42.93416 -0.43215,-11.66808 -0.95005,-23.50713 -3.20404,-34.92406 -2.65888,-13.46779 -7.29826,-26.61775 -11.53456,-39.73011 -2.49219,-7.71391 -5.20136,-15.43148 -8.65091,-22.7487 -3.59934,-7.63497 -8.04133,-14.91584 -12.49576,-22.10789 -5.7985,-9.36217 -11.59407,-18.80778 -18.26304,-27.55476 -8.06962,-10.58407 -16.55526,-21.04091 -25.95274,-30.43839 -9.07916,-9.07916 -19.39435,-16.9948 -29.47718,-24.99153 -5.40337,-4.28543 -11.08633,-8.27859 -16.98142,-11.85495 -10.12512,-6.14257 -20.2319,-12.65298 -31.07921,-17.30183 -12.3286,-5.283684 -25.57784,-8.50767 -38.4485,-12.495761 -9.87804,-3.0608 -19.68497,-6.619155 -29.79758,-8.650913 -13.27689,-2.667503 -26.85011,-4.491869 -40.37093,-5.446871 -15.20876,-1.074224 -30.60461,-1.532787 -45.8178,-0.640808 -17.57484,1.030446 -35.27613,2.962775 -52.54628,6.408083 -25.0232,4.992003 -49.69324,12.100121 -74.33377,18.90385 -32.60501,9.00288 -65.16148,18.30323 -97.40287,28.51597 -25.75177,8.1571 -51.2581,17.58059 -76.40863,27.5701" id="path3617" sodipodi:nodetypes="cssssssssssssssssssssssssssssssssssssssssssssss" />
    <use x="0" y="0" xlink:href="#path3610" id="use3634" style="stroke:#ccc;stroke-width:10;stroke-linecap:round;stroke-linejoin:miter;stroke-miterlimit:4;stroke-opacity:1;stroke-dasharray:10, 13;stroke-dashoffset:0" width="744.09448" height="1052.3622" />
    <use x="0" y="0" xlink:href="#path3623" id="use3630" style="stroke:#ccc;stroke-width:3;stroke-linecap:round;stroke-linejoin:miter;stroke-miterlimit:4;stroke-opacity:1;stroke-dasharray:6, 6;stroke-dashoffset:0" width="744.09448" height="1052.3622" />
    <use x="0" y="0" xlink:href="#path3619" id="use3626" width="744.09448" height="1052.3622" style="stroke:#ccc;stroke-width:3;stroke-linecap:butt;stroke-linejoin:miter;stroke-miterlimit:4;stroke-opacity:1;stroke-dasharray:none" />
    <use x="0" y="0" xlink:href="#path3617" id="use3628" style="stroke:black;stroke-width:3;stroke-linecap:butt;stroke-linejoin:miter;stroke-miterlimit:4;stroke-opacity:1;stroke-dasharray:none" width="744.09448" height="1052.3622" />
    <use x="0" y="0" xlink:href="#path2830" id="use3632" style="stroke:black;stroke-width:10;stroke-linecap:butt;stroke-linejoin:miter;stroke-miterlimit:4;stroke-opacity:1;stroke-dasharray:none" width="744.09448" height="1052.3622" />
    <g id="g3227" transform="translate(-1474.803,-1260.7041)">
      <use x="0" y="0" xlink:href="#path2423" id="use4312" style="stroke:white;stroke-width:8;stroke-miterlimit:4;stroke-dasharray:none;filter:url(#filter5277)" width="744.09448" height="1052.3622" />
      <path style="fill:none" d="m 1460.9487,1465.0938 0,9.5934 m -88.937,-15.0622 0,15.0622 m -89.063,-9.5934 0,9.5934 m -88.656,-19 0,19 356,0 0,-18.9997" id="path2423" sodipodi:nodetypes="cccccccccc" />
      <use style="stroke:white;stroke-width:5;stroke-miterlimit:4;stroke-opacity:1;stroke-dasharray:none;filter:url(#filter5277)" id="use2445" xlink:href="#text2441" y="0" x="0" width="744.09448" height="1052.3622" />
      <text id="text2441" y="1447.7952" x="1372.1074" style="font-size:20px;font-style:normal;font-weight:normal;text-align:center;writing-mode:lr-tb;text-anchor:middle;fill:black;fill-opacity:1;font-family:Times New Roman" xml:space="preserve"><tspan y="1447.7952" x="1372.1074" id="tspan2443" sodipodi:role="line">797 ft (243 m)</tspan></text>
      <use height="1052.3622" width="744.09448" x="0" y="0" xlink:href="#path2423" id="use4437" style="stroke:black" />
    </g>
    <g transform="translate(863.89834,185.62339)" id="g5281">
      <use height="1052.3622" width="744.09448" style="stroke:white;stroke-width:5;stroke-miterlimit:4;stroke-opacity:1;stroke-dasharray:none;filter:url(#filter5277)" id="use5275" xlink:href="#text5269" y="0" x="0" />
      <text sodipodi:linespacing="100%" id="text5269" y="445.24582" x="-429.14511" style="font-size:32px;font-style:normal;font-variant:normal;font-weight:normal;font-stretch:normal;text-align:center;line-height:100%;writing-mode:lr-tb;text-anchor:middle;color:black;fill:black;fill-opacity:1;fill-rule:nonzero;display:inline;overflow:visible;enable-background:accumulate;font-family:Times New Roman;-inkscape-font-specification:Times New Roman" xml:space="preserve"><tspan y="445.24582" x="-429.14511" id="tspan5271" sodipodi:role="line">Length of black layout:</tspan><tspan id="tspan5273" y="477.24582" x="-429.14511" sodipodi:role="line">1.4983 mi (2.4112 km)</tspan></text>
    </g>
    <g id="g3922" transform="translate(986.57992,228.85694)">
      <use style="stroke:white;stroke-width:5;stroke-miterlimit:4;stroke-opacity:1;stroke-dasharray:none;filter:url(#filter5277)" id="use3920" xlink:href="#text3116" y="0" x="0" width="1276.099" height="849.69269" />
      <text sodipodi:linespacing="100%" id="text3116" y="722.44769" x="-254.32448" style="font-size:16px;font-style:normal;font-variant:normal;font-weight:normal;font-stretch:normal;text-align:end;line-height:100%;writing-mode:lr-tb;text-anchor:end;color:black;fill:black;fill-opacity:1;fill-rule:nonzero;display:inline;overflow:visible;enable-background:accumulate;font-family:Times New Roman;-inkscape-font-specification:Times New Roman" xml:space="preserve"><tspan y="722.44769" x="-254.32448" id="tspan3118" sodipodi:role="line">Map based on data from March 5th, 2009</tspan></text>
    </g>
    <g style="display:inline" id="g3804" transform="matrix(1.9555278,0,0,1.9555278,-3397.7038,-1020.5242)" clip-path="none">
      <g id="g5296" transform="translate(0,-6.1185414)">
        <use height="1052.3622" width="744.09448" style="stroke:white;stroke-width:7.67056322;stroke-miterlimit:4;stroke-dasharray:none;filter:url(#filter5277)" id="use4296" xlink:href="#text3180" y="0" x="0" />
        <text inkscape:export-ydpi="90.015755" inkscape:export-xdpi="90.015755" xml:space="preserve" style="font-size:64px;font-style:normal;font-weight:normal;fill:black;fill-opacity:1;font-family:Times New Roman" x="2073.4658" y="967.81134" id="text3180"><tspan sodipodi:role="line" id="tspan3182" x="2073.4658" y="967.81134">N</tspan></text>
      </g>
      <g id="g5301" inkscape:transform-center-x="-7.2654757" inkscape:transform-center-y="2.9593918" transform="matrix(-0.97437006,-0.22495106,0.22495106,-0.97437006,4054.3316,2350.845)">
        <use transform="matrix(2,0,0,2,-2167.2809,-946.96759)" height="1052.3622" width="744.09448" style="fill:white;stroke:white;stroke-width:7.67056322;stroke-miterlimit:100;stroke-dasharray:none;filter:url(#filter5277)" id="use4298" inkscape:transform-center-y="-8.640268" inkscape:transform-center-x="-4.690594" xlink:href="#path2745" y="0" x="0" />
        <path inkscape:transform-center-x="-2.0991938" sodipodi:nodetypes="ccccc" inkscape:transform-center-y="0.13880671" inkscape:export-ydpi="90.015755" inkscape:export-xdpi="90.015755" inkscape:export-filename="D:\Images\Race Tracks\text3180.png" style="fill-opacity:1;fill-rule:nonzero" d="m 2164.9412,933.36124 7.7253,26.2703 -5.8826,-5.21006 -4.8887,6.15246 3.046,-27.2127 z" id="path2745" />
        <use transform="matrix(2,0,0,2,-2167.2809,-946.96759)" style="fill:red" id="use4435" inkscape:transform-center-y="-8.640268" inkscape:transform-center-x="-4.690594" xlink:href="#path2745" y="0" x="0" width="744.09448" height="1052.3622" />
      </g>
    </g>
    <g style="display:inline" transform="matrix(0.50435365,-1.1858087,1.1858087,0.50435365,-1364.5123,1967.5245)" id="g4801" clip-path="url(#clipPath9716)">
      <rect ry="0" transform="matrix(-0.7183395,-0.6956928,0.6956928,-0.7183395,-46.631119,96.754775)" y="376.01733" x="-1620.8837" height="53.588943" width="13.041035" id="rect3457" style="fill:url(#pattern4264);fill-opacity:1;stroke:black;stroke-width:0.77603012;stroke-linecap:round;stroke-linejoin:round;stroke-miterlimit:4;stroke-opacity:1;stroke-dasharray:none;stroke-dashoffset:0;display:inline" />
      <path style="display:inline" d="m 1417.9878,893.94273 -4.0297,4.6064 14.0129,8.13194 -9.9832,-12.73834 z" id="path3463" />
      <use x="0" y="0" xlink:href="#path3463" id="use5032" style="fill:white;stroke:white;stroke-width:2;stroke-miterlimit:8;stroke-dasharray:none;display:inline;filter:url(#filter5277)" width="744.09448" height="1052.3622" transform="matrix(2,0,0,2,-1420.5417,-900.91995)" />
      <use x="0" y="0" xlink:href="#path3463" id="use3086" style="fill:red;display:inline" width="1424" height="983" transform="matrix(2,0,0,2,-1420.5417,-900.91995)" />
    </g>
    <g id="g5650-3" transform="translate(-445.77773,-209.49403)">
      <path transform="matrix(1.1333334,0,0,1.1333334,76.131659,-365.99471)" d="m 1209.4804,1020.305 c 0,13.5036 -10.9468,24.4504 -24.4504,24.4504 -13.5036,0 -24.4504,-10.9468 -24.4504,-24.4504 0,-13.5036 10.9468,-24.45042 24.4504,-24.45042 13.5036,0 24.4504,10.94682 24.4504,24.45042 z" sodipodi:ry="24.450413" sodipodi:rx="24.450413" sodipodi:cy="1020.305" sodipodi:cx="1185.03" id="path5652-1" style="fill:white;fill-opacity:1;fill-rule:nonzero;stroke:#181818;stroke-width:1.7647059;stroke-linecap:round;stroke-linejoin:round;stroke-miterlimit:4;stroke-opacity:1;stroke-dasharray:none;stroke-dashoffset:66;marker:none;visibility:visible;display:inline;overflow:visible;enable-background:accumulate" sodipodi:type="arc" />
      <text id="text5654-23" y="808.94476" x="1405.0837" style="font-size:56px;font-style:normal;font-weight:normal;writing-mode:lr-tb;fill:black;fill-opacity:1;stroke:none;font-family:Times New Roman" xml:space="preserve"><tspan y="808.94476" x="1405.0837" id="tspan5656-3" sodipodi:role="line">1</tspan></text>
    </g>
    <g id="g6398" transform="translate(-1739.3703,-340.90278)">
      <path transform="matrix(1.1333334,0,0,1.1333334,76.131659,-365.99471)" d="m 1209.4804,1020.305 c 0,13.5036 -10.9468,24.4504 -24.4504,24.4504 -13.5036,0 -24.4504,-10.9468 -24.4504,-24.4504 0,-13.5036 10.9468,-24.45042 24.4504,-24.45042 13.5036,0 24.4504,10.94682 24.4504,24.45042 z" sodipodi:ry="24.450413" sodipodi:rx="24.450413" sodipodi:cy="1020.305" sodipodi:cx="1185.03" id="path6400" style="fill:white;fill-opacity:1;fill-rule:nonzero;stroke:#181818;stroke-width:1.7647059;stroke-linecap:round;stroke-linejoin:round;stroke-miterlimit:4;stroke-opacity:1;stroke-dasharray:none;stroke-dashoffset:66;marker:none;visibility:visible;display:inline;overflow:visible;enable-background:accumulate" sodipodi:type="arc" />
      <text id="text6402" y="808.94476" x="1405.0837" style="font-size:56px;font-style:normal;font-weight:normal;writing-mode:lr-tb;fill:black;fill-opacity:1;stroke:none;font-family:Times New Roman" xml:space="preserve"><tspan y="808.94476" x="1405.0837" id="tspan6404" sodipodi:role="line">3</tspan></text>
    </g>
    <g transform="translate(-1652.5682,152.18144)" id="g6406">
      <path sodipodi:type="arc" style="fill:white;fill-opacity:1;fill-rule:nonzero;stroke:#181818;stroke-width:1.7647059;stroke-linecap:round;stroke-linejoin:round;stroke-miterlimit:4;stroke-opacity:1;stroke-dasharray:none;stroke-dashoffset:66;marker:none;visibility:visible;display:inline;overflow:visible;enable-background:accumulate" id="path6408" sodipodi:cx="1185.03" sodipodi:cy="1020.305" sodipodi:rx="24.450413" sodipodi:ry="24.450413" d="m 1209.4804,1020.305 c 0,13.5036 -10.9468,24.4504 -24.4504,24.4504 -13.5036,0 -24.4504,-10.9468 -24.4504,-24.4504 0,-13.5036 10.9468,-24.45042 24.4504,-24.45042 13.5036,0 24.4504,10.94682 24.4504,24.45042 z" transform="matrix(1.1333334,0,0,1.1333334,76.131659,-365.99471)" />
      <text xml:space="preserve" style="font-size:56px;font-style:normal;font-weight:normal;writing-mode:lr-tb;fill:black;fill-opacity:1;stroke:none;font-family:Times New Roman" x="1405.0837" y="808.94476" id="text6410"><tspan sodipodi:role="line" id="tspan6412" x="1405.0837" y="808.94476">4</tspan></text>
    </g>
    <g id="g7009">
      <g id="g6390" transform="translate(-688.1003,-643.50459)">
        <path transform="matrix(1.1333334,0,0,1.1333334,76.131659,-365.99471)" d="m 1209.4804,1020.305 c 0,13.5036 -10.9468,24.4504 -24.4504,24.4504 -13.5036,0 -24.4504,-10.9468 -24.4504,-24.4504 0,-13.5036 10.9468,-24.45042 24.4504,-24.45042 13.5036,0 24.4504,10.94682 24.4504,24.45042 z" sodipodi:ry="24.450413" sodipodi:rx="24.450413" sodipodi:cy="1020.305" sodipodi:cx="1185.03" id="path6392" style="fill:white;fill-opacity:1;fill-rule:nonzero;stroke:#181818;stroke-width:1.7647059;stroke-linecap:round;stroke-linejoin:round;stroke-miterlimit:4;stroke-opacity:1;stroke-dasharray:none;stroke-dashoffset:66;marker:none;visibility:visible;display:inline;overflow:visible;enable-background:accumulate" sodipodi:type="arc" />
        <text id="text6394" y="808.94476" x="1405.0837" style="font-size:56px;font-style:normal;font-weight:normal;writing-mode:lr-tb;fill:black;fill-opacity:1;stroke:none;font-family:Times New Roman" xml:space="preserve"><tspan y="808.94476" x="1405.0837" id="tspan6396" sodipodi:role="line">2</tspan></text>
      </g>
      <path style="display:inline" d="m 728.17893,98.376056 9.35758,0.4288 -3.63466,-24.529599 -5.72292,24.100799 z" id="path3463-8" />
      <use x="0" y="0" xlink:href="#path3463-8" id="use5032-8" style="fill:white;stroke:white;stroke-width:5;stroke-miterlimit:8;stroke-dasharray:none;display:inline;filter:url(#filter5277-1)" width="744.09448" height="1052.3622" transform="matrix(2,0,0,2,-732.85772,-86.540057)" />
      <use x="0" y="0" xlink:href="#path3463-8" id="use3086-2" style="fill:black;display:inline" width="1424" height="983" transform="matrix(2,0,0,2,-732.85772,-86.540057)" />
    </g>
  </g>
</svg>
