<?xml version="1.0" encoding="UTF-8" standalone="no"?>
<!-- Created with Inkscape (http://www.inkscape.org/) -->

<svg
   xmlns:dc="http://purl.org/dc/elements/1.1/"
   xmlns:cc="http://creativecommons.org/ns#"
   xmlns:rdf="http://www.w3.org/1999/02/22-rdf-syntax-ns#"
   xmlns:svg="http://www.w3.org/2000/svg"
   xmlns="http://www.w3.org/2000/svg"
   xmlns:sodipodi="http://sodipodi.sourceforge.net/DTD/sodipodi-0.dtd"
   xmlns:inkscape="http://www.inkscape.org/namespaces/inkscape"
   width="330.40018"
   height="117.81288"
   viewBox="0 0 87.41838 31.171327"
   version="1.1"
   id="svg17002"
   inkscape:version="0.92.0 r15299"
   sodipodi:docname="phoenix raceway.svg">
  <defs
     id="defs16996">
	

	
	
	

		
		
		
		
		
		
		
	
		
		
		
		
		
		
		
	
		
	
			
		
				
				
				
				
				
				
				
			
					
				
					
				</defs>
  <sodipodi:namedview
     id="base"
     pagecolor="#ffffff"
     bordercolor="#666666"
     borderopacity="1.0"
     inkscape:pageopacity="0.0"
     inkscape:pageshadow="2"
     inkscape:zoom="2.7314237"
     inkscape:cx="164.20008"
     inkscape:cy="57.906439"
     inkscape:document-units="mm"
     inkscape:current-layer="layer1"
     showgrid="false"
     fit-margin-top="0"
     fit-margin-left="0"
     fit-margin-right="0"
     fit-margin-bottom="0"
     units="px"
     inkscape:window-width="1280"
     inkscape:window-height="744"
     inkscape:window-x="-4"
     inkscape:window-y="-4"
     inkscape:window-maximized="1" />
  <metadata
     id="metadata16999">
    <rdf:RDF>
      <cc:Work
         rdf:about="">
        <dc:format>image/svg+xml</dc:format>
        <dc:type
           rdf:resource="http://purl.org/dc/dcmitype/StillImage" />
        <dc:title></dc:title>
      </cc:Work>
    </rdf:RDF>
  </metadata>
  <g
     inkscape:label="Layer 1"
     inkscape:groupmode="layer"
     id="layer1"
     transform="translate(301.22434,-204.04263)">
    <g
       id="g17237"
       transform="translate(0.26458508,-0.26458764)">
      <path
         style="fill:#ffffff;stroke-width:0.26458332"
         inkscape:connector-curvature="0"
         class="st0"
         d="m -244.49767,232.51515 h 0.0265 c 1.27,0.50271 4.36563,1.69333 5.3975,2.03729 0.0794,0.0265 0.15875,0.0529 0.23813,0.0794 l 0.0529,0.0265 c 0.68791,0.23812 1.64041,0.55562 2.93687,0.55562 0.79375,0 1.64042,-0.13229 2.51354,-0.37042 0.76729,-0.21166 1.5875,-0.58208 2.35479,-0.9525 1.53459,-0.74083 2.91042,-1.37583 4.15396,-1.98437 l 0.0529,-0.0265 c 2.16958,-1.03187 3.86292,-1.82562 5.23875,-2.51354 2.77812,-1.40229 5.76792,-4.39208 5.715,-8.59896 v -0.0794 l 0.0794,0.0265 c 0.55563,0.21167 0.9525,0.37042 1.27,0.50271 l 0.1323,0.0529 -0.7673,-3.41313 c -0.39687,-0.10583 -0.79375,-0.1852 -1.29645,-0.29104 h -0.0265 v -0.0265 c -0.47625,-1.19062 -1.5875,-3.3602 -3.65125,-4.52437 -1.64042,-0.92604 -3.175,-1.37583 -4.70959,-1.37583 -0.76729,0 -1.56104,0.10583 -2.4077,0.34395 -1.05834,0.29105 -5.26521,1.45521 -9.31334,2.59292 l -2.96333,0.82021 c 0,0 1.53458,-6.50875 1.53458,-6.50875 0.18521,-0.82021 -1.29646,-1.21708 -1.87854,-1.24354 -0.44979,-0.0265 -0.89958,0.0794 -1.32292,0.26458 -0.3175,0.15875 -0.8202,0.39688 -0.87312,0.79375 l -0.52917,4.07458 -0.34396,0.0794 c 0,0 0.23813,-6.95854 0.23813,-6.95854 0.0265,-0.39688 -0.47625,-0.74084 -0.79375,-0.92604 -0.39688,-0.23813 -0.84667,-0.37042 -1.29646,-0.39688 -0.47625,-0.0265 -0.9525,0.10583 -1.37583,0.34396 -0.3175,0.18521 -0.87313,0.52917 -0.84667,0.9525 l 0.3175,8.06979 -0.29104,0.0794 -0.26458,-2.6723 c -0.0794,-0.74083 -1.32292,-1.03187 -1.905,-1.03187 -0.42334,0 -0.84667,0.13229 -1.21709,0.3175 -0.34396,0.18521 -0.82021,0.39687 -0.71437,0.87312 l 1.61396,7.96396 -0.0265,0.0265 c -0.37042,0.44979 -0.68792,0.9525 -0.92604,1.45521 -0.82021,1.69333 -1.00542,3.67771 -0.50271,5.47687 0.21166,0.79375 0.82021,2.32834 2.32833,3.75709 l 0.0794,0.0794 -0.10584,0.0265 c -0.50271,0.15875 -0.97896,0.3175 -1.42875,0.47625 l 1.85209,3.83646 c 1.19062,-0.74083 2.4077,-1.42875 3.65125,-2.09021 z"
         id="path17006" />
      <path
         style="stroke-width:0.26458332"
         inkscape:connector-curvature="0"
         d="m -231.87705,220.13265 -13.73187,5.02708 -4.84188,-1.82562 c -0.13229,0.97896 -0.0794,1.98437 0.18521,2.91042 0.0794,0.26458 0.18521,0.58208 0.34396,0.92604 16.74812,-4.65667 29.55396,-3.14854 32.64958,-2.64584 0.10583,-0.1852 0.18521,-0.39687 0.29104,-0.60854 z"
         id="path17010" />
      <path
         id="path17014"
         d="m -249.36601,228.28182 c 0.37042,0.66146 0.84667,1.03187 1.56104,1.69333 11.7475,-3.94229 25.47938,-4.445 25.47938,-4.445 -9.92188,1.79917 -16.98625,4.39208 -21.40479,6.64104 1.53458,0.58209 3.99521,1.5875 4.84187,1.85209 1.05834,0.34395 2.67229,1.05833 5.42396,0.26458 0.68792,-0.18521 1.42875,-0.52917 2.24896,-0.92604 4.18042,-2.01084 7.22312,-3.41313 9.41917,-4.49792 1.42875,-0.71437 3.14854,-2.01083 4.25979,-3.86292 -11.98563,-1.40229 -23.65375,0.37042 -31.82938,3.28084 z"
         class="st1"
         inkscape:connector-curvature="0"
         style="fill:#00c1de;stroke-width:0.26458332" />
      <path
         style="stroke-width:0.26458332"
         id="path17016"
         d="m -238.49163,208.75557 c -0.44979,-0.29104 -0.87313,-0.55563 -1.42875,-0.52917 -0.52917,0.0265 -1.03188,0.26458 -1.50813,0.52917 l -0.635,6.50875 -1.53458,0.0529 c 0,0 0.37042,-9.3927 0.37042,-9.44562 0,-0.0265 -0.71438,-0.89958 -1.95792,-0.68792 -0.50271,0.0794 -0.84667,0.37042 -1.21708,0.68792 l 0.58208,13.12333 -1.19063,0.34396 -0.76729,-7.91104 -0.21166,-0.15875 c -0.635,-0.44979 -1.45521,-0.47625 -2.11667,-0.0794 0,0 -0.34396,0.21167 -0.34396,0.21167 l 1.85208,9.07521 2.88396,0.39687 0.15875,3.46605 1.5875,-0.635 0.29104,-6.42938 c 0,0 3.28084,-0.71437 3.3073,-0.71437 0.0529,0 0.13229,-0.55563 0.13229,-0.60855 0.13229,-0.5027 0.23812,-1.03187 0.37041,-1.53458 0.3175,-1.29646 0.60855,-2.59292 0.92605,-3.88937 0.1852,-0.58209 0.29104,-1.19063 0.44979,-1.77271 z"
         inkscape:connector-curvature="0" />
      <path
         id="path17018"
         d="m -232.85601,216.82536 c 6.87917,-0.635 12.40896,-0.0529 15.71625,0.47625 -0.52916,-1.13771 -1.53458,-2.88396 -3.22791,-3.81 -2.6723,-1.48167 -4.70959,-1.50813 -6.6675,-0.9525 -1.37584,0.39687 -7.51417,2.11667 -12.46188,3.4925 l -0.29104,1.03187 -2.96333,0.84667 -0.7673,5.63563 11.19188,-5.05355 15.58396,4.78896 c 0.26458,-0.82021 0.39687,-1.71979 0.34396,-2.69875 -9.8425,-3.33375 -16.45709,-3.75708 -16.45709,-3.75708 z m -16.80104,4.07458 c -0.21167,0.39688 -0.39687,0.79375 -0.52917,1.21709 l 4.28625,2.2225 -0.42333,-2.88396 z"
         class="st2"
         inkscape:connector-curvature="0"
         style="fill:#ffc600;stroke-width:0.26458332" />
      <path
         id="path17020"
         d="m -228.78142,217.03703 c 6.69395,0.87312 10.4775,1.85208 13.59958,3.14854 l -0.47625,-1.905 c -6.08542,-1.45521 -13.12333,-1.24354 -13.12333,-1.24354 z"
         class="st1"
         inkscape:connector-curvature="0"
         style="fill:#00c1de;stroke-width:0.26458332" />
      <path
         id="path17022"
         d="m -249.20726,231.13932 c 10.37167,-3.73063 20.13479,-4.7625 20.13479,-4.7625 -7.91104,1.64041 -14.73729,4.97416 -18.83833,7.22312 z"
         class="st2"
         inkscape:connector-curvature="0"
         style="fill:#ffc600;stroke-width:0.26458332" />
      <path
         style="stroke-width:0.26458332"
         id="path17030"
         d="m -299.79559,218.12182 h 3.12208 c 1.82563,0 2.67229,0.34396 2.2225,2.54 -0.44979,2.19604 -1.48166,2.56646 -3.28083,2.56646 h -1.27 l -0.37042,1.79916 h -1.85208 z m 2.40771,3.65125 c 0.42333,0 0.87312,-0.0265 1.08479,-1.08479 0.21167,-1.05834 -0.26458,-1.0848 -0.66146,-1.0848 h -1.27 l -0.44979,2.16959 z"
         inkscape:connector-curvature="0" />
      <path
         style="stroke-width:0.26458332"
         id="path17032"
         d="m -293.52497,218.12182 h 1.87855 l -0.50271,2.54 h 2.61937 l 0.50271,-2.54 h 1.87854 l -1.37583,6.87916 h -1.905 l 0.52917,-2.67229 h -2.61938 l -0.52917,2.67229 h -1.87854 z"
         inkscape:connector-curvature="0" />
      <path
         style="stroke-width:0.26458332"
         id="path17034"
         d="m -287.33372,221.5614 c 0.60855,-3.01625 2.09021,-3.54542 4.18042,-3.54542 2.11667,0 3.33375,0.50271 2.72521,3.54542 -0.60854,2.98979 -2.06375,3.54542 -4.18042,3.54542 -2.09021,0 -3.33375,-0.52917 -2.72521,-3.54542 z m 4.8948,0.26458 c 0.0265,-0.10583 0.10583,-0.5027 0.10583,-0.52916 0.26458,-1.29646 0.0265,-1.71979 -1.16417,-1.71979 -1.16416,0 -1.56104,0.42333 -1.82562,1.71979 0,0.0265 -0.0794,0.44979 -0.10584,0.55562 -0.26458,1.29646 -0.0265,1.79917 1.13771,1.79917 1.19063,-0.0529 1.5875,-0.52917 1.85209,-1.82563 z"
         inkscape:connector-curvature="0" />
      <path
         style="stroke-width:0.26458332"
         id="path17036"
         d="m -279.21101,218.12182 h 5.02709 l -0.3175,1.5875 h -3.175 l -0.21167,1.05833 h 2.54 l -0.3175,1.5875 h -2.54 l -0.23813,1.13771 h 3.175 l -0.3175,1.53458 h -5.02708 z"
         inkscape:connector-curvature="0" />
      <path
         style="stroke-width:0.26458332"
         id="path17038"
         d="m -273.60184,218.12182 h 1.87854 l 1.87854,3.54541 0.71438,-3.54541 h 1.79916 l -1.37583,6.87916 h -1.5875 l -2.09021,-4.02166 -0.82021,4.02166 h -1.79916 z"
         inkscape:connector-curvature="0" />
      <path
         style="stroke-width:0.26458332"
         id="path17040"
         d="m -266.56392,218.12182 h 1.87854 l -1.37584,6.87916 h -1.87854 z"
         inkscape:connector-curvature="0" />
      <path
         style="stroke-width:0.26458332"
         id="path17042"
         d="m -262.5158,221.29682 -1.50812,-3.175 h 2.2225 l 0.89958,1.98437 1.5875,-1.98437 h 1.93146 l -2.83104,3.41312 1.66687,3.4925 h -2.24896 l -1.05833,-2.30187 -1.87854,2.30187 h -1.93146 z"
         inkscape:connector-curvature="0" />
      <path
         id="path17046"
         d="m -290.69392,233.6264 h -2.01084 l -0.89958,-1.87854 h -0.97896 l -0.37042,1.87854 h -1.74625 l 1.37584,-6.87917 h 2.88396 c 1.71979,0 2.54,0.29105 2.0902,2.48709 -0.26458,1.34937 -0.71437,1.87854 -1.42875,2.09021 z m -2.46063,-3.33375 c 0.58208,0 0.87313,-0.18521 1.03188,-1.05833 0.1852,-0.87313 -0.0794,-1.03188 -0.635,-1.03188 h -1.11125 l -0.42334,2.09021 z"
         class="st1"
         inkscape:connector-curvature="0"
         style="fill:#00c1de;stroke-width:0.26458332" />
      <path
         id="path17048"
         d="m -289.00059,233.6264 h -1.79917 l 3.99521,-6.93208 h 1.64042 l 1.21708,6.93208 h -1.87854 l -0.13229,-0.9525 h -2.51354 z m 2.48708,-4.52437 -1.19062,2.11666 h 1.50812 z"
         class="st1"
         inkscape:connector-curvature="0"
         style="fill:#00c1de;stroke-width:0.26458332" />
      <path
         id="path17050"
         d="m -283.55017,230.16036 c 0.58208,-2.8575 1.82562,-3.51896 3.88937,-3.51896 1.24354,0 1.5875,0.13229 1.905,0.18521 l -0.58208,1.53458 c -0.60854,-0.10583 -0.9525,-0.13229 -1.66688,-0.13229 -1.05833,0 -1.40229,0.47625 -1.64041,1.66688 0,0.0265 -0.0794,0.44979 -0.10584,0.52916 -0.23812,1.13771 -0.13229,1.74625 0.9525,1.74625 0.97896,0 1.50813,-0.15875 1.71979,-0.18521 l -0.0265,1.50813 c -0.34396,0.0794 -0.7673,0.21167 -2.01084,0.21167 -2.09021,0 -2.98979,-0.68792 -2.43416,-3.54542 z"
         class="st1"
         inkscape:connector-curvature="0"
         style="fill:#00c1de;stroke-width:0.26458332" />
      <path
         id="path17052"
         d="m -277.09434,226.72078 h 4.7625 l -0.3175,1.5875 h -2.96333 l -0.21167,1.05833 h 2.40771 l -0.3175,1.5875 h -2.40771 l -0.23813,1.13771 h 2.9898 l -0.3175,1.53458 h -4.7625 z"
         class="st1"
         inkscape:connector-curvature="0"
         style="fill:#00c1de;stroke-width:0.26458332" />
      <path
         id="path17054"
         d="m -271.90851,226.72078 h 1.85209 l 0.21166,3.70416 1.61396,-3.51896 h 1.34938 l 0.21166,3.51896 1.69334,-3.70416 h 1.66687 l -3.33375,6.93208 h -1.29646 l -0.23812,-4.18042 -1.905,4.18042 h -1.34938 z"
         class="st1"
         inkscape:connector-curvature="0"
         style="fill:#00c1de;stroke-width:0.26458332" />
      <path
         id="path17056"
         d="m -264.07684,233.6264 h -1.79917 l 4.02167,-6.93208 h 1.64042 l 1.21708,6.93208 h -1.87854 l -0.13229,-0.9525 h -2.51355 z m 2.51354,-4.52437 -1.19062,2.11666 h 1.50812 z"
         class="st1"
         inkscape:connector-curvature="0"
         style="fill:#00c1de;stroke-width:0.26458332" />
      <path
         id="path17058"
         d="m -257.77976,231.37744 -1.61396,-4.65666 h 1.93146 l 0.97896,2.83104 2.11667,-2.83104 h 1.85208 l -3.46604,4.60375 -0.44979,2.27541 h -1.77271 z"
         class="st1"
         inkscape:connector-curvature="0"
         style="fill:#00c1de;stroke-width:0.26458332" />
      <path
         style="stroke-width:0.26458332"
         inkscape:connector-curvature="0"
         d="m -215.57872,222.54036 c 0,-0.47625 0.15875,-0.58208 0.58209,-0.58208 0.39687,0 0.58208,0.13229 0.58208,0.58208 0,0.47625 -0.15875,0.58208 -0.58208,0.58208 -0.39688,0.0265 -0.58209,-0.10583 -0.58209,-0.58208 z m 1.03188,0 c 0,-0.42333 -0.13229,-0.47625 -0.44979,-0.47625 -0.34396,0 -0.44979,0.0529 -0.44979,0.47625 0,0.42333 0.13229,0.47625 0.44979,0.47625 0.3175,0 0.44979,-0.0529 0.44979,-0.47625 z m -0.68792,-0.34396 h 0.29104 c 0.1323,0 0.21167,0.0529 0.21167,0.21167 0,0.10583 -0.0265,0.18521 -0.10583,0.21166 l 0.18521,0.26459 h -0.1323 l -0.15875,-0.23813 h -0.13229 v 0.23813 h -0.13229 v -0.68792 z m 0.26459,0.37042 c 0.0794,0 0.10583,-0.0265 0.10583,-0.13229 0,-0.10584 -0.0529,-0.10584 -0.10583,-0.10584 h -0.15875 v 0.23813 z"
         id="path17064" />
    </g>
  </g>
  <style
     id="style17004"
     type="text/css">
	.st0{fill:#FFFFFF;}
	.st1{fill:#00C1DE;}
	.st2{fill:#FFC600;}
</style>
</svg>
