<?xml version="1.0" encoding="UTF-8" standalone="no"?>
<!-- Created with Inkscape (http://www.inkscape.org/) -->

<svg
   xmlns:dc="http://purl.org/dc/elements/1.1/"
   xmlns:cc="http://creativecommons.org/ns#"
   xmlns:rdf="http://www.w3.org/1999/02/22-rdf-syntax-ns#"
   xmlns:svg="http://www.w3.org/2000/svg"
   xmlns="http://www.w3.org/2000/svg"
   xmlns:sodipodi="http://sodipodi.sourceforge.net/DTD/sodipodi-0.dtd"
   xmlns:inkscape="http://www.inkscape.org/namespaces/inkscape"
   width="85.020271mm"
   height="23.734341mm"
   viewBox="0 0 85.020271 23.734341"
   version="1.1"
   id="svg41505"
   inkscape:version="0.92.0 r15299"
   sodipodi:docname="wwt raceway.svg">
  <defs
     id="defs41499" />
  <sodipodi:namedview
     id="base"
     pagecolor="#ffffff"
     bordercolor="#666666"
     borderopacity="1.0"
     inkscape:pageopacity="0.0"
     inkscape:pageshadow="2"
     inkscape:zoom="2.8246891"
     inkscape:cx="158.77854"
     inkscape:cy="42.962541"
     inkscape:document-units="mm"
     inkscape:current-layer="layer1"
     showgrid="false"
     fit-margin-top="0"
     fit-margin-left="0"
     fit-margin-right="0"
     fit-margin-bottom="0"
     inkscape:window-width="1280"
     inkscape:window-height="744"
     inkscape:window-x="-4"
     inkscape:window-y="-4"
     inkscape:window-maximized="1" />
  <metadata
     id="metadata41502">
    <rdf:RDF>
      <cc:Work
         rdf:about="">
        <dc:format>image/svg+xml</dc:format>
        <dc:type
           rdf:resource="http://purl.org/dc/dcmitype/StillImage" />
        <dc:title></dc:title>
      </cc:Work>
    </rdf:RDF>
  </metadata>
  <g
     inkscape:label="Layer 1"
     inkscape:groupmode="layer"
     id="layer1"
     transform="translate(-69.114847,-149.31736)">
    <g
       id="g41748"
       transform="translate(0.49999915,-0.49999745)">
      <path
         d="m 96.447541,152.31648 c 7.088359,-2.81376 11.885789,0.25012 14.392979,9.18986 h 4.36351 c -3.98568,-9.82909 -10.23761,-12.89332 -18.756489,-9.18986"
         style="fill:#656263;fill-opacity:1;fill-rule:nonzero;stroke:none;stroke-width:0.35277778"
         id="path10053"
         inkscape:connector-curvature="0" />
      <path
         d="m 115.20403,161.50627 h 4.34763 c -4.18077,-7.68809 -11.04582,-13.0175 -19.570696,-10.60132 -1.148645,0.32561 -2.327275,0.79163 -3.533422,1.41146 8.518878,-3.70381 14.770808,-0.63959 18.756488,9.18986"
         style="fill:#9c9a9b;fill-opacity:1;fill-rule:nonzero;stroke:none;stroke-width:0.35277778"
         id="path10057"
         inkscape:connector-curvature="0" />
      <path
         d="m 92.09278,162.8736 h 0.928864 c 0.533753,2.28141 0.586317,2.57175 0.661458,3.04765 h 0.01199 c 0.07549,-0.43498 0.138641,-0.85902 0.579966,-3.04765 h 0.922867 c 0.487892,2.28741 0.528814,2.50754 0.621242,3.04765 h 0.01199 c 0.06914,-0.39441 0.138642,-0.7553 0.678392,-3.04765 h 0.882297 l -1.172281,4.16736 h -0.835377 c -0.429684,-2.04329 -0.505531,-2.44863 -0.644878,-3.25014 h -0.01094 c -0.128059,0.80151 -0.197909,1.10279 -0.644878,3.25014 h -0.812094 z"
         style="fill:#0e0d11;fill-opacity:1;fill-rule:nonzero;stroke:none;stroke-width:0.35277778"
         id="path10061"
         inkscape:connector-curvature="0" />
      <path
         d="m 100.25352,165.49707 c 0,-1.11442 -0.7493,-1.62489 -1.579033,-1.62489 -0.830086,0 -1.577975,0.51047 -1.577975,1.62489 0,1.11478 0.747889,1.62525 1.577975,1.62525 0.829733,0 1.579033,-0.51047 1.579033,-1.62525 m -0.835378,0 c 0,0.39476 -0.116064,0.94051 -0.743655,0.94051 -0.626886,0 -0.742598,-0.54575 -0.742598,-0.94051 0,-0.39441 0.115712,-0.94015 0.742598,-0.94015 0.627591,0 0.743655,0.54574 0.743655,0.94015"
         style="fill:#0e0d11;fill-opacity:1;fill-rule:nonzero;stroke:none;stroke-width:0.35277778"
         id="path10065"
         inkscape:connector-curvature="0" />
      <path
         d="m 100.58407,163.95295 h 0.77858 v 0.53481 h 0.0109 c 0.16792,-0.31397 0.35419,-0.6156 0.84737,-0.6156 0.0526,0 0.10477,0.006 0.15663,0.012 v 0.82409 c -0.0691,-0.0127 -0.15663,-0.0127 -0.23213,-0.0127 -0.63288,0 -0.74859,0.39476 -0.74859,0.73695 v 1.60902 h -0.8128 z"
         style="fill:#0e0d11;fill-opacity:1;fill-rule:nonzero;stroke:none;stroke-width:0.35277778"
         id="path10069"
         inkscape:connector-curvature="0" />
      <path
         inkscape:connector-curvature="0"
         id="path10071"
         style="fill:#0e0d11;fill-opacity:1;fill-rule:nonzero;stroke:none;stroke-width:0.35277778"
         d="m 102.75492,167.04132 h 0.8128 v -4.16772 h -0.8128 z" />
      <path
         d="m 106.93425,162.8736 h -0.8128 v 1.48061 h -0.012 c -0.12736,-0.19756 -0.37148,-0.48225 -0.89359,-0.48225 -0.6798,0 -1.28235,0.52282 -1.28235,1.59032 0,0.84667 0.38277,1.66053 1.29928,1.66053 0.33726,0 0.69744,-0.12242 0.89394,-0.47061 h 0.0123 v 0.38876 h 0.79516 z m -2.16535,2.64654 c 0,-0.48719 0.17392,-0.9458 0.69074,-0.9458 0.55668,0 0.69603,0.49918 0.69603,0.99201 0,0.45932 -0.20285,0.88794 -0.71931,0.88794 -0.52212,0 -0.66746,-0.56832 -0.66746,-0.93415"
         style="fill:#0e0d11;fill-opacity:1;fill-rule:nonzero;stroke:none;stroke-width:0.35277778"
         id="path10075"
         inkscape:connector-curvature="0" />
      <path
         d="m 108.52397,162.8736 h 0.92886 c 0.53446,2.28141 0.58632,2.57175 0.66146,3.04765 h 0.012 c 0.0751,-0.43498 0.13934,-0.85902 0.58032,-3.04765 h 0.92322 c 0.48718,2.28741 0.5281,2.50754 0.62018,3.04765 h 0.0123 c 0.0691,-0.39441 0.13934,-0.7553 0.67909,-3.04765 h 0.88195 l -1.17193,4.16736 h -0.83608 c -0.42969,-2.04329 -0.50553,-2.44863 -0.64418,-3.25014 h -0.0116 c -0.12841,0.80151 -0.1972,1.10279 -0.64417,3.25014 h -0.81245 z"
         style="fill:#0e0d11;fill-opacity:1;fill-rule:nonzero;stroke:none;stroke-width:0.35277778"
         id="path10079"
         inkscape:connector-curvature="0" />
      <path
         inkscape:connector-curvature="0"
         id="path10081"
         style="fill:#0e0d11;fill-opacity:1;fill-rule:nonzero;stroke:none;stroke-width:0.35277778"
         d="m 115.12402,163.58727 h -0.8128 v -0.75459 h 0.8128 z m 0,3.45405 h -0.8128 v -3.08857 h 0.8128 z" />
      <path
         d="m 118.48977,162.8736 h -0.81209 v 1.48061 h -0.0123 c -0.12735,-0.19756 -0.37112,-0.48225 -0.89323,-0.48225 -0.6791,0 -1.28235,0.52282 -1.28235,1.59032 0,0.84667 0.38276,1.66053 1.29963,1.66053 0.3369,0 0.69603,-0.12242 0.89394,-0.47061 h 0.0113 v 0.38876 h 0.79516 z m -2.16394,2.64654 c 0,-0.48719 0.17322,-0.9458 0.69003,-0.9458 0.55739,0 0.69674,0.49918 0.69674,0.99201 0,0.45932 -0.20355,0.88794 -0.72072,0.88794 -0.52212,0 -0.66605,-0.56832 -0.66605,-0.93415"
         style="fill:#0e0d11;fill-opacity:1;fill-rule:nonzero;stroke:none;stroke-width:0.35277778"
         id="path10085"
         inkscape:connector-curvature="0" />
      <path
         d="m 120.91635,166.13576 c -0.0649,0.22049 -0.29598,0.33655 -0.52211,0.33655 -0.65652,0 -0.70273,-0.52211 -0.72602,-0.75459 h 2.11843 v -0.14535 c 0,-1.41005 -0.84173,-1.70074 -1.45132,-1.70074 -1.3522,0 -1.47991,1.19027 -1.47991,1.5614 0,1.27141 0.66746,1.6898 1.53882,1.6898 0.52775,0 1.14335,-0.24483 1.35749,-0.98707 z m -1.22484,-0.94615 c 0.0462,-0.40711 0.24906,-0.65017 0.63253,-0.65017 0.2614,0 0.58067,0.15064 0.62723,0.65017 z"
         style="fill:#0e0d11;fill-opacity:1;fill-rule:nonzero;stroke:none;stroke-width:0.35277778"
         id="path10089"
         inkscape:connector-curvature="0" />
      <path
         d="m 125.07782,167.0415 h -0.87066 v -3.43112 h -1.25976 v -0.7366 h 3.38948 v 0.7366 h -1.25906 z"
         style="fill:#0e0d11;fill-opacity:1;fill-rule:nonzero;stroke:none;stroke-width:0.35277778"
         id="path10093"
         inkscape:connector-curvature="0" />
      <path
         d="m 128.02634,166.13576 c -0.0642,0.22049 -0.29633,0.33655 -0.52211,0.33655 -0.65581,0 -0.70273,-0.52211 -0.72602,-0.75459 h 2.11879 v -0.14535 c 0,-1.41005 -0.84209,-1.70074 -1.45133,-1.70074 -1.3522,0 -1.48026,1.19027 -1.48026,1.5614 0,1.27141 0.66746,1.6898 1.53882,1.6898 0.5274,0 1.143,-0.24483 1.35784,-0.98707 z m -1.22484,-0.94615 c 0.0469,-0.40711 0.24906,-0.65017 0.63253,-0.65017 0.2614,0 0.58067,0.15064 0.62688,0.65017 z"
         style="fill:#0e0d11;fill-opacity:1;fill-rule:nonzero;stroke:none;stroke-width:0.35277778"
         id="path10097"
         inkscape:connector-curvature="0" />
      <path
         d="m 131.86262,165.91462 c -0.0293,0.31962 -0.27834,1.20791 -1.41041,1.20791 -1.16099,0 -1.42804,-0.88829 -1.42804,-1.53811 0,-0.99907 0.43568,-1.71238 1.48026,-1.71238 0.48789,0 1.28834,0.22048 1.36419,1.18357 h -0.82409 c -0.0349,-0.20215 -0.16263,-0.52176 -0.5401,-0.49883 -0.51047,0 -0.64418,0.51082 -0.64418,0.89429 0,0.33584 0.0117,1.0033 0.62724,1.0033 0.41205,0 0.55139,-0.39441 0.55139,-0.53975 z"
         style="fill:#0e0d11;fill-opacity:1;fill-rule:nonzero;stroke:none;stroke-width:0.35277778"
         id="path10101"
         inkscape:connector-curvature="0" />
      <path
         d="m 134.99126,167.0415 h -0.8128 v -1.87537 c 0,-0.22577 -0.0109,-0.60924 -0.52811,-0.60924 -0.35948,0 -0.63888,0.24377 -0.63888,0.71402 v 1.77059 h -0.81209 v -4.16772 h 0.81209 v 1.48061 h 0.0116 c 0.10513,-0.25611 0.45368,-0.48225 0.89465,-0.48225 0.60325,0 1.0735,0.35419 1.0735,1.03294 z"
         style="fill:#0e0d11;fill-opacity:1;fill-rule:nonzero;stroke:none;stroke-width:0.35277778"
         id="path10105"
         inkscape:connector-curvature="0" />
      <path
         d="m 138.30494,167.0415 h -0.81245 v -1.87537 c 0,-0.22577 -0.0113,-0.60924 -0.52775,-0.60924 -0.36054,0 -0.63853,0.24377 -0.63853,0.71402 v 1.77059 h -0.8128 v -3.08857 h 0.77787 v 0.45261 h 0.0117 c 0.11042,-0.1852 0.34254,-0.5334 0.92851,-0.5334 0.6036,0 1.0735,0.35419 1.0735,1.03294 z"
         style="fill:#0e0d11;fill-opacity:1;fill-rule:nonzero;stroke:none;stroke-width:0.35277778"
         id="path10109"
         inkscape:connector-curvature="0" />
      <path
         d="m 141.80531,165.49707 c 0,-1.11442 -0.74859,-1.62489 -1.57833,-1.62489 -0.83044,0 -1.57903,0.51047 -1.57903,1.62489 0,1.11478 0.74859,1.62525 1.57903,1.62525 0.82974,0 1.57833,-0.51047 1.57833,-1.62525 m -0.83608,0 c 0,0.39476 -0.11607,0.94051 -0.74225,0.94051 -0.62794,0 -0.7433,-0.54575 -0.7433,-0.94051 0,-0.39441 0.11536,-0.94015 0.7433,-0.94015 0.62618,0 0.74225,0.54574 0.74225,0.94015"
         style="fill:#0e0d11;fill-opacity:1;fill-rule:nonzero;stroke:none;stroke-width:0.35277778"
         id="path10113"
         inkscape:connector-curvature="0" />
      <path
         inkscape:connector-curvature="0"
         id="path10115"
         style="fill:#0e0d11;fill-opacity:1;fill-rule:nonzero;stroke:none;stroke-width:0.35277778"
         d="m 142.16444,167.04132 h 0.8128 v -4.16772 h -0.8128 z" />
      <path
         d="m 146.50152,165.49707 c 0,-1.11442 -0.74965,-1.62489 -1.57974,-1.62489 -0.82973,0 -1.57797,0.51047 -1.57797,1.62489 0,1.11478 0.74824,1.62525 1.57797,1.62525 0.83009,0 1.57974,-0.51047 1.57974,-1.62525 m -0.83644,0 c 0,0.39476 -0.11606,0.94051 -0.7433,0.94051 -0.62688,0 -0.74189,-0.54575 -0.74189,-0.94051 0,-0.39441 0.11501,-0.94015 0.74189,-0.94015 0.62724,0 0.7433,0.54574 0.7433,0.94015"
         style="fill:#0e0d11;fill-opacity:1;fill-rule:nonzero;stroke:none;stroke-width:0.35277778"
         id="path10119"
         inkscape:connector-curvature="0" />
      <path
         d="m 149.00868,163.95295 v 0.45932 h -0.0123 c -0.0984,-0.20356 -0.3309,-0.54011 -0.90558,-0.54011 -0.67839,0 -1.28234,0.52247 -1.28234,1.59033 0,1.0795 0.58702,1.59596 1.32891,1.59596 0.48789,0 0.69039,-0.22613 0.82479,-0.46461 l 0.0109,0.0123 v 0.37042 c 0,0.49988 -0.20884,0.70838 -0.64488,0.70838 -0.46884,0 -0.53305,-0.15699 -0.56762,-0.31362 h -0.883 c 0.0353,0.65687 0.70802,0.92957 1.34726,0.92957 1.52012,0 1.56174,-0.8883 1.56174,-1.42311 v -2.92488 z m -1.36419,1.5621 c 0,-0.72037 0.33655,-0.94051 0.63817,-0.94051 0.45297,0 0.69674,0.40605 0.69674,0.90488 0,0.42404 -0.14005,0.89429 -0.69074,0.89429 -0.48189,0 -0.64417,-0.46425 -0.64417,-0.85866"
         style="fill:#0e0d11;fill-opacity:1;fill-rule:nonzero;stroke:none;stroke-width:0.35277778"
         id="path10123"
         inkscape:connector-curvature="0" />
      <path
         d="m 152.07259,166.98914 c -0.38276,1.143 -0.48789,1.29364 -1.19627,1.29364 -0.10971,0 -0.24906,-0.005 -0.36583,-0.0109 v -0.65017 c 0.0353,0.006 0.0875,0.0116 0.15769,0.0116 0.29563,0 0.45861,-0.0409 0.53446,-0.46425 l -1.13841,-3.21557 h 0.90558 l 0.66181,2.27506 h 0.0116 l 0.63253,-2.27506 h 0.85937 z"
         style="fill:#0e0d11;fill-opacity:1;fill-rule:nonzero;stroke:none;stroke-width:0.35277778"
         id="path10127"
         inkscape:connector-curvature="0" />
      <path
         d="m 69.114847,156.55705 8.787341,10.41435 12.35075,-10.40871 -5.202766,-0.009 -2.923823,2.46204 -2.055988,-2.45851 H 75.49695 l 3.932061,4.72228 -1.118659,0.93839 -4.708525,-5.66067 z"
         style="fill:#ed232c;fill-opacity:1;fill-rule:nonzero;stroke:none;stroke-width:0.35277778"
         id="path10131"
         inkscape:connector-curvature="0" />
      <path
         d="m 89.809709,158.87801 2.140656,2.55199 5.78873,-4.87291 h -5.234869 z"
         style="fill:#ed232c;fill-opacity:1;fill-rule:nonzero;stroke:none;stroke-width:0.35277778"
         id="path10135"
         inkscape:connector-curvature="0" />
      <path
         d="m 88.850261,159.68276 2.141361,2.55199 -3.61703,3.03495 5.61728,6.70525 -4.551186,0.005 -3.764139,-4.44641 -3.715808,3.1182 -2.141714,-2.55235 z"
         style="fill:#4179c6;fill-opacity:1;fill-rule:nonzero;stroke:none;stroke-width:0.35277778"
         id="path10139"
         inkscape:connector-curvature="0" />
      <path
         d="m 100.45661,152.80187 c -1.829858,0.28011 -3.472039,1.24919 -4.600575,2.69205 h 2.99085 c 2.496605,-2.45816 4.971695,-2.79753 7.425975,-1.01847 l -3.6e-4,-3.6e-4 c -1.60055,-1.38147 -3.72603,-1.99284 -5.81589,-1.67322"
         style="fill:#656263;fill-opacity:1;fill-rule:nonzero;stroke:none;stroke-width:0.35277778"
         id="path10143"
         inkscape:connector-curvature="0" />
      <path
         d="m 93.140072,155.49353 h 2.716036 c 1.128183,-1.44286 2.770364,-2.41194 4.600572,-2.69205 2.08986,-0.31961 4.21499,0.29175 5.8159,1.67323 -1.74308,-2.04047 -3.98921,-2.73438 -6.24558,-2.51425 -0.150284,0.0148 -0.300567,0.0335 -0.45085,0.0564 -2.357967,0.35524 -4.690534,1.67922 -6.436078,3.47662"
         style="fill:#9c9a9b;fill-opacity:1;fill-rule:nonzero;stroke:none;stroke-width:0.35277778"
         id="path10147"
         inkscape:connector-curvature="0" />
      <path
         d="m 135.80604,169.66976 h -1.07738 l -0.35631,0.45191 -0.1143,-0.45191 h -1.07773 l 0.38276,1.47779 -0.68827,0.87312 -0.59443,-2.35091 h -1.07774 l 0.87136,3.36585 h 1.05693 l 0.69426,-0.87383 0.22613,0.87383 h 1.05728 l 2.67511,-3.36585 h -1.07738 l -1.8542,2.35091 -0.22049,-0.87312 z"
         style="fill:#0e0d11;fill-opacity:1;fill-rule:nonzero;stroke:none;stroke-width:0.35277778"
         id="path10151"
         inkscape:connector-curvature="0" />
      <path
         d="m 141.05498,169.69008 0.71191,0.97261 1.23331,-0.97261 h 1.42063 l -2.13395,1.6831 -0.26388,0.20779 -0.39405,1.47073 h -1.00471 l 0.39405,-1.47108 -0.15205,-0.20744 -1.2319,-1.6831 z"
         style="fill:#0e0d11;fill-opacity:1;fill-rule:nonzero;stroke:none;stroke-width:0.35277778"
         id="path10155"
         inkscape:connector-curvature="0" />
      <path
         d="m 127.79428,170.51449 c -0.0494,0.1845 -0.078,0.29104 -0.12735,0.47554 h 2.23872 l -0.19191,0.71544 h -2.23837 c -0.061,0.22683 -0.0769,0.28645 -0.13758,0.51329 h 2.9598 l -0.2226,0.83114 h -3.40925 c -0.3055,0 -0.48824,-0.24976 -0.4064,-0.55527 0.20144,-0.75212 0.40323,-1.50354 0.60467,-2.25566 0.0818,-0.3055 0.39793,-0.55492 0.70343,-0.55492 h 3.40925 l -0.22225,0.83044 z"
         style="fill:#0e0d11;fill-opacity:1;fill-rule:nonzero;stroke:none;stroke-width:0.35277778"
         id="path10159"
         inkscape:connector-curvature="0" />
      <path
         d="m 123.67225,170.469 c -0.11254,0.41981 -0.24871,0.92851 -0.45649,1.70427 h 2.82539 l -0.22295,0.83114 h -3.29812 c -0.29316,0 -0.46779,-0.23918 -0.38947,-0.53163 l 0.61701,-2.30294 c 0.0787,-0.29245 0.38135,-0.53128 0.67451,-0.53128 h 3.29812 l -0.2226,0.83044 z"
         style="fill:#0e0d11;fill-opacity:1;fill-rule:nonzero;stroke:none;stroke-width:0.35277778"
         id="path10163"
         inkscape:connector-curvature="0" />
      <path
         d="m 120.52085,171.77196 -0.27622,-1.09149 -0.86078,1.09149 z m 1.39559,1.25942 h -1.07738 l -0.13724,-0.54399 h -1.88242 l -0.42862,0.54399 h -1.07774 l 2.67512,-3.36586 h 1.05692 z"
         style="fill:#0e0d11;fill-opacity:1;fill-rule:nonzero;stroke:none;stroke-width:0.35277778"
         id="path10167"
         inkscape:connector-curvature="0" />
      <path
         d="m 116.03549,173.02492 h 1.06715 l -0.36124,-1.35043 0.19261,-3.6e-4 c 0.29281,-7e-4 0.59444,-0.23918 0.6731,-0.53163 0.0847,-0.31715 0.17004,-0.63465 0.25471,-0.9518 0.0787,-0.2928 -0.0963,-0.53163 -0.38876,-0.53163 h -3.59586 l -0.22261,0.83079 h 3.06741 l -0.12489,0.46602 c -0.84737,0 -1.69333,0.008 -2.5407,0.0116 -0.29246,0.001 -0.59408,0.23989 -0.6724,0.53199 -0.13617,0.50835 -0.27269,1.01741 -0.40887,1.52576 h 0.53164 0.41451 0.11395 c 0.11994,-0.44802 0.23989,-0.89535 0.35983,-1.34302 0.42404,0 0.84702,-0.002 1.27,-0.003 z"
         style="fill:#0e0d11;fill-opacity:1;fill-rule:nonzero;stroke:none;stroke-width:0.35277778"
         id="path10171"
         inkscape:connector-curvature="0" />
      <path
         d="m 138.7602,171.77987 -0.27622,-1.09149 -0.86078,1.09149 z m 1.39559,1.25906 h -1.07738 l -0.13724,-0.54363 h -1.88242 l -0.42862,0.54363 h -1.07774 l 2.67476,-3.3655 h 1.05728 z"
         style="fill:#0e0d11;fill-opacity:1;fill-rule:nonzero;stroke:none;stroke-width:0.35277778"
         id="path10175"
         inkscape:connector-curvature="0" />
      <path
         d="m 112.54733,171.88632 h -1.80128 l 0.29986,-1.12466 h 1.80128 z"
         style="fill:#0e0d11;fill-opacity:1;fill-rule:nonzero;stroke:none;stroke-width:0.35277778"
         id="path10179"
         inkscape:connector-curvature="0" />
      <path
         d="m 111.03081,170.7753 h -1.80093 l 0.29951,-1.12466 h 1.80128 z"
         style="fill:#0e0d11;fill-opacity:1;fill-rule:nonzero;stroke:none;stroke-width:0.35277778"
         id="path10183"
         inkscape:connector-curvature="0" />
      <path
         d="m 110.43102,173.02492 h -1.80093 l 0.29986,-1.12466 h 1.80093 z"
         style="fill:#0e0d11;fill-opacity:1;fill-rule:nonzero;stroke:none;stroke-width:0.35277778"
         id="path10187"
         inkscape:connector-curvature="0" />
      <path
         d="m 107.42845,170.7753 h -1.80093 l 0.29986,-1.12466 h 1.80093 z"
         style="fill:#0e0d11;fill-opacity:1;fill-rule:nonzero;stroke:none;stroke-width:0.35277778"
         id="path10191"
         inkscape:connector-curvature="0" />
      <path
         d="m 106.82884,173.02492 h -1.80128 l 0.29986,-1.12466 h 1.80128 z"
         style="fill:#0e0d11;fill-opacity:1;fill-rule:nonzero;stroke:none;stroke-width:0.35277778"
         id="path10195"
         inkscape:connector-curvature="0" />
      <path
         d="m 102.57963,171.90013 -0.29422,1.12466 h 0.32562 l 0.29421,-1.12466 z m -0.41875,0 -0.29421,1.12466 h 0.24094 l 0.29422,-1.12466 z m 0.71297,-1.12466 h 0.32596 l 0.29422,-1.125 H 103.167 l -0.005,0.0226 z m 0.70802,-1.125 -0.0109,0.0617 -0.27835,1.06327 h 0.53376 l 0.29986,-1.125 z m -0.87771,3.37432 h 0.52211 l 0.30022,-1.12466 h -0.52811 z m -0.96238,-1.12466 -0.29421,1.12466 h 0.15628 l 0.29421,-1.12466 z m 0.2413,-2.24966 h -0.0713 l -0.29457,1.125 h 0.0716 z m -0.95426,3.37432 h 0.0713 l 0.29457,-1.12466 h -0.0716 z m 1.45803,-3.37432 h -0.15628 l -0.29422,1.125 h 0.15593 z m 0.2092,1.125 0.29457,-1.125 h -0.2413 l -0.29422,1.125 z"
         style="fill:#0e0d11;fill-opacity:1;fill-rule:nonzero;stroke:none;stroke-width:0.35277778"
         id="path10199"
         inkscape:connector-curvature="0" />
      <path
         d="m 108.92981,171.90013 h -1.80128 l 0.29986,-1.12466 h 1.80128 z"
         style="fill:#0e0d11;fill-opacity:1;fill-rule:nonzero;stroke:none;stroke-width:0.35277778"
         id="path10203"
         inkscape:connector-curvature="0" />
      <path
         d="m 105.32745,171.90013 h -1.80093 l 0.29986,-1.12466 h 1.80093 z"
         style="fill:#0e0d11;fill-opacity:1;fill-rule:nonzero;stroke:none;stroke-width:0.35277778"
         id="path10207"
         inkscape:connector-curvature="0" />
    </g>
  </g>
</svg>
