<?xml version="1.0" encoding="utf-8"?>
<!-- Generator: Adobe Illustrator 15.1.0, SVG Export Plug-In  -->
<!DOCTYPE svg PUBLIC "-//W3C//DTD SVG 1.1//EN" "http://www.w3.org/Graphics/SVG/1.1/DTD/svg11.dtd" [
	<!ENTITY ns_flows "http://ns.adobe.com/Flows/1.0/">
]>
<svg version="1.1"
	 xmlns="http://www.w3.org/2000/svg" xmlns:xlink="http://www.w3.org/1999/xlink" xmlns:a="http://ns.adobe.com/AdobeSVGViewerExtensions/3.0/"
	 x="0px" y="0px" width="200px" height="200px" viewBox="-9.142 -43.744 200 200" enable-background="new -9.142 -43.744 200 200"
	 xml:space="preserve">
<defs>
</defs>
<path fill-rule="evenodd" clip-rule="evenodd" fill="#58585A" d="M24.84,83.141h4.202c0.465,0,0.751,0.284,0.751,0.749v1.534h5.551
	l16.658-16.713h6.691L38.12,89.338c-0.417,0.419-0.89,0.704-1.635,0.704H25.2c-0.932,0-1.68-0.582-1.68-1.502V84.1
	C23.52,83.279,24.296,83.141,24.84,83.141L24.84,83.141z M9.656,98.289V87.016c0-0.54,0.229-1.118,0.611-1.495l8.422-8.287
	c0.354-0.346,0.861-0.623,1.358-0.611l2.377,0.069l-5.094,4.822c-0.395,0.374-0.476,1.018-0.476,1.562v11.379l-7.267,7.432
	c-0.525,0.539-0.425,1.225,0.339,1.225h6.316c1.107,0,1.786-0.278,2.513-1.088c0.445,0.525,0.538,1.725,0,2.242l-5.026,4.821
	c-0.697,0.67-1.749,1.02-2.716,1.02H1.37c-1.424,0-1.81-1.57-0.814-2.582L9.656,98.289L9.656,98.289z M28.297,74.715h2.126
	c0.507,0,1.091-0.094,1.455-0.447l3.917-3.806c0.66-0.64,0.253-1.791-0.784-1.791H23.931l-9.399-9.399
	c-0.427-0.428-0.672-1.075-0.672-1.679V43.604c0-0.354-0.086-0.758-0.335-1.007l-3.246-3.246c-0.669-0.669-0.659-1.585,0-2.238
	L23.372,24.13c0.428-0.424,0.672-1.076,0.672-1.679v-4.365c0-1.042-0.054-1.736,0.895-2.685l7.498-7.498
	c0.669-0.669,0.869-0.589,1.571,0l3.465,2.91h5.82c0.52,0,1.107-0.173,1.455-0.559l2.016-2.239c0.347-0.386,0.935-0.56,1.455-0.56
	h6.938c1.608,0,2.35,0.802,2.35,2.351v3.471l8.058,7.833h11.639c0.534,0,1.078,0.294,1.455,0.671l3.917,3.917
	c0.523,0.522,1.266,0.52,1.791,0l8.618-8.505c0.817-0.809,1.786-0.787,2.573,0l4.364,4.365c0.335,0.334,0.449,0.872,0.449,1.344
	v5.259c0,0.622-0.076,1.231-1.253,1.231h-2.889c-0.873,0-1.23,0.596-1.23,1.231v4.701l-6.771,6.771h5.54
	c0.561,0,1.17-0.219,1.566-0.616l6.491-6.491c0.508-0.508,1.007-1.185,1.007-1.902v-5.279c0-1.123,0.363-1.384,1.213-1.384h2.258
	c1.116,0,1.829-0.708,1.829-1.554v-4.208c0-0.556-0.424-1.065-0.823-1.452l-8.169-7.946c-1.071-1.042-2.552-1.03-3.582,0
	l-8.17,8.169c-0.998,0.999-1.55,0.871-2.583,0l-2.789-2.35c-0.318-0.27-0.702-0.56-1.119-0.56H67.131l-6.842-6.662
	c-0.285-0.277-0.544-0.663-0.544-1.06V3.074c0-1.169-0.625-1.95-1.977-1.95H47.434c-0.778,0-1.442,0.656-2.015,1.184l-4.252,3.917
	h-5.484l-4.476-4.141c-0.536-0.497-1.365-0.531-1.902,0l-8.282,8.17c-0.739,0.729-1.119,1.871-1.119,2.91v5.441L5.242,33.419
	c-1.313,1.326-1.451,2.486-0.085,3.805l2.508,2.422V56.92c0,1.055,0.186,2.28,0.936,3.022l10.333,10.229
	c0.511,0.506,1.228,0.861,1.947,0.859l9.543-0.009c0.771-0.001,0.969,0.733,0.448,1.232L28.297,74.715L28.297,74.715z"/>
<path fill-rule="evenodd" clip-rule="evenodd" fill="#ED1B24" d="M37.469,62.848h3.951l2.622-10.148h2.435
	c0.951,0,1.332,0.708,1.075,1.707l-2.181,8.442h3.951l2.376-9.197c0.567-2.196-0.469-4.168-3.61-4.168h-7.164L37.469,62.848
	L37.469,62.848z M171.7,67.968h-6.032l0.865-3.349l5.424-0.015c0.624-0.002,1.438-0.398,1.583-1.007l0.181-0.75h-3.178
	c-3.143,0-4.18-1.973-3.612-4.17l1.152-4.457c1.193-4.614,4.199-4.739,5.175-4.739h7.901l-3.43,13.344
	C176.788,66.489,175.293,67.968,171.7,67.968L171.7,67.968z M172.029,54.232l-0.953,3.693c-0.257,0.997,0.125,1.705,1.077,1.705
	h2.393l1.816-7.076h-2.42C173.093,52.554,172.242,53.412,172.029,54.232L172.029,54.232z M123.893,67.968h-6.033l0.866-3.349
	l5.424-0.015c0.624-0.002,1.438-0.398,1.582-1.007l0.183-0.75h-3.18c-3.142,0-4.178-1.973-3.609-4.17l1.151-4.457
	c1.191-4.614,4.199-4.739,5.174-4.739h7.901l-3.43,13.344C128.982,66.489,127.486,67.968,123.893,67.968L123.893,67.968z
	 M124.224,54.232l-0.954,3.693c-0.257,0.997,0.125,1.705,1.075,1.705h2.394l1.815-7.076h-2.418
	C125.289,52.554,124.436,53.412,124.224,54.232L124.224,54.232z M82.924,44.19h4.009l-1.356,5.292h3.178
	c3.143,0,4.178,1.972,3.61,4.168l-1.152,4.458c-1.192,4.615-4.199,4.739-5.175,4.739h-7.9L82.924,44.19L82.924,44.19z
	 M87.265,58.096l0.954-3.69c0.257-0.999-0.124-1.707-1.075-1.707H84.75l-1.815,7.077h2.419
	C86.201,59.776,87.053,58.918,87.265,58.096L87.265,58.096z M133.404,62.848h3.96l2.011-7.929c0.247-0.975,0.674-2.219,2.467-2.219
	h1.495l0.817-3.217h-2.302c-3.261,0-5.514,1.792-6.219,4.576L133.404,62.848L133.404,62.848z M108.504,62.848h3.96l2.011-7.929
	c0.248-0.975,0.674-2.219,2.466-2.219h1.497l0.816-3.217h-2.302c-3.261,0-5.515,1.792-6.22,4.576L108.504,62.848L108.504,62.848z
	 M68.32,62.848h3.959l2.011-7.929c0.247-0.975,0.673-2.219,2.466-2.219h1.498l0.815-3.217h-2.301c-3.26,0-5.515,1.792-6.22,4.576
	L68.32,62.848L68.32,62.848z M108.412,49.482h-3.952l-2.621,10.147h-2.436c-0.951,0-1.331-0.708-1.075-1.705l2.182-8.442h-3.95
	l-2.376,9.195c-0.568,2.197,0.468,4.17,3.61,4.17h7.164L108.412,49.482L108.412,49.482z M147.183,62.848l3.462-13.365h-3.951
	l-3.437,13.365H147.183L147.183,62.848z M68.066,49.482h-3.95L61.494,59.63H59.06c-0.951,0-1.333-0.708-1.075-1.705l2.181-8.442
	h-3.951l-2.376,9.195c-0.568,2.197,0.468,4.17,3.611,4.17h7.163L68.066,49.482L68.066,49.482z M150.43,44.19
	c-1.035-0.001-2.383,0.63-2.642,1.632l-0.537,2.08h3.95l0.958-3.71L150.43,44.19L150.43,44.19z M67.117,44.19
	c-1.035-0.001-2.383,0.63-2.642,1.632l-0.537,2.08h3.95l0.958-3.71L67.117,44.19L67.117,44.19z M60.795,44.19
	c-1.035-0.001-2.383,0.63-2.641,1.632l-0.538,2.08h3.951l0.958-3.71L60.795,44.19L60.795,44.19z M150.778,62.848h3.95l2.622-10.148
	h2.434c0.951,0,1.332,0.708,1.075,1.707l-2.181,8.442h3.949l2.377-9.197c0.568-2.196-0.469-4.168-3.611-4.168h-7.163L150.778,62.848
	L150.778,62.848z"/>
<path fill-rule="evenodd" clip-rule="evenodd" fill="#BCBDC1" d="M24.84,82.017h4.202c0.465,0,0.751,0.283,0.751,0.749v1.531h5.551
	l15.59-15.586h6.691L38.12,88.213c-0.419,0.42-0.898,0.705-1.635,0.705H25.2c-0.932,0-1.68-0.581-1.68-1.501v-4.44
	C23.52,82.156,24.296,82.017,24.84,82.017L24.84,82.017z M9.656,97.165V85.89c0-0.537,0.229-1.115,0.611-1.493l8.422-8.286
	c0.354-0.347,0.861-0.624,1.358-0.611l2.377,0.068L17.33,80.39c-0.395,0.374-0.476,1.02-0.476,1.563V93.33l-7.267,7.434
	c-0.525,0.537-0.425,1.223,0.339,1.223h6.316c1.107,0,1.786-0.278,2.513-1.086c0.445,0.522,0.538,1.724,0,2.24l-5.026,4.821
	c-0.697,0.669-1.749,1.02-2.716,1.02H1.37c-1.424,0-1.81-1.57-0.814-2.582L9.656,97.165L9.656,97.165z M28.297,73.592h2.126
	c0.507,0,1.091-0.095,1.455-0.448l3.917-3.806c0.66-0.64,0.253-1.79-0.784-1.79H23.931l-9.399-9.4
	c-0.427-0.428-0.672-1.076-0.672-1.679V42.479c0-0.354-0.086-0.757-0.335-1.007l-3.246-3.246c-0.669-0.669-0.659-1.585,0-2.238
	l13.093-12.981c0.428-0.424,0.672-1.077,0.672-1.679v-4.366c0-1.042-0.054-1.736,0.895-2.685l7.498-7.499
	c0.669-0.67,0.869-0.59,1.571,0l3.465,2.91h5.82c0.52,0,1.107-0.174,1.455-0.561l2.016-2.238c0.347-0.385,0.935-0.559,1.455-0.559
	h6.938c1.608,0,2.35,0.802,2.35,2.35v3.472l8.058,7.832h11.639c0.534,0,1.078,0.294,1.455,0.672l3.917,3.917
	c0.523,0.521,1.266,0.518,1.791,0l8.618-8.506c0.817-0.808,1.786-0.787,2.573,0l4.364,4.365c0.335,0.333,0.449,0.872,0.449,1.343
	v5.26c0,0.623-0.076,1.231-1.253,1.231h-2.889c-0.873,0-1.23,0.597-1.23,1.231v4.7l-6.771,6.771h5.54
	c0.561,0,1.17-0.219,1.566-0.616l6.491-6.491c0.508-0.508,1.007-1.185,1.007-1.903v-5.279c0-1.124,0.363-1.384,1.213-1.384h2.258
	c1.116,0,1.829-0.708,1.829-1.554v-4.208c0-0.557-0.424-1.064-0.823-1.452l-8.169-7.946c-1.071-1.042-2.552-1.031-3.582,0
	l-8.17,8.17c-0.998,0.998-1.55,0.871-2.583,0l-2.789-2.351c-0.318-0.268-0.702-0.56-1.119-0.56H67.131l-6.842-6.662
	c-0.285-0.277-0.544-0.663-0.544-1.061V1.95c0-1.17-0.625-1.95-1.977-1.95H47.434c-0.778,0-1.442,0.656-2.015,1.183L41.167,5.1
	h-5.484l-4.476-4.141c-0.536-0.496-1.365-0.53-1.902,0l-8.282,8.169c-0.739,0.73-1.119,1.872-1.119,2.91v5.442L5.242,32.295
	c-1.313,1.326-1.451,2.486-0.085,3.805l2.508,2.423v17.274c0,1.053,0.186,2.279,0.936,3.021l10.333,10.229
	c0.511,0.506,1.228,0.86,1.947,0.86l9.543-0.008c0.771-0.001,0.969,0.731,0.448,1.23L28.297,73.592L28.297,73.592z"/>
</svg>
