<?xml version="1.0" encoding="UTF-8" standalone="no"?>
<!-- Created with Inkscape (http://www.inkscape.org/) -->

<svg
   xmlns:dc="http://purl.org/dc/elements/1.1/"
   xmlns:cc="http://creativecommons.org/ns#"
   xmlns:rdf="http://www.w3.org/1999/02/22-rdf-syntax-ns#"
   xmlns:svg="http://www.w3.org/2000/svg"
   xmlns="http://www.w3.org/2000/svg"
   xmlns:sodipodi="http://sodipodi.sourceforge.net/DTD/sodipodi-0.dtd"
   xmlns:inkscape="http://www.inkscape.org/namespaces/inkscape"
   width="142.54317mm"
   height="21.17977mm"
   viewBox="0 0 142.54317 21.17977"
   version="1.1"
   id="svg9590"
   inkscape:version="0.92.0 r15299"
   sodipodi:docname="richmond raceway.svg">
  <defs
     id="defs9584" />
  <sodipodi:namedview
     id="base"
     pagecolor="#ffffff"
     bordercolor="#666666"
     borderopacity="1.0"
     inkscape:pageopacity="0.0"
     inkscape:pageshadow="2"
     inkscape:zoom="1.6767412"
     inkscape:cx="267.48314"
     inkscape:cy="38.134998"
     inkscape:document-units="mm"
     inkscape:current-layer="layer1"
     showgrid="false"
     fit-margin-top="0"
     fit-margin-left="0"
     fit-margin-right="0"
     fit-margin-bottom="0"
     inkscape:window-width="1280"
     inkscape:window-height="744"
     inkscape:window-x="-4"
     inkscape:window-y="-4"
     inkscape:window-maximized="1" />
  <metadata
     id="metadata9587">
    <rdf:RDF>
      <cc:Work
         rdf:about="">
        <dc:format>image/svg+xml</dc:format>
        <dc:type
           rdf:resource="http://purl.org/dc/dcmitype/StillImage" />
        <dc:title></dc:title>
      </cc:Work>
    </rdf:RDF>
  </metadata>
  <g
     inkscape:label="Layer 1"
     inkscape:groupmode="layer"
     id="layer1"
     transform="translate(18.610867,-170.2494)">
    <g
       id="g9797"
       transform="translate(0.50000365,-0.50000121)">
      <path
         style="stroke-width:0.26458332"
         id="path9061"
         d="m 120.08371,190.96086 0.28046,-0.45773 h 0.29898 l -0.1905,0.79111 h -0.21167 l 0.12436,-0.51859 h -0.005 l -0.29633,0.51859 h -0.16933 l -0.045,-0.51859 h -0.003 l -0.12435,0.51859 h -0.21167 l 0.1905,-0.79111 h 0.29898 z m -0.56091,-0.27516 h -0.21167 l -0.14552,0.60854 h -0.23813 l 0.14552,-0.60854 h -0.21166 l 0.045,-0.18257 h 0.66146 z"
         inkscape:connector-curvature="0" />
      <path
         style="stroke-width:0.26458332"
         id="path9063"
         d="m 35.546695,176.54372 c 0.642938,0 1.15623,-0.36777 1.280584,-0.92869 0.121706,-0.56092 -0.232834,-0.92869 -0.873125,-0.92869 h -1.113896 l -0.404813,1.86002 h 1.11125 z m 4.278313,6.80508 c 0.06085,0.15875 -0.100544,0.28046 -0.269875,0.28046 H 35.5123 c -0.1905,0 -0.333375,-0.12171 -0.373065,-0.28046 l -1.129771,-3.82323 h -0.227539 l -0.841375,3.85763 c -0.02646,0.1217 -0.185211,0.24606 -0.35719,0.24606 h -3.32581 c -0.150815,0 -0.256646,-0.12171 -0.23019,-0.24606 l 2.532065,-11.5914 c 0.0291,-0.14023 0.1905,-0.26194 0.34131,-0.26194 h 4.987398 c 2.910417,0 4.492625,1.57956 3.971396,3.96346 -0.301625,1.38642 -1.516065,2.78871 -3.05594,3.34963 z"
         inkscape:connector-curvature="0" />
      <path
         style="stroke-width:0.26458332"
         id="path9065"
         d="m 46.992568,171.52722 c 0.169336,0 0.256646,0.1217 0.224896,0.26193 l -2.53206,11.5914 c -0.02646,0.12171 -0.16669,0.24606 -0.336021,0.24606 H 41.00505 c -0.132292,0 -0.238125,-0.12171 -0.211667,-0.24606 l 2.532062,-11.5914 c 0.03175,-0.14023 0.1905,-0.26193 0.32279,-0.26193 z"
         inkscape:connector-curvature="0" />
      <path
         style="stroke-width:0.26458332"
         id="path9067"
         d="m 56.155089,182.56034 c 0.0291,0.12171 -0.07144,0.24606 -0.238125,0.31486 -1.232956,0.63235 -2.791352,1.016 -4.191,1.016 -3.892021,0 -5.947831,-2.52413 -5.122331,-6.31296 0.828146,-3.78884 3.987271,-6.31296 7.879292,-6.31296 1.399643,0 2.788708,0.38629 3.746497,1.016 0.13494,0.0714 0.185211,0.19314 0.100542,0.31485 l -1.780646,2.43682 c -0.111125,0.15875 -0.254,0.21166 -0.388935,0.14022 -0.619125,-0.36777 -1.272646,-0.49212 -2.084919,-0.49212 -1.701271,0 -3.087685,1.15623 -3.466039,2.89454 -0.378357,1.73567 0.500062,2.89454 2.201333,2.89454 0.812271,0 1.518706,-0.12171 2.299229,-0.49212 0.166688,-0.0688 0.288396,-0.0185 0.328081,0.14023 z"
         inkscape:connector-curvature="0" />
      <path
         style="stroke-width:0.26458332"
         id="path9069"
         d="m 70.066883,171.52722 c 0.169333,0 0.256646,0.1217 0.224896,0.26193 l -2.532063,11.5914 c -0.02646,0.12171 -0.166687,0.24606 -0.336023,0.24606 h -3.532185 c -0.150815,0 -0.238125,-0.12171 -0.211667,-0.24606 l 0.85725,-3.92906 h -2.645833 l -0.85725,3.92906 c -0.02646,0.12171 -0.16669,0.24606 -0.336021,0.24606 h -3.534833 c -0.132292,0 -0.238125,-0.12171 -0.211667,-0.24606 l 2.53206,-11.5914 c 0.03175,-0.14023 0.1905,-0.26193 0.322792,-0.26193 h 3.534833 c 0.169336,0 0.256646,0.1217 0.224896,0.26193 l -1.000125,4.5773 h 2.645836 l 1.000125,-4.5773 c 0.0291,-0.14023 0.171979,-0.26193 0.322789,-0.26193 z"
         inkscape:connector-curvature="0" />
      <path
         style="stroke-width:0.26458332"
         id="path9071"
         d="m 85.955113,171.52722 c 0.15081,0 0.23812,0.1217 0.20637,0.26193 l -2.53206,11.5914 c -0.0265,0.12171 -0.16669,0.24606 -0.3175,0.24606 h -3.495144 c -0.150813,0 -0.256646,-0.12171 -0.230188,-0.24606 l 1.127125,-5.15673 -3.034773,5.14085 c -0.08731,0.14023 -0.359831,0.26194 -0.529167,0.26194 h -2.079625 c -0.169333,0 -0.388935,-0.12171 -0.415393,-0.26194 l -0.785815,-5.1382 -1.127125,5.15673 c -0.02646,0.1217 -0.185206,0.24606 -0.336021,0.24606 h -3.495143 c -0.150813,0 -0.238125,-0.12171 -0.211667,-0.24606 l 2.53206,-11.5914 c 0.0291,-0.14023 0.171979,-0.26194 0.322794,-0.26194 h 3.950227 c 0.246065,0 0.494773,0.15875 0.566208,0.3519 l 1.143,6.69925 4.07194,-6.69925 c 0.156107,-0.19315 0.473607,-0.3519 0.719667,-0.3519 h 3.95023 z"
         inkscape:connector-curvature="0" />
      <path
         style="stroke-width:0.26458332"
         id="path9073"
         d="m 92.844863,174.78953 c -1.55046,0 -2.83369,1.12183 -3.19881,2.78871 -0.36248,1.66687 0.43127,2.78871 1.97908,2.78871 1.55046,0 2.83369,-1.12184 3.19881,-2.78871 0.36513,-1.66423 -0.42862,-2.78871 -1.97908,-2.78871 z m -1.98438,9.08579 c -4.02431,0 -6.15685,-2.52412 -5.334,-6.29444 0.8308,-3.80471 4.06665,-6.33148 8.09096,-6.33148 4.02431,0 6.15686,2.52413 5.32342,6.33148 -0.82021,3.76767 -4.05342,6.29444 -8.08038,6.29444 z"
         inkscape:connector-curvature="0" />
      <path
         style="stroke-width:0.26458332"
         inkscape:connector-curvature="0"
         d="m 111.59853,171.52722 c 0.16933,0 0.25664,0.1217 0.22489,0.26193 l -2.53206,11.5914 c -0.0265,0.12171 -0.16669,0.24606 -0.33602,0.24606 h -3.27025 c -0.13229,0 -0.28311,-0.0873 -0.34661,-0.22754 l -2.0955,-5.45306 -1.18798,5.43719 c -0.0265,0.1217 -0.16668,0.24606 -0.33602,0.24606 h -3.344327 c -0.15081,0 -0.23812,-0.12171 -0.21167,-0.24606 l 2.532067,-11.5914 c 0.0318,-0.14023 0.17197,-0.26194 0.32279,-0.26194 h 3.27025 c 0.16933,0 0.33866,0.0873 0.38364,0.22754 l 2.07698,5.45307 1.18269,-5.41867 c 0.0318,-0.14023 0.1905,-0.26194 0.32279,-0.26194 h 3.34434 z"
         id="path9075" />
      <path
         style="stroke-width:0.26458332"
         inkscape:connector-curvature="0"
         d="m 115.69163,180.47278 c 1.45521,0 2.69081,-1.15623 3.06917,-2.89454 0.37835,-1.73567 -0.34925,-2.89454 -1.80446,-2.89454 h -0.98161 l -1.2647,5.78643 h 0.9816 z m 1.72773,-8.94556 c 4.00579,0 6.14627,2.40241 5.34723,6.05102 -0.78846,3.61156 -3.98727,6.05102 -7.99306,6.05102 h -4.38415 c -0.13229,0 -0.23813,-0.12171 -0.20638,-0.26194 l 2.52942,-11.57552 c 0.0318,-0.14023 0.1905,-0.26194 0.32279,-0.26194 h 4.38415 z"
         id="path9077" />
      <path
         style="stroke-width:0.26458332"
         id="path9081"
         d="m 79.946425,187.62447 c 0.325437,0 0.592666,-0.1905 0.664104,-0.48155 0.07144,-0.29104 -0.103188,-0.48154 -0.428625,-0.48154 h -0.566209 l -0.235479,0.96309 z m 2.063748,3.52425 c 0.0291,0.082 -0.0529,0.14552 -0.14023,0.14552 h -2.053164 c -0.09525,0 -0.166688,-0.0635 -0.185209,-0.14552 l -0.513294,-1.98173 h -0.113768 l -0.489482,1.9976 c -0.01588,0.0635 -0.0979,0.127 -0.185208,0.127 h -1.688042 c -0.07673,0 -0.129643,-0.0635 -0.113768,-0.127 l 1.468435,-6.00604 c 0.01852,-0.0714 0.100544,-0.13494 0.177273,-0.13494 h 2.532063 c 1.479024,0 2.256894,0.81756 1.955274,2.05317 -0.17463,0.71702 -0.81227,1.44462 -1.603378,1.73567 z"
         inkscape:connector-curvature="0" />
      <path
         style="stroke-width:0.26458332"
         id="path9083"
         d="m 86.815003,187.19584 -0.93927,1.72773 h 1.03717 z m 2.40507,3.97933 c 0.0159,0.0529 -0.0397,0.11642 -0.11642,0.11642 h -1.89971 c -0.0873,0 -0.15346,-0.045 -0.17198,-0.11642 l -0.0556,-0.95514 h -1.80446 l -0.52123,0.95514 c -0.0556,0.0714 -0.14287,0.11642 -0.23018,0.11642 h -1.89971 c -0.0767,0 -0.10054,-0.0635 -0.0582,-0.11642 l 3.64331,-6.0325 c 0.0423,-0.0556 0.16404,-0.11906 0.25929,-0.11906 h 1.95792 c 0.0953,0 0.18521,0.0635 0.20108,0.11906 z"
         inkscape:connector-curvature="0" />
      <path
         style="stroke-width:0.26458332"
         id="path9085"
         d="m 94.302713,190.73861 c 0.0132,0.0635 -0.0397,0.127 -0.127,0.16404 -0.63764,0.32809 -1.43404,0.52652 -2.14312,0.52652 -1.97644,0 -2.98186,-1.30704 -2.50031,-3.27025 0.47889,-1.9632 2.1246,-3.27025 4.10104,-3.27025 0.70908,0 1.41023,0.19844 1.88648,0.52653 0.0688,0.037 0.09,0.10054 0.045,0.16404 l -0.94191,1.26206 c -0.0582,0.082 -0.1323,0.10848 -0.20109,0.0741 -0.30691,-0.1905 -0.63764,-0.254 -1.05039,-0.254 -0.86519,0 -1.5875,0.59796 -1.80711,1.49754 -0.2196,0.89959 0.20902,1.50019 1.07157,1.50019 0.41275,0 0.77258,-0.0635 1.17475,-0.254 0.0873,-0.037 0.14816,-0.0106 0.16404,0.0714 z"
         inkscape:connector-curvature="0" />
      <path
         style="stroke-width:0.26458332"
         id="path9087"
         d="m 99.798113,189.65911 c 0.0767,0 0.12964,0.0529 0.11377,0.11642 l -0.33867,1.38906 c -0.0159,0.0635 -0.0979,0.127 -0.17462,0.127 h -4.46088 c -0.0662,0 -0.11641,-0.0714 -0.11906,-0.13494 l 1.46844,-6.00604 c 0.0212,-0.082 0.0794,-0.127 0.16669,-0.127 h 4.365617 c 0.0847,0 0.13758,0.0635 0.12171,0.127 l -0.33602,1.37319 c -0.0212,0.082 -0.10054,0.13494 -0.18521,0.13494 h -2.505597 l -0.17463,0.71702 h 2.03465 c 0.0847,0 0.11906,0.0635 0.0952,0.11906 l -0.4445,1.27265 c -0.0238,0.0556 -0.10584,0.11906 -0.19315,0.11906 h -1.86267 l -0.18785,0.77258 z"
         inkscape:connector-curvature="0" />
      <path
         style="stroke-width:0.26458332"
         id="path9089"
         d="m 110.7254,185.02626 c 0.0952,0 0.127,0.0714 0.0767,0.15346 l -3.20675,5.969 c -0.0503,0.082 -0.1614,0.14552 -0.24606,0.14552 h -1.66952 c -0.0873,0 -0.18521,-0.0635 -0.18521,-0.14552 l -0.09,-3.19882 -1.65629,3.19882 c -0.0397,0.082 -0.16934,0.14552 -0.25665,0.14552 h -1.66952 c -0.0873,0 -0.16669,-0.0635 -0.17727,-0.14552 l -0.28575,-5.969 c -0.008,-0.082 0.0582,-0.15346 0.15346,-0.15346 h 2.14841 c 0.0953,0 0.18257,0.0714 0.18257,0.15346 l -0.11642,2.71727 1.40229,-2.71727 c 0.0503,-0.09 0.18256,-0.15346 0.29634,-0.15346 h 1.38112 c 0.11377,0 0.21431,0.0635 0.2196,0.15346 l 0.0741,2.71727 1.2118,-2.71727 c 0.0397,-0.082 0.16404,-0.15346 0.25929,-0.15346 z"
         inkscape:connector-curvature="0" />
      <path
         style="stroke-width:0.26458332"
         id="path9091"
         d="m 112.51928,187.19584 -0.93928,1.72773 h 1.03717 z m 2.40506,3.97933 c 0.0159,0.0529 -0.037,0.11642 -0.11377,0.11642 h -1.89971 c -0.0873,0 -0.15346,-0.045 -0.17198,-0.11642 l -0.0556,-0.95514 h -1.80446 l -0.52123,0.95514 c -0.0556,0.0714 -0.14288,0.11642 -0.23019,0.11642 h -1.89971 c -0.0767,0 -0.10054,-0.0635 -0.0582,-0.11642 l 3.64332,-6.0325 c 0.0423,-0.0556 0.16404,-0.11906 0.25929,-0.11906 h 1.95792 c 0.0952,0 0.1852,0.0635 0.20108,0.11906 z"
         inkscape:connector-curvature="0" />
      <path
         style="stroke-width:0.26458332"
         id="path9093"
         d="m 120.99653,185.02626 c 0.0873,0 0.13758,0.0635 0.0688,0.14552 l -3.00566,3.61685 -0.58209,2.37861 c -0.0159,0.0635 -0.0979,0.127 -0.17462,0.127 h -1.68804 c -0.0767,0 -0.127,-0.0635 -0.11377,-0.127 l 0.58208,-2.37861 -1.2356,-3.61685 c -0.0265,-0.082 0.0556,-0.14552 0.14287,-0.14552 h 1.99496 c 0.0953,0 0.16669,0.0635 0.18521,0.14552 l 0.38629,1.63512 1.18533,-1.63512 c 0.0582,-0.082 0.15875,-0.14552 0.25665,-0.14552 z"
         inkscape:connector-curvature="0" />
      <polygon
         transform="matrix(0.26458333,0,0,0.26458333,-21.725013,168.83905)"
         id="polygon9095"
         points="360.71,61.3 358.89,69.19 369.51,69.19 371.34,61.3 " />
      <polygon
         transform="matrix(0.26458333,0,0,0.26458333,-21.725013,168.83905)"
         id="polygon9097"
         points="190.75,61.3 188.92,69.19 199.54,69.19 201.37,61.3 " />
      <polygon
         transform="matrix(0.26458333,0,0,0.26458333,-21.725013,168.83905)"
         id="polygon9099"
         points="199.54,69.19 197.72,77.07 208.34,77.07 210.17,69.19 " />
      <polygon
         transform="matrix(0.26458333,0,0,0.26458333,-21.725013,168.83905)"
         id="polygon9101"
         points="211.99,61.3 210.17,69.19 220.78,69.19 222.61,61.3 " />
      <polygon
         transform="matrix(0.26458333,0,0,0.26458333,-21.725013,168.83905)"
         id="polygon9103"
         points="220.78,69.19 218.96,77.07 229.58,77.07 231.41,69.19 " />
      <polygon
         transform="matrix(0.26458333,0,0,0.26458333,-21.725013,168.83905)"
         id="polygon9105"
         points="233.24,61.3 231.41,69.19 242.04,69.19 243.86,61.3 " />
      <polygon
         transform="matrix(0.26458333,0,0,0.26458333,-21.725013,168.83905)"
         id="polygon9107"
         points="242.04,69.19 240.21,77.07 250.83,77.07 252.66,69.19 " />
      <polygon
         transform="matrix(0.26458333,0,0,0.26458333,-21.725013,168.83905)"
         id="polygon9109"
         points="254.48,61.3 252.66,69.19 263.28,69.19 265.11,61.3 " />
      <polygon
         transform="matrix(0.26458333,0,0,0.26458333,-21.725013,168.83905)"
         id="polygon9111"
         points="263.28,69.19 261.46,77.07 272.08,77.07 273.9,69.19 " />
      <polygon
         transform="matrix(0.26458333,0,0,0.26458333,-21.725013,168.83905)"
         id="polygon9113"
         points="275.73,61.3 273.9,69.19 284.53,69.19 286.36,61.3 " />
      <polygon
         transform="matrix(0.26458333,0,0,0.26458333,-21.725013,168.83905)"
         id="polygon9115"
         points="284.53,69.19 282.7,77.07 293.33,77.07 295.15,69.19 " />
      <polygon
         transform="matrix(0.26458333,0,0,0.26458333,-21.725013,168.83905)"
         id="polygon9117"
         points="296.98,61.3 295.15,69.19 305.78,69.19 307.6,61.3 " />
      <polygon
         transform="matrix(0.26458333,0,0,0.26458333,-21.725013,168.83905)"
         id="polygon9119"
         points="305.78,69.19 303.95,77.07 314.58,77.07 316.4,69.19 " />
      <polygon
         transform="matrix(0.26458333,0,0,0.26458333,-21.725013,168.83905)"
         id="polygon9121"
         points="318.23,61.3 316.4,69.19 327.02,69.19 328.85,61.3 " />
      <polygon
         transform="matrix(0.26458333,0,0,0.26458333,-21.725013,168.83905)"
         id="polygon9123"
         points="327.02,69.19 325.2,77.07 335.82,77.07 337.64,69.19 " />
      <polygon
         transform="matrix(0.26458333,0,0,0.26458333,-21.725013,168.83905)"
         id="polygon9125"
         points="339.47,61.3 337.64,69.19 348.27,69.19 350.09,61.3 " />
      <polygon
         transform="matrix(0.26458333,0,0,0.26458333,-21.725013,168.83905)"
         id="polygon9127"
         points="187.09,77.07 185.27,84.95 195.89,84.95 197.72,77.07 " />
      <polygon
         transform="matrix(0.26458333,0,0,0.26458333,-21.725013,168.83905)"
         id="polygon9129"
         points="208.34,77.07 206.52,84.95 217.13,84.95 218.96,77.07 " />
      <polygon
         transform="matrix(0.26458333,0,0,0.26458333,-21.725013,168.83905)"
         id="polygon9131"
         points="229.58,77.07 227.76,84.95 238.38,84.95 240.21,77.07 " />
      <polygon
         transform="matrix(0.26458333,0,0,0.26458333,-21.725013,168.83905)"
         id="polygon9133"
         points="250.83,77.07 249.01,84.95 259.63,84.95 261.46,77.07 " />
      <polygon
         transform="matrix(0.26458333,0,0,0.26458333,-21.725013,168.83905)"
         id="polygon9135"
         points="272.08,77.07 270.25,84.95 280.88,84.95 282.7,77.07 " />
      <polygon
         transform="matrix(0.26458333,0,0,0.26458333,-21.725013,168.83905)"
         id="polygon9137"
         points="293.33,77.07 291.5,84.95 302.13,84.95 303.95,77.07 " />
      <polygon
         transform="matrix(0.26458333,0,0,0.26458333,-21.725013,168.83905)"
         id="polygon9139"
         points="314.58,77.07 312.75,84.95 323.37,84.95 325.2,77.07 " />
      <polygon
         transform="matrix(0.26458333,0,0,0.26458333,-21.725013,168.83905)"
         id="polygon9141"
         points="335.82,77.07 333.99,84.95 344.62,84.95 346.44,77.07 " />
      <polygon
         transform="matrix(0.26458333,0,0,0.26458333,-21.725013,168.83905)"
         id="polygon9143"
         points="357.06,77.07 355.24,84.95 365.86,84.95 367.69,77.07 " />
      <polygon
         transform="matrix(0.26458333,0,0,0.26458333,-21.725013,168.83905)"
         id="polygon9145"
         points="348.27,69.19 346.44,77.07 357.06,77.07 358.89,69.19 " />
      <polygon
         transform="matrix(0.26458333,0,0,0.26458333,-21.725013,168.83905)"
         id="polygon9147"
         points="211.99,61.3 210.17,69.19 220.79,69.19 222.62,61.3 " />
      <polygon
         transform="matrix(0.26458333,0,0,0.26458333,-21.725013,168.83905)"
         id="polygon9149"
         points="220.79,69.19 218.96,77.07 229.59,77.07 231.42,69.19 " />
      <polygon
         transform="matrix(0.26458333,0,0,0.26458333,-21.725013,168.83905)"
         id="polygon9151"
         points="233.24,61.3 231.42,69.19 242.03,69.19 243.86,61.3 " />
      <polygon
         transform="matrix(0.26458333,0,0,0.26458333,-21.725013,168.83905)"
         id="polygon9153"
         points="242.03,69.19 240.21,77.07 250.83,77.07 252.66,69.19 " />
      <polygon
         transform="matrix(0.26458333,0,0,0.26458333,-21.725013,168.83905)"
         id="polygon9155"
         points="254.48,61.3 252.66,69.19 263.28,69.19 265.11,61.3 " />
      <polygon
         transform="matrix(0.26458333,0,0,0.26458333,-21.725013,168.83905)"
         id="polygon9157"
         points="263.28,69.19 261.46,77.07 272.08,77.07 273.91,69.19 " />
      <polygon
         transform="matrix(0.26458333,0,0,0.26458333,-21.725013,168.83905)"
         id="polygon9159"
         points="275.73,61.3 273.91,69.19 284.53,69.19 286.36,61.3 " />
      <polygon
         transform="matrix(0.26458333,0,0,0.26458333,-21.725013,168.83905)"
         id="polygon9161"
         points="284.53,69.19 282.7,77.07 293.33,77.07 295.15,69.19 " />
      <polygon
         transform="matrix(0.26458333,0,0,0.26458333,-21.725013,168.83905)"
         id="polygon9163"
         points="296.98,61.3 295.15,69.19 305.78,69.19 307.6,61.3 " />
      <polygon
         transform="matrix(0.26458333,0,0,0.26458333,-21.725013,168.83905)"
         id="polygon9165"
         points="305.78,69.19 303.95,77.07 314.57,77.07 316.4,69.19 " />
      <polygon
         transform="matrix(0.26458333,0,0,0.26458333,-21.725013,168.83905)"
         id="polygon9167"
         points="318.23,61.3 316.4,69.19 327.03,69.19 328.85,61.3 " />
      <polygon
         transform="matrix(0.26458333,0,0,0.26458333,-21.725013,168.83905)"
         id="polygon9169"
         points="327.03,69.19 325.2,77.07 335.82,77.07 337.65,69.19 " />
      <polygon
         transform="matrix(0.26458333,0,0,0.26458333,-21.725013,168.83905)"
         id="polygon9171"
         points="339.47,61.3 337.65,69.19 348.27,69.19 350.1,61.3 " />
      <polygon
         transform="matrix(0.26458333,0,0,0.26458333,-21.725013,168.83905)"
         id="polygon9173"
         points="348.27,69.19 346.45,77.07 357.07,77.07 358.89,69.19 " />
      <polygon
         transform="matrix(0.26458333,0,0,0.26458333,-21.725013,168.83905)"
         id="polygon9175"
         points="208.34,77.07 206.52,84.95 217.14,84.95 218.96,77.07 " />
      <polygon
         transform="matrix(0.26458333,0,0,0.26458333,-21.725013,168.83905)"
         id="polygon9177"
         points="229.59,77.07 227.76,84.95 238.38,84.95 240.21,77.07 " />
      <polygon
         transform="matrix(0.26458333,0,0,0.26458333,-21.725013,168.83905)"
         id="polygon9179"
         points="250.83,77.07 249.01,84.95 259.63,84.95 261.46,77.07 " />
      <polygon
         transform="matrix(0.26458333,0,0,0.26458333,-21.725013,168.83905)"
         id="polygon9181"
         points="272.08,77.07 270.26,84.95 280.88,84.95 282.7,77.07 " />
      <polygon
         transform="matrix(0.26458333,0,0,0.26458333,-21.725013,168.83905)"
         id="polygon9183"
         points="293.33,77.07 291.5,84.95 302.13,84.95 303.95,77.07 " />
      <polygon
         transform="matrix(0.26458333,0,0,0.26458333,-21.725013,168.83905)"
         id="polygon9185"
         points="314.57,77.07 312.75,84.95 323.37,84.95 325.2,77.07 " />
      <polygon
         transform="matrix(0.26458333,0,0,0.26458333,-21.725013,168.83905)"
         id="polygon9187"
         points="335.82,77.07 334,84.95 344.62,84.95 346.45,77.07 " />
      <polygon
         transform="matrix(0.26458333,0,0,0.26458333,-21.725013,168.83905)"
         points="365.87,84.95 367.69,77.07 357.07,77.07 355.24,84.95 "
         id="polygon9189" />
      <polygon
         transform="matrix(0.26458333,0,0,0.26458333,-21.725013,168.83905)"
         style="fill:#ea0029"
         class="st1"
         points="191.74,10.3 27.27,10.26 11.77,84.91 175.74,84.94 "
         id="polygon9191" />
      <path
         id="path9195"
         d="m -1.0980982,178.59953 c -0.07937,0.86254 -0.672041,2.09021 -2.151062,2.09285 l -3.14325,0.003 0.653521,-3.37344 2.680229,-0.003 c 1.137708,-0.003 2.045229,0.41275 1.960562,1.28058 z m 2.04522997,-4.56936 H -11.792554 l -3.34698,14.93573 7.0008738,-0.005 1.317625,-6.86858 h 0.103187 l 2.989792,6.86594 7.559146,-0.005 -3.67770803,-6.86593 h 0.33602 c 3.53748003,-0.003 4.94770903,-2.93423 5.13820903,-4.99534 0.203729,-2.07433 -1.965854,-3.06387 -4.68047903,-3.06123 z"
         class="st0"
         inkscape:connector-curvature="0"
         style="fill:#ffffff;stroke-width:0.26458332" />
      <path
         id="path9197"
         d="m 17.568255,178.59953 c -0.07937,0.86254 -0.672039,2.09021 -2.15106,2.09285 l -3.14325,0.003 0.653521,-3.37344 2.680229,-0.003 c 1.137706,-0.003 2.04523,0.41275 1.96056,1.28058 z m 2.04523,-4.56936 H 6.8737978 l -3.346979,14.93573 7.0008762,-0.005 1.317625,-6.86858 h 0.103185 l 2.989795,6.86594 7.559145,-0.005 -3.67771,-6.86593 h 0.33602 c 3.53748,-0.003 4.947711,-2.93423 5.138211,-4.99534 0.203729,-2.07433 -1.965856,-3.06387 -4.680481,-3.06123 z"
         class="st0"
         inkscape:connector-curvature="0"
         style="fill:#ffffff;stroke-width:0.26458332" />
    </g>
  </g>
</svg>
