<?xml version="1.0" encoding="UTF-8" standalone="no"?>
<!-- Created with Inkscape (http://www.inkscape.org/) -->
<svg
   xmlns:dc="http://purl.org/dc/elements/1.1/"
   xmlns:cc="http://creativecommons.org/ns#"
   xmlns:rdf="http://www.w3.org/1999/02/22-rdf-syntax-ns#"
   xmlns:svg="http://www.w3.org/2000/svg"
   xmlns="http://www.w3.org/2000/svg"
   xmlns:xlink="http://www.w3.org/1999/xlink"
   xmlns:sodipodi="http://sodipodi.sourceforge.net/DTD/sodipodi-0.dtd"
   xmlns:inkscape="http://www.inkscape.org/namespaces/inkscape"
   width="1408.3665"
   height="619.29016"
   id="svg2383"
   sodipodi:version="0.32"
   inkscape:version="0.46"
   sodipodi:docname="Infineon_(Sears_Point)_long_track.svg"
   inkscape:output_extension="org.inkscape.output.svg.inkscape"
   version="1.0"
   inkscape:export-filename="D:\Images\Race Tracks\Infineon (Sears Point) with emphasis on Long track.png"
   inkscape:export-xdpi="200"
   inkscape:export-ydpi="200">
  <defs
     id="defs2385">
    <pattern
       patternUnits="userSpaceOnUse"
       width="18.181098"
       height="18.137641"
       patternTransform="matrix(0.1737876,0,0,0.1737876,763.47719,1693.9071)"
       id="pattern4912">
      <g
         id="g4907"
         transform="translate(-1025.5348,-1215.2814)">
        <rect
           style="opacity:1;fill:#000000;fill-opacity:1;stroke:none;stroke-width:0.5;stroke-linecap:round;stroke-linejoin:round;stroke-miterlimit:4;stroke-dasharray:none;stroke-dashoffset:0;stroke-opacity:1"
           id="rect4899"
           width="18.172573"
           height="18.095789"
           x="1025.5348"
           y="1215.2814" />
        <rect
           style="opacity:1;fill:#ffffff;fill-opacity:1;stroke:none;stroke-width:0.5;stroke-linecap:round;stroke-linejoin:round;stroke-miterlimit:4;stroke-dasharray:none;stroke-dashoffset:0;stroke-opacity:1"
           id="rect4903"
           width="9.0746527"
           height="9.0746527"
           x="1025.5348"
           y="1215.2814" />
        <rect
           style="opacity:1;fill:#ffffff;fill-opacity:1;stroke:none;stroke-width:0.5;stroke-linecap:round;stroke-linejoin:round;stroke-miterlimit:4;stroke-dasharray:none;stroke-dashoffset:0;stroke-opacity:1"
           id="rect4905"
           width="9.0746527"
           height="9.0746527"
           x="1034.6412"
           y="1224.3444" />
      </g>
    </pattern>
    <pattern
       inkscape:collect="always"
       xlink:href="#pattern4912"
       id="pattern4166"
       patternTransform="matrix(0.1737876,0,0,0.1737876,2612.0985,-1427.2215)" />
    <inkscape:perspective
       sodipodi:type="inkscape:persp3d"
       inkscape:vp_x="0 : 526.18109 : 1"
       inkscape:vp_y="0 : 1000 : 0"
       inkscape:vp_z="744.09448 : 526.18109 : 1"
       inkscape:persp3d-origin="372.04724 : 350.78739 : 1"
       id="perspective2391" />
    <inkscape:perspective
       id="perspective2457"
       inkscape:persp3d-origin="372.04724 : 350.78739 : 1"
       inkscape:vp_z="744.09448 : 526.18109 : 1"
       inkscape:vp_y="0 : 1000 : 0"
       inkscape:vp_x="0 : 526.18109 : 1"
       sodipodi:type="inkscape:persp3d" />
  </defs>
  <sodipodi:namedview
     id="base"
     pagecolor="#ffffff"
     bordercolor="#ffffff"
     borderopacity="0.0"
     inkscape:pageopacity="0.0"
     inkscape:pageshadow="0"
     inkscape:zoom="0.6526986"
     inkscape:cx="682.64405"
     inkscape:cy="332.55706"
     inkscape:document-units="px"
     inkscape:current-layer="layer1"
     showgrid="false"
     inkscape:window-width="1440"
     inkscape:window-height="844"
     inkscape:window-x="-4"
     inkscape:window-y="-4" />
  <metadata
     id="metadata2388">
    <rdf:RDF>
      <cc:Work
         rdf:about="">
        <dc:format>image/svg+xml</dc:format>
        <dc:type
           rdf:resource="http://purl.org/dc/dcmitype/StillImage" />
        <cc:license
           rdf:resource="http://creativecommons.org/licenses/publicdomain/" />
        <dc:title>Infineon (Sears Point) with emphasis on Long track</dc:title>
        <dc:date>6-23-2008</dc:date>
        <dc:creator>
          <cc:Agent>
            <dc:title>Will Pittenger</dc:title>
          </cc:Agent>
        </dc:creator>
        <dc:publisher>
          <cc:Agent>
            <dc:title>Will Pittenger</dc:title>
          </cc:Agent>
        </dc:publisher>
        <dc:subject>
          <rdf:Bag>
            <rdf:li>Infineon</rdf:li>
            <rdf:li>Sears Point</rdf:li>
            <rdf:li>Racing</rdf:li>
          </rdf:Bag>
        </dc:subject>
      </cc:Work>
      <cc:License
         rdf:about="http://creativecommons.org/licenses/publicdomain/">
        <cc:permits
           rdf:resource="http://creativecommons.org/ns#Reproduction" />
        <cc:permits
           rdf:resource="http://creativecommons.org/ns#Distribution" />
        <cc:permits
           rdf:resource="http://creativecommons.org/ns#DerivativeWorks" />
      </cc:License>
    </rdf:RDF>
  </metadata>
  <g
     inkscape:label="Layer 1"
     inkscape:groupmode="layer"
     id="layer1"
     transform="translate(-1793.1719,-1083.6714)">
    <path
       style="fill:#c8c8c8;fill-opacity:1;fill-rule:evenodd;stroke:#ffffff;stroke-width:1;stroke-linecap:round;stroke-linejoin:round;stroke-miterlimit:4;stroke-dasharray:none;stroke-opacity:1"
       d="M 2633.1094,1160.8276 C 2551.5601,1163.062 2469.3432,1168.7561 2387.6719,1174.0151 C 2369.6758,1175.1739 2350.8795,1175.2639 2332.6094,1178.0151 C 2341.3273,1177.0372 2350.2883,1177.2442 2358.7657,1178.8589 C 2364.5423,1179.9592 2370.2933,1181.2491 2376.0157,1182.6401 C 2380.0705,1182.4419 2384.1291,1182.2442 2388.1719,1181.9839 C 2469.8678,1176.7232 2551.9713,1171.0558 2633.2969,1168.8276 C 2635.7752,1168.7597 2638.9964,1169.1633 2641.6094,1169.9839 C 2644.2222,1170.8043 2646.0331,1172.1372 2646.5157,1172.9214 C 2647.448,1174.4366 2647.702,1178.1495 2647.4844,1182.6714 C 2647.2668,1187.1935 2646.7401,1192.3744 2648.6094,1197.3589 C 2649.7787,1200.477 2651.6697,1203.7783 2654.1094,1206.6714 C 2655.8276,1208.7092 2657.8274,1210.5901 2660.2344,1211.8276 C 2669.3712,1209.1926 2678.2933,1206.0032 2686.7969,1202.2026 C 2679.7098,1205.0327 2670.7937,1206.4084 2665.1094,1205.2026 C 2663.9553,1204.9579 2661.9396,1203.6115 2660.1719,1201.5151 C 2658.4042,1199.4188 2656.9183,1196.7038 2656.1094,1194.5464 C 2655.1713,1192.045 2655.2608,1187.6944 2655.4844,1183.0464 C 2655.708,1178.3986 2656.1697,1173.3009 2653.3594,1168.7339 C 2651.2043,1165.2319 2647.6124,1163.467 2643.9844,1162.3276 C 2640.3564,1161.1883 2636.5281,1160.734 2633.1094,1160.8276 z"
       id="path4022" />
    <path
       style="fill:#c8c8c8;fill-opacity:1;fill-rule:evenodd;stroke:#ffffff;stroke-width:1;stroke-linecap:round;stroke-linejoin:round;stroke-miterlimit:4;stroke-dasharray:none;stroke-opacity:1"
       d="M 3022.3907,1235.2964 C 3029.4279,1239.3935 3036.4966,1245.6337 3040.1094,1251.7964 C 3041.0087,1253.3307 3041.8703,1256.1612 3042.1094,1258.7651 C 3042.3485,1261.3691 3041.7775,1263.716 3041.3907,1264.2964 C 3040.6076,1265.471 3038.2928,1267.2464 3035.3907,1268.5151 C 3032.4883,1269.7839 3029.0628,1270.6609 3026.3907,1270.9214 C 3017.5993,1271.7791 3007.1112,1268.3334 2996.0469,1267.3276 C 2975.9313,1265.4989 2955.4662,1262.0641 2934.6094,1262.5151 C 2934.6166,1262.5499 2934.9543,1262.5363 2934.9219,1262.5464 C 2945.1361,1263.2351 2954.4975,1267.1253 2963.3594,1271.9214 C 2973.9435,1272.9558 2984.6055,1274.3189 2995.3594,1275.2964 C 3005.0809,1276.1802 3015.9315,1279.9868 3027.1719,1278.8901 C 3030.8344,1278.5329 3034.878,1277.4899 3038.6094,1275.8589 C 3042.3408,1274.2277 3045.8086,1272.0911 3048.0469,1268.7339 C 3050.2217,1265.4717 3050.4474,1261.7283 3050.1094,1258.0464 C 3049.8642,1255.3772 3049.2505,1252.7426 3048.2657,1250.3589 C 3039.621,1245.3208 3030.9786,1240.2974 3022.3907,1235.2964 z"
       id="path4013" />
    <path
       style="fill:#c8c8c8;fill-opacity:1;fill-rule:evenodd;stroke:#ffffff;stroke-width:1;stroke-linecap:round;stroke-linejoin:round;stroke-miterlimit:4;stroke-dasharray:none;stroke-opacity:1"
       d="M 1884.5782,1250.1714 C 1881.1559,1250.1728 1877.5994,1250.5343 1874.1719,1251.2339 C 1867.3169,1252.633 1860.7167,1255.254 1857.0157,1260.6714 C 1852.0966,1267.8719 1850.4833,1277.2184 1849.6094,1286.8901 C 1848.7489,1296.4122 1848.7221,1306.3534 1848.0157,1314.8276 C 1848.0592,1314.6847 1848.0965,1314.5318 1848.1407,1314.3901 C 1849.9364,1308.625 1852.9794,1302.5815 1856.9532,1297.2026 C 1857.099,1293.9508 1857.2654,1290.7238 1857.5469,1287.6089 C 1858.3743,1278.4531 1860.1412,1270.3251 1863.6407,1265.2026 C 1865.2792,1262.8042 1870.0402,1260.2462 1875.7657,1259.0776 C 1881.4913,1257.909 1888.0191,1257.9848 1892.2657,1259.0464 C 1898.7321,1260.663 1905.3088,1265.8026 1912.2969,1271.4839 C 1914.4894,1273.2663 1916.735,1275.0736 1919.0469,1276.8276 C 1921.0554,1276.8494 1923.0472,1276.873 1924.9844,1276.8901 C 1928.445,1276.9208 1931.9086,1277.0857 1935.3594,1277.3276 C 1929.3801,1274.9187 1923.4588,1270.2238 1917.3594,1265.2651 C 1910.3643,1259.5783 1903.152,1253.4945 1894.2344,1251.2651 C 1891.2885,1250.5286 1888.0004,1250.17 1884.5782,1250.1714 z"
       id="path4011" />
    <path
       style="fill:#c8c8c8;fill-opacity:1;fill-rule:evenodd;stroke:#ffffff;stroke-width:1;stroke-linecap:round;stroke-linejoin:round;stroke-miterlimit:4;stroke-dasharray:none;stroke-opacity:1"
       d="M 1848.1407,1361.1714 C 1852.3739,1381.8024 1866.0227,1399.3101 1867.8594,1417.3589 C 1872.6348,1464.2823 1862.6197,1515.8085 1868.6094,1563.1401 C 1870.157,1575.3688 1881.0697,1585.5623 1891.7969,1589.7026 C 1922.9119,1601.7119 1958.5058,1604.437 1990.7032,1612.5151 C 1990.6506,1612.4957 1990.5995,1612.4721 1990.5469,1612.4526 C 1984.6276,1610.264 1979.9227,1605.8799 1976.2657,1601.0151 C 1948.1468,1595.2615 1919.3968,1591.7769 1894.6719,1582.2339 C 1886.6873,1579.1521 1877.5109,1569.7266 1876.5469,1562.1089 C 1870.7915,1516.629 1880.8051,1465.1753 1875.8594,1416.5776 C 1874.1592,1399.8712 1865.1604,1385.3325 1859.5782,1371.1401 C 1854.9121,1368.9601 1850.8811,1365.9997 1848.4844,1361.8276 C 1848.3615,1361.6138 1848.2574,1361.3895 1848.1407,1361.1714 z"
       id="path2465" />
    <path
       style="fill:#000000;fill-opacity:1;fill-rule:evenodd;stroke:#ffffff;stroke-width:1;stroke-linecap:round;stroke-linejoin:round;stroke-miterlimit:4;stroke-dasharray:none;stroke-opacity:1"
       d="M 1026.25,51.90625 C 1025.1309,51.92685 1024.0451,51.9881 1022.9375,52.03125 C 1008.6259,52.588848 994.16055,58.00855 981.71875,64.46875 C 951.84839,79.978347 925.60735,102.36547 896.9375,117.03125 C 896.89608,117.05244 896.85393,117.0726 896.8125,117.09375 C 876.51422,126.66302 853.55816,132.55211 831.0625,135.8125 C 799.0906,140.4461 765.83053,142.54905 733.8125,140.59375 C 714.8263,139.43425 695.69367,131.66815 675.9375,126.34375 C 639.4156,116.50095 603.13594,102.3384 565.59375,95.1875 C 551.6908,92.539319 536.4897,93.655711 523.1875,97.625 C 523.14622,97.637319 523.10375,97.643876 523.0625,97.65625 C 506.8201,101.96013 492.0299,111.63861 478.8125,120.96875 C 463.81239,131.55705 454.2077,148.13475 440.9375,155.40625 C 427.25759,162.90205 409.7307,166.69225 393.4375,168.09375 C 374.03271,169.76305 352.8989,163.664 331.4375,164.5 C 320.32669,164.933 310.15145,169.1757 300.59375,171.8125 C 287.29614,175.48071 273.9934,179.40935 260.875,183.84375 C 244.75951,189.29125 230.6169,199.36555 216.4375,200.40625 C 189.77999,202.36275 160.9107,193.47625 131.8125,193.21875 C 115.09161,193.07085 95.2859,192.23745 79.8125,199.59375 C 67.959702,205.22875 58.73325,218.63325 54.96875,230.71875 C 52.774751,237.76285 51.21975,246.46735 50.96875,254.96875 C 50.717951,263.47015 51.6389,271.76145 55.3125,278.15625 C 58.508102,283.71904 64.618,287.13215 71.25,289.40625 C 77.881998,291.68034 85.19155,292.7064 91.46875,292.125 C 124.22365,289.0922 157.2436,276.9786 189.0625,268.0625 C 230.02251,256.58461 268.981,238.7996 309.5625,231.0625 C 323.10641,228.48021 336.75725,226.2764 350.46875,224.3125 L 555.96875,209.5625 C 567.93824,211.49311 580.08845,218.1127 591.59375,224.625 C 600.99264,229.9452 610.5454,236.3006 616.8125,244 C 623.43042,252.1307 628.1535,263.1808 631.625,273.8125 C 634.29188,281.97981 635.5399,291.2806 635.0625,299.875 C 634.37692,312.2143 633.1341,325.495 628.25,335.4375 C 622.70618,346.72301 613.57085,358.84565 603.46875,364.84375 C 589.82554,372.94444 571.2229,378.26515 555.1875,378.65625 C 540.74117,379.00864 524.9205,371.1754 508.4375,366.8125 C 483.79831,360.29041 459.3528,352.3228 434.1875,346.4375 C 409.82629,340.74011 384.761,333.4272 359.3125,332 C 341.00519,330.9735 321.10715,332.98275 303.84375,339.40625 C 285.60184,346.19394 267.1629,357.31735 253.3125,371.46875 C 229.57271,395.72474 210.47005,425.31895 191.84375,453.40625 C 185.06245,463.63204 180.23075,475.42755 176.96875,486.84375 C 175.20575,493.01454 173.97525,500.9217 177.21875,507.625 C 181.03915,515.5205 187.5708,525.15615 197.375,528.78125 C 237.22181,543.51454 280.70905,552.02875 322.21875,562.40625 C 334.73924,565.53634 347.8741,569.2157 361.3125,569.6875 C 371.52591,570.04578 383.5531,569.5952 393.25,564.4375 C 399.19581,561.27478 404.8226,555.79045 409.6875,550.59375 C 414.55219,545.39704 418.77285,540.3063 420.46875,538.6875 C 423.27094,536.01268 428.8472,529.2953 435.125,522.3125 C 438.26391,518.82098 441.50475,515.337 444.34375,512.5 C 447.18294,509.6632 449.7815,507.4464 450.9375,506.75 C 459.61661,501.5224 478.404,498.73335 498.6875,500.59375 C 525.27981,503.03294 551.8467,513.56795 579.9375,517.03125 C 610.92032,520.85104 642.64975,522.87495 673.84375,521.84375 C 691.41474,521.26294 710.4829,519.0399 726.75,511.9375 C 740.08247,506.11621 756.7925,496.2066 762.375,482.25 C 765.30648,474.9212 764.42045,466.76765 762.84375,458.78125 C 761.26724,450.79484 758.8648,442.7899 757.8125,435.875 C 754.34338,413.078 744.6718,391.1863 745.9375,370.9375 C 746.33832,364.52371 746.6825,358.15465 748.625,351.71875 C 750.69531,344.85944 756.29455,334.0435 762.09375,323.875 C 768.01474,313.4934 774.5644,303.44695 779.6875,298.40625 C 806.27067,272.25064 835.03375,247.104 864.84375,224.9375 C 873.74364,218.31961 884.8607,213.39545 895.8125,211.96875 C 941.19642,206.05605 987.9855,206.0059 1034.1875,203 C 1067.7642,200.8157 1101.4532,196.25375 1134.6875,196.40625 C 1144.6704,196.45205 1155.204,198.85195 1164.0625,203.46875 C 1216.9678,231.04105 1267.7952,263.8444 1320.1875,293.1875 C 1331.697,299.63361 1343.4851,307.3509 1355.9688,310.9375 C 1362.1235,312.70571 1369.306,310.8302 1375.125,308.8125 C 1381.8613,306.47651 1388.6905,302.60025 1394,297.84375 C 1398.5375,293.77884 1402.0484,288.0835 1404.4375,282.5625 C 1406.6215,277.51481 1408.2431,271.4891 1407.8125,265.9375 C 1407.3105,259.46781 1404.7752,252.66495 1401.6875,246.96875 C 1398.9115,241.84755 1395.2632,236.2391 1389.9375,233.125 C 1337.3172,203.4535 1297.2013,181.84128 1245.2188,151.40625 C 1194.5475,121.90585 1130.9169,84.4716 1077.3125,60.75 C 1062.5078,54.198502 1045.5116,51.91395 1029.625,51.90625 C 1028.4902,51.905699 1027.3691,51.88565 1026.25,51.90625 z M 1029.625,59.90625 C 1044.7322,59.929048 1060.7188,62.1574 1074.0625,68.0625 C 1127.067,91.518399 1178.5037,122.0993 1229.2188,151.625 C 1277.6919,179.8524 1327.812,208.30585 1371.1875,241.09375 C 1373.7769,243.05115 1376.1396,246.7105 1377.5938,250.8125 C 1379.0479,254.91441 1379.5751,259.3995 1379.1875,262.5 C 1378.4448,268.4417 1371.3171,277.81465 1365.1875,282.59375 C 1363.1074,284.21544 1359.9557,285.89865 1356.9688,286.78125 C 1353.9818,287.66384 1351.2966,287.6644 1349.5625,286.875 C 1298.1506,263.4738 1247.9306,230.3606 1195.9688,203.25 C 1179.4327,194.6226 1162.3202,180.2619 1141.75,178.875 C 1141.7824,178.86487 1141.4447,178.8785 1141.4375,178.84375 C 1087.8938,180.00145 1034.4558,185.1504 981.1875,188.4375 C 981.11502,188.44191 981.01,188.4329 980.9375,188.4375 C 950.50788,190.31231 918.79175,188.93275 888.34375,194.46875 C 873.65034,197.14035 858.717,203.6847 847.0625,213.25 C 815.81062,238.9001 782.12085,267.0029 758.96875,300.1875 C 745.10674,320.05661 739.4057,346.9427 737.9375,370.4375 C 736.49812,393.46701 746.7031,415.83995 749.9375,437.09375 C 751.11662,444.84204 753.5294,452.89405 755,460.34375 C 756.47058,467.79344 756.8553,474.4557 754.9375,479.25 C 751.07687,488.9017 735.8876,499.21235 723.5625,504.59375 C 708.85947,511.01334 690.66655,513.27935 673.59375,513.84375 C 642.92484,514.85764 611.5393,512.87435 580.875,509.09375 C 554.16668,505.80094 527.5888,495.2074 499.4375,492.625 C 478.08179,490.6663 458.4798,492.87875 446.8125,499.90625 C 444.27871,501.43244 441.7024,503.83135 438.6875,506.84375 C 435.67261,509.85614 432.3748,513.42355 429.1875,516.96875 C 422.81301,524.05924 416.5221,531.3626 414.9375,532.875 C 412.24701,535.4434 408.454,540.167 403.8125,545.125 C 399.17101,550.0832 393.7826,555.0972 389.5,557.375 C 382.16761,561.2752 371.26815,562.0268 361.59375,561.6875 C 349.45804,561.26158 336.8453,557.7896 324.1875,554.625 C 282.40539,544.1795 239.1949,535.6731 200.1875,521.25 C 193.93429,518.938 187.7216,510.9125 184.4375,504.125 C 182.82189,500.7862 183.2276,494.14025 184.6875,489.03125 C 187.77379,478.22904 192.3203,467.16235 198.5,457.84375 C 217.15991,429.70554 236.1,400.524 259.0625,377.0625 C 271.88679,363.95941 289.4209,353.30775 306.625,346.90625 C 322.50721,340.99664 341.45905,338.99395 358.84375,339.96875 C 383.04354,341.32574 407.69685,348.4859 432.34375,354.25 C 457.06974,360.0328 481.5118,367.9644 506.4375,374.5625 C 521.74219,378.61371 538.0641,387.07845 555.375,386.65625 C 572.98338,386.22684 592.5243,380.64765 607.5625,371.71875 C 619.82417,364.43834 629.3927,351.2428 635.4375,338.9375 C 641.29707,327.00911 642.3061,312.8027 643,300.3125 C 643.53587,290.66751 642.21535,280.52075 639.21875,271.34375 C 635.59254,260.23844 630.61915,248.3363 622.96875,238.9375 C 615.58914,229.87081 605.2989,223.16755 595.5625,217.65625 C 589.78652,214.38695 583.7033,210.93605 577.3125,208.03125 L 1131.5625,168.25 L 1130.5938,154.90625 L 78.9375,230.34375 L 79.84375,243.71875 L 282.9375,229.15625 C 250.31211,238.18935 218.952,251.37255 186.9375,260.34375 C 154.70509,269.37584 122.00265,281.25965 90.71875,284.15625 C 85.946351,284.59814 79.42235,283.75665 73.84375,281.84375 C 68.265351,279.93084 63.7664,276.827 62.25,274.1875 C 59.868302,270.04161 58.74265,262.8554 58.96875,255.1875 C 59.195051,247.51941 60.64145,239.36215 62.59375,233.09375 C 65.690351,223.15195 74.64485,210.8886 83.21875,206.8125 C 95.970451,200.75021 114.86845,201.06965 131.71875,201.21875 C 159.17515,201.46175 188.2262,210.487 217,208.375 C 234.32511,207.1035 248.9676,196.3286 263.4375,191.4375 C 276.36161,187.06871 289.51615,183.17335 302.71875,179.53125 C 312.92014,176.71705 322.53385,172.858 331.71875,172.5 C 351.37504,171.7342 372.63095,177.9087 394.09375,176.0625 C 411.10754,174.59891 429.5684,170.756 444.75,162.4375 C 460.84111,153.62031 470.5184,136.6195 483.4375,127.5 C 496.50219,118.2778 510.639,109.2037 525.1875,105.375 C 525.2006,105.35923 525.35068,105.34467 525.3125,105.34375 C 537.4142,101.71325 551.64274,100.65965 564.09375,103.03125 C 600.64905,109.99415 636.78308,124.06601 673.875,134.0625 C 692.9633,139.2068 712.53162,147.29341 733.3125,148.5625 C 766.0098,150.5592 799.80264,148.448 832.21875,143.75 C 855.35385,140.3971 879.06114,134.3049 900.34375,124.25 L 900.4375,124.21875 C 930.31478,108.96235 956.6399,86.5149 985.4375,71.5625 C 997.23262,65.437999 1010.7367,60.51765 1023.2188,60.03125 C 1025.3307,59.948948 1027.4668,59.90295 1029.625,59.90625 z M 1141.2188,186.84375 C 1141.2394,186.84514 1141.2606,186.84232 1141.2812,186.84375 C 1158.2725,188.01846 1174.7097,201.15981 1192.3125,210.34375 C 1243.7723,237.19235 1294.0052,270.39015 1346.2188,294.15625 C 1350.4962,296.10324 1355.1182,295.68965 1359.25,294.46875 C 1363.3818,293.24784 1367.1491,291.17765 1370.0625,288.90625 C 1377.4746,283.12734 1385.8498,273.7025 1387.125,263.5 C 1387.7223,258.7212 1386.9584,253.2967 1385.125,248.125 C 1383.2916,242.9534 1380.3871,238.0038 1376,234.6875 C 1359.0442,221.8705 1341.1375,209.76439 1322.75,198.09375 C 1345.4749,210.73738 1368.0277,223.34471 1388.9375,234.875 C 1393.6924,237.6552 1397.2223,242.9284 1399.9375,247.9375 C 1402.9236,253.44611 1405.3422,260.03345 1405.8125,266.09375 C 1406.2041,271.14174 1404.688,276.9098 1402.5938,281.75 C 1400.2886,287.078 1396.9074,292.5946 1392.6875,296.375 C 1387.613,300.9209 1380.9521,304.6891 1374.4688,306.9375 C 1368.7828,308.90931 1361.9425,310.5459 1356.5625,309 C 1344.4907,305.5319 1332.716,297.929 1321.125,291.4375 C 1268.8063,262.13571 1218.0163,229.34885 1165,201.71875 C 1155.8196,196.93425 1145.0147,194.45345 1134.7188,194.40625 C 1101.2963,194.25285 1067.546,198.8219 1034.0625,201 C 987.94667,204.0002 941.0572,204.03345 895.5,209.96875 C 884.13678,211.44915 872.7805,216.5045 863.625,223.3125 C 833.72717,245.54431 804.9521,270.7889 778.3125,297 C 772.86002,302.3648 766.30395,312.4249 760.34375,322.875 C 756.41404,329.7654 752.7937,336.79435 749.9375,342.71875 C 753.09482,328.84844 758.1286,315.43655 765.5625,304.78125 C 787.83872,272.85204 820.916,245.0522 852.125,219.4375 C 862.55257,210.87891 876.4639,204.77085 889.8125,202.34375 C 918.92842,197.04995 950.1981,198.3111 981.0625,196.4375 C 981.19833,196.43401 981.3027,196.42355 981.4375,196.40625 C 1034.8337,193.1164 1088.1223,188.0103 1141.2188,186.84375 z"
       transform="translate(1793.1719,1083.6714)"
       id="path3241"
       sodipodi:nodetypes="cssscssssscsssssssssssssscsccsssssssssssssssssssssssssssssssssssssssssssssssccssccscsssssssccsssssssssssssssssssssssssssssssssssssccccccsssssssssssssssccssssccssccssssssssccsssssscsscsssscsssccc" />
    <g
       id="g3243">
      <path
         id="path3239"
         d="M 2921.52,1245.5749 L 1874.1036,1320.6467"
         style="fill:none;fill-rule:evenodd;stroke:#41d33e;stroke-width:1;stroke-linecap:round;stroke-linejoin:round;stroke-miterlimit:4;stroke-dasharray:3, 3;stroke-dashoffset:0;stroke-opacity:1" />
    </g>
    <g
       id="g3993"
       transform="translate(-0.7338127,-2.0684244)">
      <path
         transform="translate(-245.59673,11.26892)"
         d="M 2959.02,1313.9423 A 22.770237,22.770237 0 1 1 2913.4795,1313.9423 A 22.770237,22.770237 0 1 1 2959.02,1313.9423 z"
         sodipodi:ry="22.770237"
         sodipodi:rx="22.770237"
         sodipodi:cy="1313.9423"
         sodipodi:cx="2936.2498"
         id="path3991"
         style="opacity:1;fill:#ffffff;fill-opacity:1;fill-rule:nonzero;stroke:#0e0e0e;stroke-width:1;stroke-linecap:round;stroke-linejoin:round;stroke-miterlimit:4;stroke-dasharray:none;stroke-dashoffset:0;stroke-opacity:1"
         sodipodi:type="arc" />
      <text
         id="text3904"
         y="1336.0237"
         x="2682.7312"
         style="font-size:32px;font-style:normal;font-weight:normal;fill:#000000;fill-opacity:1;stroke:none;stroke-width:1px;stroke-linecap:butt;stroke-linejoin:miter;stroke-opacity:1;font-family:Times New Roman"
         xml:space="preserve"><tspan
           y="1336.0237"
           x="2682.7312"
           id="tspan3906"
           sodipodi:role="line">1</tspan></text>
    </g>
    <g
       id="g4000"
       transform="translate(-2.9552987,-5.4006541)">
      <path
         transform="translate(-360.43619,286.01634)"
         d="M 2959.02,1313.9423 A 22.770237,22.770237 0 1 1 2913.4795,1313.9423 A 22.770237,22.770237 0 1 1 2959.02,1313.9423 z"
         sodipodi:ry="22.770237"
         sodipodi:rx="22.770237"
         sodipodi:cy="1313.9423"
         sodipodi:cx="2936.2498"
         id="path3998"
         style="opacity:1;fill:#ffffff;fill-opacity:1;fill-rule:nonzero;stroke:#0e0e0e;stroke-width:1;stroke-linecap:round;stroke-linejoin:round;stroke-miterlimit:4;stroke-dasharray:none;stroke-dashoffset:0;stroke-opacity:1"
         sodipodi:type="arc" />
      <text
         id="text3908"
         y="1610.7711"
         x="2568.1338"
         style="font-size:32px;font-style:normal;font-weight:normal;fill:#000000;fill-opacity:1;stroke:none;stroke-width:1px;stroke-linecap:butt;stroke-linejoin:miter;stroke-opacity:1;font-family:Times New Roman"
         xml:space="preserve"><tspan
           y="1610.7711"
           x="2568.1338"
           id="tspan3910"
           sodipodi:role="line">2</tspan></text>
    </g>
    <g
       id="g4007"
       transform="translate(-30.72388,-63.159302)">
      <path
         transform="translate(-659.22612,297.12377)"
         d="M 2959.02,1313.9423 A 22.770237,22.770237 0 1 1 2913.4795,1313.9423 A 22.770237,22.770237 0 1 1 2959.02,1313.9423 z"
         sodipodi:ry="22.770237"
         sodipodi:rx="22.770237"
         sodipodi:cy="1313.9423"
         sodipodi:cx="2936.2498"
         id="path4005"
         style="opacity:1;fill:#ffffff;fill-opacity:1;fill-rule:nonzero;stroke:#0e0e0e;stroke-width:1;stroke-linecap:round;stroke-linejoin:round;stroke-miterlimit:4;stroke-dasharray:none;stroke-dashoffset:0;stroke-opacity:1"
         sodipodi:type="arc" />
      <text
         id="text3912"
         y="1621.691"
         x="2269.7034"
         style="font-size:32px;font-style:normal;font-weight:normal;fill:#000000;fill-opacity:1;stroke:none;stroke-width:1px;stroke-linecap:butt;stroke-linejoin:miter;stroke-opacity:1;font-family:Times New Roman"
         xml:space="preserve"><tspan
           y="1621.691"
           x="2269.7034"
           id="tspan3914"
           sodipodi:role="line">3</tspan></text>
    </g>
    <g
       id="g4014"
       transform="translate(-29.613137,32.364616)">
      <path
         transform="translate(-710.99814,333.38446)"
         d="M 2959.02,1313.9423 A 22.770237,22.770237 0 1 1 2913.4795,1313.9423 A 22.770237,22.770237 0 1 1 2959.02,1313.9423 z"
         sodipodi:ry="22.770237"
         sodipodi:rx="22.770237"
         sodipodi:cy="1313.9423"
         sodipodi:cx="2936.2498"
         id="path4012"
         style="opacity:1;fill:#ffffff;fill-opacity:1;fill-rule:nonzero;stroke:#0e0e0e;stroke-width:1;stroke-linecap:round;stroke-linejoin:round;stroke-miterlimit:4;stroke-dasharray:none;stroke-dashoffset:0;stroke-opacity:1"
         sodipodi:type="arc" />
      <text
         id="text3916"
         y="1657.9517"
         x="2209.533"
         style="font-size:32px;font-style:normal;font-weight:normal;fill:#000000;fill-opacity:1;stroke:none;stroke-width:1px;stroke-linecap:butt;stroke-linejoin:miter;stroke-opacity:1;font-family:Times New Roman"
         xml:space="preserve"><tspan
           y="1657.9517"
           x="2209.533"
           id="tspan3918"
           sodipodi:role="line">3a</tspan></text>
    </g>
    <g
       id="g4021"
       transform="translate(-0.7338127,-2.0684244)">
      <path
         transform="translate(-920.25078,251.5833)"
         d="M 2959.02,1313.9423 A 22.770237,22.770237 0 1 1 2913.4795,1313.9423 A 22.770237,22.770237 0 1 1 2959.02,1313.9423 z"
         sodipodi:ry="22.770237"
         sodipodi:rx="22.770237"
         sodipodi:cy="1313.9423"
         sodipodi:cx="2936.2498"
         id="path4019"
         style="opacity:1;fill:#ffffff;fill-opacity:1;fill-rule:nonzero;stroke:#0e0e0e;stroke-width:1;stroke-linecap:round;stroke-linejoin:round;stroke-miterlimit:4;stroke-dasharray:none;stroke-dashoffset:0;stroke-opacity:1"
         sodipodi:type="arc" />
      <text
         id="text3920"
         y="1576.338"
         x="2008.3037"
         style="font-size:32px;font-style:normal;font-weight:normal;fill:#000000;fill-opacity:1;stroke:none;stroke-width:1px;stroke-linecap:butt;stroke-linejoin:miter;stroke-opacity:1;font-family:Times New Roman"
         xml:space="preserve"><tspan
           y="1576.338"
           x="2008.3037"
           id="tspan3922"
           sodipodi:role="line">4</tspan></text>
    </g>
    <g
       id="g4042"
       transform="translate(-6.2875287,-9.843627)">
      <path
         transform="translate(-1086.8623,280.46262)"
         d="M 2959.02,1313.9423 A 22.770237,22.770237 0 1 1 2913.4795,1313.9423 A 22.770237,22.770237 0 1 1 2959.02,1313.9423 z"
         sodipodi:ry="22.770237"
         sodipodi:rx="22.770237"
         sodipodi:cy="1313.9423"
         sodipodi:cx="2936.2498"
         id="path4040"
         style="opacity:1;fill:#ffffff;fill-opacity:1;fill-rule:nonzero;stroke:#0e0e0e;stroke-width:1;stroke-linecap:round;stroke-linejoin:round;stroke-miterlimit:4;stroke-dasharray:none;stroke-dashoffset:0;stroke-opacity:1"
         sodipodi:type="arc" />
      <text
         id="text3924"
         y="1605.069"
         x="1834.0671"
         style="font-size:32px;font-style:normal;font-weight:normal;fill:#000000;fill-opacity:1;stroke:none;stroke-width:1px;stroke-linecap:butt;stroke-linejoin:miter;stroke-opacity:1;font-family:Times New Roman"
         xml:space="preserve"><tspan
           y="1605.069"
           x="1834.0671"
           id="tspan3926"
           sodipodi:role="line">4a</tspan></text>
    </g>
    <g
       id="g4028"
       transform="translate(-0.7338127,-2.0684244)">
      <path
         transform="translate(-814.73018,140.50897)"
         d="M 2959.02,1313.9423 A 22.770237,22.770237 0 1 1 2913.4795,1313.9423 A 22.770237,22.770237 0 1 1 2959.02,1313.9423 z"
         sodipodi:ry="22.770237"
         sodipodi:rx="22.770237"
         sodipodi:cy="1313.9423"
         sodipodi:cx="2936.2498"
         id="path4026"
         style="opacity:1;fill:#ffffff;fill-opacity:1;fill-rule:nonzero;stroke:#0e0e0e;stroke-width:1;stroke-linecap:round;stroke-linejoin:round;stroke-miterlimit:4;stroke-dasharray:none;stroke-dashoffset:0;stroke-opacity:1"
         sodipodi:type="arc" />
      <text
         id="text3928"
         y="1464.8574"
         x="2113.8086"
         style="font-size:32px;font-style:normal;font-weight:normal;fill:#000000;fill-opacity:1;stroke:none;stroke-width:1px;stroke-linecap:butt;stroke-linejoin:miter;stroke-opacity:1;font-family:Times New Roman"
         xml:space="preserve"><tspan
           y="1464.8574"
           x="2113.8086"
           id="tspan3930"
           sodipodi:role="line">5</tspan></text>
    </g>
    <g
       id="g4035"
       transform="translate(-0.7338127,-2.0684244)">
      <path
         transform="translate(-538.15511,62.756947)"
         d="M 2959.02,1313.9423 A 22.770237,22.770237 0 1 1 2913.4795,1313.9423 A 22.770237,22.770237 0 1 1 2959.02,1313.9423 z"
         sodipodi:ry="22.770237"
         sodipodi:rx="22.770237"
         sodipodi:cy="1313.9423"
         sodipodi:cx="2936.2498"
         id="path4033"
         style="opacity:1;fill:#ffffff;fill-opacity:1;fill-rule:nonzero;stroke:#0e0e0e;stroke-width:1;stroke-linecap:round;stroke-linejoin:round;stroke-miterlimit:4;stroke-dasharray:none;stroke-dashoffset:0;stroke-opacity:1"
         sodipodi:type="arc" />
      <text
         id="text3932"
         y="1387.3242"
         x="2390.0244"
         style="font-size:32px;font-style:normal;font-weight:normal;fill:#000000;fill-opacity:1;stroke:none;stroke-width:1px;stroke-linecap:butt;stroke-linejoin:miter;stroke-opacity:1;font-family:Times New Roman"
         xml:space="preserve"><tspan
           y="1387.3242"
           x="2390.0244"
           id="tspan3934"
           sodipodi:role="line">6</tspan></text>
    </g>
    <g
       id="g4049"
       transform="translate(-0.7338127,-2.0684244)">
      <path
         transform="translate(-1119.0738,18.327221)"
         d="M 2959.02,1313.9423 A 22.770237,22.770237 0 1 1 2913.4795,1313.9423 A 22.770237,22.770237 0 1 1 2959.02,1313.9423 z"
         sodipodi:ry="22.770237"
         sodipodi:rx="22.770237"
         sodipodi:cy="1313.9423"
         sodipodi:cx="2936.2498"
         id="path4047"
         style="opacity:1;fill:#ffffff;fill-opacity:1;fill-rule:nonzero;stroke:#0e0e0e;stroke-width:1;stroke-linecap:round;stroke-linejoin:round;stroke-miterlimit:4;stroke-dasharray:none;stroke-dashoffset:0;stroke-opacity:1"
         sodipodi:type="arc" />
      <text
         id="text3936"
         y="1342.6445"
         x="1809.2931"
         style="font-size:32px;font-style:normal;font-weight:normal;fill:#000000;fill-opacity:1;stroke:none;stroke-width:1px;stroke-linecap:butt;stroke-linejoin:miter;stroke-opacity:1;font-family:Times New Roman"
         xml:space="preserve"><tspan
           y="1342.6445"
           x="1809.2931"
           id="tspan3938"
           sodipodi:role="line">7</tspan></text>
    </g>
    <g
       id="g4056"
       transform="translate(-0.7338127,-2.0684244)">
      <path
         transform="translate(-1059.0937,-93.857846)"
         d="M 2959.02,1313.9423 A 22.770237,22.770237 0 1 1 2913.4795,1313.9423 A 22.770237,22.770237 0 1 1 2959.02,1313.9423 z"
         sodipodi:ry="22.770237"
         sodipodi:rx="22.770237"
         sodipodi:cy="1313.9423"
         sodipodi:cx="2936.2498"
         id="path4054"
         style="opacity:1;fill:#ffffff;fill-opacity:1;fill-rule:nonzero;stroke:#0e0e0e;stroke-width:1;stroke-linecap:round;stroke-linejoin:round;stroke-miterlimit:4;stroke-dasharray:none;stroke-dashoffset:0;stroke-opacity:1"
         sodipodi:type="arc" />
      <text
         id="text3940"
         y="1230.4595"
         x="1861.4919"
         style="font-size:32px;font-style:normal;font-weight:normal;fill:#000000;fill-opacity:1;stroke:none;stroke-width:1px;stroke-linecap:butt;stroke-linejoin:miter;stroke-opacity:1;font-family:Times New Roman"
         xml:space="preserve"><tspan
           y="1230.4595"
           x="1861.4919"
           id="tspan3942"
           sodipodi:role="line">7a</tspan></text>
    </g>
    <g
       id="g4063"
       transform="translate(-0.7338127,-2.0684244)">
      <path
         transform="translate(-731.42443,-94.96859)"
         d="M 2959.02,1313.9423 A 22.770237,22.770237 0 1 1 2913.4795,1313.9423 A 22.770237,22.770237 0 1 1 2959.02,1313.9423 z"
         sodipodi:ry="22.770237"
         sodipodi:rx="22.770237"
         sodipodi:cy="1313.9423"
         sodipodi:cx="2936.2498"
         id="path4061"
         style="opacity:1;fill:#ffffff;fill-opacity:1;fill-rule:nonzero;stroke:#0e0e0e;stroke-width:1;stroke-linecap:round;stroke-linejoin:round;stroke-miterlimit:4;stroke-dasharray:none;stroke-dashoffset:0;stroke-opacity:1"
         sodipodi:type="arc" />
      <text
         id="text3944"
         y="1229.5986"
         x="2196.7786"
         style="font-size:32px;font-style:normal;font-weight:normal;fill:#000000;fill-opacity:1;stroke:none;stroke-width:1px;stroke-linecap:butt;stroke-linejoin:miter;stroke-opacity:1;font-family:Times New Roman"
         xml:space="preserve"><tspan
           y="1229.5986"
           x="2196.7786"
           id="tspan3946"
           sodipodi:role="line">8</tspan></text>
    </g>
    <g
       id="g4070"
       transform="translate(-0.7338127,-2.0684244)">
      <path
         transform="translate(-604.79971,-166.05616)"
         d="M 2959.02,1313.9423 A 22.770237,22.770237 0 1 1 2913.4795,1313.9423 A 22.770237,22.770237 0 1 1 2959.02,1313.9423 z"
         sodipodi:ry="22.770237"
         sodipodi:rx="22.770237"
         sodipodi:cy="1313.9423"
         sodipodi:cx="2936.2498"
         id="path4068"
         style="opacity:1;fill:#ffffff;fill-opacity:1;fill-rule:nonzero;stroke:#0e0e0e;stroke-width:1;stroke-linecap:round;stroke-linejoin:round;stroke-miterlimit:4;stroke-dasharray:none;stroke-dashoffset:0;stroke-opacity:1"
         sodipodi:type="arc" />
      <text
         id="text3948"
         y="1158.5111"
         x="2315.4109"
         style="font-size:32px;font-style:normal;font-weight:normal;fill:#000000;fill-opacity:1;stroke:none;stroke-width:1px;stroke-linecap:butt;stroke-linejoin:miter;stroke-opacity:1;font-family:Times New Roman"
         xml:space="preserve"><tspan
           y="1158.5111"
           x="2315.4109"
           id="tspan3950"
           sodipodi:role="line">8a</tspan></text>
    </g>
    <g
       id="g4077"
       transform="translate(-0.7338127,-2.0684244)">
      <path
         transform="translate(-364.87917,-116.07272)"
         d="M 2959.02,1313.9423 A 22.770237,22.770237 0 1 1 2913.4795,1313.9423 A 22.770237,22.770237 0 1 1 2959.02,1313.9423 z"
         sodipodi:ry="22.770237"
         sodipodi:rx="22.770237"
         sodipodi:cy="1313.9423"
         sodipodi:cx="2936.2498"
         id="path4075"
         style="opacity:1;fill:#ffffff;fill-opacity:1;fill-rule:nonzero;stroke:#0e0e0e;stroke-width:1;stroke-linecap:round;stroke-linejoin:round;stroke-miterlimit:4;stroke-dasharray:none;stroke-dashoffset:0;stroke-opacity:1"
         sodipodi:type="arc" />
      <text
         id="text3952"
         y="1208.4633"
         x="2563.4253"
         style="font-size:32px;font-style:normal;font-weight:normal;fill:#000000;fill-opacity:1;stroke:none;stroke-width:1px;stroke-linecap:butt;stroke-linejoin:miter;stroke-opacity:1;font-family:Times New Roman"
         xml:space="preserve"><tspan
           y="1208.4633"
           x="2563.4253"
           id="tspan3954"
           sodipodi:role="line">9</tspan></text>
    </g>
    <g
       id="g4084"
       transform="translate(-0.7338127,-2.0684244)">
      <path
         transform="translate(-267.13376,-172.72061)"
         d="M 2959.02,1313.9423 A 22.770237,22.770237 0 1 1 2913.4795,1313.9423 A 22.770237,22.770237 0 1 1 2959.02,1313.9423 z"
         sodipodi:ry="22.770237"
         sodipodi:rx="22.770237"
         sodipodi:cy="1313.9423"
         sodipodi:cx="2936.2498"
         id="path4082"
         style="opacity:1;fill:#ffffff;fill-opacity:1;fill-rule:nonzero;stroke:#0e0e0e;stroke-width:1;stroke-linecap:round;stroke-linejoin:round;stroke-miterlimit:4;stroke-dasharray:none;stroke-dashoffset:0;stroke-opacity:1"
         sodipodi:type="arc" />
      <text
         id="text3956"
         y="1151.8154"
         x="2653.4128"
         style="font-size:32px;font-style:normal;font-weight:normal;fill:#000000;fill-opacity:1;stroke:none;stroke-width:1px;stroke-linecap:butt;stroke-linejoin:miter;stroke-opacity:1;font-family:Times New Roman"
         xml:space="preserve"><tspan
           y="1151.8154"
           x="2653.4128"
           id="tspan3958"
           sodipodi:role="line">9a</tspan></text>
    </g>
    <g
       id="g4091"
       transform="translate(-0.7338127,-2.0684244)">
      <path
         transform="translate(-108.29748,-204.93217)"
         d="M 2959.02,1313.9423 A 22.770237,22.770237 0 1 1 2913.4795,1313.9423 A 22.770237,22.770237 0 1 1 2959.02,1313.9423 z"
         sodipodi:ry="22.770237"
         sodipodi:rx="22.770237"
         sodipodi:cy="1313.9423"
         sodipodi:cx="2936.2498"
         id="path4089"
         style="opacity:1;fill:#ffffff;fill-opacity:1;fill-rule:nonzero;stroke:#0e0e0e;stroke-width:1;stroke-linecap:round;stroke-linejoin:round;stroke-miterlimit:4;stroke-dasharray:none;stroke-dashoffset:0;stroke-opacity:1"
         sodipodi:type="arc" />
      <text
         id="text3960"
         y="1119.6351"
         x="2810.6477"
         style="font-size:32px;font-style:normal;font-weight:normal;fill:#000000;fill-opacity:1;stroke:none;stroke-width:1px;stroke-linecap:butt;stroke-linejoin:miter;stroke-opacity:1;font-family:Times New Roman"
         xml:space="preserve"><tspan
           y="1119.6351"
           x="2810.6477"
           id="tspan3962"
           sodipodi:role="line">10</tspan></text>
    </g>
    <g
       id="g4098"
       transform="translate(-0.7338127,-2.0684244)">
      <path
         transform="translate(200.48913,23.88093)"
         d="M 2959.02,1313.9423 A 22.770237,22.770237 0 1 1 2913.4795,1313.9423 A 22.770237,22.770237 0 1 1 2959.02,1313.9423 z"
         sodipodi:ry="22.770237"
         sodipodi:rx="22.770237"
         sodipodi:cy="1313.9423"
         sodipodi:cx="2936.2498"
         id="path4096"
         style="opacity:1;fill:#ffffff;fill-opacity:1;fill-rule:nonzero;stroke:#0e0e0e;stroke-width:1;stroke-linecap:round;stroke-linejoin:round;stroke-miterlimit:4;stroke-dasharray:none;stroke-dashoffset:0;stroke-opacity:1"
         sodipodi:type="arc" />
      <text
         id="text3964"
         y="1348.6357"
         x="3120.8169"
         style="font-size:32px;font-style:normal;font-weight:normal;fill:#000000;fill-opacity:1;stroke:none;stroke-width:1px;stroke-linecap:butt;stroke-linejoin:miter;stroke-opacity:1;font-family:Times New Roman"
         xml:space="preserve"><tspan
           y="1348.6357"
           x="3120.8169"
           id="tspan3966"
           sodipodi:role="line">11</tspan></text>
    </g>
    <g
       id="g3986"
       transform="translate(-0.7338127,-2.0684244)">
      <path
         d="M 2959.02,1313.9423 A 22.770237,22.770237 0 1 1 2913.4795,1313.9423 A 22.770237,22.770237 0 1 1 2959.02,1313.9423 z"
         sodipodi:ry="22.770237"
         sodipodi:rx="22.770237"
         sodipodi:cy="1313.9423"
         sodipodi:cx="2936.2498"
         id="path3972"
         style="opacity:1;fill:#ffffff;fill-opacity:1;fill-rule:nonzero;stroke:#0e0e0e;stroke-width:1;stroke-linecap:round;stroke-linejoin:round;stroke-miterlimit:4;stroke-dasharray:none;stroke-dashoffset:0;stroke-opacity:1"
         sodipodi:type="arc" />
      <text
         id="text3968"
         y="1324.7548"
         x="2919.0388"
         style="font-size:32px;font-style:normal;font-weight:normal;fill:#000000;fill-opacity:1;stroke:none;stroke-width:1px;stroke-linecap:butt;stroke-linejoin:miter;stroke-opacity:1;font-family:Times New Roman"
         xml:space="preserve"><tspan
           y="1324.7548"
           x="2919.0388"
           id="tspan3970"
           sodipodi:role="line">12</tspan></text>
    </g>
    <text
       xml:space="preserve"
       style="font-size:32px;font-style:normal;font-weight:normal;fill:#000000;fill-opacity:1;stroke:none;stroke-width:1px;stroke-linecap:butt;stroke-linejoin:miter;stroke-opacity:1;font-family:Times New Roman"
       x="-1522.8815"
       y="1916.6863"
       id="text4103"
       transform="matrix(5.3426614e-3,-0.9999857,0.9999857,5.3426614e-3,0,0)"><tspan
         sodipodi:role="line"
         id="tspan4105"
         x="-1522.8815"
         y="1916.6863">The Chute</tspan></text>
    <g
       transform="translate(-5.0326627,1.0158593)"
       id="g2581">
      <path
         transform="translate(133.81805,-21.310646)"
         d="M 2959.02,1313.9423 A 22.770237,22.770237 0 1 1 2913.4795,1313.9423 A 22.770237,22.770237 0 1 1 2959.02,1313.9423 z"
         sodipodi:ry="22.770237"
         sodipodi:rx="22.770237"
         sodipodi:cy="1313.9423"
         sodipodi:cx="2936.2498"
         id="path2572"
         style="fill:#ffffff;fill-opacity:1;fill-rule:nonzero;stroke:#0e0e0e;stroke-width:1;stroke-linecap:round;stroke-linejoin:round;stroke-miterlimit:4;stroke-dasharray:none;stroke-dashoffset:0;stroke-opacity:1"
         sodipodi:type="arc" />
      <text
         id="text2574"
         y="1299.9631"
         x="3052.918"
         style="font-size:22px;font-style:normal;font-weight:normal;fill:#000000;fill-opacity:1;stroke:none;stroke-width:1px;stroke-linecap:butt;stroke-linejoin:miter;stroke-opacity:1;font-family:Times New Roman"
         xml:space="preserve"><tspan
           y="1299.9631"
           x="3052.918"
           id="tspan2576"
           sodipodi:role="line">11a</tspan></text>
    </g>
    <path
       sodipodi:type="star"
       style="opacity:1;fill:#ff0000;fill-opacity:1;stroke:#ffffff;stroke-width:1;stroke-linecap:round;stroke-linejoin:miter;stroke-miterlimit:4;stroke-dasharray:none;stroke-dashoffset:0;stroke-opacity:1"
       id="path3463"
       sodipodi:sides="3"
       sodipodi:cx="1683.6964"
       sodipodi:cy="1391.4535"
       sodipodi:r1="14.134234"
       sodipodi:r2="7.0671172"
       sodipodi:arg1="0.52359878"
       sodipodi:arg2="1.5707963"
       inkscape:flatsided="true"
       inkscape:rounded="0"
       inkscape:randomized="0"
       d="M 1695.937,1398.5206 L 1671.4558,1398.5206 L 1683.6964,1377.3193 L 1695.937,1398.5206 z"
       transform="matrix(2.1805274e-2,0.3356741,1.0174005,-6.6089981e-2,1379.2444,821.47492)" />
    <rect
       style="opacity:1;fill:url(#pattern4166);fill-opacity:1;stroke:#000000;stroke-width:0.5;stroke-linecap:round;stroke-linejoin:round;stroke-miterlimit:4;stroke-dasharray:none;stroke-dashoffset:0;stroke-opacity:1;display:inline"
       id="rect3457"
       width="7.0942688"
       height="32.505844"
       x="2716.0156"
       y="-1479.5823"
       transform="matrix(0.9978046,-6.6226587e-2,-6.6226587e-2,-0.9978046,0,0)"
       ry="0" />
  </g>
</svg>
