<?xml version="1.0" encoding="UTF-8" standalone="no"?>
<!-- Created with Inkscape (http://www.inkscape.org/) -->

<svg
   xmlns:dc="http://purl.org/dc/elements/1.1/"
   xmlns:cc="http://creativecommons.org/ns#"
   xmlns:rdf="http://www.w3.org/1999/02/22-rdf-syntax-ns#"
   xmlns:svg="http://www.w3.org/2000/svg"
   xmlns="http://www.w3.org/2000/svg"
   xmlns:sodipodi="http://sodipodi.sourceforge.net/DTD/sodipodi-0.dtd"
   xmlns:inkscape="http://www.inkscape.org/namespaces/inkscape"
   width="264.80099"
   height="72.326347"
   viewBox="0 0 70.061926 19.136345"
   version="1.1"
   id="svg8787"
   inkscape:version="0.92.0 r15299"
   sodipodi:docname="texas motor speedway.svg">
  <defs
     id="defs8781" />
  <sodipodi:namedview
     id="base"
     pagecolor="#ffffff"
     bordercolor="#666666"
     borderopacity="1.0"
     inkscape:pageopacity="0.0"
     inkscape:pageshadow="2"
     inkscape:zoom="3.4132289"
     inkscape:cx="132.40049"
     inkscape:cy="36.163185"
     inkscape:document-units="mm"
     inkscape:current-layer="layer1"
     showgrid="false"
     fit-margin-top="0"
     fit-margin-left="0"
     fit-margin-right="0"
     fit-margin-bottom="0"
     units="px"
     inkscape:window-width="1280"
     inkscape:window-height="744"
     inkscape:window-x="-4"
     inkscape:window-y="-4"
     inkscape:window-maximized="1" />
  <metadata
     id="metadata8784">
    <rdf:RDF>
      <cc:Work
         rdf:about="">
        <dc:format>image/svg+xml</dc:format>
        <dc:type
           rdf:resource="http://purl.org/dc/dcmitype/StillImage" />
        <dc:title></dc:title>
      </cc:Work>
    </rdf:RDF>
  </metadata>
  <g
     inkscape:label="Layer 1"
     inkscape:groupmode="layer"
     id="layer1"
     transform="translate(-118.31397,-167.72855)">
    <g
       id="g9054">
      <path
         d="m 145.2532,180.5707 h 2.7813 l 1.65309,-8.61887 h 2.53062 l 0.56858,-2.97091 h -7.8428 l -0.5673,2.97091 h 2.52908 z"
         style="fill:#000000;fill-opacity:1;fill-rule:nonzero;stroke:none;stroke-width:0.25554049"
         id="path6487"
         inkscape:connector-curvature="0" />
      <path
         d="m 151.65793,180.5707 h 7.61332 l 0.57011,-2.97065 h -4.83125 l 0.27854,-1.44457 h 4.26088 l 0.5277,-2.75984 h -4.26063 l 0.27624,-1.44381 h 4.69147 l 0.5701,-2.97091 h -7.47506 z"
         style="fill:#000000;fill-opacity:1;fill-rule:nonzero;stroke:none;stroke-width:0.25554049"
         id="path6491"
         inkscape:connector-curvature="0" />
      <path
         d="m 159.75936,180.5707 h 3.18761 l 2.25795,-3.45695 0.87804,3.45695 h 3.3504 l -2.04688,-6.13604 3.93992,-5.45374 h -3.08591 l -1.94313,3.14724 -0.76176,-3.14724 h -3.263 l 1.93444,5.42359 z"
         style="fill:#000000;fill-opacity:1;fill-rule:nonzero;stroke:none;stroke-width:0.25554049"
         id="path6495"
         inkscape:connector-curvature="0" />
      <path
         d="m 169.25552,180.5707 h 2.7951 l 0.7237,-1.65565 h 2.87023 l 0.0621,1.65565 h 2.88429 l -1.06535,-11.58978 h -2.71972 z m 4.6028,-4.13899 1.55676,-3.5722 h 0.0241 l 0.12572,3.5722 z"
         style="fill:#000000;fill-opacity:1;fill-rule:nonzero;stroke:none;stroke-width:0.25554049"
         id="path6499"
         inkscape:connector-curvature="0" />
      <path
         d="m 179.46005,176.67494 c -0.68383,3.70125 2.14654,4.17247 3.17177,4.17247 2.00906,0 4.35952,-0.97591 4.93807,-3.99461 0.40732,-2.12584 -0.71194,-2.88761 -1.902,-3.34299 -1.18877,-0.45537 -2.44347,-0.63271 -2.33768,-1.46271 0.12573,-0.64805 0.7702,-0.77914 1.15044,-0.77914 0.27598,0 0.57854,0.0818 0.76586,0.29311 0.18782,0.19574 0.28543,0.48603 0.15051,0.92608 h 2.63079 c 0.46611,-2.82347 -1.08349,-3.78481 -3.04374,-3.78481 -1.85855,0 -3.86429,1.15504 -4.37894,3.83157 -0.44541,2.33998 1.08758,2.84212 2.41715,3.36316 1.44713,0.56577 1.80898,0.72932 1.69398,1.32984 -0.16456,0.85887 -0.89669,1.05487 -1.35411,1.05487 -0.51951,0 -1.09652,-0.1454 -1.16475,-0.84405 -0.0232,-0.21082 -0.0138,-0.46943 0.0455,-0.76279 z"
         style="fill:#000000;fill-opacity:1;fill-rule:nonzero;stroke:none;stroke-width:0.25554049"
         id="path6503"
         inkscape:connector-curvature="0" />
      <path
         d="m 161.9992,184.44312 c -0.22973,1.23528 0.69048,1.39295 1.02753,1.39295 0.65137,0 1.42157,-0.32479 1.61374,-1.33239 0.13441,-0.70964 -0.22897,-0.96288 -0.61458,-1.11518 -0.38689,-0.15128 -0.79626,-0.21184 -0.75844,-0.48706 0.0403,-0.21644 0.25043,-0.2609 0.37386,-0.2609 0.0902,0 0.18884,0.0281 0.2494,0.0973 0.0621,0.0659 0.0928,0.16355 0.0468,0.30844 h 0.85887 c 0.15639,-0.94166 -0.34805,-1.26134 -0.98537,-1.26134 -0.6064,0 -1.26185,0.38611 -1.4323,1.27923 -0.14924,0.77812 0.34984,0.94678 0.78093,1.12131 0.46968,0.18859 0.58774,0.24098 0.54992,0.44106 -0.055,0.28928 -0.29413,0.35367 -0.44208,0.35367 -0.16917,0 -0.35597,-0.0488 -0.38025,-0.2816 -0.004,-0.0721 -5e-4,-0.15614 0.0187,-0.25554 z"
         style="fill:#000000;fill-opacity:1;fill-rule:nonzero;stroke:none;stroke-width:0.25554049"
         id="path6507"
         inkscape:connector-curvature="0" />
      <path
         d="m 166.15973,182.86894 h 0.40197 c 0.22462,0 0.42777,0.0199 0.35928,0.37309 -0.0749,0.38867 -0.32529,0.41167 -0.55988,0.41167 h -0.35085 z m -1.45607,2.87355 h 0.90462 l 0.2241,-1.16986 h 0.53767 c 0.67385,0 1.23629,-0.43544 1.41747,-1.3743 0.10375,-0.55222 -0.0296,-1.32114 -0.82871,-1.32114 h -1.51306 z"
         style="fill:#000000;fill-opacity:1;fill-rule:nonzero;stroke:none;stroke-width:0.25554049"
         id="path6511"
         inkscape:connector-curvature="0" />
      <path
         d="m 167.62645,185.74251 h 2.47695 l 0.19115,-0.98945 h -1.57413 l 0.0935,-0.48144 h 1.38682 l 0.17683,-0.92148 h -1.38835 l 0.0917,-0.48118 h 1.52736 l 0.19115,-0.99175 h -2.43428 z"
         style="fill:#000000;fill-opacity:1;fill-rule:nonzero;stroke:none;stroke-width:0.25554049"
         id="path6515"
         inkscape:connector-curvature="0" />
      <path
         d="m 170.54833,185.74251 h 2.47747 l 0.18961,-0.98945 h -1.57311 l 0.0928,-0.48144 h 1.3881 l 0.17556,-0.92148 h -1.38835 l 0.0925,-0.48118 h 1.52941 l 0.18731,-0.99175 h -2.43351 z"
         style="fill:#000000;fill-opacity:1;fill-rule:nonzero;stroke:none;stroke-width:0.25554049"
         id="path6519"
         inkscape:connector-curvature="0" />
      <path
         d="m 174.92533,182.86894 h 0.28774 c 0.65521,0 0.5834,0.67769 0.53663,0.92046 -0.0692,0.36184 -0.26703,0.96389 -0.83101,0.96389 h -0.35648 z m -1.45811,2.87355 h 1.3099 c 1.02701,0 1.64747,-0.75282 1.87388,-1.937 0.18884,-0.97386 0.0246,-1.9283 -0.95419,-1.9283 h -1.4898 z"
         style="fill:#000000;fill-opacity:1;fill-rule:nonzero;stroke:none;stroke-width:0.25554049"
         id="path6523"
         inkscape:connector-curvature="0" />
      <path
         d="m 181.1977,181.87724 h -0.89413 l -0.83204,2.4192 h -0.006 l 0.11805,-2.4192 h -0.80239 l -0.81161,2.38649 h -0.006 l 0.0984,-2.38649 h -0.88647 l 0.055,3.8653 h 0.88544 l 0.76101,-2.35404 h 0.008 l -0.13185,2.35404 h 0.87829 z"
         style="fill:#000000;fill-opacity:1;fill-rule:nonzero;stroke:none;stroke-width:0.25554049"
         id="path6527"
         inkscape:connector-curvature="0" />
      <path
         d="m 180.19698,185.74251 h 0.90947 l 0.23688,-0.55196 h 0.93579 l 0.0179,0.55196 h 0.94039 l -0.32991,-3.8653 h -0.88723 z m 1.50462,-1.38068 0.51235,-1.19005 h 0.009 l 0.0345,1.19005 z"
         style="fill:#000000;fill-opacity:1;fill-rule:nonzero;stroke:none;stroke-width:0.25554049"
         id="path6531"
         inkscape:connector-curvature="0" />
      <path
         d="m 183.8277,185.74251 h 0.90691 l 0.2742,-1.42412 1.51918,-2.44118 h -0.9915 l -0.78323,1.42412 -0.21567,-1.42412 h -1.00249 l 0.56628,2.44118 z"
         style="fill:#000000;fill-opacity:1;fill-rule:nonzero;stroke:none;stroke-width:0.25554049"
         id="path6535"
         inkscape:connector-curvature="0" />
      <path
         d="m 144.20844,185.817 h 0.85555 l 0.47531,-2.48104 h 0.008 l 0.0368,2.48104 h 0.67437 l 0.98587,-2.48104 h 0.01 l -0.47658,2.48104 h 0.85785 l 0.73979,-3.86505 h -1.28895 l -0.85478,2.27329 h -0.009 l 0.0154,-2.27329 h -1.28818 z"
         style="fill:#000000;fill-opacity:1;fill-rule:nonzero;stroke:none;stroke-width:0.25554049"
         id="path6539"
         inkscape:connector-curvature="0" />
      <path
         d="m 149.31951,183.882 c 0.16508,-0.85963 0.55631,-1.05896 0.78757,-1.05896 0.23076,0 0.54737,0.19933 0.38101,1.05896 -0.16354,0.86169 -0.55835,1.06228 -0.78629,1.06228 -0.23356,0 -0.54711,-0.20059 -0.38229,-1.06228 m -0.9041,0 c -0.22743,1.18315 0.20724,2.02669 1.09958,2.02669 0.89466,0 1.65489,-0.84354 1.88053,-2.02669 0.22564,-1.17804 -0.21031,-2.02209 -1.10291,-2.02209 -0.89465,0 -1.65156,0.84405 -1.8772,2.02209"
         style="fill:#000000;fill-opacity:1;fill-rule:nonzero;stroke:none;stroke-width:0.25554049"
         id="path6543"
         inkscape:connector-curvature="0" />
      <path
         d="m 152.12111,185.817 h 0.90691 l 0.55069,-2.87585 h 0.82131 l 0.19216,-0.9892 h -2.55489 l -0.18757,0.9892 h 0.82233 z"
         style="fill:#000000;fill-opacity:1;fill-rule:nonzero;stroke:none;stroke-width:0.25554049"
         id="path6547"
         inkscape:connector-curvature="0" />
      <path
         d="m 155.3957,183.882 c 0.16432,-0.85963 0.55861,-1.05896 0.78834,-1.05896 0.23101,0 0.54788,0.19933 0.37948,1.05896 -0.16329,0.86169 -0.55529,1.06228 -0.78706,1.06228 -0.22922,0 -0.54379,-0.20059 -0.38076,-1.06228 m -0.90512,0 c -0.22769,1.18315 0.21056,2.02669 1.10291,2.02669 0.89235,0 1.65207,-0.84354 1.87771,-2.02669 0.22488,-1.17804 -0.20801,-2.02209 -1.10215,-2.02209 -0.89158,0 -1.65257,0.84405 -1.87847,2.02209"
         style="fill:#000000;fill-opacity:1;fill-rule:nonzero;stroke:none;stroke-width:0.25554049"
         id="path6551"
         inkscape:connector-curvature="0" />
      <path
         d="m 158.98076,182.87269 h 0.42394 c 0.34651,0 0.42241,0.13953 0.37437,0.38382 -0.0652,0.34549 -0.3046,0.38178 -0.47224,0.38178 h -0.47505 z m -1.47089,2.94434 h 0.90666 l 0.25707,-1.34849 h 0.48297 c 0.35648,0 0.30844,0.38536 0.26295,0.75257 -0.0268,0.19983 -0.0483,0.39991 -0.0388,0.59592 h 0.90486 c -0.0498,-0.17863 0.0348,-0.6386 0.0593,-0.82719 0.0616,-0.48323 -0.0246,-0.83919 -0.24865,-0.96492 0.33067,-0.1454 0.55019,-0.56781 0.6271,-0.96978 0.13953,-0.73161 -0.23331,-1.10342 -0.74797,-1.10342 h -1.72515 z"
         style="fill:#000000;fill-opacity:1;fill-rule:nonzero;stroke:none;stroke-width:0.25554049"
         id="path6555"
         inkscape:connector-curvature="0" />
      <path
         d="m 186.93288,184.62227 c -0.0335,-0.013 -0.081,-0.0197 -0.14183,-0.0197 h -0.0587 v 0.27291 h 0.0945 c 0.0575,0 0.10068,-0.0115 0.13313,-0.0345 0.0332,-0.0232 0.049,-0.0606 0.049,-0.11167 0,-0.0516 -0.0266,-0.0874 -0.0762,-0.10707 m -0.44183,0.74797 v -0.92761 c 0.059,0 0.14463,5e-4 0.25988,7.2e-4 0.11397,0 0.17812,7.3e-4 0.19063,0.001 0.0741,0.006 0.13493,0.0214 0.18348,0.0478 0.0823,0.045 0.12368,0.11959 0.12368,0.2213 0,0.0779 -0.022,0.13492 -0.0662,0.16968 -0.0435,0.0355 -0.0976,0.056 -0.16099,0.0631 0.0601,0.0112 0.10503,0.0296 0.13467,0.0532 0.0565,0.0437 0.0851,0.11269 0.0851,0.20724 v 0.0828 c 0,0.009 0,0.0181 0.001,0.0266 7.2e-4,0.009 0.003,0.0186 0.004,0.0273 l 0.005,0.0263 h -0.23178 c -0.009,-0.0291 -0.0135,-0.0721 -0.0151,-0.12802 -0.003,-0.056 -0.008,-0.0933 -0.0151,-0.11296 -0.0125,-0.0329 -0.0353,-0.0554 -0.0685,-0.0682 -0.0189,-0.008 -0.0473,-0.0125 -0.0846,-0.0143 l -0.0539,-0.004 h -0.0511 v 0.32734 z m -0.11959,-0.94448 c -0.1334,0.1362 -0.19983,0.29745 -0.19983,0.4845 0,0.19371 0.0679,0.35751 0.20366,0.49345 0.13441,0.1362 0.29719,0.20316 0.48706,0.20316 0.19012,0 0.35162,-0.0679 0.48629,-0.20418 0.13467,-0.13723 0.20214,-0.30153 0.20214,-0.49243 0,-0.18628 -0.0674,-0.34727 -0.20112,-0.4845 -0.13466,-0.13902 -0.29719,-0.20878 -0.48731,-0.20878 -0.19166,0 -0.35571,0.0698 -0.49089,0.20878 m 1.07684,1.08247 c -0.16355,0.15766 -0.35903,0.23714 -0.58646,0.23714 -0.23612,0 -0.43545,-0.0813 -0.59644,-0.24276 -0.16252,-0.16151 -0.24327,-0.36032 -0.24327,-0.59592 0,-0.24533 0.0869,-0.44899 0.26244,-0.61125 0.1638,-0.15154 0.35623,-0.22743 0.57727,-0.22743 0.23126,0 0.42803,0.0815 0.59157,0.24608 0.16457,0.16303 0.24711,0.36133 0.24711,0.5926 0,0.23739 -0.0851,0.43876 -0.25222,0.60154"
         style="fill:#000000;fill-opacity:1;fill-rule:nonzero;stroke:none;stroke-width:0.25554049"
         id="path6559"
         inkscape:connector-curvature="0" />
      <path
         d="m 118.57855,177.29583 c 0,5.12767 5.36584,9.30448 11.96236,9.30448 6.59627,0 11.9616,-4.17681 11.9616,-9.30448 0,-5.12972 -5.36533,-9.3027 -11.9616,-9.3027 -6.59652,0 -11.96236,4.17298 -11.96236,9.3027"
         style="fill:#ffffff;fill-opacity:1;fill-rule:nonzero;stroke:none;stroke-width:0.25554049"
         id="path6571"
         inkscape:connector-curvature="0" />
      <path
         d="m 130.31754,183.00168 c 0,-0.083 -0.0869,-0.2448 -0.24711,-0.2448 h -2.0042 c -0.21797,0 -0.44796,0.15409 -0.53433,0.2954 l -0.11985,0.20469 -0.94473,1.60377 c -0.0624,0.11755 -0.0723,0.24864 -0.0268,0.34881 0.044,0.0994 0.13747,0.16917 0.27623,0.20367 h 5.1e-4 c 1.09704,0.28672 2.17414,0.44822 3.20371,0.47965 0.0966,0.003 0.19166,-0.0363 0.26935,-0.11167 0.0782,-0.0754 0.12725,-0.17888 0.12725,-0.27062 z"
         style="fill:#163b92;fill-opacity:1;fill-rule:nonzero;stroke:none;stroke-width:0.25554049"
         id="path6575"
         inkscape:connector-curvature="0" />
      <path
         d="m 125.71071,179.74156 c -0.0301,-0.10222 -0.0874,-0.12139 -0.2351,-0.12139 h -4.91634 c -0.23791,0 -0.40708,0.0355 -0.51824,0.20648 -0.16686,0.25529 0.0314,0.61458 0.0363,0.62403 0.28851,0.5926 0.67233,1.16705 1.14023,1.70318 0.009,0.0105 0.22462,0.23229 0.57011,0.0306 l 3.81318,-2.19638 c 0.0156,-0.009 0.15434,-0.0966 0.10988,-0.24659"
         style="fill:#163b92;fill-opacity:1;fill-rule:nonzero;stroke:none;stroke-width:0.25554049"
         id="path6579"
         inkscape:connector-curvature="0" />
      <path
         d="m 128.85143,179.67857 c -0.0192,-0.0373 -0.0585,-0.0582 -0.10528,-0.0582 h -1.1346 c -0.27087,0 -0.51824,0.11729 -0.70325,0.21873 l -2.34407,1.35232 c 0,0 -1.27745,0.73801 -1.27796,0.73801 -0.10451,0.0582 -0.1362,0.14233 -0.12189,0.19702 0.0143,0.0593 0.0795,0.0677 0.11678,0.0677 h 3.72655 c 0.23637,0 0.51032,-0.14335 0.56398,-0.23612 0,0 1.27156,-2.15906 1.27259,-2.16008 0.0248,-0.0401 0.0276,-0.082 0.007,-0.11934"
         style="fill:#163b92;fill-opacity:1;fill-rule:nonzero;stroke:none;stroke-width:0.25554049"
         id="path6583"
         inkscape:connector-curvature="0" />
      <path
         d="m 130.31754,179.85336 c 0,-0.15077 -0.15868,-0.23306 -0.22308,-0.23306 h -0.35316 c -0.13288,0 -0.25145,0.11448 -0.31406,0.21185 -0.0807,0.12342 -1.02574,1.75403 -1.16884,2.00548 -0.0516,0.0869 -0.0593,0.173 -0.0202,0.24097 0.0401,0.0706 0.12853,0.1155 0.22947,0.1155 h 1.59764 c 0.12982,0 0.25222,-0.14616 0.25222,-0.25988 z"
         style="fill:#163b92;fill-opacity:1;fill-rule:nonzero;stroke:none;stroke-width:0.25554049"
         id="path6587"
         inkscape:connector-curvature="0" />
      <path
         d="m 126.89345,182.91186 c -0.0522,-0.0917 -0.18731,-0.16047 -0.31201,-0.16047 h -4.04214 c -0.1845,0 -0.28339,0.0966 -0.31482,0.18628 -0.035,0.10145 2.5e-4,0.20443 0.0922,0.27726 0.95521,0.73008 1.89535,1.2818 2.87202,1.68402 0.47454,0.19497 0.60973,0.0736 0.67054,-0.0335 5.1e-4,-7.2e-4 1.02395,-1.74611 1.02395,-1.74611 0.0432,-0.0736 0.047,-0.14336 0.0102,-0.2075"
         style="fill:#163b92;fill-opacity:1;fill-rule:nonzero;stroke:none;stroke-width:0.25554049"
         id="path6591"
         inkscape:connector-curvature="0" />
      <path
         d="m 134.43803,185.41325 c 0.13953,-0.0345 0.23178,-0.10426 0.27675,-0.20367 0.0447,-0.10017 0.0343,-0.23126 -0.0263,-0.34984 -0.0649,-0.127 -0.95572,-1.62191 -1.06612,-1.80641 -0.0846,-0.14234 -0.31303,-0.29642 -0.53382,-0.29642 h -2.00113 c -0.16049,0 -0.24712,0.16175 -0.24712,0.2448 v 2.5089 c 0,0.0917 0.0478,0.196 0.12675,0.2724 0.0764,0.0736 0.17249,0.11295 0.26806,0.10988 1.02703,-0.0314 2.10464,-0.19292 3.20295,-0.47964"
         style="fill:#163b92;fill-opacity:1;fill-rule:nonzero;stroke:none;stroke-width:0.25554049"
         id="path6595"
         inkscape:connector-curvature="0" />
      <path
         d="m 141.08357,180.44592 c 0.003,-0.005 0.19932,-0.36414 0.0306,-0.61917 -0.11039,-0.17121 -0.28007,-0.20647 -0.51747,-0.20647 h -4.91685 c -0.14694,0 -0.20495,0.0192 -0.2374,0.12316 -0.043,0.14822 0.0971,0.2351 0.1132,0.24455 l 3.81471,2.19663 c 0.34166,0.20162 0.55913,-0.0202 0.56577,-0.0278 0.46738,-0.53434 0.85248,-1.1088 1.14738,-1.71085"
         style="fill:#163b92;fill-opacity:1;fill-rule:nonzero;stroke:none;stroke-width:0.25554049"
         id="path6599"
         inkscape:connector-curvature="0" />
      <path
         d="m 133.58542,181.95796 c 0.0534,0.0928 0.32684,0.23612 0.56244,0.23612 h 3.72528 c 0.0378,0 0.10324,-0.008 0.11959,-0.0677 0.0138,-0.0557 -0.0179,-0.14055 -0.12163,-0.19906 l -0.68613,-0.39456 c 0,0 -2.9377,-1.69372 -2.93821,-1.69372 -0.26091,-0.14617 -0.49089,-0.21874 -0.70197,-0.21874 h -1.13511 c -0.0458,0 -0.0836,0.0209 -0.1035,0.0582 -0.0207,0.0373 -0.0191,0.0802 0.006,0.12036 z"
         style="fill:#163b92;fill-opacity:1;fill-rule:nonzero;stroke:none;stroke-width:0.25554049"
         id="path6603"
         inkscape:connector-curvature="0" />
      <path
         d="m 132.58659,181.30037 c 0,0 -0.85682,-1.46808 -0.85734,-1.4691 -0.0621,-0.0963 -0.18194,-0.21107 -0.31354,-0.21107 h -0.35214 c -0.0674,0 -0.22308,0.0795 -0.22308,0.23305 v 2.08086 c 0,0.11371 0.12189,0.25988 0.25221,0.25988 h 1.59611 c 0.10094,0 0.18936,-0.0447 0.2305,-0.11754 0.0376,-0.0679 0.0309,-0.15205 -0.0212,-0.23893 z"
         style="fill:#163b92;fill-opacity:1;fill-rule:nonzero;stroke:none;stroke-width:0.25554049"
         id="path6607"
         inkscape:connector-curvature="0" />
      <path
         d="m 135.97015,184.89905 c 0.98,-0.40529 1.91886,-0.95675 2.8664,-1.68427 0.0935,-0.0726 0.12854,-0.17581 0.0945,-0.27522 -0.0309,-0.0917 -0.13032,-0.18833 -0.31431,-0.18833 h -4.04163 c -0.12675,0 -0.2586,0.0662 -0.31151,0.15971 -0.0169,0.0286 -0.0248,0.0593 -0.0248,0.0907 0,0.0373 0.011,0.0767 0.0353,0.11781 l 0.56755,0.97284 0.45231,0.77224 c 0.0621,0.10707 0.20009,0.22743 0.67616,0.0345"
         style="fill:#163b92;fill-opacity:1;fill-rule:nonzero;stroke:none;stroke-width:0.25554049"
         id="path6611"
         inkscape:connector-curvature="0" />
      <path
         d="m 133.71782,171.29824 c 0.2632,-0.44361 0.88212,-1.4852 0.9363,-1.59227 0.0605,-0.11755 0.07,-0.2466 0.0248,-0.34907 -0.044,-0.0994 -0.13774,-0.16814 -0.27726,-0.20443 -1.08579,-0.28493 -2.16238,-0.44541 -3.19911,-0.47888 -0.0986,-10e-4 -0.19575,0.0401 -0.27267,0.11576 -0.0785,0.0764 -0.1247,0.17683 -0.1247,0.26831 v 2.50814 c 0,0.0841 0.0869,0.24761 0.24583,0.24761 h 1.99961 c 0.22002,0 0.45128,-0.15587 0.53817,-0.29821 z"
         style="fill:#cc0000;fill-opacity:1;fill-rule:nonzero;stroke:none;stroke-width:0.25554049"
         id="path6615"
         inkscape:connector-curvature="0" />
      <path
         d="m 139.9052,172.41173 c -0.009,-0.009 -0.22769,-0.22947 -0.57445,-0.0286 l -3.81088,2.19713 c -0.0156,0.009 -0.15665,0.0966 -0.1109,0.24583 0.0317,0.10401 0.0961,0.12139 0.23713,0.12139 h 4.91609 c 0.23791,0 0.4081,-0.0345 0.51952,-0.20648 0.16763,-0.25708 -0.0317,-0.61074 -0.0373,-0.62045 -0.28186,-0.5857 -0.66568,-1.16118 -1.1392,-1.7088"
         style="fill:#cc0000;fill-opacity:1;fill-rule:nonzero;stroke:none;stroke-width:0.25554049"
         id="path6619"
         inkscape:connector-curvature="0" />
      <path
         d="m 137.83391,172.63921 c 0.10477,-0.0613 0.13671,-0.1454 0.1224,-0.19881 -0.0159,-0.0582 -0.0797,-0.0669 -0.11627,-0.0669 h -3.72706 c -0.23126,0 -0.50929,0.1454 -0.56194,0.23714 l -0.14488,0.2466 -1.13102,1.91349 c -0.0246,0.037 -0.0263,0.0813 -0.006,0.11755 0.0212,0.0391 0.0598,0.0592 0.10605,0.0592 h 1.13179 c 0.2719,0 0.51951,-0.11755 0.70427,-0.22104 l 2.40259,-1.38375 z"
         style="fill:#cc0000;fill-opacity:1;fill-rule:nonzero;stroke:none;stroke-width:0.25554049"
         id="path6623"
         inkscape:connector-curvature="0" />
      <path
         d="m 132.86334,172.72993 c 0.0506,-0.0869 0.0577,-0.173 0.0182,-0.2397 -0.0411,-0.0718 -0.12752,-0.11677 -0.22743,-0.11677 h -1.6002 c -0.12802,0 -0.24889,0.14616 -0.24889,0.2609 v 2.08163 c 0,0.15307 0.16584,0.23153 0.22283,0.23153 h 0.3506 c 0.12394,0 0.24762,-0.10606 0.31559,-0.21134 l 0.85197,-1.46042 z"
         style="fill:#cc0000;fill-opacity:1;fill-rule:nonzero;stroke:none;stroke-width:0.25554049"
         id="path6627"
         inkscape:connector-curvature="0" />
      <path
         d="m 134.589,170.84606 -0.35264,0.60129 c -0.0419,0.0736 -0.045,0.14336 -0.009,0.20827 0.0539,0.0917 0.18885,0.16252 0.31304,0.16252 h 4.04111 c 0.18553,0 0.28493,-0.0984 0.31636,-0.19216 0.033,-0.0994 -0.002,-0.2006 -0.0945,-0.27139 -0.95061,-0.7311 -1.89023,-1.28256 -2.87355,-1.68503 -0.5259,-0.22283 -0.63476,-0.0307 -0.67156,0.0314 z"
         style="fill:#cc0000;fill-opacity:1;fill-rule:nonzero;stroke:none;stroke-width:0.25554049"
         id="path6631"
         inkscape:connector-curvature="0" />
      <path
         d="m 129.88172,168.67358 c -1.03647,0.0335 -2.11357,0.19396 -3.19962,0.47889 -0.13748,0.0363 -0.23357,0.10604 -0.27701,0.20647 -0.0181,0.0419 -0.0273,0.0889 -0.0273,0.13748 0,0.069 0.0181,0.14157 0.0537,0.21031 0.0667,0.13007 0.96569,1.64108 1.0651,1.80642 0.0874,0.14438 0.31789,0.30026 0.53637,0.30026 h 2.0014 c 0.15895,0 0.24558,-0.16355 0.24558,-0.24762 v -2.50814 c 0,-0.0907 -0.0465,-0.1919 -0.12292,-0.26754 -0.0787,-0.0764 -0.17735,-0.11832 -0.27522,-0.11653"
         style="fill:#cc0000;fill-opacity:1;fill-rule:nonzero;stroke:none;stroke-width:0.25554049"
         id="path6635"
         inkscape:connector-curvature="0" />
      <path
         d="m 120.52355,174.94744 h 4.91609 c 0.14821,0 0.20647,-0.0181 0.23612,-0.12241 0.046,-0.14821 -0.0943,-0.23612 -0.10989,-0.2448 l -3.81547,-2.19714 c -0.34141,-0.20086 -0.5581,0.0199 -0.56449,0.0256 -0.47735,0.54865 -0.86271,1.12412 -1.14942,1.71775 -0.002,0.004 -0.19932,0.3575 -0.0294,0.6156 0.10732,0.17095 0.27751,0.20545 0.51645,0.20545"
         style="fill:#cc0000;fill-opacity:1;fill-rule:nonzero;stroke:none;stroke-width:0.25554049"
         id="path6639"
         inkscape:connector-curvature="0" />
      <path
         d="m 123.24901,172.63822 1.49594,0.86219 c 0,0 2.1284,1.22609 2.12942,1.22609 0.17096,0.0956 0.42777,0.22104 0.70145,0.22104 h 1.13461 c 0.0457,0 0.0841,-0.0202 0.10553,-0.0582 0.0207,-0.0373 0.0181,-0.0815 -0.005,-0.12062 0,0 -1.27643,-2.15804 -1.27745,-2.15906 -0.0517,-0.0907 -0.32939,-0.23612 -0.56117,-0.23612 h -3.72501 c -0.0368,0 -0.10349,0.009 -0.11908,0.0677 -0.0143,0.0537 0.0171,0.13876 0.12087,0.19702"
         style="fill:#cc0000;fill-opacity:1;fill-rule:nonzero;stroke:none;stroke-width:0.25554049"
         id="path6643"
         inkscape:connector-curvature="0" />
      <path
         d="m 130.27988,172.63433 c 0,-0.11474 -0.12087,-0.26091 -0.24916,-0.26091 h -1.5984 c -0.10119,0 -0.18936,0.045 -0.23025,0.11678 -0.0393,0.0687 -0.0327,0.15282 0.0194,0.24175 l 1.16858,2.00241 c 0.0636,0.10018 0.18476,0.21312 0.31585,0.21312 h 0.35162 c 0.0572,0 0.22232,-0.0785 0.22232,-0.23152 z"
         style="fill:#cc0000;fill-opacity:1;fill-rule:nonzero;stroke:none;stroke-width:0.25554049"
         id="path6647"
         inkscape:connector-curvature="0" />
      <path
         d="m 125.82338,169.70099 c -0.0343,-0.0621 -0.14285,-0.25324 -0.67003,-0.0314 -0.97668,0.40145 -1.91681,0.95189 -2.87304,1.68606 -0.0912,0.0697 -0.1265,0.17095 -0.0923,0.27035 0.0311,0.0938 0.13058,0.19217 0.31483,0.19217 h 4.04264 c 0.12573,0 0.2558,-0.0687 0.31074,-0.1615 0.0371,-0.0652 0.0343,-0.13391 -0.008,-0.2075 0,0 -1.0242,-1.74815 -1.02522,-1.74815"
         style="fill:#cc0000;fill-opacity:1;fill-rule:nonzero;stroke:none;stroke-width:0.25554049"
         id="path6651"
         inkscape:connector-curvature="0" />
      <path
         d="m 133.01334,178.97506 c 0.14003,0 0.34217,0 0.45358,-0.17581 0.0979,-0.15869 0.0549,-0.33732 0.0176,-0.48451 -0.0304,-0.11959 -0.21415,-0.50009 -0.0378,-0.93476 0.18451,-0.45026 0.7099,-0.80879 1.49696,-0.80879 0.78757,0 1.33469,0.47429 1.47703,0.87753 0.036,0.10323 0.0603,0.30102 0.008,0.5926 -0.0396,0.20929 0,0.40324 0.12726,0.49498 0.10962,0.0785 0.29234,0.0537 0.39455,-0.008 0.10528,-0.0593 3.87144,-2.33027 3.97723,-2.39824 0.27931,-0.18246 0.19907,-0.56756 -0.16176,-0.56756 h -9.18029 c -0.21771,0 -0.36669,0.0841 -0.36669,0.0841 l -0.87625,0.42727 c 0,0 -0.0818,0.0516 -0.29489,0.0659 -0.21364,0.0151 -5.72718,0.13747 -5.72718,0.13747 0,0 -1.03264,0.005 -2.43198,0.85172 -0.45103,0.27701 -1.66536,1.04081 -1.93444,1.18622 -0.34319,0.1845 -0.29336,0.66031 0.13569,0.66031 h 2.21503 c 0.13824,0 0.34165,0 0.45052,-0.17581 0.0991,-0.15869 0.0557,-0.33731 0.0197,-0.4845 -0.0301,-0.1196 -0.17147,-0.4426 0.008,-0.87753 0.1822,-0.45205 0.66287,-0.75128 1.45173,-0.75128 0.78579,0 1.3035,0.34881 1.44534,0.75128 0.15383,0.42625 0.0818,0.67974 -0.0483,1.11825 -0.0649,0.23049 0.0761,0.41959 0.36798,0.41959 z"
         style="fill:#000000;fill-opacity:1;fill-rule:nonzero;stroke:none;stroke-width:0.25554049"
         id="path6655"
         inkscape:connector-curvature="0" />
    </g>
  </g>
</svg>
