<?xml version="1.0" encoding="UTF-8"?>
<svg width="332.9015" height="94.30274" version="1.1" viewBox="0 0 332.9015 94.30274" xml:space="preserve" xmlns="http://www.w3.org/2000/svg">
<title>Road Atlanta logo</title>
<desc>Motorsport circuit in Braselton, Georgia, United States</desc>
<style type="text/css">
	.st1{fill:#005BAA;}
	.st2{fill:#FFE600;}
</style>
<g transform="translate(-.02882698 -58)">
		<path class="st2" d="m121.3 152c-27.2-3.3-48-5.6-69.9-12.8-11.6-3.8-21-17.6-5.7-26.9 17.4-10.6 51.5-20.6 69.2-27.5 15.1-5.9 9.2-17-2.4-19.8-17.8-4.3-69.2-6.5-79.1-7 6.1 0.6 28 6.5 41.8 12 12.2 4.9 13.6 11.4 3.3 16-17.1 7.7-53.6 21.1-66.8 28.4-18.3 10.2-13 23.7 1.6 30.1 7.8 3.4 19.7 5.6 39.3 6.9 28 1.8 61.7 0.3 68.7 0.6z"/>
		<path class="st0" d="m72 94.3c0.4 0.6 0.3 2-0.2 4l-0.9 3.5c-0.8 2.8-1.5 4.5-2.2 5s-1.8 0.8-3.3 0.8l3.8-14.3c1.4 0.1 2.4 0.4 2.8 1zm-16.9 52.4 7.6-29c1.8 0 2.8 0.4 3 1.2s-0.1 2.9-1 6.4l-5.6 21.4 12.2 0.1 4.5-17c1.4-5.2 2.1-8.4 2.2-9.5s-0.1-2.4-0.7-3.8c-0.5-1.4-2-2.5-4.4-3.3 3-0.3 5.2-1.4 6.6-3.1s2.8-5.1 4.1-10.1c1.4-5.5 1.8-9.5 1.1-12s-2.1-4.1-4.2-4.7-6.2-0.9-12.4-1h-9.3l-16.9 64.3zm35.7-12.7c-0.3 0.4-0.8 0.7-1.5 0.7-0.6 0-1-0.2-1.1-0.7s0.1-1.6 0.6-3.2l4.3-15.6c0.5-1.8 0.9-2.9 1.2-3.3s0.8-0.7 1.5-0.7 1 0.2 1.1 0.7-0.1 1.6-0.6 3.3l-4.4 15.9c-0.4 1.5-0.8 2.4-1.1 2.9zm16.6-21.7c0-1.2-0.3-2.4-1-3.5-0.6-1.1-1.7-2-3.3-2.8-1.5-0.7-3.5-1.1-5.9-1.1-2.9 0-5.4 0.5-7.6 1.6s-3.8 2.5-5.1 4.3c-1.2 1.8-2.3 4.3-3.1 7.5l-2.4 8.9c-0.8 2.9-1.2 5.1-1.2 6.6s0.3 2.7 0.9 3.8 1.7 1.8 3.2 2.3 3.5 0.8 5.9 0.8c2.1 0 4.1-0.3 5.9-0.9s3.4-1.5 4.8-2.8c1.4-1.2 2.5-2.6 3.2-4.1s1.5-3.7 2.4-6.8l2.3-8.5c0.7-2.3 1-4.1 1-5.3zm10.8 21.8c-0.3 0.4-0.8 0.6-1.5 0.6s-1.1-0.3-1.2-0.8 0.1-1.7 0.6-3.5c0.4-1.6 0.9-2.8 1.4-3.6s1.8-1.9 3.9-3.1l-2 7.1c-0.5 1.8-0.9 2.9-1.2 3.3zm3.3-22.3c0.3-0.5 0.8-0.7 1.6-0.7 0.6 0 1 0.3 1.2 0.8 0.1 0.6-0.1 1.7-0.6 3.5-0.4 1.4-0.8 2.4-1.2 2.9s-2.5 1.4-6.4 2.7c-3.7 1.2-6 2.3-7.1 3.3-1.1 0.9-2 2.7-2.7 5.3l-0.8 2.8c-1 3.5-0.8 5.8 0.5 6.8s2.9 1.6 4.8 1.6c1.4 0 2.8-0.3 4-0.9s2.3-1.5 3.3-2.8l-0.8 3.1h10.5l4.8-17.3c1.6-5.7 2.4-9.5 2.6-11.3s-0.6-3.4-2.1-4.6c-1.5-1.3-4.1-1.9-7.7-1.9-3.1 0-5.7 0.6-7.9 1.7s-3.8 2.4-4.9 3.8c-1 1.4-1.9 3.5-2.7 6.2l-0.6 2.3h10.1l1-3.6c0.4-2 0.8-3.2 1.1-3.7zm25 22.2c-0.4 0.5-0.9 0.7-1.6 0.7-0.6 0-1-0.2-1.1-0.7s0.1-1.4 0.4-2.8l4.7-16.9c0.4-1.3 0.7-2.2 1.1-2.6 0.3-0.4 0.8-0.6 1.5-0.6s1 0.2 1.1 0.7 0 1.3-0.4 2.6l-4.4 16c-0.5 1.9-0.9 3.1-1.3 3.6zm7.6-26.1c-0.6-0.9-1.5-1.6-2.4-2.1s-2.1-0.7-3.5-0.7c-1.7 0-3.3 0.4-4.8 1.3-1.5 0.8-2.6 1.8-3.2 2.9s-1.4 3-2.1 5.7l-4.5 16.2c-0.7 2.6-1 4.4-1 5.5s0.6 2.1 1.5 3c1 0.9 2.3 1.3 4 1.3 1.2 0 2.5-0.3 3.8-0.8s2.6-1.3 3.9-2.3l-0.7 2.5h10.8l11.6-42.1h-10.8zm38.7-9.1c-2.7 10.2-4.9 18.8-6.5 25.8h-4.2c2.1-5.4 5.7-14 10.7-25.8zm-31.1 47.8h12.7l4.3-11.1h4.4l-3 11.1h12.6l12.9-61.6h-17.7zm46.9-45.5-1.5 5.4h-2.3l-1.5 5.5h2.3l-4.8 17.5c-0.9 3.4-1.4 5.6-1.5 6.5s0.2 1.8 0.8 2.5 1.4 1.2 2.4 1.4 2.7 0.3 5.2 0.3h4.4l1.5-5.6c-1.8 0-2.7-0.1-2.9-0.4s0.1-1.5 0.7-3.8l5.1-18.5h2.9l1.5-5.5h-2.9l1.5-5.4zm17-2.9-11.6 42.1h11.1l11.6-42.1zm17.8 36c-0.3 0.4-0.8 0.6-1.5 0.6s-1.1-0.3-1.2-0.8 0.1-1.7 0.6-3.5c0.4-1.6 0.9-2.8 1.4-3.6s1.8-1.9 3.9-3.1l-2 7.1c-0.5 1.8-0.9 2.9-1.2 3.3zm3.3-22.3c0.3-0.5 0.8-0.7 1.6-0.7 0.6 0 1 0.3 1.1 0.8 0.1 0.6-0.1 1.7-0.6 3.5-0.4 1.4-0.8 2.4-1.2 2.9s-2.5 1.4-6.4 2.7c-3.7 1.2-6 2.3-7.1 3.3-1.1 0.9-2 2.7-2.7 5.3l-0.8 2.8c-1 3.5-0.8 5.8 0.5 6.8s2.9 1.6 4.8 1.6c1.4 0 2.8-0.3 4-0.9s2.3-1.5 3.3-2.8l-0.9 3.1h10.5l4.8-17.3c1.6-5.7 2.4-9.5 2.6-11.3s-0.6-3.4-2.1-4.6c-1.5-1.3-4.1-1.9-7.7-1.9-3.1 0-5.7 0.6-7.9 1.7s-3.8 2.4-4.9 3.8c-1 1.4-1.9 3.5-2.6 6.2l-0.6 2.3h10.1l1-3.6c0.4-2 0.9-3.2 1.2-3.7zm19.3-6.1-9.5 34.5h10.8l6.4-23.3c0.7-2.6 1.3-4.2 1.6-4.8 0.4-0.6 0.9-0.9 1.7-0.9 0.7 0 1.1 0.3 1.1 0.8s-0.3 2-1 4.3l-6.6 23.9h10.8l6.7-24.2c0.8-3 1.3-5.2 1.3-6.5s-0.4-2.4-1.4-3.2c-0.9-0.8-2.3-1.3-4.2-1.3-1.5 0-2.9 0.3-4.2 0.9s-2.5 1.6-3.7 2.8l1.1-3.2zm30.5-4.6-1.5 5.4h-2.3l-1.5 5.5h2.3l-4.8 17.5c-1 3.4-1.5 5.6-1.5 6.5-0.1 0.9 0.2 1.8 0.8 2.5s1.4 1.2 2.4 1.4 2.7 0.3 5.2 0.3h4.4l1.5-5.6c-1.8 0-2.7-0.1-2.9-0.4s0.1-1.5 0.7-3.8l5.1-18.5h2.9l1.5-5.5h-2.9l1.5-5.4zm19.8 33c-0.3 0.4-0.8 0.6-1.5 0.6s-1.1-0.3-1.2-0.8 0.1-1.7 0.6-3.5c0.4-1.6 0.9-2.8 1.4-3.6s1.8-1.9 3.9-3.1l-2 7.1c-0.5 1.9-0.9 2.9-1.2 3.3zm3.3-22.2c0.3-0.5 0.8-0.7 1.5-0.7 0.6 0 1 0.3 1.1 0.8s-0.1 1.7-0.6 3.5c-0.4 1.4-0.8 2.4-1.2 2.9s-2.5 1.4-6.5 2.7c-3.7 1.2-6 2.3-7.1 3.3-1.1 0.9-2 2.7-2.7 5.3l-0.8 2.8c-1 3.5-0.8 5.8 0.5 6.8s2.9 1.6 4.8 1.6c1.4 0 2.8-0.3 4-0.9s2.3-1.5 3.3-2.8l-0.9 3.1h10.5l4.8-17.3c1.6-5.7 2.4-9.5 2.6-11.3s-0.6-3.4-2.1-4.6c-1.5-1.3-4.1-1.9-7.7-1.9-3 0-5.7 0.6-7.9 1.7s-3.8 2.4-4.9 3.8-1.9 3.5-2.6 6.2l-0.6 2.3h10.1l1-3.6c0.6-2 1.1-3.2 1.4-3.7z" fill="#017b4e"/>
</g>
</svg>
