<?xml version="1.0" encoding="UTF-8" standalone="no"?>
<svg xmlns="http://www.w3.org/2000/svg" xmlns:xlink="http://www.w3.org/1999/xlink" clip-rule="evenodd" stroke-miterlimit="10" viewBox="0 0 577.29 368.50">
    <desc>SVG generated by Lineform</desc>
    <defs/>
    <g>
        <path d="M 409.34 129.44 C 418.33 135.46 421.09 144.58 418.81 148.46 C 413.63 157.28 408.45 166.11 403.27 174.93 C 399.12 182.00 409.50 195.66 403.23 200.93 C 392.55 209.92 385.34 219.53 373.19 226.39 C 367.61 229.53 347.08 209.26 337.22 209.33 C 314.05 209.49 299.88 209.10 276.72 209.23 C 271.27 209.26 263.61 196.27 267.24 192.22 C 276.93 181.40 289.65 161.21 296.79 162.27 C 316.03 165.12 334.11 168.99 353.27 172.36 C 358.30 173.24 362.27 174.87 368.28 169.38 C 371.87 166.10 363.52 160.29 359.30 157.86 C 346.81 150.68 335.33 141.54 321.82 142.30 C 301.59 143.44 283.50 144.79 264.32 144.71 C 258.63 144.69 239.39 129.90 238.85 123.67 C 238.10 115.04 247.41 87.49 256.44 69.20 C 259.62 62.76 264.06 54.59 269.97 51.22 C 275.81 47.90 283.64 50.08 292.46 56.26 " stroke="#999999" stroke-width="6.00" fill="none"/>
        <path d="M 124.41 86.49 C 104.70 114.13 161.57 89.38 170.89 101.56 C 175.66 107.81 177.90 119.04 172.85 125.07 C 154.31 147.21 135.78 169.34 117.24 191.48 C 113.92 195.45 113.19 202.78 116.22 206.98 C 121.04 213.65 134.88 211.34 144.21 213.52 C 153.14 215.61 167.61 216.03 169.19 225.06 C 172.49 243.90 159.02 247.92 149.14 254.53 C 137.46 262.35 128.66 270.67 127.59 290.00 C 126.17 315.64 136.22 314.58 145.54 321.02 C 153.03 326.20 162.03 327.38 171.53 327.57 " stroke="#999999" stroke-width="6.00" fill="none"/>
        <path d="M 452.80 155.51 C 461.46 162.53 465.55 169.82 464.27 177.03 C 462.75 185.53 458.54 192.99 452.23 198.01 C 448.06 201.34 438.79 205.90 442.21 210.00 C 450.86 220.34 468.08 231.95 465.67 239.03 C 462.73 247.66 439.96 235.42 427.67 238.47 C 420.33 240.30 411.56 252.89 402.64 258.93 C 394.29 264.59 383.32 262.37 376.12 268.39 C 370.95 272.72 371.24 282.64 374.09 288.89 C 377.74 296.89 384.61 306.35 383.55 312.90 C 382.10 321.89 368.69 327.05 360.03 327.37 " stroke="#999999" stroke-width="6.00" fill="none"/>
        <path d="M 486.56 328.27 C 525.84 328.93 547.20 300.73 554.12 279.09 C 565.45 243.64 550.39 212.75 520.32 194.27 C 368.05 100.65 276.86 42.96 261.97 34.90 C 239.06 22.49 223.54 16.79 201.38 19.84 C 191.50 21.20 166.79 26.89 151.42 46.34 C 90.42 123.57 85.34 129.30 31.47 195.36 C 11.09 220.36 12.19 266.50 29.32 289.86 C 41.69 306.73 50.08 329.66 110.28 329.76 L 166.30 316.34 C 227.80 316.11 281.80 315.86 343.30 315.63 L 453.78 327.30 Z M 202.81 105.28 " stroke="#999999" stroke-width="7.00" fill="none"/>
        <path d="M 486.56 328.27 C 525.84 328.93 547.20 300.73 554.12 279.09 C 565.45 243.64 550.39 212.75 520.32 194.27 C 368.05 100.65 276.86 42.96 261.97 34.90 C 239.06 22.49 223.54 16.79 201.38 19.84 C 191.50 21.20 166.79 26.89 151.42 46.34 C 90.42 123.57 85.34 129.30 31.47 195.36 C 11.09 220.36 12.19 266.50 29.32 289.86 C 41.69 306.73 55.58 329.67 115.78 329.76 Z M 202.81 105.28 " stroke="#000000" stroke-width="12.00" fill="none"/>
        <g>
            <path d="M 197.39 344.63 L 197.81 355.75 L 217.86 349.56 Z M 197.39 344.63 " fill-rule="non-zero" fill="#FF0000"/>
            <g>
                <path d="M 223.19 316.97 L 223.21 324.21 L 230.45 324.18 L 230.42 316.95 Z M 223.19 316.97 " fill-rule="non-zero" fill="#000000"/>
                <path d="M 230.42 316.95 L 230.45 324.18 L 237.68 324.16 L 237.66 316.93 Z M 230.42 316.95 " fill-rule="non-zero" fill="#FFFFFF"/>
                <path d="M 237.66 316.93 L 237.68 324.16 L 244.92 324.14 L 244.89 316.90 Z M 237.66 316.93 " fill-rule="non-zero" fill="#000000"/>
                <path d="M 223.21 324.14 L 223.24 331.38 L 230.47 331.35 L 230.45 324.12 Z M 223.21 324.14 " fill-rule="non-zero" fill="#FFFFFF"/>
                <path d="M 237.68 324.10 L 237.71 331.33 L 244.94 331.31 L 244.92 324.07 Z M 237.68 324.10 " fill-rule="non-zero" fill="#FFFFFF"/>
                <path d="M 230.45 324.06 L 230.47 331.29 L 237.71 331.27 L 237.68 324.03 Z M 230.45 324.06 " fill-rule="non-zero" fill="#000000"/>
                <path d="M 223.24 331.31 L 223.26 338.55 L 230.49 338.53 L 230.47 331.29 Z M 223.24 331.31 " fill-rule="non-zero" fill="#000000"/>
                <path d="M 230.47 331.29 L 230.49 338.53 L 237.73 338.50 L 237.71 331.27 Z M 230.47 331.29 " fill-rule="non-zero" fill="#FFFFFF"/>
                <path d="M 237.71 331.27 L 237.73 338.50 L 244.96 338.48 L 244.94 331.24 Z M 237.71 331.27 " fill-rule="non-zero" fill="#000000"/>
                <path d="M 223.26 338.49 L 223.28 345.72 L 230.52 345.70 L 230.49 338.46 Z M 223.26 338.49 " fill-rule="non-zero" fill="#FFFFFF"/>
                <path d="M 237.73 338.44 L 237.75 345.67 L 244.99 345.65 L 244.96 338.41 Z M 237.73 338.44 " fill-rule="non-zero" fill="#FFFFFF"/>
                <path d="M 230.49 338.40 L 230.52 345.63 L 237.75 345.61 L 237.73 338.37 Z M 230.49 338.40 " fill-rule="non-zero" fill="#000000"/>
                <path d="M 223.03 345.53 L 223.05 352.76 L 230.29 352.74 L 230.26 345.51 Z M 223.03 345.53 " fill-rule="non-zero" fill="#000000"/>
                <path d="M 230.26 345.51 L 230.29 352.74 L 237.52 352.72 L 237.50 345.48 Z M 230.26 345.51 " fill-rule="non-zero" fill="#FFFFFF"/>
                <path d="M 237.50 345.48 L 237.52 352.72 L 244.76 352.69 L 244.73 345.46 Z M 237.50 345.48 " fill-rule="non-zero" fill="#000000"/>
            </g>
        </g>
    </g>
</svg>