<?xml version="1.0" encoding="UTF-8"?>
<svg width="72.15274" height="6.559385" version="1.1" viewBox="0 0 72.15274 6.559385" xmlns="http://www.w3.org/2000/svg">
<title>Suzuka Circuit wordmark (2022)</title>
<desc>Japanese motor racing circuit</desc>
 <defs>
  <style>.cls-1{fill:#4d4948;}.cls-2{fill:none;}</style>
 </defs>
 <g transform="translate(.01272339 .0005307854)">
  <g id="SP">
   <g transform="matrix(.1603349 0 0 .1603349 -.01068339 -.000445682)">
    <path class="cls-1" d="m147.78 21.4c-2.26 0-3.57-0.82-3.57-3v-2.79c0-2.13 1.31-3 3.57-3h18.1v3h-17.5c-0.57 0-0.75 0.2-0.75 0.86v1.21c0 0.65 0.18 0.85 0.75 0.85h14.06c2.27 0 3.58 0.84 3.58 3v3.07c0 2.14-1.31 3-3.58 3h-18.3v-3h17.7c0.58 0 0.75-0.19 0.75-0.85v-1.49c0-0.66-0.17-0.86-0.75-0.86z"/>
    <path class="cls-1" d="m224.12 27.57h14.71c2.27 0 3.58-0.83 3.58-3v-12h-3.41v11.17c0 0.66-0.17 0.87-0.75 0.87h-13.53c-0.58 0-0.76-0.21-0.76-0.87v-11.09h-3.43v12c0 2.13 1.32 3 3.59 3"/>
    <path class="cls-1" d="m267.88 12.65h-5.47l-9.05 5.53a2.38 2.38 0 0 1-1.51 0.45h-2.36v-6h-3.49v14.94h3.49v-6h2.36a2.36 2.36 0 0 1 1.51 0.44l9.05 5.54h5.47l-12.21-7.46z"/>
    <path class="cls-1" d="m173.19 27.57h14.71c2.27 0 3.59-0.83 3.59-3v-12h-3.43v11.17c0 0.66-0.18 0.87-0.76 0.87h-13.51c-0.58 0-0.75-0.21-0.75-0.87v-11.09h-3.43v12c0 2.13 1.31 3 3.58 3"/>
    <path class="cls-1" d="m289.76 12.65h-14.71c-2.28 0-3.59 0.83-3.59 3v12h3.43v-11.18c0-0.66 0.18-0.86 0.76-0.86h13.51c0.57 0 0.75 0.2 0.75 0.86v3.64h-12.56v3h12.56v4.5h3.43v-12c0-2.13-1.31-3-3.58-3"/>
    <rect class="cls-1" x="334.69" y="12.65" width="3.51" height="14.92"/>
    <rect class="cls-1" x="420.06" y="12.65" width="3.51" height="14.92"/>
    <path class="cls-1" d="m312.46 24.6c-0.56 0-0.74-0.19-0.74-0.85v-7.28c0-0.66 0.18-0.86 0.74-0.86h17.68v-3h-18.33c-2.25 0-3.55 0.83-3.55 3v9c0 2.14 1.3 3 3.55 3h18.33v-3z"/>
    <polygon class="cls-1" points="437.33 15.61 437.33 27.57 440.79 27.57 440.79 15.61 450 15.61 450 12.65 428.12 12.65 428.12 15.61"/>
    <path class="cls-1" d="m397.23 27.57h14.7c2.28 0 3.59-0.83 3.59-3v-12h-3.43v11.1c0 0.65-0.18 0.86-0.76 0.86h-13.51c-0.57 0-0.75-0.21-0.75-0.86v-11.02h-3.43v12c0 2.13 1.31 3 3.59 3"/>
    <path class="cls-1" d="m372.38 24.6c-0.57 0-0.74-0.19-0.74-0.85v-7.28c0-0.66 0.17-0.86 0.74-0.86h17.68v-3h-18.33c-2.25 0-3.55 0.83-3.55 3v9c0 2.14 1.3 3 3.55 3h18.33v-3z"/>
    <path class="cls-1" d="m361.36 23.06c2.07-0.08 3.26-0.93 3.26-2.95v-4.5c0-2.13-1.31-3-3.59-3h-18.29v14.96h3.43v-12h14.26c0.58 0 0.76 0.2 0.76 0.86v2.78c0 0.65-0.18 0.86-0.76 0.86h-11.76v3h8.33l4.5 4.5h4.39z"/>
    <path class="cls-1" d="m114.61 40.21a6.11 6.11 0 0 1-2.92-0.66l-41.26-21.09a2.45 2.45 0 0 0-3.1 0.74l-3.33 4.56a6 6 0 0 1-7.63 1.83l-3.56-1.82-7.07 9.74a6 6 0 0 1-7.64 1.82l-34.81-17.8a6 6 0 0 1-2.63-8.12 6 6 0 0 1 8.13-2.63l22.83 11.67a2.44 2.44 0 0 0 3.1-0.75l0.79-1.08a6 6 0 0 1 7.63-1.82l8.59 4.39 12.13-16.69a6 6 0 0 1 7.63-1.83l48.23 24.65a6 6 0 0 1 2.13 8.92l-2.52 3.48a6 6 0 0 1-4.72 2.49m-1.29-3.85a2.45 2.45 0 0 0 3.11-0.75l2.57-3.48a2.44 2.44 0 0 0-0.86-3.62l-48.28-24.65a2.45 2.45 0 0 0-3.1 0.74l-11.76 16.24 3 1.56a2.45 2.45 0 0 0 3.1-0.74l3.31-4.56a6 6 0 0 1 7.63-1.83zm-107.32-26.66a2.45 2.45 0 0 0-1.06 4.64l34.83 17.8a2.45 2.45 0 0 0 3.11-0.74l6.74-9.28-8.11-4.12a2.44 2.44 0 0 0-3.11 0.74l-0.78 1.08a6 6 0 0 1-7.62 1.81l-22.84-11.63a2.4 2.4 0 0 0-1.16-0.3"/>
    <path class="cls-1" d="m198.28 23.15 17.61-3.57c0.84-0.18 1.06-0.51 1.06-2.41v-2.86c0-1.08-0.22-1.66-1.55-1.66h-20.26v3h18.6c0.27 0 0.42 0.06 0.42 0.43v0.56c0 0.27-0.17 0.39-0.42 0.44l-17.6 3.58c-0.85 0.17-1.07 0.51-1.07 2.4v2.84c0 1.08 0.22 1.67 1.55 1.67h20.26v-3h-18.6c-0.27 0-0.42-0.07-0.42-0.44v-0.56c0-0.27 0.17-0.38 0.42-0.44"/>
    <rect class="cls-2" width="450" height="40.91"/>
   </g>
  </g>
 </g>
</svg>
