<?xml version="1.0" encoding="UTF-8" standalone="no"?>
<svg
   xmlns="http://www.w3.org/2000/svg"
   height="838"
   width="1000"
   version="1.1"><title
     id="title909">Iowa Speedway Logo</title><g
     transform="matrix(2.3280151,0,0,-2.3280151,-171.92529,1091.9642)"
     id="g10"><g
         transform="translate(89.2988,450.8541)"
         id="g20"><path
           id="path22"
           style="fill:#000000;fill-opacity:1;fill-rule:nonzero;stroke:none"
           d="m 0,0 48.258,-81.093 h 72.386 L 32.338,-262.432 h 80.097 c 0,0 -5.845,-17.164 -1.616,-31.094 4.228,-13.93 13.432,-26.119 41.79,-30.472 0,0 12.748,-1.71 34.389,-1.71 21.642,0 43.376,0.093 68.469,5.037 25.093,4.944 45.148,15.018 60.167,29.477 15.018,14.459 24.719,34.141 35.354,56.808 10.634,22.668 10.913,37.78 9.141,43.75 0,0 6.157,5.876 12.593,15.298 6.437,9.421 14.925,25.839 19.962,42.07 5.038,16.231 9.235,31.622 -0.466,47.2 -9.701,15.578 -29.104,21.082 -54.57,22.388 -25.466,1.306 -62.498,0.013 -77.517,-2.559 -15.018,-2.572 -30.596,-7.049 -42.909,-14.698 L 257.053,0 Z" /></g><g
         transform="translate(226.5978,369.8235)"
         id="g24"><path
           id="path26"
           style="fill:#ffffff;fill-opacity:1;fill-rule:nonzero;stroke:none"
           d="m 0,0 -81.123,-166.208 h 62.829 L 63.319,0 Z" /></g><g
         style="fill:#ca222b;fill-opacity:1"
         transform="translate(269.7139,435.9002)"
         id="g28"><path
           id="path30"
           style="fill:#ca222b;fill-opacity:1;fill-rule:nonzero;stroke:none"
           d="m 0,0 h -153.821 l 30.403,-51.132 h 99.831 z" /></g><g
         transform="translate(258.3788,435.9002)"
         id="g32"><path
           id="path34"
           style="fill:#ffffff;fill-opacity:1;fill-rule:nonzero;stroke:none"
           d="m 0,0 -24.699,-51.132 h 0.264 L 38.825,-51.285 63.991,0 Z" /></g><g
         style="fill:#ca222b;fill-opacity:1"
         transform="translate(462.1764,308.1955)"
         id="g36"><path
           id="path38"
           style="fill:#ca222b;fill-opacity:1;fill-rule:nonzero;stroke:none"
           d="m 0,0 h -58.183 c 0.093,0 -7.597,-15.768 -8.269,-16.862 -7.469,-12.167 -26.024,-11.722 -26.024,-11.722 l 5.885,-18.989 c 0,0 13.968,-6.155 38.799,-2.89 C -16.376,-46.333 0,0 0,0" /></g><g
         style="fill:#ca222b;fill-opacity:1"
         transform="translate(222.405,203.9599)"
         id="g40"><path
           id="path42"
           style="fill:#ca222b;fill-opacity:1;fill-rule:nonzero;stroke:none"
           d="m 0,0 h 58.183 c -0.093,0 6.439,16.31 7.112,17.426 7.48,12.406 26.035,11.952 26.035,11.952 l -5.869,19.363 c 0,0 -13.963,6.277 -38.796,2.948 C 15.245,47.477 0,0 0,0" /></g><g
         transform="translate(375.9827,322.564)"
         id="g44"><path
           id="path46"
           style="fill:#fffffb;fill-opacity:1;fill-rule:nonzero;stroke:none"
           d="m 0,0 c 2.482,0 92.057,0.261 92.057,0.261 17.527,49.012 -21.865,49.791 -67.816,49.791 -59.822,0 -98.818,-4.27 -130.597,-69.889 -31.779,-65.617 1.328,-65.314 55.867,-69.281 l 12.985,-0.915 c 27.804,-1.829 31.312,-1.526 21.705,-21.362 -9.313,-19.23 -19.941,-22.563 -48.626,-22.563 -8.18,0 -94.386,-0.125 -94.386,-0.125 -14.318,-46.949 20.134,-47.664 70.421,-48.423 100.705,-1.522 117.221,37.231 135.552,75.079 25.422,52.493 12.773,61.038 -52.619,65.92 l -24.443,1.829 c -15.585,1.223 -24.138,1.835 -15.27,20.145 C -38.961,-6.712 -32.966,0 0,0" /></g></g></svg>