<?xml version="1.0" encoding="UTF-8" standalone="no"?>
<!-- Created with Inkscape (http://www.inkscape.org/) -->

<svg
   xmlns:dc="http://purl.org/dc/elements/1.1/"
   xmlns:cc="http://creativecommons.org/ns#"
   xmlns:rdf="http://www.w3.org/1999/02/22-rdf-syntax-ns#"
   xmlns:svg="http://www.w3.org/2000/svg"
   xmlns="http://www.w3.org/2000/svg"
   version="1.1"
   width="283"
   height="112"
   id="svg3082">
  <defs
     id="defs3084">
    <clipPath
       id="clipPath18">
      <path
         d="M 0,1592.75 0,0 l 4108.71,0 0,1592.75"
         id="path20" />
    </clipPath>
  </defs>
  <metadata
     id="metadata3087">
    <rdf:RDF>
      <cc:Work
         rdf:about="">
        <dc:format>image/svg+xml</dc:format>
        <dc:type
           rdf:resource="http://purl.org/dc/dcmitype/StillImage" />
        <dc:title></dc:title>
      </cc:Work>
    </rdf:RDF>
  </metadata>
  <g
     transform="translate(-134.34848,-503.48049)"
     id="layer1">
    <path
       d="m 414.15297,590.3395 c 0.67459,0.6847 1.03767,1.57097 1.03767,2.54892 0,1.0074 -0.37326,1.90371 -1.06821,2.57891 -0.71531,0.69509 -1.63218,1.06835 -2.57891,1.06835 -0.96777,0 -1.88532,-0.39288 -2.58027,-1.09882 -0.68477,-0.69481 -1.05803,-1.59139 -1.05803,-2.54844 0,-0.96764 0.39294,-1.89414 1.09807,-2.59982 0.68545,-0.68476 1.55278,-1.03767 2.54023,-1.03767 0.99695,0 1.90364,0.37252 2.60945,1.08857 z m -4.76623,0.33187 c -0.60469,0.61426 -0.93724,1.40082 -0.93724,2.21705 0,0.81602 0.31219,1.58135 0.89719,2.17647 0.59451,0.59382 1.37022,0.92657 2.15611,0.92657 0.85647,0 1.63218,-0.31232 2.24705,-0.90669 0.58432,-0.56465 0.90669,-1.33024 0.90669,-2.14599 0,-0.87697 -0.30201,-1.63218 -0.88633,-2.22656 -0.60537,-0.60468 -1.36072,-0.92786 -2.21719,-0.92786 -0.84629,0 -1.58196,0.30275 -2.16628,0.88701 z m 2.24636,0.11055 c 1.14966,0 1.72312,0.39288 1.72312,1.10839 0,0.59519 -0.32168,0.99811 -0.90601,1.12936 l 0.90601,1.84379 -0.97727,0 -0.80557,-1.70358 -0.63455,0 0,1.70358 -0.87683,0 0,-4.08154 1.5711,0 z m -0.69427,1.83375 0.57415,0 c 0.64473,0 0.94673,-0.1806 0.94673,-0.62485 0,-0.46291 -0.32168,-0.6543 -0.98745,-0.6543 l -0.53343,0 0,1.27915"
       id="path22"
       style="fill:#231f20;fill-opacity:1;fill-rule:nonzero;stroke:none" />
    <path
       d="m 279.02544,541.38089 c 0,-0.0618 -4.28167,7.90491 -4.52667,8.45632 -0.24432,0.55169 -0.85647,1.65451 -0.85647,1.96093 0,0.30621 -0.12216,1.6545 1.5297,0.55141 1.65186,-1.1031 4.40383,-2.81855 4.89383,-2.94132 0.48931,-0.12243 0.79471,0.24527 0.61215,0.91938 -0.18392,0.67391 0.0604,1.16411 0.42756,1.34803 0.36715,0.18378 0.85647,0.42871 0.85647,0.42871 0,0 0.24431,0.30648 0.97862,-0.4902 0.73432,-0.79661 2.99765,-2.75733 6.23962,-3.30901 3.24196,-0.55142 3.1198,-0.79662 3.85411,0 0,0 -0.42756,0.42925 -0.79471,0.91911 -0.36716,0.49046 -0.12284,0.98066 0.91755,0.85789 1.03971,-0.1225 1.8955,-0.24493 4.40383,-1.59302 2.50833,-1.34802 8.13647,-1.77721 11.07304,-1.65471 0,0 2.69157,-6.3731 3.1198,-7.04701 0.42756,-0.67391 3.54736,-5.20873 4.09843,-7.47613 0,0 0.79472,-1.34783 -1.34578,-0.73499 -2.14118,0.61283 -6.66785,2.5124 -6.91284,2.57348 -0.245,0.0611 -0.85647,0.48999 -1.16255,0.42891 -0.3054,-0.0611 -1.28403,-0.24499 -0.42755,-1.3485 0.85647,-1.10282 1.22294,-1.53106 0.67255,-2.32781 -0.5504,-0.79674 -2.38617,-0.30675 -2.99765,-0.12283 -0.61147,0.18391 -4.95558,0.98066 -4.95558,0.98066 l -16.02658,2.63456 c 0,0 -3.67088,7.04722 -3.67088,6.98614"
       id="path24"
       style="fill:#231f20;fill-opacity:1;fill-rule:nonzero;stroke:none" />
    <path
       d="m 358.61135,533.41409 c -0.85579,0.0618 -3.91452,-0.12216 -4.70923,0.36783 -0.79607,0.49068 -16.64009,8.88571 -17.37373,9.49854 -0.73431,0.61284 -7.09608,4.77975 -7.76931,5.69886 -0.67255,0.91911 -2.20225,2.69632 -2.26265,3.43151 -0.0618,0.73533 -0.245,1.47073 2.56873,0.6129 2.81441,-0.85817 5.07774,-1.34809 11.25627,-4.28934 0,0 3.79236,-1.96126 2.26266,2.14464 0,0 -0.24364,2.3899 2.63049,0.85789 2.87548,-1.53201 5.07842,-3.00253 7.58607,-2.8801 2.50765,0.1225 5.56706,0.79668 10.52196,-7.72092 0,0 1.8351,-3.86091 6.05637,-7.47614 0,0 3.42589,-3.00239 -1.65186,-1.47065 0,0 -4.6495,1.10282 -8.5647,1.22498 0,0 0.30608,-0.0604 -0.55107,0"
       id="path26"
       style="fill:#00adef;fill-opacity:1;fill-rule:nonzero;stroke:none" />
    <path
       d="m 358.61135,533.41409 c -0.85579,0.0618 -3.91452,-0.12216 -4.70923,0.36783 -0.79607,0.49068 -16.64009,8.88571 -17.37373,9.49854 -0.73431,0.61284 -7.09608,4.77975 -7.76931,5.69886 -0.67255,0.91911 -2.20225,2.69632 -2.26265,3.43151 -0.0618,0.73533 -0.245,1.47073 2.56873,0.6129 2.81441,-0.85817 5.07774,-1.34809 11.25627,-4.28934 0,0 3.79236,-1.96126 2.26266,2.14464 0,0 -0.24364,2.3899 2.63049,0.85789 2.87548,-1.53201 5.07842,-3.00253 7.58607,-2.8801 2.50765,0.1225 5.56706,0.79668 10.52196,-7.72092 0,0 1.8351,-3.86091 6.05637,-7.47614 0,0 3.42589,-3.00239 -1.65186,-1.47065 0,0 -4.6495,1.10282 -8.5647,1.22498 0,0 0.30608,-0.0604 -0.55107,0 z"
       id="path28"
       style="fill:none;stroke:#00adef;stroke-width:0.54292887;stroke-linecap:butt;stroke-linejoin:miter;stroke-miterlimit:4;stroke-opacity:1;stroke-dasharray:none" />
    <path
       d="m 360.97852,543.86479 c -0.36716,0 -2.30541,-0.0943 -2.91689,-2.54566 -0.61147,-2.45132 -3.85411,-3.12455 -5.32274,-2.81848 -1.46794,0.30608 -8.13579,2.26741 -8.13579,2.26741 0,0 -0.97863,1.47066 2.93657,2.38957 3.9152,0.91958 5.99529,2.69666 6.11745,4.34614 l 0,1.40951 c 0,0 1.72041,0.23754 2.678,-0.0941 2.02852,-0.5713 4.35632,-3.37518 4.78524,-3.98801 0.42823,-0.61284 0.22463,-0.96642 -0.14184,-0.96642"
       id="path30"
       style="fill:#fee702;fill-opacity:1;fill-rule:nonzero;stroke:none" />
    <path
       d="m 360.97852,543.86479 c -0.36716,0 -2.30541,-0.0943 -2.91689,-2.54566 -0.61147,-2.45132 -3.85411,-3.12455 -5.32274,-2.81848 -1.46794,0.30608 -8.13579,2.26741 -8.13579,2.26741 0,0 -0.97863,1.47066 2.93657,2.38957 3.9152,0.91958 5.99529,2.69666 6.11745,4.34614 l 0,1.40951 c 0,0 1.72041,0.23754 2.678,-0.0941 2.02852,-0.5713 4.35632,-3.37518 4.78524,-3.98801 0.42823,-0.61284 0.22463,-0.96642 -0.14184,-0.96642 z"
       id="path32"
       style="fill:none;stroke:#fee702;stroke-width:0.54292887;stroke-linecap:butt;stroke-linejoin:miter;stroke-miterlimit:4;stroke-opacity:1;stroke-dasharray:none" />
    <path
       d="m 291.0771,520.546 c 0,0 -4.40451,1.34782 -8.13647,2.87956 0,0 0.67324,-1.83782 -0.36715,-2.57281 -1.03971,-0.73567 -3.54804,0.42824 -4.40383,1.10283 -0.85715,0.67391 -1.28471,0.42891 -1.65186,0.48999 -0.36716,0.0611 -2.38618,1.3485 -3.24197,1.89957 -0.85647,0.55175 -1.22362,0.245 -1.8351,1.22566 -0.61215,0.98067 -8.99294,14.2166 -8.99294,14.2166 0,0 -3.60912,4.71805 -3.97627,5.27048 -0.36716,0.55107 -1.16187,2.38943 1.71294,0.30607 2.87549,-2.08349 5.99529,-4.22805 7.27932,-4.71873 1.2847,-0.48999 4.58843,-2.02241 6.91284,-2.14457 2.32509,-0.12215 2.75333,-0.30607 3.11981,0 0.36715,0.30608 0.42823,0.98067 0.48999,1.71566 0.0611,0.73567 -0.12284,2.69632 3.11913,1.53242 3.24264,-1.16459 7.70823,-3.61591 12.84637,-4.22874 0,0 2.99765,0.42891 4.28235,-2.20565 1.28471,-2.63524 4.71059,-7.47613 5.81138,-9.06963 1.10146,-1.59349 2.14049,-2.5124 0.97863,-4.28913 C 303.8624,520.17816 291.0771,520.546 291.0771,520.546"
       id="path34"
       style="fill:#33b540;fill-opacity:1;fill-rule:nonzero;stroke:none" />
    <path
       d="m 291.0771,520.546 c 0,0 -4.40451,1.34782 -8.13647,2.87956 0,0 0.67324,-1.83782 -0.36715,-2.57281 -1.03971,-0.73567 -3.54804,0.42824 -4.40383,1.10283 -0.85715,0.67391 -1.28471,0.42891 -1.65186,0.48999 -0.36716,0.0611 -2.38618,1.3485 -3.24197,1.89957 -0.85647,0.55175 -1.22362,0.245 -1.8351,1.22566 -0.61215,0.98067 -8.99294,14.2166 -8.99294,14.2166 0,0 -3.60912,4.71805 -3.97627,5.27048 -0.36716,0.55107 -1.16187,2.38943 1.71294,0.30607 2.87549,-2.08349 5.99529,-4.22805 7.27932,-4.71873 1.2847,-0.48999 4.58843,-2.02241 6.91284,-2.14457 2.32509,-0.12215 2.75333,-0.30607 3.11981,0 0.36715,0.30608 0.42823,0.98067 0.48999,1.71566 0.0611,0.73567 -0.12284,2.69632 3.11913,1.53242 3.24264,-1.16459 7.70823,-3.61591 12.84637,-4.22874 0,0 2.99765,0.42891 4.28235,-2.20565 1.28471,-2.63524 4.71059,-7.47613 5.81138,-9.06963 1.10146,-1.59349 2.14049,-2.5124 0.97863,-4.28913 C 303.8624,520.17816 291.0771,520.546 291.0771,520.546 z"
       id="path36"
       style="fill:none;stroke:#33b540;stroke-width:0.54292887;stroke-linecap:butt;stroke-linejoin:miter;stroke-miterlimit:4;stroke-opacity:1;stroke-dasharray:none" />
    <path
       d="m 318.60428,524.52906 c 0,0 -2.56874,2.88024 -3.73128,5.5148 -1.16187,2.63524 3.6098,2.14525 3.6098,2.14525 0,0 12.84569,-3.43199 15.23187,-3.30916 2.3597,0.12081 3.67019,1.96066 5.93353,1.96066 2.26333,0 3.54804,-1.47066 4.70991,-1.34782 1.16254,0.12283 2.32509,0.36783 2.32509,0.36783 0,0 1.5297,1.10282 3.24264,-0.73567 1.71226,-1.83849 5.5053,-7.1083 5.87246,-7.78221 0.36715,-0.67391 1.22294,-3.30915 2.62981,-4.84156 1.40754,-1.53106 -0.6108,-1.22499 -1.28471,-0.79607 0,0 -3.48628,0.67391 -4.09843,1.10282 -0.61147,0.42891 -1.89618,1.3485 -3.18021,1.77674 -1.28538,0.42959 -1.95793,0.55175 -2.38617,0.42959 -0.42823,-0.12284 -1.59078,-0.12284 -0.48931,-1.90025 1.10078,-1.77674 0.42755,-2.26741 -1.46863,-1.71566 -1.89618,0.55175 -2.8748,0.85851 -3.60912,0.85851 -0.73431,0 -1.34578,-0.18392 -0.36715,-1.16458 0.97931,-0.98067 1.77402,-3.0024 -0.67255,-2.45133 -2.44726,0.55175 -2.56874,0.98067 -4.83207,0.98067 -2.26402,0 -4.34411,0.98066 -4.65019,1.10282 -0.3054,0.12216 -3.48696,0.79675 -3.48696,0.79675 l -4.52599,1.04174 -4.77234,7.96613"
       id="path38"
       style="fill:#fee702;fill-opacity:1;fill-rule:nonzero;stroke:none" />
    <path
       d="m 318.60428,524.52906 c 0,0 -2.56874,2.88024 -3.73128,5.5148 -1.16187,2.63524 3.6098,2.14525 3.6098,2.14525 0,0 12.84569,-3.43199 15.23187,-3.30916 2.3597,0.12081 3.67019,1.96066 5.93353,1.96066 2.26333,0 3.54804,-1.47066 4.70991,-1.34782 1.16254,0.12283 2.32509,0.36783 2.32509,0.36783 0,0 1.5297,1.10282 3.24264,-0.73567 1.71226,-1.83849 5.5053,-7.1083 5.87246,-7.78221 0.36715,-0.67391 1.22294,-3.30915 2.62981,-4.84156 1.40754,-1.53106 -0.6108,-1.22499 -1.28471,-0.79607 0,0 -3.48628,0.67391 -4.09843,1.10282 -0.61147,0.42891 -1.89618,1.3485 -3.18021,1.77674 -1.28538,0.42959 -1.95793,0.55175 -2.38617,0.42959 -0.42823,-0.12284 -1.59078,-0.12284 -0.48931,-1.90025 1.10078,-1.77674 0.42755,-2.26741 -1.46863,-1.71566 -1.89618,0.55175 -2.8748,0.85851 -3.60912,0.85851 -0.73431,0 -1.34578,-0.18392 -0.36715,-1.16458 0.97931,-0.98067 1.77402,-3.0024 -0.67255,-2.45133 -2.44726,0.55175 -2.56874,0.98067 -4.83207,0.98067 -2.26402,0 -4.34411,0.98066 -4.65019,1.10282 -0.3054,0.12216 -3.48696,0.79675 -3.48696,0.79675 l -4.52599,1.04174 -4.77234,7.96613 z"
       id="path40"
       style="fill:none;stroke:#fee702;stroke-width:0.54292887;stroke-linecap:butt;stroke-linejoin:miter;stroke-miterlimit:4;stroke-opacity:1;stroke-dasharray:none" />
    <path
       d="m 320.01182,526.73539 c 0,0 12.41746,-4.1059 13.27461,-4.04482 0.85647,0.0618 5.13814,-0.55108 6.11745,3.49306 0,0 0,0.91891 -0.42823,3.30916 0,0 -0.245,1.71565 1.5297,0.12283 0,0 2.38481,-1.77741 4.15951,-1.3485 1.77334,0.42892 2.14118,1.3485 2.44658,1.71566 0.30539,0.36783 1.10146,0.73567 5.32206,-1.04175 4.22127,-1.77741 5.50529,-1.96065 5.50529,-1.96065 0,0 -1.8351,3.49239 -2.14049,4.16698 -0.30608,0.67391 -2.63049,3.49239 -3.11981,8.88503 0,0 0.42756,1.53242 -2.44657,1.40958 0,0 -5.26098,0.61283 -10.76696,3.43199 l -2.69157,0.91857 c 0,0 -4.40451,2.02248 -7.52431,1.83849 -3.11981,-0.18371 -3.36413,-5.1473 -3.36413,-5.1473 0,0 0,-0.55108 0.91687,-1.8385 0.91755,-1.28674 -0.73431,-1.65457 -1.77402,-1.4089 -1.03971,0.245 -4.89382,1.34782 -8.25862,2.38957 -3.36413,1.04174 -3.73128,0.91891 -3.73128,0.91891 0,0 5.07774,-12.99093 6.54568,-15.25834 l 0.42824,-0.55107"
       id="path42"
       style="fill:#ffffff;fill-opacity:1;fill-rule:nonzero;stroke:none" />
    <path
       d="m 330.40687,523.85922 c -0.81032,1.26977 -1.4598,3.42181 -2.7289,4.48052 -0.78588,0.65559 -2.22193,0.74313 -3.75096,0.90805 -0.34815,-1.30371 1.08043,-2.57145 1.03632,-3.79304 -0.0102,-0.27282 -1.43537,0.29047 -2.36581,0.54361 -0.73228,0.2002 -1.99594,0.19817 -2.51444,0.85443 -1.04718,1.32611 -1.80863,3.39059 -2.76283,4.96848 1.37836,-0.076 2.71804,-1.25552 4.8945,-1.3485 -0.009,0.86462 -0.45606,1.59757 -0.91551,2.41943 -0.28436,0.50899 -0.41059,1.67697 -1.06278,2.21243 -0.90602,0.7445 -3.20125,0.69767 -4.5416,1.49577 -0.69495,0.41399 -0.96981,1.68037 -1.28878,2.71804 -0.29318,0.9542 -1.27385,2.17172 -1.25552,3.21685 1.56702,-0.26807 2.86259,-0.70037 4.23552,-1.28606 1.79981,-0.76689 1.89957,-3.92334 3.37362,-5.76319 0.52597,-0.6583 1.98102,-0.80082 3.52972,-0.67187 0.27418,0.0231 0.63455,0.24567 0.49407,0.92908 -0.23889,1.16662 -1.15644,2.63049 -1.24399,3.56365 -0.0251,0.2735 0.89923,0.0631 1.46455,-0.097 0.27689,-0.0781 1.38718,0.005 1.68172,0.20224 1.44012,0.96234 -1.27927,1.96404 -0.80082,3.56161 1.67019,-1.04039 2.76283,-2.83884 3.8643,-4.68683 0.27757,-0.4676 0.71666,-1.1768 0.99763,-1.82221 0.22532,-0.51375 0.4452,-1.43265 1.02885,-1.79438 0.53275,-0.33051 1.0655,0.16627 1.58264,0.69427 0.46284,0.47371 1.75298,-0.37123 1.8541,0.27079 0.11266,0.71802 -0.34544,1.39193 -0.70174,2.16289 -0.26332,0.56804 -0.32575,1.61589 -0.95012,1.92468 -1.15983,0.57347 -3.34037,0.64541 -3.96813,1.74891 -0.81915,1.43876 -1.26367,3.15103 -1.09943,5.54365 0.0523,0.76743 0.98541,0.63862 2.25519,0.55243 1.20055,-0.0814 2.61013,-0.97368 3.03022,-2.20463 0.53207,-1.55685 -0.11877,-3.74282 0.70241,-5.11507 0.55583,-0.92841 2.17036,-1.21481 4.12762,-1.31864 -0.51782,2.1975 -1.21616,4.45269 -1.88328,6.64138 -0.0428,0.13858 0.36172,0.10573 0.90194,-0.0781 0.97523,-0.33119 2.13574,-0.85986 3.36005,-1.39872 0.44791,-0.19749 1.358,-0.38209 1.9145,-0.7092 0.47574,-0.27893 0.74381,-0.14252 1.2786,-0.53614 0.54971,-0.40449 0.27689,-1.79506 0.67527,-2.63185 0.17509,-0.36648 0.82796,-0.60876 1.57313,-0.82933 0.4072,-0.12012 1.4089,-0.81032 1.58535,-0.5022 0.41263,0.72209 0.095,1.69868 0.095,2.89584 0.70988,-0.0719 1.29828,-0.12216 2.23347,-0.32847 0.54429,-0.1208 1.57382,0.26264 2.34138,-0.88837 0.0808,-0.92705 0.17306,-1.68443 0.31286,-2.75265 0.0747,-0.56939 -0.9698,-0.01 -1.91111,-0.0563 -0.37394,-0.019 -1.82695,0.28436 -2.20089,0.31626 0.0692,-0.96166 0.18866,-2.37531 0.79607,-3.00443 0.69495,-0.71735 1.73737,-1.16662 2.83476,-1.84121 0.773,-0.47438 2.39703,-0.83068 3.07298,-1.79438 0.83068,-1.18155 1.18562,-2.43504 2.0672,-3.80186 0.0251,-0.0407 0.26061,-0.57822 -0.20902,-0.48117 -0.82322,0.16967 -1.52292,0.42009 -2.4235,0.80082 -0.5504,0.23278 -1.91858,0.50967 -2.43436,1.17273 -1.30642,1.68308 -2.06042,3.63762 -3.73875,5.36006 -0.5056,0.51918 -1.94232,0.62233 -3.26843,0.52529 0.15677,-1.70277 0.59926,-3.43335 1.10215,-4.93794 0.28029,-0.83883 -0.78114,-1.31457 -1.62268,-1.73466 -0.30743,-0.15338 -1.08586,-0.20156 -1.15915,0.18799 -0.21989,1.1734 -0.37055,2.17307 -1.06347,3.01054 -0.66848,0.80625 -1.59824,1.7428 -3.00443,2.25587 -0.62437,0.22803 -2.20768,0.67595 -2.93928,0.60536 0.49678,-1.00441 1.54871,-1.88667 1.79302,-3.43809 0.16356,-1.03835 -0.88158,-1.60571 -0.59518,-2.8178 0.0733,-0.31219 0.35494,-1.339 0.0326,-1.32407 -1.12047,0.0529 -1.0526,2.20022 -2.15746,2.7893 -0.53818,0.28639 -0.39091,-1.4917 -1.39397,-1.71498 -0.27011,-0.0604 -0.51035,-0.15949 -0.97795,-0.2545 -0.19003,-0.0387 -1.14083,0.21717 -1.04785,-0.2131 0.34204,-1.57313 1.42315,-2.81644 2.24229,-4.3156 0.10723,-0.19614 0.0115,-0.45946 -0.3339,-0.42213 -1.45301,0.15405 -3.31662,0.0272 -4.04957,1.17544"
       id="path44"
       style="fill:#231f20;fill-opacity:1;fill-rule:nonzero;stroke:none" />
    <path
       d="m 341.95429,534.30653 c -0.97999,1.19241 -2.18257,2.64203 -2.66714,4.51785 -0.17849,0.69019 -0.28436,1.73126 0.34476,2.11538 1.28267,0.78318 2.63864,-0.46692 3.82833,-1.21887 0.55854,-0.35291 0.79403,-0.95284 0.90058,-2.13914 0.0652,-0.7221 0.72278,-1.87718 0.16084,-2.63592 -0.39294,-0.53072 -0.62911,-1.25756 -1.42518,-1.54871 -0.3658,-0.13437 -0.773,0.45878 -1.14219,0.90941"
       id="path46"
       style="fill:#ffffff;fill-opacity:1;fill-rule:nonzero;stroke:none" />
    <path
       d="m 328.45368,528.51212 c -0.88226,1.91247 -2.3088,3.64441 -3.05872,6.12763 1.31524,-0.25993 2.10453,-1.22566 3.91519,-1.19241 0.48728,0.008 1.50392,0.75196 1.67223,0.38345 0.59043,-1.30032 0.21785,-2.86056 0.82457,-4.31697 0.1208,-0.28911 0.46149,-1.51137 -0.41195,-1.34442 -0.68137,0.12894 -1.77945,0.30268 -2.94132,0.34272"
       id="path48"
       style="fill:#ffffff;fill-opacity:1;fill-rule:nonzero;stroke:none" />
    <path
       d="m 332.24604,505.71657 c 0,0 -10.27696,2.08281 -20.18609,5.02413 0,0 -2.08078,0.98067 -1.22363,-1.46998 0,0 1.71226,-3.18699 -1.2243,-2.81916 0,0 -11.0106,2.942 -13.21286,4.28914 0,0 -0.9793,0.49067 -2.69157,4.16766 -1.71294,3.67631 -6.60744,12.01094 -6.60744,12.01094 0,0 -1.71226,2.81848 1.95794,1.47066 3.6702,-1.3485 15.41578,-6.00547 17.00656,-5.88331 0,0 3.05873,-1.10283 0.8558,2.08349 0,0 -2.6909,5.14764 1.71362,3.30915 4.40383,-1.83849 8.44118,-4.28914 13.58068,-4.53414 0,0 1.95658,0.49 3.30305,-1.71565 1.3451,-2.20701 6.48392,-11.27595 7.46323,-14.09443 0,0 1.28335,-2.26741 -0.30607,-1.89958 l -0.42892,0.0611"
       id="path50"
       style="fill:#d8123d;fill-opacity:1;fill-rule:nonzero;stroke:none" />
    <path
       d="m 332.24604,505.71657 c 0,0 -10.27696,2.08281 -20.18609,5.02413 0,0 -2.08078,0.98067 -1.22363,-1.46998 0,0 1.71226,-3.18699 -1.2243,-2.81916 0,0 -11.0106,2.942 -13.21286,4.28914 0,0 -0.9793,0.49067 -2.69157,4.16766 -1.71294,3.67631 -6.60744,12.01094 -6.60744,12.01094 0,0 -1.71226,2.81848 1.95794,1.47066 3.6702,-1.3485 15.41578,-6.00547 17.00656,-5.88331 0,0 3.05873,-1.10283 0.8558,2.08349 0,0 -2.6909,5.14764 1.71362,3.30915 4.40383,-1.83849 8.44118,-4.28914 13.58068,-4.53414 0,0 1.95658,0.49 3.30305,-1.71565 1.3451,-2.20701 6.48392,-11.27595 7.46323,-14.09443 0,0 1.28335,-2.26741 -0.30607,-1.89958 l -0.42892,0.0611 z"
       id="path52"
       style="fill:none;stroke:#d8123d;stroke-width:0.54292887;stroke-linecap:butt;stroke-linejoin:miter;stroke-miterlimit:4;stroke-opacity:1;stroke-dasharray:none" />
    <path
       d="m 136.34848,613.11942 2.22182,-13.68192 4.13214,0 -2.22208,13.68192 -4.13188,0"
       id="path54"
       style="fill:#231f20;fill-opacity:1;fill-rule:nonzero;stroke:none" />
    <path
       d="m 152.06322,606.9057 0.34856,-3.11656 0.70676,-4.35164 3.95693,0 -2.22234,13.68192 -3.86892,0 -3.28987,-7.4491 -0.34863,3.11654 -0.70357,4.33256 -3.95693,0 2.2218,-13.68192 3.86945,0 3.28676,7.4682"
       id="path56"
       style="fill:#231f20;fill-opacity:1;fill-rule:nonzero;stroke:none" />
    <path
       d="m 158.47202,599.4375 11.55529,0 -0.58324,3.59242 -3.71167,0 -1.63863,10.0895 -4.13189,0 1.63863,-10.0895 -3.71167,0 0.58318,-3.59242"
       id="path58"
       style="fill:#231f20;fill-opacity:1;fill-rule:nonzero;stroke:none" />
    <path
       d="m 169.32741,613.11942 2.22214,-13.68192 10.27716,0 -0.51829,3.19262 -6.14555,0 -0.31788,1.95726 5.19997,0 -0.5185,3.19236 -5.19977,0 -0.34883,2.14732 6.39055,0 -0.5183,3.19236 -10.5227,0"
       id="path60"
       style="fill:#231f20;fill-opacity:1;fill-rule:nonzero;stroke:none" />
    <path
       d="m 186.26081,608.3505 -0.77435,4.76892 -4.13189,0 2.2218,-13.68192 5.95288,0 c 4.20186,0 5.38449,1.23537 4.95239,3.89565 -0.25613,1.57714 -1.11979,2.90738 -2.66164,3.34458 1.24439,0.53204 1.99411,0.87402 1.5466,3.62923 -0.29026,1.78625 -0.4414,2.39439 0.0488,2.39439 l -0.0679,0.41807 -4.18435,0 c -0.0557,-0.30407 -0.0189,-1.17811 0.17869,-2.3936 0.29026,-1.78706 0.10546,-2.37532 -1.82051,-2.37532 l -1.26055,0 z m 0.48755,-3.00227 1.62852,0 c 1.27805,0 2.01637,-0.34279 2.17063,-1.29237 0.15752,-0.96893 -0.46868,-1.42574 -1.43177,-1.42574 l -1.92597,0 -0.44141,2.71811"
       id="path62"
       style="fill:#231f20;fill-opacity:1;fill-rule:nonzero;stroke:none" />
    <path
       d="m 204.14116,606.9057 0.34829,-3.11656 0.70716,-4.35164 3.9566,0 -2.22194,13.68192 -3.86959,0 -3.28994,-7.4491 -0.34863,3.11654 -0.7033,4.33256 -3.95714,0 2.22208,-13.68192 3.86938,0 3.28703,7.4682"
       id="path64"
       style="fill:#231f20;fill-opacity:1;fill-rule:nonzero;stroke:none" />
    <path
       d="m 207.97777,613.11942 6.7391,-13.68192 4.20227,0 2.29523,13.68192 -4.11472,0 -0.19681,-1.80535 -4.11472,0 -0.76621,1.80535 -4.04414,0 z m 8.13579,-9.55824 -2.07467,4.90331 2.60877,0 -0.5341,-4.90331"
       id="path66"
       style="fill:#231f20;fill-opacity:1;fill-rule:nonzero;stroke:none" />
    <path
       d="m 223.81839,599.4375 11.55557,0 -0.58365,3.59242 -3.7116,0 -1.63897,10.0895 -4.13168,0 1.63896,-10.0895 -3.71227,0 0.58364,-3.59242"
       id="path68"
       style="fill:#231f20;fill-opacity:1;fill-rule:nonzero;stroke:none" />
    <path
       d="m 234.67358,613.11942 2.22194,-13.68192 4.13236,0 -2.22193,13.68192 -4.13237,0"
       id="path70"
       style="fill:#231f20;fill-opacity:1;fill-rule:nonzero;stroke:none" />
    <path
       d="m 254.82778,606.20321 c -0.75671,4.65489 -4.07129,7.27728 -7.80053,7.27728 -3.95728,0 -6.16835,-2.66109 -5.41233,-7.31603 0.69699,-4.29437 3.82969,-7.08719 7.75167,-7.08719 4.49952,0 6.04687,3.51471 5.46119,7.12594 z m -9.08727,0 c -0.28368,1.74752 -0.14863,3.93276 1.82967,3.93276 1.78623,0 2.75807,-1.67148 3.12523,-3.93276 0.30268,-1.86238 -0.0767,-3.83844 -1.90704,-3.78143 -1.87378,0 -2.7669,2.05159 -3.04786,3.78143"
       id="path72"
       style="fill:#231f20;fill-opacity:1;fill-rule:nonzero;stroke:none" />
    <path
       d="m 264.61882,606.9057 0.34883,-3.11656 0.70649,-4.35164 3.95659,0 -2.22193,13.68192 -3.86905,0 -3.29015,-7.4491 -0.34815,3.11654 -0.70377,4.33256 -3.9566,0 2.22126,-13.68192 3.86973,0 3.28675,7.4682"
       id="path74"
       style="fill:#231f20;fill-opacity:1;fill-rule:nonzero;stroke:none" />
    <path
       d="m 268.45529,613.11942 6.73911,-13.68192 4.20227,0 2.29523,13.68192 -4.11472,0 -0.19682,-1.80535 -4.11472,0 -0.76621,1.80535 -4.04414,0 z m 8.13511,-9.55824 -2.07399,4.90331 2.60878,0 -0.53479,-4.90331"
       id="path76"
       style="fill:#231f20;fill-opacity:1;fill-rule:nonzero;stroke:none" />
    <path
       d="m 282.86191,613.11942 2.22194,-13.68192 4.13236,0 -1.70344,10.48956 5.67225,0 -0.51849,3.19236 -9.80462,0"
       id="path78"
       style="fill:#231f20;fill-opacity:1;fill-rule:nonzero;stroke:none" />
    <path
       d="m 307.70362,603.4093 c 0.007,-0.47507 -0.17441,-0.76038 -0.44452,-0.93133 -0.27011,-0.17021 -0.62437,-0.2471 -1.02817,-0.2471 -0.91009,0 -1.35936,0.28524 -1.43944,0.77917 -0.33323,2.05241 7.12254,0.7791 6.31358,5.75773 -0.5151,3.17354 -3.19921,4.71272 -6.66581,4.71272 -3.3268,0 -5.15511,-2.10915 -4.84157,-4.57964 l 3.9566,0 c 0.007,0.49415 0.19409,0.85522 0.50764,1.08321 0.29521,0.22798 0.71463,0.34198 1.11707,0.34198 1.03292,0 1.7747,-0.36107 1.87989,-1.00633 0.33662,-2.07203 -7.14358,-0.64684 -6.29526,-5.87255 0.47235,-2.90738 3.02072,-4.36989 6.17243,-4.36989 3.50189,0 4.78048,1.93757 4.68886,4.33203 l -3.9213,0"
       id="path80"
       style="fill:#231f20;fill-opacity:1;fill-rule:nonzero;stroke:none" />
    <path
       d="m 311.62289,613.11942 2.22194,-13.68192 6.07537,0 c 3.62405,0 5.08114,1.80537 4.62507,4.61836 -0.47845,2.94553 -2.3916,4.80762 -6.01633,4.80762 l -2.08281,0 -0.69155,4.25594 -4.13169,0 z m 7.0574,-7.4491 c 0.96302,0 1.73058,-0.41778 1.92264,-1.59621 0.20632,-1.27296 -1.09671,-1.44399 -1.97219,-1.44399 l -1.17204,0 -0.49475,3.0402 1.71634,0"
       id="path82"
       style="fill:#231f20;fill-opacity:1;fill-rule:nonzero;stroke:none" />
    <path
       d="m 324.24531,613.11942 2.22125,-13.68192 10.27765,0 -0.5185,3.19262 -6.14595,0 -0.31694,1.95726 5.19922,0 -0.51849,3.19236 -5.1999,0 -0.34884,2.14732 6.39028,0 -0.51714,3.19236 -10.52264,0"
       id="path84"
       style="fill:#231f20;fill-opacity:1;fill-rule:nonzero;stroke:none" />
    <path
       d="m 336.53382,613.11942 2.22262,-13.68192 10.27696,0 -0.51781,3.19262 -6.14596,0 -0.31761,1.95726 5.1999,0 -0.5185,3.19236 -5.1999,0 -0.34883,2.14732 6.39095,0 -0.5185,3.19236 -10.52332,0"
       id="path86"
       style="fill:#231f20;fill-opacity:1;fill-rule:nonzero;stroke:none" />
    <path
       d="m 348.63096,613.11942 2.22261,-13.68192 5.53245,0 c 4.06178,0 6.24979,2.05241 5.51819,6.556 -0.83543,5.14959 -3.80118,7.12592 -7.84532,7.12592 l -5.42793,0 z m 4.65086,-3.19236 0.87547,0 c 1.92604,0 3.1551,-1.10229 3.57519,-3.68653 0.46285,-2.85037 -0.27146,-3.61041 -2.47779,-3.61041 l -0.78793,0 -1.18494,7.29694"
       id="path88"
       style="fill:#231f20;fill-opacity:1;fill-rule:nonzero;stroke:none" />
    <path
       d="m 373.56836,607.89373 0.0346,0 2.79269,-8.45623 3.99121,0 -5.356,13.68192 -4.06246,0 -0.16288,-7.94296 -0.0346,0 -2.7255,7.94296 -4.06179,0 -0.91212,-13.68192 3.99188,0 0.0448,8.45623 0.0353,0 2.87821,-8.45623 3.41434,0 0.13234,8.45623"
       id="path90"
       style="fill:#231f20;fill-opacity:1;fill-rule:nonzero;stroke:none" />
    <path
       d="m 378.11267,613.11942 6.73843,-13.68192 4.20227,0 2.29523,13.68192 -4.11472,0 -0.19681,-1.80535 -4.11405,0 -0.7662,1.80535 -4.04415,0 z m 8.13511,-9.55824 -2.07398,4.90331 2.60809,0 -0.53411,-4.90331"
       id="path92"
       style="fill:#231f20;fill-opacity:1;fill-rule:nonzero;stroke:none" />
    <path
       d="m 400.06532,613.11942 -4.13236,0 0.80828,-4.97862 -3.27861,-8.7033 4.62236,0 1.41772,4.63661 2.92436,-4.63661 4.55245,0 -6.09369,8.62722 -0.82051,5.0547"
       id="path94"
       style="fill:#231f20;fill-opacity:1;fill-rule:nonzero;stroke:none" />
    <path
       d="m 152.32912,554.92371 c 6.12037,0.38568 25.47015,-2.61047 30.12671,10.40021 1.19825,3.34824 1.42675,8.01906 1.01928,11.96004 0.47534,-0.1362 0.74735,-0.747 1.08722,-1.22287 3.26178,-6.65991 7.47477,-13.99922 10.73662,-20.59024 l 0.18582,-0.27174 16.80996,0 0.12894,0.3396 c 2.10657,13.72674 4.01293,27.54862 5.91521,41.20803 -2.16357,0.10445 -4.69837,0.0487 -6.29322,0.10791 l -8.87478,0.003 -0.20414,-1.92061 c -0.0536,-0.70784 -0.0644,-2.17782 -0.32868,-3.46171 l -0.40801,-0.0573 -9.37774,0 c -0.94375,1.77409 -1.84535,3.52293 -2.85384,5.36834 l -15.69723,0 -0.2038,-0.13573 c 0.95142,-2.37803 2.4461,-4.48527 3.39779,-6.86323 l -0.40774,0 c -7.08828,8.72609 -27.04621,6.53741 -37.3746,6.86323 l -0.6222,0.0217 7.72668,-41.71988 5.51175,-0.0292 z m 6.02121,25.18152 -0.35412,2.07548 -0.2148,1.29129 c 1.42682,0.33933 2.9289,-0.27595 4.28833,-0.54741 2.92197,-0.81521 4.8246,-3.9418 5.43594,-6.65991 0.4758,-2.37796 0,-4.68887 -1.42709,-6.45522 -1.49462,-1.35997 -3.40444,-2.17517 -5.57907,-2.03863 -0.12881,0.61107 -0.12141,0.43211 -0.18955,1.17965 l -1.95964,11.15475 z m 42.7093,-7.33457 -3.86416,8.44479 4.93753,-0.0413 -1.07337,-8.40346"
       id="path96"
       style="fill:#231f20;fill-opacity:1;fill-rule:nonzero;stroke:none" />
    <path
       d="m 325.19136,570.31445 0.16695,-1.26454 2.50494,-14.02549 15.52912,0 7.36958,17.96097 3.07773,-17.96097 16.07748,-0.0238 -5.77269,36.66304 19.05816,-36.68693 16.6496,0.0477 6.22603,41.86281 -14.59868,0 -0.8585,-5.43805 -9.8752,0 -2.50494,5.43805 -30.77049,0 -7.65734,-18.03332 -3.50596,18.10519 -15.95736,0 1.61046,-9.05246 0.5599,-3.28011 c 0,0 -0.22532,0.42946 -0.41805,0.62641 -0.1527,0.26671 -0.43638,0.48327 -0.50493,0.6074 -5.08996,9.37109 -15.66893,12.89721 -26.27097,11.74213 -7.81343,-1.29129 -13.99806,-5.77602 -16.17249,-13.59073 -1.29082,-5.2318 -0.20292,-11.00918 1.56295,-15.76557 l 0.15813,-0.39451 c -2.10724,-0.0681 -4.85446,0.0888 -6.88502,0.0544 -0.34001,0.20414 -0.36715,0.53682 -0.36715,0.94456 -0.17713,0.53072 -0.17578,1.09407 -0.24432,1.43422 -0.28639,1.41215 -0.53682,3.08336 -0.75128,4.35239 -0.34747,2.06123 -0.70513,4.10406 -0.84086,4.44339 -1.42722,6.79618 -2.07195,11.09611 -3.30101,17.78147 -5.23587,-0.0862 -11.6784,0.0612 -16.11955,-0.0753 l 0.22192,-1.49522 0.2002,-1.35861 4.7642,-25.97657 -0.55107,-0.0504 -6.72757,0 c -0.7472,0.47588 -0.88294,1.08769 -1.35868,1.63116 -2.7859,3.26131 -5.77608,7.06683 -8.90132,10.94077 -0.95216,5.43594 -1.75298,9.22633 -2.84019,14.59467 l -0.32915,1.66272 c -5.30035,0 -10.84433,-0.0265 -15.79788,0.0554 l 0.0753,-0.61527 2.76554,-17.10708 -1.47745,-3.81611 c -0.74788,-1.56228 -1.42383,-3.26898 -2.10385,-4.89933 -0.33933,-0.95175 -0.7472,-1.6317 -1.15508,-2.5821 -1.69869,-4.1454 -3.66884,-8.15459 -5.23179,-12.29998 l -0.0896,-0.27174 16.46228,-0.004 c 1.35258,3.41583 2.51852,5.98362 3.67292,8.83745 0.38616,-0.34333 1.91722,-2.42438 2.34681,-3.06198 1.07975,-1.60252 2.68546,-3.40097 4.24842,-5.84707 5.64103,0.0109 6.41945,0.0143 10.94001,-0.0252 l 33.46546,-0.0151 c -0.0149,0.57083 -0.0753,1.12407 -0.0787,1.30249 l -0.18799,1.45512 c -0.18324,1.25023 -0.0733,0.60394 -0.264,1.97002 l -0.11605,0.62029 c -0.13574,0.67948 -0.19614,1.3316 -0.38209,2.27725 4.14594,-4.68887 11.25424,-7.71366 17.98181,-8.39314 8.63053,-0.61161 17.39612,2.65024 20.99777,10.05667 0.74721,1.42757 1.22363,3.12632 1.76655,4.75721 l 0.20428,0.54348 0.30472,0.64153 z m 60.06287,10.75787 4.7228,-0.0711 -1.1449,-7.72934 -3.5779,7.8004 z m -89.12721,-8.30166 c -0.43027,0.75155 -0.85918,1.96833 -1.1449,3.65093 -0.2864,1.68104 0.1432,3.75625 0.57211,4.50835 0.42891,0.75127 1.60978,2.32495 3.14899,2.7899 1.53852,0.46475 3.21685,0.24419 4.75877,-0.46495 1.65729,-0.76268 2.5762,-2.07466 3.46999,-3.3986 0.89448,-1.32474 1.18087,-3.32754 1.2881,-5.97568 0.0916,-2.25519 -1.18087,-4.04332 -2.18189,-4.68751 -1.00239,-0.64418 -2.64882,-1.35997 -5.04517,-0.78738 -2.39771,0.57265 -4.07943,3.07732 -4.07943,3.07732 0,0 -0.35766,0.53682 -0.78657,1.28762"
       id="path98"
       style="fill:#231f20;fill-opacity:1;fill-rule:nonzero;stroke:none" />
  </g>
</svg>
