<?xml version="1.0" encoding="utf-8"?>
<!-- Generator: Adobe Illustrator 25.2.3, SVG Export Plug-In . SVG Version: 6.00 Build 0)  -->
<svg version="1.1" xmlns="http://www.w3.org/2000/svg" xmlns:xlink="http://www.w3.org/1999/xlink" x="0px" y="0px"
	 viewBox="0 0 1400 800" style="enable-background:new 0 0 1400 800;" xml:space="preserve">
<style type="text/css">
	.st0{display:none;}
	.st1{display:inline;fill:none;stroke:#2EEDDA;stroke-width:10;stroke-miterlimit:10;}
	.st2{display:inline;fill:#2EEDDA;}
	.st3{display:inline;fill:none;stroke:#FFC522;stroke-width:20;stroke-miterlimit:10;}
	.st4{display:inline;fill:#FFC522;}
	.st5{fill:#CECECE;}
	.st6{fill:#E0E0E0;}
	.st7{fill:#212121;}
	.st8{fill:none;stroke:#212121;stroke-width:28;stroke-miterlimit:10;}
	.st9{fill:#FFFFFF;}
	.st10{fill:#F42A2A;}
	.st11{fill:none;stroke:#F42A2A;stroke-width:6;stroke-miterlimit:10;}
</style>
<g id="Layer_1">
</g>
<g id="Pit_Entry_x2F_Exit" class="st0">
</g>
<g id="Road_Course" class="st0">
</g>
<g id="Layer_8">
</g>
<g id="Road_Course_copy">
	<path class="st5" d="M1221.66,357.5c-6.59-17.94-16.51-34.17-29.5-48.25c-38.22-41.43-84.76-47.27-117.06-44.86
		c-40.16,2.99-69.06,18.66-99.74,54.11c-11.7,13.52-26.88,22.78-41.65,25.39c-16.41,2.9-33.87,2.89-50.79,2.9l-2.13,0
		c-17.79,0-171.35-0.77-172.95-0.77c-48.2,0-74.6,37.44-83.28,49.75c-0.53,0.75-0.99,1.41-1.39,1.95
		c-11.88,16.34-23.84,26.87-36.55,32.18c-18.33,7.66-40.07,5.28-61.1,2.97l-0.26-0.03c-12.06-1.32-24.13-2.65-36.19-3.97
		c-45.26-4.95-79.81-8.71-112.02-12.18l-15.91-1.72c-23.54-2.55-47.87-5.19-71.86-7.53c-33.72-3.29-57.96-14.47-74.09-34.18
		c-12.23-14.95-19.13-33.76-19.42-52.96c-0.14-9.53,1.36-18.96,4.34-27.87c0.74-1.98,1.52-3.94,2.35-5.88
		c10.56-24.68,33.17-37.99,54.96-51.69c15.01-9.44,30.01-18.88,45.02-28.32c2.43-1.53,4.88-3.03,7.31-4.57
		c3.3-2.1,6.59-4.19,9.89-6.29c6.54-4.16,13.08-8.31,19.61-12.47c4.7-2.99,9.39-5.99,14.09-8.98c1.84-1.18,3.68-2.35,5.53-3.53
		c0.41-0.26,1.5-1.28,2.01-1.29c0,0-2.53,0.03-6.44,0.07l8.02-5.09l-10.72-16.88l-35.3,22.42c-2.56,0.03-4.13,0.05-4.13,0.05
		s-37.47,24.84-64.55,42.8c-3.68,2.35-7.33,4.76-10.93,7.25c-5.89,3.9-10.65,7.06-13.49,8.94c-5.47,3.62-10.64,7.59-15.71,11.72
		c-9.81,7.98-17.94,17.99-23.79,29.2c-5.78,11.09-8.04,23.23-8.74,35.66c-1.69,30.03,8.07,52.18,8.07,52.18
		c0-0.01,0.01-0.03,0.01-0.05c3.99,10.12,9.52,19.65,16.47,28.16l0,0c5.33,6.65,9.72,17.06,4.56,24.5
		c-3.27,4.72-10.11,7.32-15.26,5.8c-1.77-0.52-3.71-1.75-5.77-3.63c-13.31-12.24-23.96-34.82-28.48-60.4
		c-4.01-22.71-1.86-46.17,6.21-67.86l5.42-14.57c0.39-1.05,0.8-2.1,1.22-3.15c2.83-7.19,6.34-16.15,3.65-26.42
		c-2.98-11.34-12.99-20.48-25.5-23.28c-15.21-3.4-32.21,1.98-45.47,14.39l9.05,9.66c-6.44,9.44-29.75,44.94-30.27,65.02
		c-0.61,23.31,8.45,14.27,8.45,14.27c5.11-20.04,11.32-40.11,22.16-57.89c4.29-7.05,9.26-14.07,15.28-19.77
		c3.5-3.32,7.76-6.08,12.27-6.68c1.42,0.04,2.83,0.2,4.19,0.5c5.13,1.15,9.46,4.78,10.52,8.84c1.04,3.96-0.8,8.62-2.92,14.03
		c-0.46,1.16-0.91,2.33-1.34,3.49l-5.42,14.57c-9.31,25.02-11.79,52.1-7.16,78.31c5.25,29.76,18.2,56.54,34.64,71.65
		c4.38,4.03,8.84,6.67,13.63,8.09c2.87,0.85,5.85,1.26,8.83,1.26c10.99,0,22.09-5.53,28.54-14.84c2.76-3.99,4.52-8.45,5.32-13.15
		c16.74,10.12,37.26,16.41,61.37,18.76c23.88,2.33,48.17,4.96,71.65,7.5l15.92,1.72c32.2,3.47,66.74,7.23,111.99,12.18
		c11.22,1.23,22.43,2.46,33.65,3.69c-2.12,6.23-2.29,12.15-2.28,14.17c-0.19,2.73-1.22,18.1-2.33,40.98
		c-0.07,1.5-0.51,2.41-1.62,3.35c-5.13,4.36-19.07,5.01-27.33,4.07l-1.15,9.93l-1.16,9.93c0.21,0.02,4.13,0.47,9.58,0.47
		c1.73,0,3.61-0.04,5.58-0.16c12-0.72,21.21-3.74,27.39-8.98c5.33-4.52,8.33-10.62,8.67-17.64c1.21-24.93,2.32-40.83,2.33-40.99
		l0.04-0.45l-0.02-0.51c-0.06-3.17,0.85-8.89,3.01-11.09c0.39-0.4,0.95-0.83,2.37-0.86c16.81,1.11,34.34,0.52,50.68-6.32
		c16.19-6.77,30.91-19.48,45.01-38.87c0.45-0.62,0.97-1.35,1.56-2.19c7.96-11.29,29.1-41.27,66.89-41.27
		c1.55,0.01,155.16,0.77,173,0.77h2.13c17.75,0.02,36.14,0.01,54.28-3.2c19.21-3.4,38.63-15.06,53.29-32
		c31.36-36.23,57.1-45.1,86.1-47.25c27.91-2.08,68.06,2.91,100.87,38.48c11.04,11.96,19.83,26.34,25.42,41.58
		c16.73,45.56,0.3,70.92-5.14,77.6c-16.38,20.14-41.94,20.53-55.73,18.96c-24.42-2.78-250.68-32.07-252.89-32.35
		c-17.18-2.35-34.06-1.21-48.83,3.3c-23.77,7.27-43.1,28.9-49.24,55.1c-2.41,10.27-2.64,20.8-0.67,30.44
		c4.41,21.62,19.08,38.39,32.03,53.2l1.07,1.23l15.06-13.16l-1.08-1.23c-11.87-13.57-24.14-27.6-27.49-44.03
		c-1.39-6.83-1.2-14.4,0.55-21.88c4.55-19.4,18.53-35.31,35.62-40.54c11.84-3.62,26.14-4.55,40.34-2.6
		c9.33,1.21,228.71,29.61,253.28,32.4c30.81,3.5,56.92-5.81,73.51-26.21C1232.28,431.24,1235.41,394.93,1221.66,357.5z"/>
</g>
<g id="Pit_Entry_x2F_Exit_copy">
	<path class="st7" d="M355.09,173.28l5.81-3.66H252.75c0,0,1.79,2.25,0,5.21h99.71L355.09,173.28z"/>
	<path class="st7" d="M1258.04,295.4c-18.26-33.9-44.92-62.2-77.08-81.84c-25.87-15.8-48.22-27.69-73.17-34.36
		c-11.4-3.05-23.55-4.73-37.68-5.21c-5.73-0.37-11.8-0.62-17.83-0.78c-2.99-0.08-6.45-0.16-10.19-0.23l-682.24,0v-4.37h-5.7v3.43
		h-81.52c-9.43,0-18.81,1.28-27.97,3.55c-13.75,3.41-27.28,8.42-39.63,15.39c-2.02,1.14-4.55,2.38-6.61,3.94
		c-7.16,4.13-14.5,8.95-22.06,14.5c-20.7,15.19-37.22,36.12-47.77,60.5c-11.83,27.35-15.53,58.26-10.41,87.05
		c4.74,26.65,16.44,51.44,33.85,71.68c12.26,14.25,27.88,26.62,47.75,37.8c22.64,12.73,79.46,33,81.86,33.86l3.35-9.42
		c-0.58-0.21-58.42-20.84-80.31-33.15c-18.84-10.6-33.59-22.25-45.07-35.6c-16.24-18.89-27.17-42.03-31.59-66.91
		c-4.78-26.88-1.32-55.76,9.74-81.33c9.84-22.76,25.23-42.26,44.5-56.41c17.24-12.65,33.11-21.29,48.36-26.31
		c10.17-1.7,25.66-1.9,25.66-1.9h73.77l22.81,0.7h644.77l64.9-3.8c17.29-0.74,27.64-0.18,29.92-0.03c4.4,0.73,8.62,1.64,12.73,2.73
		c23.8,6.36,45.41,17.89,70.54,33.24c30.66,18.72,56.07,45.71,73.49,78.05c19.42,36.05,27.48,78.63,22.68,119.9
		c-4.84,41.67-21.14,78.95-45.89,104.97c-19.55,20.56-44.94,32.64-67.2,41.75c-4.68,1.92-8.63,3.36-12.41,4.55
		c-14.71,4.62-30.02,5.43-44.38,5.62c-27.79,0.36-56.24-1.87-83.76-4.03l-7.99-0.62c-1.02-0.08-2.04-0.13-3.06-0.19
		c-0.67-0.04-1.35-0.07-2.02-0.12l-0.66,9.98c0.71,0.05,1.42,0.09,2.13,0.12c0.94,0.05,1.89,0.1,2.83,0.18l7.99,0.62
		c25.74,2.02,52.28,4.1,78.54,4.1c2.05,0,4.09-0.01,6.13-0.04c15.12-0.2,31.3-1.07,47.24-6.08c4.06-1.28,8.26-2.81,13.2-4.84
		c23.24-9.51,49.81-22.19,70.66-44.12c26.23-27.58,43.48-66.9,48.58-110.71C1286.88,377.92,1278.43,333.24,1258.04,295.4z"/>
</g>
<g id="Oval">
	<path class="st8" d="M227.26,494.71c-86.25-9.33-153.35-81.27-153.35-168.62c0-93.69,77.19-169.65,172.41-169.65h7.08h414.07
		h414.65H1095c127.62,0,227.57,106.68,231.33,221.37c4.17,127.54-106.92,229.52-233.51,217.88l-15.77-1.64l-851.06-99.49"/>
</g>
<g id="Arrows">
	<g>
		<rect x="655.28" y="118.4" width="6.82" height="6.82"/>
		<rect x="662.1" y="118.4" class="st9" width="6.82" height="6.82"/>
		<rect x="655.28" y="125.23" class="st9" width="6.82" height="6.82"/>
		<rect x="662.1" y="132.05" class="st9" width="6.82" height="6.82"/>
		<rect x="655.28" y="138.87" class="st9" width="6.82" height="6.82"/>
		<rect x="662.1" y="145.7" class="st9" width="6.82" height="6.82"/>
		<rect x="655.28" y="152.52" class="st9" width="6.82" height="6.82"/>
		<rect x="662.1" y="159.35" class="st9" width="6.82" height="6.82"/>
		<rect x="655.28" y="166.17" class="st9" width="6.82" height="6.82"/>
		<rect x="662.1" y="173" class="st9" width="6.82" height="6.82"/>
		<rect x="655.28" y="179.82" class="st9" width="6.82" height="6.82"/>
		<rect x="662.1" y="186.64" class="st9" width="6.82" height="6.82"/>
		<rect x="655.28" y="193.47" class="st9" width="6.82" height="6.82"/>
		<rect x="662.1" y="200.29" class="st9" width="6.82" height="6.82"/>
		<rect x="655.28" y="207.12" class="st9" width="6.82" height="6.82"/>
		<rect x="662.1" y="125.23" width="6.82" height="6.82"/>
		<rect x="655.28" y="132.05" width="6.82" height="6.82"/>
		<rect x="662.1" y="138.87" width="6.82" height="6.82"/>
		<rect x="655.28" y="145.7" width="6.82" height="6.82"/>
		<rect x="662.1" y="152.52" width="6.82" height="6.82"/>
		<rect x="655.28" y="159.35" width="6.82" height="6.82"/>
		<rect x="662.1" y="166.17" width="6.82" height="6.82"/>
		<rect x="655.28" y="173" width="6.82" height="6.82"/>
		<rect x="662.1" y="179.82" width="6.82" height="6.82"/>
		<rect x="655.28" y="186.64" width="6.82" height="6.82"/>
		<rect x="662.1" y="193.47" width="6.82" height="6.82"/>
		<rect x="655.28" y="200.29" width="6.82" height="6.82"/>
		<rect x="662.1" y="207.12" width="6.82" height="6.82"/>
	</g>
	<g>
		<path class="st7" d="M1239.48,731.83h-11.61l-18.74-32.59h-0.26c0.37,5.76,0.56,9.86,0.56,12.32v20.27h-8.16v-43.08h11.52
			l18.71,32.26h0.21c-0.29-5.6-0.44-9.56-0.44-11.87v-20.39h8.22V731.83z"/>
	</g>
	<g>
		<path class="st7" d="M133.38,731.83h-10.4l-5.83-22.63c-0.22-0.8-0.58-2.47-1.1-4.99c-0.52-2.52-0.82-4.22-0.9-5.08
			c-0.12,1.06-0.41,2.76-0.88,5.11c-0.47,2.35-0.84,4.02-1.09,5.02l-5.8,22.57H96.99L86,688.76h8.99l5.51,23.51
			c0.96,4.34,1.66,8.1,2.09,11.29c0.12-1.12,0.39-2.85,0.81-5.2c0.42-2.35,0.82-4.17,1.19-5.47l6.28-24.13h8.63l6.28,24.13
			c0.27,1.08,0.62,2.73,1.03,4.95s0.73,4.12,0.94,5.72c0.2-1.53,0.51-3.44,0.94-5.73c0.43-2.29,0.82-4.14,1.18-5.55l5.48-23.51h8.99
			L133.38,731.83z"/>
		<path class="st7" d="M178.99,715.3c0,5.36-1.41,9.56-4.24,12.58c-2.83,3.03-6.77,4.54-11.82,4.54c-3.16,0-5.95-0.69-8.37-2.08
			s-4.27-3.37-5.57-5.97s-1.94-5.62-1.94-9.08c0-5.38,1.4-9.57,4.21-12.55c2.81-2.99,6.76-4.48,11.84-4.48
			c3.16,0,5.95,0.69,8.37,2.06s4.27,3.35,5.57,5.92C178.34,708.83,178.99,711.85,178.99,715.3z M156.21,715.3
			c0,3.26,0.54,5.73,1.61,7.4c1.07,1.67,2.81,2.5,5.23,2.5c2.4,0,4.12-0.83,5.17-2.49c1.05-1.66,1.58-4.13,1.58-7.41
			c0-3.26-0.53-5.71-1.59-7.34c-1.06-1.63-2.8-2.45-5.22-2.45c-2.4,0-4.12,0.81-5.19,2.43C156.74,709.57,156.21,712.02,156.21,715.3
			z"/>
		<path class="st7" d="M204.8,698.27c1.22,0,2.23,0.09,3.03,0.26l-0.68,8.43c-0.73-0.2-1.61-0.29-2.65-0.29
			c-2.87,0-5.1,0.74-6.7,2.21c-1.6,1.47-2.4,3.54-2.4,6.19v16.77h-8.99v-32.94h6.81l1.33,5.54h0.44c1.02-1.85,2.4-3.33,4.14-4.46
			C200.87,698.84,202.76,698.27,204.8,698.27z"/>
		<path class="st7" d="M222.8,731.83h-8.99v-45.85h8.99V731.83z"/>
		<path class="st7" d="M242.66,732.42c-3.87,0-6.91-1.5-9.12-4.51c-2.21-3-3.31-7.17-3.31-12.49c0-5.4,1.12-9.61,3.37-12.63
			c2.25-3.01,5.35-4.52,9.3-4.52c4.14,0,7.31,1.61,9.49,4.83h0.29c-0.45-2.46-0.68-4.65-0.68-6.57v-10.55h9.02v45.85h-6.89
			l-1.74-4.27H252C249.96,730.8,246.85,732.42,242.66,732.42z M245.81,725.26c2.3,0,3.98-0.67,5.05-2c1.07-1.33,1.65-3.6,1.75-6.81
			v-0.97c0-3.54-0.54-6.07-1.64-7.6s-2.86-2.3-5.32-2.3c-2,0-3.56,0.85-4.67,2.55c-1.11,1.7-1.67,4.17-1.67,7.41
			s0.56,5.67,1.68,7.29C242.13,724.45,243.73,725.26,245.81,725.26z"/>
		<path class="st7" d="M328.76,731.83h-10.4l-5.83-22.63c-0.22-0.8-0.58-2.47-1.1-4.99c-0.52-2.52-0.82-4.22-0.9-5.08
			c-0.12,1.06-0.41,2.76-0.88,5.11c-0.47,2.35-0.84,4.02-1.09,5.02l-5.8,22.57h-10.37l-10.99-43.08h8.99l5.51,23.51
			c0.96,4.34,1.66,8.1,2.09,11.29c0.12-1.12,0.39-2.85,0.81-5.2c0.42-2.35,0.82-4.17,1.19-5.47l6.28-24.13h8.63l6.28,24.13
			c0.27,1.08,0.62,2.73,1.03,4.95s0.73,4.12,0.94,5.72c0.2-1.53,0.51-3.44,0.94-5.73c0.43-2.29,0.82-4.14,1.18-5.55l5.48-23.51h8.99
			L328.76,731.83z"/>
		<path class="st7" d="M344.05,690.38c0-2.93,1.63-4.39,4.89-4.39s4.89,1.46,4.89,4.39c0,1.39-0.41,2.48-1.22,3.26
			c-0.82,0.78-2.04,1.16-3.67,1.16C345.68,694.8,344.05,693.32,344.05,690.38z M353.42,731.83h-8.99v-32.94h8.99V731.83z"/>
		<path class="st7" d="M373.28,732.42c-3.87,0-6.91-1.5-9.12-4.51c-2.21-3-3.31-7.17-3.31-12.49c0-5.4,1.12-9.61,3.37-12.63
			c2.25-3.01,5.35-4.52,9.3-4.52c4.14,0,7.31,1.61,9.49,4.83h0.29c-0.45-2.46-0.68-4.65-0.68-6.57v-10.55h9.02v45.85h-6.89
			l-1.74-4.27h-0.38C380.57,730.8,377.46,732.42,373.28,732.42z M376.43,725.26c2.3,0,3.98-0.67,5.05-2
			c1.07-1.33,1.65-3.6,1.75-6.81v-0.97c0-3.54-0.54-6.07-1.64-7.6s-2.86-2.3-5.32-2.3c-2,0-3.56,0.85-4.67,2.55
			c-1.11,1.7-1.67,4.17-1.67,7.41s0.56,5.67,1.68,7.29C372.75,724.45,374.35,725.26,376.43,725.26z"/>
		<path class="st7" d="M415.94,732.42c-5.3,0-9.45-1.46-12.43-4.39c-2.99-2.93-4.48-7.07-4.48-12.43c0-5.52,1.38-9.79,4.14-12.8
			c2.76-3.01,6.58-4.52,11.45-4.52c4.66,0,8.28,1.33,10.87,3.98c2.59,2.65,3.89,6.32,3.89,10.99v4.36h-21.24
			c0.1,2.55,0.85,4.55,2.27,5.98c1.41,1.43,3.4,2.15,5.95,2.15c1.98,0,3.86-0.21,5.63-0.62c1.77-0.41,3.61-1.07,5.54-1.97v6.95
			c-1.57,0.79-3.25,1.37-5.04,1.75S418.51,732.42,415.94,732.42z M414.67,704.67c-1.91,0-3.4,0.6-4.48,1.81
			c-1.08,1.21-1.7,2.92-1.86,5.14h12.61c-0.04-2.22-0.62-3.93-1.74-5.14C418.09,705.27,416.58,704.67,414.67,704.67z"/>
		<path class="st7" d="M469.68,731.83h-9.13v-35.47h-11.7v-7.6h32.53v7.6h-11.7V731.83z"/>
		<path class="st7" d="M502.21,732.42c-5.3,0-9.45-1.46-12.43-4.39c-2.99-2.93-4.48-7.07-4.48-12.43c0-5.52,1.38-9.79,4.14-12.8
			c2.76-3.01,6.58-4.52,11.45-4.52c4.66,0,8.28,1.33,10.87,3.98c2.59,2.65,3.89,6.32,3.89,10.99v4.36H494.4
			c0.1,2.55,0.85,4.55,2.27,5.98c1.41,1.43,3.4,2.15,5.95,2.15c1.98,0,3.86-0.21,5.63-0.62c1.77-0.41,3.61-1.07,5.54-1.97v6.95
			c-1.57,0.79-3.25,1.37-5.04,1.75S504.79,732.42,502.21,732.42z M500.95,704.67c-1.91,0-3.4,0.6-4.48,1.81
			c-1.08,1.21-1.7,2.92-1.86,5.14h12.61c-0.04-2.22-0.62-3.93-1.74-5.14C504.36,705.27,502.85,704.67,500.95,704.67z"/>
		<path class="st7" d="M536.33,732.42c-10.25,0-15.38-5.63-15.38-16.88c0-5.6,1.39-9.88,4.18-12.83c2.79-2.96,6.79-4.43,11.99-4.43
			c3.81,0,7.23,0.75,10.25,2.24l-2.65,6.95c-1.41-0.57-2.73-1.04-3.95-1.4c-1.22-0.36-2.44-0.54-3.65-0.54
			c-4.68,0-7.01,3.32-7.01,9.96c0,6.44,2.34,9.66,7.01,9.66c1.73,0,3.33-0.23,4.8-0.69c1.47-0.46,2.95-1.18,4.42-2.17v7.69
			c-1.45,0.92-2.92,1.56-4.4,1.92C540.46,732.25,538.59,732.42,536.33,732.42z"/>
		<path class="st7" d="M584.39,731.83h-8.99v-19.24c0-4.75-1.77-7.13-5.3-7.13c-2.51,0-4.33,0.85-5.45,2.56
			c-1.12,1.71-1.68,4.48-1.68,8.31v15.5h-8.99v-45.85h8.99v9.34c0,0.73-0.07,2.44-0.21,5.13l-0.21,2.65h0.47
			c2-3.22,5.19-4.83,9.55-4.83c3.87,0,6.8,1.04,8.81,3.12s3.01,5.07,3.01,8.96V731.83z"/>
		<path class="st7" d="M624.05,731.83h-8.99v-19.24c0-2.38-0.42-4.16-1.27-5.35c-0.84-1.19-2.19-1.78-4.04-1.78
			c-2.51,0-4.33,0.84-5.45,2.52c-1.12,1.68-1.68,4.46-1.68,8.35v15.5h-8.99v-32.94h6.87l1.21,4.21h0.5c1-1.59,2.38-2.79,4.14-3.61
			s3.76-1.22,6-1.22c3.83,0,6.74,1.04,8.72,3.11c1.98,2.07,2.98,5.06,2.98,8.97V731.83z"/>
		<path class="st7" d="M663.23,715.3c0,5.36-1.42,9.56-4.24,12.58c-2.83,3.03-6.77,4.54-11.82,4.54c-3.16,0-5.95-0.69-8.37-2.08
			c-2.42-1.38-4.27-3.37-5.57-5.97c-1.3-2.59-1.94-5.62-1.94-9.08c0-5.38,1.4-9.57,4.21-12.55s6.76-4.48,11.84-4.48
			c3.16,0,5.95,0.69,8.37,2.06s4.27,3.35,5.57,5.92C662.59,708.83,663.23,711.85,663.23,715.3z M640.46,715.3
			c0,3.26,0.54,5.73,1.61,7.4s2.81,2.5,5.23,2.5c2.4,0,4.12-0.83,5.17-2.49s1.58-4.13,1.58-7.41c0-3.26-0.53-5.71-1.59-7.34
			c-1.06-1.63-2.8-2.45-5.21-2.45c-2.4,0-4.12,0.81-5.19,2.43C640.99,709.57,640.46,712.02,640.46,715.3z"/>
		<path class="st7" d="M679.65,731.83h-8.99v-45.85h8.99V731.83z"/>
		<path class="st7" d="M719.01,715.3c0,5.36-1.42,9.56-4.24,12.58c-2.83,3.03-6.77,4.54-11.82,4.54c-3.16,0-5.95-0.69-8.37-2.08
			c-2.42-1.38-4.27-3.37-5.57-5.97c-1.3-2.59-1.94-5.62-1.94-9.08c0-5.38,1.4-9.57,4.21-12.55s6.76-4.48,11.84-4.48
			c3.16,0,5.95,0.69,8.37,2.06s4.27,3.35,5.57,5.92C718.36,708.83,719.01,711.85,719.01,715.3z M696.24,715.3
			c0,3.26,0.54,5.73,1.61,7.4s2.81,2.5,5.23,2.5c2.4,0,4.12-0.83,5.17-2.49s1.58-4.13,1.58-7.41c0-3.26-0.53-5.71-1.59-7.34
			c-1.06-1.63-2.8-2.45-5.21-2.45c-2.4,0-4.12,0.81-5.19,2.43C696.77,709.57,696.24,712.02,696.24,715.3z"/>
		<path class="st7" d="M755.1,698.89v4.57l-5.16,1.33c0.94,1.47,1.41,3.12,1.41,4.95c0,3.54-1.23,6.29-3.7,8.27
			c-2.47,1.97-5.89,2.96-10.27,2.96l-1.62-0.09l-1.33-0.15c-0.92,0.71-1.38,1.49-1.38,2.36c0,1.3,1.65,1.94,4.95,1.94h5.6
			c3.61,0,6.37,0.78,8.26,2.33s2.84,3.83,2.84,6.84c0,3.85-1.61,6.83-4.82,8.96c-3.21,2.12-7.82,3.18-13.83,3.18
			c-4.6,0-8.11-0.8-10.53-2.4c-2.43-1.6-3.64-3.84-3.64-6.73c0-1.98,0.62-3.64,1.86-4.98c1.24-1.33,3.05-2.29,5.45-2.86
			c-0.92-0.39-1.73-1.04-2.42-1.93c-0.69-0.89-1.03-1.84-1.03-2.84c0-1.26,0.36-2.3,1.09-3.14c0.73-0.83,1.78-1.66,3.15-2.46
			c-1.73-0.75-3.1-1.94-4.11-3.59c-1.01-1.65-1.52-3.59-1.52-5.83c0-3.59,1.17-6.37,3.51-8.34c2.34-1.96,5.68-2.95,10.02-2.95
			c0.92,0,2.02,0.08,3.29,0.25c1.27,0.17,2.08,0.29,2.43,0.37H755.1z M729.68,736.49c0,1.24,0.59,2.21,1.78,2.92
			c1.19,0.71,2.85,1.06,4.99,1.06c3.22,0,5.75-0.44,7.57-1.33c1.83-0.88,2.74-2.09,2.74-3.62c0-1.24-0.54-2.09-1.62-2.56
			c-1.08-0.47-2.75-0.71-5.01-0.71h-4.66c-1.65,0-3.03,0.39-4.14,1.16C730.23,734.19,729.68,735.21,729.68,736.49z M732.95,709.68
			c0,1.79,0.41,3.2,1.22,4.24c0.82,1.04,2.06,1.56,3.73,1.56c1.69,0,2.93-0.52,3.71-1.56c0.79-1.04,1.18-2.46,1.18-4.24
			c0-3.97-1.63-5.95-4.89-5.95C734.6,703.72,732.95,705.71,732.95,709.68z"/>
		<path class="st7" d="M755.81,698.89h9.84l6.22,18.53c0.53,1.61,0.89,3.52,1.09,5.72h0.18c0.22-2.02,0.64-3.93,1.27-5.72l6.1-18.53
			h9.63l-13.94,37.16c-1.28,3.44-3.1,6.01-5.47,7.72c-2.37,1.71-5.13,2.56-8.29,2.56c-1.55,0-3.08-0.17-4.57-0.5v-7.13
			c1.08,0.25,2.26,0.38,3.54,0.38c1.59,0,2.98-0.49,4.17-1.46c1.19-0.97,2.12-2.44,2.78-4.41l0.53-1.62L755.81,698.89z"/>
		<path class="st7" d="M820.37,715.3v16.53h-9.13v-43.08h12.55c5.85,0,10.18,1.07,12.99,3.2c2.81,2.13,4.21,5.37,4.21,9.71
			c0,2.53-0.7,4.79-2.09,6.76c-1.39,1.97-3.37,3.52-5.92,4.64c6.48,9.68,10.71,15.94,12.67,18.77h-10.14l-10.28-16.53H820.37z
			 M820.37,707.88h2.95c2.89,0,5.02-0.48,6.39-1.44c1.38-0.96,2.06-2.47,2.06-4.54c0-2.04-0.7-3.5-2.11-4.36
			c-1.41-0.86-3.58-1.3-6.53-1.3h-2.77V707.88z"/>
		<path class="st7" d="M871.28,731.83l-1.74-4.48h-0.24c-1.51,1.91-3.07,3.23-4.67,3.96c-1.6,0.74-3.69,1.1-6.26,1.1
			c-3.16,0-5.65-0.9-7.47-2.71c-1.82-1.81-2.73-4.38-2.73-7.72c0-3.5,1.22-6.07,3.67-7.73s6.13-2.58,11.06-2.75l5.72-0.18v-1.44
			c0-3.34-1.71-5.01-5.13-5.01c-2.63,0-5.73,0.8-9.28,2.39l-2.98-6.07c3.79-1.98,7.99-2.98,12.61-2.98c4.42,0,7.81,0.96,10.17,2.89
			c2.36,1.93,3.54,4.85,3.54,8.78v21.95H871.28z M868.63,716.57l-3.48,0.12c-2.61,0.08-4.56,0.55-5.83,1.41
			c-1.28,0.86-1.92,2.18-1.92,3.95c0,2.53,1.45,3.8,4.36,3.8c2.08,0,3.75-0.6,4.99-1.8c1.25-1.2,1.87-2.79,1.87-4.77V716.57z"/>
		<path class="st7" d="M900.19,732.42c-10.25,0-15.38-5.63-15.38-16.88c0-5.6,1.39-9.88,4.18-12.83s6.79-4.43,11.99-4.43
			c3.81,0,7.23,0.75,10.25,2.24l-2.65,6.95c-1.41-0.57-2.73-1.04-3.95-1.4c-1.22-0.36-2.44-0.54-3.65-0.54
			c-4.67,0-7.01,3.32-7.01,9.96c0,6.44,2.34,9.66,7.01,9.66c1.73,0,3.33-0.23,4.8-0.69c1.47-0.46,2.95-1.18,4.42-2.17v7.69
			c-1.45,0.92-2.92,1.56-4.41,1.92C904.32,732.25,902.45,732.42,900.19,732.42z"/>
		<path class="st7" d="M932.74,732.42c-5.3,0-9.45-1.46-12.43-4.39c-2.99-2.93-4.48-7.07-4.48-12.43c0-5.52,1.38-9.79,4.14-12.8
			c2.76-3.01,6.58-4.52,11.45-4.52c4.66,0,8.28,1.33,10.87,3.98c2.59,2.65,3.89,6.32,3.89,10.99v4.36h-21.24
			c0.1,2.55,0.85,4.55,2.27,5.98c1.41,1.43,3.4,2.15,5.95,2.15c1.98,0,3.86-0.21,5.63-0.62c1.77-0.41,3.61-1.07,5.54-1.97v6.95
			c-1.57,0.79-3.25,1.37-5.04,1.75S935.32,732.42,932.74,732.42z M931.48,704.67c-1.91,0-3.4,0.6-4.48,1.81
			c-1.08,1.21-1.7,2.92-1.86,5.14h12.61c-0.04-2.22-0.62-3.93-1.74-5.14C934.9,705.27,933.38,704.67,931.48,704.67z"/>
		<path class="st7" d="M980.57,731.83l-2.53-11.52l-3.42-14.56h-0.21l-6.01,26.08h-9.66l-9.37-32.94h8.96l3.8,14.58
			c0.61,2.61,1.23,6.22,1.86,10.81h0.18c0.08-1.49,0.42-3.86,1.03-7.1l0.47-2.5l4.07-15.79h9.9l3.86,15.79
			c0.08,0.43,0.2,1.07,0.37,1.92c0.17,0.84,0.33,1.74,0.49,2.7c0.16,0.95,0.3,1.89,0.43,2.8c0.13,0.91,0.2,1.65,0.22,2.2h0.18
			c0.18-1.41,0.49-3.35,0.94-5.82c0.45-2.46,0.78-4.13,0.97-4.99l3.95-14.58h8.81l-9.49,32.94H980.57z"/>
		<path class="st7" d="M1026.06,731.83l-1.74-4.48h-0.24c-1.51,1.91-3.07,3.23-4.67,3.96c-1.6,0.74-3.69,1.1-6.26,1.1
			c-3.16,0-5.65-0.9-7.47-2.71c-1.82-1.81-2.73-4.38-2.73-7.72c0-3.5,1.22-6.07,3.67-7.73s6.13-2.58,11.06-2.75l5.72-0.18v-1.44
			c0-3.34-1.71-5.01-5.13-5.01c-2.63,0-5.73,0.8-9.28,2.39l-2.98-6.07c3.79-1.98,7.99-2.98,12.61-2.98c4.42,0,7.81,0.96,10.17,2.89
			c2.36,1.93,3.54,4.85,3.54,8.78v21.95H1026.06z M1023.41,716.57l-3.48,0.12c-2.61,0.08-4.56,0.55-5.83,1.41
			c-1.28,0.86-1.92,2.18-1.92,3.95c0,2.53,1.45,3.8,4.36,3.8c2.08,0,3.75-0.6,4.99-1.8c1.25-1.2,1.87-2.79,1.87-4.77V716.57z"/>
		<path class="st7" d="M1036.87,698.89h9.84l6.22,18.53c0.53,1.61,0.89,3.52,1.09,5.72h0.18c0.22-2.02,0.64-3.93,1.27-5.72
			l6.1-18.53h9.63l-13.94,37.16c-1.28,3.44-3.1,6.01-5.47,7.72c-2.37,1.71-5.13,2.56-8.29,2.56c-1.55,0-3.08-0.17-4.57-0.5v-7.13
			c1.08,0.25,2.26,0.38,3.54,0.38c1.59,0,2.98-0.49,4.17-1.46c1.19-0.97,2.12-2.44,2.78-4.41l0.53-1.62L1036.87,698.89z"/>
	</g>
	<g>
		<g>
			<polygon class="st10" points="1314.74,724.94 1257.14,731.41 1275.36,713.78 1269.08,689.23 			"/>
		</g>
	</g>
	<g>
		<line class="st11" x1="725.38" y1="66.56" x2="606.35" y2="66.56"/>
		<g>
			<polygon class="st10" points="585.17,66.56 615.02,54.37 607.93,66.56 615.02,78.75 			"/>
		</g>
	</g>
</g>
</svg>
