<?xml version="1.0" encoding="UTF-8" standalone="no"?>
<!-- Created with Inkscape (http://www.inkscape.org/) -->

<svg
   xmlns:dc="http://purl.org/dc/elements/1.1/"
   xmlns:cc="http://creativecommons.org/ns#"
   xmlns:rdf="http://www.w3.org/1999/02/22-rdf-syntax-ns#"
   xmlns:svg="http://www.w3.org/2000/svg"
   xmlns="http://www.w3.org/2000/svg"
   xmlns:sodipodi="http://sodipodi.sourceforge.net/DTD/sodipodi-0.dtd"
   xmlns:inkscape="http://www.inkscape.org/namespaces/inkscape"
   width="215.60925"
   height="66.97908"
   viewBox="0 0 57.046614 17.721547"
   version="1.1"
   id="svg10322"
   inkscape:version="0.92.0 r15299"
   sodipodi:docname="michigan international speedway.svg">
  <defs
     id="defs10316">
    <clipPath
       id="clipPath5122"
       clipPathUnits="userSpaceOnUse">
      <path
         inkscape:connector-curvature="0"
         id="path5120"
         d="m 107.716,647.327 h 160.207 v 48.734 H 107.716 Z" />
    </clipPath>
    <clipPath
       id="clipPath5102"
       clipPathUnits="userSpaceOnUse">
      <path
         inkscape:connector-curvature="0"
         id="path5100"
         d="m 107.731,647.327 h 160.192 v 48.734 H 107.731 Z" />
    </clipPath>
  </defs>
  <sodipodi:namedview
     id="base"
     pagecolor="#ffffff"
     bordercolor="#666666"
     borderopacity="1.0"
     inkscape:pageopacity="0.0"
     inkscape:pageshadow="2"
     inkscape:zoom="4.1996646"
     inkscape:cx="106.81501"
     inkscape:cy="32.489731"
     inkscape:document-units="mm"
     inkscape:current-layer="layer1"
     showgrid="false"
     fit-margin-top="0"
     fit-margin-left="0"
     fit-margin-right="0"
     fit-margin-bottom="0"
     units="px"
     inkscape:window-width="1280"
     inkscape:window-height="744"
     inkscape:window-x="-4"
     inkscape:window-y="-4"
     inkscape:window-maximized="1" />
  <metadata
     id="metadata10319">
    <rdf:RDF>
      <cc:Work
         rdf:about="">
        <dc:format>image/svg+xml</dc:format>
        <dc:type
           rdf:resource="http://purl.org/dc/dcmitype/StillImage" />
        <dc:title></dc:title>
      </cc:Work>
    </rdf:RDF>
  </metadata>
  <g
     inkscape:label="Layer 1"
     inkscape:groupmode="layer"
     id="layer1"
     transform="translate(15.788257,-139.70803)">
    <g
       id="g10646"
       transform="translate(0.26458317,-0.26457569)">
      <path
         d="m 20.876775,141.87708 c 0,0.38488 -0.311856,0.69638 -0.696383,0.69638 -0.384881,0 -0.696736,-0.3115 -0.696736,-0.69638 0,-0.38488 0.311855,-0.69638 0.696736,-0.69638 0.384527,0 0.696383,0.3115 0.696383,0.69638"
         style="fill:#f36917;fill-opacity:1;fill-rule:nonzero;stroke:none;stroke-width:0.35277778"
         id="path5106"
         inkscape:connector-curvature="0" />
      <path
         d="m 40.723276,147.43206 c -0.160514,-1.39136 -3.588455,-2.26942 -8.975725,-2.55799 3.348214,0.57432 5.41267,1.54093 5.561542,2.83175 0.182386,1.57832 -2.534709,3.33763 -7.056261,4.89373 6.541558,-1.67252 10.654241,-3.57928 10.470444,-5.16749"
         style="fill:#18468b;fill-opacity:1;fill-rule:nonzero;stroke:none;stroke-width:0.35277778"
         id="path5110"
         inkscape:connector-curvature="0" />
      <path
         d="m -12.414052,153.44787 c -0.148872,-1.28764 1.63195,-2.69522 4.7473305,-4.01532 -5.1554945,1.50566 -8.2758135,3.13726 -8.1156525,4.52473 0.183092,1.58468 4.601986,2.50331 11.3255774,2.64442 -4.7406277,-0.48612 -7.7752224,-1.57868 -7.9572554,-3.15383"
         style="fill:#18468b;fill-opacity:1;fill-rule:nonzero;stroke:none;stroke-width:0.35277778"
         id="path5114"
         inkscape:connector-curvature="0" />
      <path
         d="m 29.505966,144.56849 c -0.401108,-0.41416 -1.034344,-0.76553 -1.829153,-1.02694 -0.237066,-0.0903 -0.106539,-0.33231 -0.106539,-0.33231 0,0 0.116064,0.0988 0.161925,0.12735 0.126648,0.0787 0.256117,0.121 0.256117,0.121 -0.278342,-0.27834 -0.432858,-1.24707 -0.432858,-1.24707 0.0949,0.2092 0.298802,0.28011 0.298802,0.28011 -0.216605,-0.26176 -0.255763,-0.70908 -0.255763,-0.70908 0.05045,0.0593 0.236361,0.17145 0.236361,0.17145 -0.09066,-0.0709 -0.28187,-0.5715 -0.28187,-0.5715 0.03704,0.0512 0.186972,0.0942 0.186972,0.0942 -0.157338,-0.23178 -0.127352,-1.02235 -0.127352,-1.02235 -0.149225,0.49248 -0.585259,0.83008 -0.585259,0.83008 0.102306,0.007 0.216606,-0.006 0.216606,-0.006 -0.06421,0.13652 -0.416631,0.29527 -0.416631,0.29527 0,0 0.08996,0.003 0.15875,-0.001 0.05715,-0.003 0.136525,-0.0236 0.136525,-0.0236 0,0 -0.08678,0.1337 -0.18415,0.2353 -0.119591,0.12488 -0.291041,0.26529 -0.291041,0.26529 0.168628,-0.0109 0.311855,-0.11077 0.311855,-0.11077 0,0 -0.06985,0.14746 -0.214489,0.34113 -0.08502,0.1143 -0.183797,0.20003 -0.250472,0.25153 -0.02999,-0.0508 -0.05927,-0.10865 -0.08149,-0.17321 -0.0695,-0.20391 -0.07796,-0.30304 -0.07796,-0.30304 0,0 0.09842,0.096 0.250472,0.15769 0,0 -0.112536,-0.18273 -0.168981,-0.31785 -0.04798,-0.11536 -0.07303,-0.23354 -0.07303,-0.23354 0,0 0.04798,0.042 0.126648,0.0759 0.0568,0.0243 0.137936,0.0536 0.137936,0.0536 0,0 -0.267406,-0.25894 -0.304095,-0.40534 0,0 0.07937,0.0589 0.197909,0.0956 0,0 -0.248709,-0.51717 -0.276578,-0.94756 0,0 -0.17145,0.60008 -0.503767,0.83785 0,0 0.175683,0.008 0.239183,-0.0367 0,0 -0.197202,0.18591 -0.447322,0.34361 0,0 0.176742,-0.0141 0.253295,-0.0452 0,0 -0.183092,0.25894 -0.475545,0.45015 0,0 0.19685,-0.003 0.31362,-0.049 0,0 -0.165453,0.20214 -0.352778,0.39405 -0.09208,-0.11359 -0.363714,-0.45367 -0.394406,-0.55421 0,0 0.149931,0.13617 0.340431,0.13617 0,0 -0.200731,-0.15099 -0.292806,-0.30939 -0.09172,-0.15839 -0.11183,-0.22542 -0.11183,-0.22542 0,0 0.162278,0.10865 0.356658,0.12665 0,0 -0.265289,-0.23425 -0.376061,-0.45544 -0.111125,-0.22084 -0.144286,-0.31009 -0.144286,-0.31009 0,0 0.07303,0.0875 0.173567,0.13405 0,0 -0.150637,-0.23671 -0.201084,-0.40357 -0.04727,-0.15487 -0.07796,-0.32915 -0.07796,-0.32915 0,0 -0.01905,0.13935 -0.0889,0.32315 -0.07479,0.1972 -0.228952,0.34325 -0.228952,0.34325 l 0.161572,-0.0533 c 0,0 -0.124884,0.46038 -0.457906,0.63853 0,0 0.169686,0.0152 0.297745,-0.0857 0,0 -0.185914,0.25188 -0.371828,0.37006 0,0 0.23248,-0.0621 0.356658,-0.15381 0,0 -0.01517,0.12841 -0.100541,0.30586 -0.06914,0.14428 -0.10407,0.19402 -0.363009,0.49247 l 0.40252,-0.23389 c 0,0 -0.07338,0.17463 -0.214136,0.381 -0.102659,0.15029 -0.269875,0.31715 -0.269875,0.31715 l 0.320675,-0.12383 c 0,0 -0.07867,0.26071 -0.284339,0.28399 -0.0448,0.002 -0.212725,0.008 -0.257881,0.0106 -1.783997,0.0875 -3.381728,0.4879 -4.519789,1.06292 0.592667,-0.3877 1.38042,-0.72178 2.30117,-0.97225 -0.509059,-0.0215 -1.049514,-0.003 -1.606903,0.0628 -0.206375,0.0243 -0.409222,0.0543 -0.607836,0.0896 -0.06809,-0.0505 -0.1524,-0.0995 -0.249061,-0.21061 -0.111478,-0.12806 -0.151695,-0.21414 -0.151695,-0.21414 0,0 0.13582,0.0258 0.192264,0.0328 0.09419,0.0116 0.197556,0.0201 0.197556,0.0201 -0.143581,-0.10477 -0.192264,-0.16863 -0.339372,-0.39123 -0.08643,-0.13053 -0.115006,-0.20144 -0.115006,-0.20144 0.128764,0.0646 0.307269,0.0533 0.307269,0.0533 -0.144286,-0.0684 -0.352072,-0.28645 -0.352072,-0.28645 0.111125,0.0825 0.256117,0.0688 0.256117,0.0688 -0.191558,-0.0875 -0.395111,-0.51682 -0.395111,-0.51682 l 0.148872,0.0332 c 0,0 -0.160161,-0.12277 -0.233539,-0.27728 -0.07973,-0.16722 -0.100894,-0.23636 -0.100894,-0.23636 0,0 -0.01023,0.11324 -0.04516,0.24306 -0.03775,0.14111 -0.159103,0.33584 -0.159103,0.33584 0.09066,-0.036 0.138642,-0.0765 0.138642,-0.0765 0,0 -0.0067,0.0335 -0.09842,0.21767 -0.09172,0.18415 -0.286456,0.35066 -0.286456,0.35066 0.188031,3.5e-4 0.274462,-0.0783 0.274462,-0.0783 0,0 -0.01587,0.0557 -0.09243,0.18768 -0.07655,0.13194 -0.220486,0.24447 -0.220486,0.24447 0.162983,-0.001 0.263877,-0.10124 0.263877,-0.10124 -0.04233,0.24341 -0.323144,0.48401 -0.323144,0.48401 0.217664,-0.0332 0.285397,-0.054 0.285397,-0.054 -0.03739,0.0325 -0.154164,0.15664 -0.207786,0.21414 -0.261408,-0.13476 -0.392289,-0.37359 -0.392289,-0.37359 0.175331,0.0529 0.337961,0.0402 0.337961,0.0402 -0.354894,-0.13723 -0.459669,-0.33196 -0.459669,-0.33196 0.06738,0.0219 0.212725,0.0303 0.212725,0.0303 -0.263172,-0.12312 -0.408164,-0.29563 -0.408164,-0.29563 0.03775,0.009 0.205669,0.0198 0.205669,0.0198 -0.306916,-0.1323 -0.519288,-0.65688 -0.519288,-0.65688 0.0127,0.36407 -0.150636,0.79199 -0.150636,0.79199 0.07161,-0.0487 0.147813,-0.13194 0.147813,-0.13194 -0.01834,0.11218 -0.18168,0.4191 -0.18168,0.4191 l 0.157692,-0.1464 c 0,0 -0.03387,0.16192 -0.06491,0.26458 -0.03634,0.121 -0.123825,0.31221 -0.123825,0.31221 0.177448,-0.15487 0.225425,-0.26458 0.225425,-0.26458 0,0 -0.0028,0.10971 -0.04233,0.28998 -0.05362,0.24483 -0.135114,0.52634 -0.135114,0.52634 0.188736,-0.242 0.225072,-0.30973 0.225072,-0.30973 0.0028,0.0734 0.0056,0.14358 -0.02258,0.36583 -0.03246,0.25823 -0.06738,0.28716 -0.104775,0.38382 -0.300214,0.15451 -0.567973,0.32244 -0.794809,0.50094 0.883003,-0.0695 1.752953,-0.12735 2.605264,-0.17286 0.04092,-0.002 0.08149,-0.004 0.122414,-0.006 4.172655,-0.2166 7.935383,-0.14675 10.978797,0.17639"
         style="fill:#46ac32;fill-opacity:1;fill-rule:nonzero;stroke:none;stroke-width:0.35277778"
         id="path5126"
         inkscape:connector-curvature="0" />
      <path
         d="m -2.317411,155.50012 -0.6043083,1.88489 h -0.4875389 c 0,0 0.1767417,-0.0776 0.1975556,-0.13688 l 0.5584472,-1.74801 c 0.020814,-0.0624 -0.1086556,-0.13688 -0.1086556,-0.13688 h 0.6420556 c 0,0 -0.1767417,0.0773 -0.1975556,0.13688"
         style="fill:#46ac32;fill-opacity:1;fill-rule:nonzero;stroke:none;stroke-width:0.35277778"
         id="path5130"
         inkscape:connector-curvature="0" />
      <path
         d="m -0.44705379,155.45835 -0.0250472,0.0208 -0.0130528,0.0236 -0.60113331,1.88207 H -1.246801 l -0.1626305,-1.15358 -0.3693584,1.15358 h -0.3213805 l 0.6473472,-2.02177 h 0.1605139 l 0.1626305,1.15076 0.36935835,-1.15076 h 0.47589721 c 0,0 -0.13193888,0.0776 -0.16263055,0.0952"
         style="fill:#46ac32;fill-opacity:1;fill-rule:nonzero;stroke:none;stroke-width:0.35277778"
         id="path5134"
         inkscape:connector-curvature="0" />
      <path
         d="M 1.2698451,155.59209 H 0.916009 l -0.52951944,1.65594 c -0.0211667,0.0596 0.11465278,0.13688 0.11465278,0.13688 h -0.4967111 l 0.57573332,-1.79282 h -0.3538361 l 0.0744361,-0.22895 H 1.3442812 Z"
         style="fill:#46ac32;fill-opacity:1;fill-rule:nonzero;stroke:none;stroke-width:0.35277778"
         id="path5138"
         inkscape:connector-curvature="0" />
      <path
         d="M 2.8665525,155.65457 H 2.4114692 l -0.1742722,0.54716 h 0.4519083 l -0.071261,0.22295 H 2.1691108 l -0.2162527,0.66887 h 0.4515555 l -0.092428,0.29139 H 1.5242331 l 0.6011333,-1.88206 c 0.021167,-0.0653 -0.1026583,-0.1397 -0.1026583,-0.1397 h 0.9362722 z"
         style="fill:#46ac32;fill-opacity:1;fill-rule:nonzero;stroke:none;stroke-width:0.35277778"
         id="path5142"
         inkscape:connector-curvature="0" />
      <path
         d="m 4.1112936,155.65771 h -0.065264 l -0.1742722,0.54116 c 0.2144889,-0.006 0.3573639,-0.0628 0.4279194,-0.28257 0.05327,-0.16334 -0.025047,-0.25859 -0.1883833,-0.25859 m 0.042333,0.77893 c 0.00564,0.0621 0.047625,0.5648 0.093486,0.82656 0.00247,0.0116 0.00494,0.0208 0.00776,0.0265 0.013758,0.0148 0.104775,0.0952 0.104775,0.0952 h -0.484715 l -0.077611,-0.89782 H 3.7793295 L 3.4914629,157.3849 H 3.1556186 l 0.6469945,-2.01895 h 0.4783666 c 0.3421944,0 0.4656667,0.24977 0.3661833,0.56515 -0.068086,0.21414 -0.2575277,0.4311 -0.4935361,0.50553"
         style="fill:#46ac32;fill-opacity:1;fill-rule:nonzero;stroke:none;stroke-width:0.35277778"
         id="path5146"
         inkscape:connector-curvature="0" />
      <path
         d="m 6.7075616,155.45835 -0.025047,0.0208 -0.013053,0.0236 -0.6011333,1.88207 H 5.9078144 l -0.1626306,-1.15358 -0.3697111,1.15358 H 5.054445 l 0.6469944,-2.02177 h 0.1605139 l 0.1629833,1.15076 0.3693583,-1.15076 h 0.4758973 c 0,0 -0.1319389,0.0776 -0.1626306,0.0952"
         style="fill:#46ac32;fill-opacity:1;fill-rule:nonzero;stroke:none;stroke-width:0.35277778"
         id="path5150"
         inkscape:connector-curvature="0" />
      <path
         d="m 7.4934799,156.70387 h 0.2818694 l 0.0889,-0.72813 z m 0.6716889,0.68016 H 7.691741 l 0.057503,-0.47308 H 7.380591 l -0.1735666,0.34149 c -0.016581,0.0328 0.00388,0.042 0.00388,0.042 l 0.091369,0.0896 H 6.6877355 c 0,0 0.1421694,-0.0871 0.1516944,-0.0928 0.015522,-0.01 0.034219,-0.0212 0.050447,-0.0508 l 1.006475,-1.87607 h 0.3266722 l -0.1640416,1.8729 c -0.00494,0.036 0.013053,0.0526 0.017992,0.0572 0.014464,0.0134 0.088195,0.0896 0.088195,0.0896"
         style="fill:#46ac32;fill-opacity:1;fill-rule:nonzero;stroke:none;stroke-width:0.35277778"
         id="path5154"
         inkscape:connector-curvature="0" />
      <path
         d="M 10.042229,155.59209 H 9.6883929 l -0.5298722,1.65594 c -0.020814,0.0596 0.1146528,0.13688 0.1146528,0.13688 H 8.7768151 l 0.5757334,-1.79282 H 8.9987124 l 0.074436,-0.22895 h 1.0435166 z"
         style="fill:#46ac32;fill-opacity:1;fill-rule:nonzero;stroke:none;stroke-width:0.35277778"
         id="path5158"
         inkscape:connector-curvature="0" />
      <path
         d="m 11.236452,155.50012 -0.604308,1.88489 h -0.487539 c 0,0 0.176741,-0.0776 0.197555,-0.13688 l 0.558448,-1.74801 c 0.02117,-0.0624 -0.109009,-0.13688 -0.109009,-0.13688 h 0.642056 c 0,0 -0.176389,0.0773 -0.197203,0.13688"
         style="fill:#46ac32;fill-opacity:1;fill-rule:nonzero;stroke:none;stroke-width:0.35277778"
         id="path5162"
         inkscape:connector-curvature="0" />
      <path
         d="m 12.5944,155.61298 c -0.220133,0 -0.423686,0.65687 -0.4699,0.79692 -0.04304,0.1397 -0.236361,0.7105 -0.01341,0.7105 0.228953,0 0.424745,-0.67204 0.467784,-0.81456 0.02469,-0.0744 0.08749,-0.25295 0.110772,-0.41346 0.02681,-0.16651 0.0056,-0.2794 -0.09525,-0.2794 m -0.582436,1.81363 c -0.553156,0 -0.348545,-0.67169 -0.224367,-1.05869 0.11042,-0.34466 0.36195,-1.06115 0.903111,-1.06115 0.549981,0 0.348192,0.67486 0.223661,1.06115 -0.109713,0.33902 -0.361597,1.05869 -0.902405,1.05869"
         style="fill:#46ac32;fill-opacity:1;fill-rule:nonzero;stroke:none;stroke-width:0.35277778"
         id="path5166"
         inkscape:connector-curvature="0" />
      <path
         d="m 15.009516,155.45835 -0.02505,0.0208 -0.01305,0.0236 -0.601133,1.88207 h -0.160514 l -0.162631,-1.15358 -0.369358,1.15358 h -0.321381 l 0.647348,-2.02177 h 0.160513 l 0.162631,1.15076 0.369358,-1.15076 h 0.475545 c 0,0 -0.131586,0.0776 -0.162278,0.0952"
         style="fill:#46ac32;fill-opacity:1;fill-rule:nonzero;stroke:none;stroke-width:0.35277778"
         id="path5170"
         inkscape:connector-curvature="0" />
      <path
         d="m 15.795505,156.70387 h 0.281869 l 0.0889,-0.72813 z m 0.671689,0.68016 h -0.473428 l 0.0575,-0.47308 h -0.3683 l -0.17392,0.34149 c -0.01658,0.0328 0.0039,0.042 0.0039,0.042 l 0.09102,0.0896 H 14.98978 c 0,0 0.142169,-0.0871 0.151694,-0.0928 0.01411,-0.008 0.03422,-0.0212 0.05045,-0.0508 l 1.006475,-1.87607 h 0.326672 l -0.164041,1.8729 c -0.0049,0.036 0.01305,0.0526 0.01764,0.0572 0.01446,0.012 0.08855,0.0896 0.08855,0.0896"
         style="fill:#46ac32;fill-opacity:1;fill-rule:nonzero;stroke:none;stroke-width:0.35277778"
         id="path5174"
         inkscape:connector-curvature="0" />
      <path
         d="m 17.586487,157.14996 h 0.445911 l -0.07479,0.23495 h -0.781755 l 0.603955,-1.88489 c 0.01835,-0.0593 -0.108655,-0.13406 -0.108655,-0.13406 h 0.487539 z"
         style="fill:#46ac32;fill-opacity:1;fill-rule:nonzero;stroke:none;stroke-width:0.35277778"
         id="path5178"
         inkscape:connector-curvature="0" />
      <path
         d="m 21.313937,155.89851 c 0.04445,-0.16369 0.04128,-0.28257 -0.08361,-0.28257 -0.09208,0 -0.173567,0.0832 -0.202142,0.17533 -0.124178,0.38664 0.502356,0.50835 0.307269,1.1123 -0.09596,0.30586 -0.360186,0.526 -0.681566,0.526 -0.318206,0 -0.416984,-0.21097 -0.353131,-0.52353 l 0.355953,-0.10089 c -0.03457,0.15169 -0.05574,0.32985 0.09278,0.32985 0.113241,0 0.207433,-0.1009 0.243063,-0.21097 0.128412,-0.4071 -0.491772,-0.54398 -0.310444,-1.11513 0.0889,-0.27022 0.350308,-0.49918 0.641703,-0.49918 0.28575,0 0.425097,0.17251 0.334433,0.48155 z"
         style="fill:#46ac32;fill-opacity:1;fill-rule:nonzero;stroke:none;stroke-width:0.35277778"
         id="path5182"
         inkscape:connector-curvature="0" />
      <path
         d="m 22.781457,155.65457 -0.223661,0.6985 c 0.19685,-0.0116 0.303036,-0.16334 0.366536,-0.35666 0.06032,-0.18732 0.03775,-0.32702 -0.142875,-0.34184 m -0.316089,0.98989 -0.238478,0.74048 h -0.335844 l 0.604308,-1.88489 c 0.01799,-0.0596 -0.109008,-0.13405 -0.109008,-0.13405 h 0.46108 c 0.421923,0 0.55245,0.23213 0.424745,0.63323 -0.128058,0.39864 -0.39617,0.63359 -0.806803,0.64523"
         style="fill:#46ac32;fill-opacity:1;fill-rule:nonzero;stroke:none;stroke-width:0.35277778"
         id="path5186"
         inkscape:connector-curvature="0" />
      <path
         d="m 24.870748,155.65457 h -0.454731 l -0.174272,0.54716 h 0.451556 l -0.07091,0.22295 h -0.449086 l -0.216252,0.66887 h 0.451908 l -0.09243,0.29139 h -0.788105 l 0.601133,-1.88206 c 0.02152,-0.0653 -0.103011,-0.1397 -0.103011,-0.1397 h 0.936978 z"
         style="fill:#46ac32;fill-opacity:1;fill-rule:nonzero;stroke:none;stroke-width:0.35277778"
         id="path5190"
         inkscape:connector-curvature="0" />
      <path
         d="m 26.534519,155.65457 h -0.454731 l -0.174272,0.54716 h 0.451909 l -0.07161,0.22295 h -0.448734 l -0.216252,0.66887 h 0.451555 l -0.09207,0.29139 H 25.1922 l 0.601133,-1.88206 c 0.02117,-0.0653 -0.103011,-0.1397 -0.103011,-0.1397 H 26.6273 Z"
         style="fill:#46ac32;fill-opacity:1;fill-rule:nonzero;stroke:none;stroke-width:0.35277778"
         id="path5194"
         inkscape:connector-curvature="0" />
      <path
         d="m 27.708704,155.65771 -0.462139,1.43863 c 0.334433,-0.0233 0.507647,-0.43674 0.5969,-0.72214 0.0889,-0.27658 0.170392,-0.69603 -0.134761,-0.71649 m -0.518583,1.7272 h -0.526345 c 0,0 0.179564,-0.0804 0.197556,-0.13688 l 0.603955,-1.88207 h 0.347839 c 0.588786,0 0.513292,0.59196 0.37465,1.02588 -0.128411,0.40146 -0.453672,0.99307 -0.997655,0.99307"
         style="fill:#46ac32;fill-opacity:1;fill-rule:nonzero;stroke:none;stroke-width:0.35277778"
         id="path5198"
         inkscape:connector-curvature="0" />
      <path
         d="m 29.721866,157.38498 h -0.315031 l 0.233892,-1.28729 -0.59055,1.28729 h -0.315383 l 0.296333,-2.02177 h 0.351014 l -0.259997,1.32609 0.610658,-1.32609 h 0.285397 l -0.242711,1.34091 0.547864,-1.20721 c 0.02399,-0.0593 -0.114653,-0.1337 -0.114653,-0.1337 h 0.513998 z"
         style="fill:#46ac32;fill-opacity:1;fill-rule:nonzero;stroke:none;stroke-width:0.35277778"
         id="path5202"
         inkscape:connector-curvature="0" />
      <path
         d="m 31.222653,156.70387 h 0.281517 l 0.08925,-0.72813 z m 0.671689,0.68016 h -0.473781 l 0.05786,-0.47308 h -0.3683 l -0.17392,0.34149 c -0.01693,0.0328 0.0039,0.042 0.0039,0.042 l 0.09102,0.0896 h -0.614186 c 0,0 0.142522,-0.0868 0.151694,-0.0928 0.01588,-0.0102 0.03422,-0.0212 0.05045,-0.0508 l 1.006475,-1.87607 h 0.32632 l -0.163689,1.8729 c -0.0049,0.036 0.01305,0.0526 0.01764,0.0572 0.01729,0.0162 0.08855,0.0896 0.08855,0.0896"
         style="fill:#46ac32;fill-opacity:1;fill-rule:nonzero;stroke:none;stroke-width:0.35277778"
         id="path5206"
         inkscape:connector-curvature="0" />
      <path
         d="m 33.479902,156.04111 c -0.171803,0.27376 -0.321381,0.51717 -0.324556,0.52317 l -0.217663,0.68404 c -0.02046,0.0593 0.112183,0.13652 0.112183,0.13652 h -0.657225 c 0,0 0.188383,-0.0741 0.209197,-0.13652 l 0.217311,-0.68404 c 0.0032,-0.006 0.0042,-0.24659 0.0039,-0.52317 0.0018,-0.26741 0.0021,-0.55598 0.0028,-0.67804 h 0.353483 l -0.04163,0.74048 0.425097,-0.74048 h 0.342194 c -0.07796,0.12206 -0.256469,0.41063 -0.425097,0.67804"
         style="fill:#46ac32;fill-opacity:1;fill-rule:nonzero;stroke:none;stroke-width:0.35277778"
         id="path5210"
         inkscape:connector-curvature="0" />
      <path
         d="m 6.222845,147.77157 c 0.1023056,-0.55139 0.1887361,-1.26224 -0.3383139,-1.26224 -1.0780888,0 -1.7638888,2.32833 -1.9829638,3.00214 -0.2049639,0.63747 -1.0625667,3.21028 -0.045861,3.21028 0.6618111,0 1.1542888,-0.98002 1.4456833,-1.62948 l 1.1878027,0.47801 c -0.6081889,1.32327 -1.5966722,2.41371 -3.0547027,2.41371 -2.3650222,0 -1.4770805,-2.91642 -0.993775,-4.42348 0.4836584,-1.50707 1.5740944,-4.31306 3.8530388,-4.31306 1.2498917,0 1.5571611,0.91898 1.4728472,2.05845 z"
         style="fill:#18468b;fill-opacity:1;fill-rule:nonzero;stroke:none;stroke-width:0.35277778"
         id="path5214"
         inkscape:connector-curvature="0" />
      <path
         d="m 13.555472,145.46801 c 0,0 0.771525,0.30621 0.684389,0.56374 l -2.301522,7.20478 c -0.07832,0.22225 -0.355248,0.30692 -0.6477,0.30692 -0.344664,0 -0.561975,-0.0748 -0.491772,-0.30692 l 2.490258,-7.76852 h -1.396647 l -1.100314,3.45546 H 9.3951638 l 1.1003142,-3.45546 H 8.2701554 c 0,0 0.7503584,0.31856 0.663575,0.57573 l -2.4775582,7.75653 h 1.3846527 l 1.2611805,-3.95782 h 1.3969996 l -1.224844,3.39408 c -0.075142,0.25717 -0.6614583,0.56374 -0.6614583,0.56374 h 4.5215523 l 2.490259,-7.76852 c 0.08608,-0.24518 0.813505,-0.56374 0.813505,-0.56374 z"
         style="fill:#18468b;fill-opacity:1;fill-rule:nonzero;stroke:none;stroke-width:0.35277778"
         id="path5218"
         inkscape:connector-curvature="0" />
      <path
         d="m 0.77697924,145.46801 c 0,0 0.74929996,0.30621 0.66216386,0.56374 l -2.30116938,7.20478 c -0.0786694,0.22331 -0.34678052,0.30304 -0.63923332,0.30304 -0.3287889,0 -0.4406194,-0.09 -0.4910667,-0.24166 l 0.00388,-0.0737 2.48955272,-7.75617 h -0.64946387 l -3.66712495,4.04354 -1.0872611,-4.04354 H -6.59149 c 0,0 0.890411,0.27834 0.8706555,0.5274 l -2.3332722,7.29016 c -0.1534583,0.23636 -0.7888111,0.5147 -0.7888111,0.5147 h 1.9476861 l 1.6400639,-5.10964 0.7672916,2.89172 2.6137305,-2.87972 -1.4499166,4.52155 c -0.1509889,0.30621 -0.8142111,0.57609 -0.8142111,0.57609 h 4.47216376 l 2.48990554,-7.76852 c 0.086431,-0.24518 0.8138583,-0.56374 0.8138583,-0.56374 z"
         style="fill:#18468b;fill-opacity:1;fill-rule:nonzero;stroke:none;stroke-width:0.35277778"
         id="path5222"
         inkscape:connector-curvature="0" />
      <path
         d="m 22.701518,150.99011 h -1.16205 l 1.529644,-3.0039 z m 7.063669,-5.52203 -1.522941,4.74169 -0.670278,-4.74169 h -0.661811 l -2.567164,8.01793 c -0.277636,0.008 -0.330553,-0.007 -0.391583,-0.0455 -0.06421,-0.0409 -0.09984,-0.10195 -0.07973,-0.25047 l 0.67698,-7.72513 h -2.409119 c 0,0 0.844197,0.30622 0.757061,0.56339 l -3.846336,7.17409 c -0.06809,0.12382 -0.173214,0.19191 -0.208844,0.21025 -0.02152,0.0113 -0.140759,0.0639 -0.285045,0.12665 l 1.500364,-4.67713 h -2.573514 l -0.307975,0.96803 h 1.176514 c -0.04904,0.23283 -0.110419,0.46566 -0.183797,0.6985 -0.188736,0.56338 -0.800453,2.18087 -1.60902,2.18087 -0.931333,0 -0.121708,-2.35232 0.05539,-2.92841 0.189441,-0.57573 1.029758,-3.28401 1.936397,-3.28401 0.539044,0 0.455083,0.67416 0.339725,1.23755 l 1.532819,-0.49001 c 0.09701,-1.15182 -0.225778,-2.00942 -1.475316,-2.00942 -2.242256,0 -3.266723,2.94075 -3.721453,4.37444 -0.512233,1.59279 -1.343731,4.3621 0.923219,4.3621 0.575734,0 1.163109,-0.22084 1.6637,-0.64947 l 0.14852,0.47343 c 3.52e-4,0 7.05e-4,-3.5e-4 0.0014,-3.5e-4 -3.53e-4,3.5e-4 -0.0011,3.5e-4 -0.0011,3.5e-4 h 2.966156 l -0.554567,-0.37077 c 0,0 -0.08467,-0.037 -0.01587,-0.17286 l 0.716845,-1.40935 h 1.520119 l -0.237772,1.95228 h 3.210983 l 1.521883,-4.7491 0.66922,4.7491 h 0.66428 l 2.363259,-7.38682 0.120297,-0.37606 c 0.08643,-0.24518 0.889705,-0.56374 0.889705,-0.56374 z"
         style="fill:#18468b;fill-opacity:1;fill-rule:nonzero;stroke:none;stroke-width:0.35277778"
         id="path5226"
         inkscape:connector-curvature="0" />
      <path
         d="m 34.466551,152.80162 h 0.02822 c 0.03986,0 0.06456,-0.002 0.07408,-0.005 0.0095,-0.003 0.01729,-0.008 0.02293,-0.0162 0.0056,-0.008 0.0085,-0.0162 0.0085,-0.0261 0,-0.01 -0.0028,-0.018 -0.0085,-0.0254 -0.0053,-0.007 -0.01305,-0.0127 -0.02293,-0.0159 -0.01023,-0.003 -0.03493,-0.005 -0.07408,-0.005 h -0.02822 z m -0.06914,0.19332 v -0.34008 h 0.06914 c 0.06456,0 0.100894,0 0.109008,7.1e-4 0.02258,0.002 0.04057,0.006 0.05327,0.0134 0.0127,0.007 0.02328,0.0183 0.03175,0.0328 0.0085,0.0148 0.0127,0.031 0.0127,0.0487 0,0.0247 -0.0078,0.0455 -0.02399,0.0631 -0.01588,0.0173 -0.03881,0.0282 -0.06773,0.0325 0.01023,0.004 0.01834,0.008 0.02399,0.0127 0.0056,0.005 0.01341,0.0134 0.02293,0.0261 0.0025,0.003 0.01094,0.0173 0.02505,0.0413 l 0.04022,0.0688 h -0.08537 l -0.02822,-0.055 c -0.0194,-0.0374 -0.03528,-0.0607 -0.04798,-0.0702 -0.01235,-0.01 -0.02822,-0.0145 -0.04762,-0.0145 h -0.01799 v 0.1397 z m 0.145344,-0.42933 c -0.0441,0 -0.08643,0.0109 -0.126647,0.0328 -0.04057,0.0222 -0.07267,0.054 -0.09596,0.0952 -0.02293,0.0413 -0.03493,0.0847 -0.03493,0.12982 0,0.0448 0.01164,0.0875 0.03422,0.12841 0.02293,0.0406 0.05468,0.0727 0.09525,0.0956 0.04057,0.0226 0.08361,0.0342 0.128058,0.0342 0.0448,0 0.08784,-0.0117 0.128411,-0.0342 0.04022,-0.0229 0.07232,-0.055 0.09525,-0.0956 0.02258,-0.0409 0.03422,-0.0836 0.03422,-0.12841 0,-0.0452 -0.01164,-0.0885 -0.03493,-0.12982 -0.02328,-0.0413 -0.05539,-0.073 -0.09596,-0.0952 -0.04057,-0.0219 -0.0829,-0.0328 -0.127,-0.0328 m -3.53e-4,-0.0628 c 0.05503,0 0.107597,0.0138 0.158045,0.0413 0.05045,0.0275 0.09031,0.0667 0.119239,0.11818 0.02857,0.0512 0.04339,0.10513 0.04339,0.16122 0,0.0557 -0.01446,0.10901 -0.04269,0.15946 -0.02822,0.0508 -0.06773,0.0903 -0.118533,0.11853 -0.05045,0.0282 -0.103717,0.0423 -0.159456,0.0423 -0.05574,0 -0.109008,-0.0141 -0.159808,-0.0423 -0.05045,-0.0282 -0.08996,-0.0677 -0.118181,-0.11853 -0.02858,-0.0504 -0.04269,-0.10372 -0.04269,-0.15946 0,-0.0561 0.01446,-0.11006 0.04339,-0.16122 0.02893,-0.0515 0.06844,-0.0907 0.118886,-0.11818 0.0508,-0.0275 0.103364,-0.0413 0.158397,-0.0413"
         style="fill:#18468b;fill-opacity:1;fill-rule:nonzero;stroke:none;stroke-width:0.35277778"
         id="path5230"
         inkscape:connector-curvature="0" />
    </g>
  </g>
</svg>
