<?xml version="1.0" standalone="no"?>
<!DOCTYPE svg PUBLIC "-//W3C//DTD SVG 20010904//EN"
 "http://www.w3.org/TR/2001/REC-SVG-20010904/DTD/svg10.dtd">
<svg version="1.0" xmlns="http://www.w3.org/2000/svg"
 width="900.000000pt" height="543.000000pt" viewBox="0 0 900.000000 543.000000"
 preserveAspectRatio="xMidYMid meet">
<metadata>
Created by potrace 1.16, written by Peter Selinger 2001-2019
</metadata>
<g transform="translate(0.000000,543.000000) scale(0.100000,-0.100000)"
fill="#000000" stroke="none">
<path d="M5750 4470 c-1482 -418 -2696 -760 -2697 -760 -2 0 -3 22 -3 49 0 84
-34 71 -39 -14 -1 -22 -5 -43 -9 -46 -4 -3 -637 -183 -1407 -399 -770 -216
-1408 -397 -1417 -402 -10 -5 -18 -19 -18 -32 0 -23 118 -415 139 -463 12 -25
49 -27 73 -3 16 17 1305 396 1314 387 3 -3 102 -346 220 -764 118 -417 219
-768 224 -780 11 -26 45 -30 69 -9 9 8 180 64 381 125 l364 110 203 -132 c111
-72 204 -140 207 -149 2 -11 14 -18 30 -18 19 0 2179 598 2694 746 37 10 56
22 62 37 7 16 8 12 4 -18 -4 -30 -2 -44 10 -54 35 -29 95 19 67 53 -6 8 -9 21
-5 30 14 36 -45 64 -64 30 -6 -11 -11 -13 -16 -5 -4 6 -16 11 -26 11 -21 0
-16 -15 -124 350 -30 102 -56 194 -58 204 -2 17 9 23 77 43 44 13 89 25 100
28 11 2 144 40 295 85 151 44 282 82 290 84 20 4 88 22 185 52 216 64 358 106
547 160 124 35 208 64 208 71 0 7 17 42 38 79 20 36 52 93 70 127 19 34 49 89
67 123 l34 60 463 133 c255 74 471 138 481 143 19 10 19 54 0 66 -15 9 -283
1326 -280 1377 2 38 0 40 -28 42 -16 1 -1243 -339 -2725 -757z m2810 -17 c74
-359 131 -655 129 -657 -4 -4 -1434 -416 -1443 -416 -3 0 -6 32 -6 71 0 62 -2
70 -17 67 -15 -3 -18 -16 -21 -78 l-3 -75 -692 -199 c-381 -110 -708 -202
-727 -206 -28 -4 -36 -10 -38 -30 -1 -14 58 -232 133 -484 74 -253 133 -462
130 -464 -6 -7 -2566 -722 -2583 -722 -6 0 -111 65 -233 145 -121 80 -228 145
-238 145 -10 0 -181 -50 -380 -110 -199 -60 -367 -110 -374 -110 -7 0 -90 276
-221 743 -115 408 -215 757 -222 775 -10 23 -19 32 -37 32 -13 0 -324 -88
-692 -195 -367 -107 -669 -194 -670 -193 -8 9 -106 340 -102 344 5 5 2734 774
2748 774 5 0 9 -22 9 -49 0 -59 7 -81 26 -81 11 0 14 17 14 73 l0 73 2643 744
c1453 409 2660 748 2682 755 34 10 41 9 46 -4 4 -9 66 -310 139 -668z m-787
-1068 c-21 -37 -64 -117 -96 -179 -32 -61 -62 -114 -66 -118 -4 -5 -133 -44
-286 -88 -619 -179 -1388 -402 -1399 -406 -7 -3 -17 14 -25 43 -44 157 -68
253 -65 253 2 0 1130 323 1346 386 14 4 17 -3 20 -38 2 -31 8 -44 21 -46 14
-3 17 4 17 50 l0 53 283 81 c155 44 284 79 285 78 2 -1 -13 -33 -35 -69z"/>
<path d="M7020 3444 c-14 -2 -69 -6 -122 -9 -96 -7 -98 -7 -92 -30 5 -20 0
-24 -45 -35 -52 -12 -67 -23 -56 -39 3 -6 22 -4 47 5 54 19 69 18 75 -6 3 -11
6 -20 7 -20 6 0 232 123 241 131 9 9 -1 9 -55 3z"/>
<path d="M4010 2228 c-97 -45 -95 -39 -48 -131 22 -45 42 -83 43 -85 2 -2 41
16 88 40 l85 43 -38 83 c-22 45 -45 82 -52 81 -7 0 -42 -14 -78 -31z m115 -48
c19 -38 35 -74 35 -78 0 -9 -131 -72 -148 -72 -6 0 -36 61 -70 142 -3 6 123
76 140 78 4 0 24 -31 43 -70z"/>
<path d="M3429 2129 c-23 -40 -42 -79 -43 -87 -1 -14 127 -101 149 -101 6 0
31 35 57 79 33 57 43 81 35 88 -7 5 -34 21 -62 37 -27 16 -60 35 -72 42 -20
14 -23 11 -64 -58z m123 10 c38 -22 68 -44 66 -47 -11 -24 -80 -142 -84 -142
-3 0 -135 79 -142 85 -5 5 79 145 86 145 3 0 37 -18 74 -41z"/>
<path d="M3725 2081 c-41 -25 -60 -49 -74 -93 -33 -101 44 -198 156 -198 151
0 210 200 84 286 -45 30 -121 33 -166 5z m153 -18 c112 -71 60 -256 -71 -256
-58 0 -103 26 -127 73 -25 49 -25 81 -1 128 38 74 130 99 199 55z"/>
<path d="M3993 1814 c-24 -73 -25 -86 -13 -94 20 -13 163 -61 167 -56 12 12
60 177 52 181 -15 10 -152 55 -165 55 -7 0 -25 -38 -41 -86z m130 47 c37 -13
67 -26 67 -30 0 -14 -43 -136 -50 -145 -8 -8 -136 28 -152 43 -12 10 42 163
56 158 6 -2 41 -14 79 -26z"/>
<path d="M3486 1803 c-69 -75 -70 -70 21 -150 l61 -53 63 71 63 71 -66 64
c-36 35 -70 64 -74 63 -5 0 -36 -30 -68 -66z m187 -53 c9 -8 -101 -132 -113
-128 -5 2 -34 27 -64 56 l-57 54 57 64 56 65 57 -52 c31 -29 60 -56 64 -59z"/>
<path d="M3799 1732 c-8 -15 -30 -53 -48 -84 l-32 -58 100 0 100 0 -45 78
c-58 98 -56 96 -75 64z"/>
<path d="M2675 3738 c-124 -67 -145 -83 -100 -75 17 3 81 9 142 13 111 6 113
7 107 29 -5 20 0 24 46 36 46 12 71 31 58 44 -2 2 -26 -2 -53 -11 -54 -16 -75
-13 -75 11 0 8 -3 15 -7 14 -5 0 -57 -28 -118 -61z"/>
<path d="M8196 2075 c-21 -66 -42 -133 -47 -149 -15 -47 -12 -48 43 -17 l51
30 48 -25 c27 -13 51 -24 53 -24 5 0 -13 49 -79 220 l-32 85 -37 -120z"/>
</g>
</svg>
